<?xml version="1.0" encoding="utf-8"?>
<!-- Generator: Adobe Illustrator 22.0.1, SVG Export Plug-In . SVG Version: 6.00 Build 0)  -->
<svg version="1.1" id="ICONS" xmlns="http://www.w3.org/2000/svg" x="0px"
     y="0px"
     viewBox="0 0 60 60" style="enable-background:new 0 0 60 60;" xml:space="preserve">
<g>
	<path d="M40.678,51.416H8.58V19.317h11.399l1.2,2.04h-10.5v28.019h27.899V35.037l2.1,0.78V51.416z M44.038,35.037
		c-2.76-0.9-5.459-2.1-7.619-3.24c-2.16,1.14-4.86,2.34-7.62,3.24l-1.14-0.78c0.18-3.36,0.3-4.62,0.84-8.04
		c-1.74-1.62-3.96-4.02-5.46-6l0.42-1.5c2.88-0.96,5.76-1.74,7.86-2.16c1.26-2.16,2.159-3.54,4.319-6.479h1.561
		c2.22,3.06,3.119,4.439,4.319,6.479c2.22,0.42,5.04,1.2,7.859,2.16l0.42,1.5c-1.56,2.04-3.84,4.5-5.459,6
		c0.54,3.48,0.659,4.74,0.84,8.04L44.038,35.037z M29.758,32.577c2.4-0.84,4.26-1.68,6.66-3c2.399,1.32,4.26,2.16,6.659,3
		c-0.239-3.18-0.359-4.26-0.96-7.02c1.98-1.74,3.42-3.3,5.101-5.399c-2.34-0.78-4.62-1.38-6.96-1.8c-1.44-2.58-2.64-4.38-3.84-6
		c-1.2,1.62-2.4,3.42-3.84,6c-2.34,0.42-4.62,1.02-6.96,1.8c1.68,2.1,3.12,3.66,5.1,5.399
		C30.119,28.317,29.998,29.397,29.758,32.577z"/>
</g>
</svg>
