<?xml version="1.0" encoding="utf-8"?>
<!-- Generator: Adobe Illustrator 22.0.1, SVG Export Plug-In . SVG Version: 6.00 Build 0)  -->
<svg version="1.1" id="ICONS" xmlns="http://www.w3.org/2000/svg" x="0px"
     y="0px"
     viewBox="0 0 60 60" style="enable-background:new 0 0 60 60;" xml:space="preserve">
<g>
	<path d="M7.38,21.476h10.079l-1.56,2.041H7.38V21.476z M8.58,25.736h6l-1.32,2.041H8.58V25.736z M9.539,30.056h3.36v2.04h-3.36
		V30.056z M14.94,32.755c0-2.939,0.18-3.359,3.119-6.839c3-3.601,4.44-4.44,7.62-4.44h7.62c3.359,0,5.22,0.601,7.979,2.461
		l4.56,3.42l2.939,0.719c3.181,0.721,4.681,2.58,4.681,5.641c0,1.5-0.42,2.819-1.2,3.899l-1.68-1.2
		c0.6-0.899,0.779-1.56,0.779-2.699c0-2.1-1.08-3.24-3.779-3.9l-2.94-0.72l-4.439-3.36c-2.16-1.619-4.02-2.219-6.899-2.219h-7.62
		c-2.46,0-3.359,0.6-6.12,3.899c-2.34,2.88-2.52,3.18-2.52,5.64v1.26c0,0.9,0.18,1.439,0.72,1.98l-1.439,1.319
		c-0.96-0.84-1.38-1.86-1.38-3.3V32.755z M40.678,36.415c0-2.52,1.74-4.199,4.26-4.199c2.58,0,4.261,1.68,4.261,4.199
		c0,2.521-1.74,4.2-4.261,4.2c-1.739,0-3.119-0.84-3.779-2.16H27.299c-0.66,1.32-2.04,2.16-3.78,2.16c-2.52,0-4.26-1.739-4.26-4.2
		c0-2.52,1.74-4.199,4.26-4.199c2.58,0,4.26,1.68,4.26,4.199H40.678z M23.519,34.196c-1.38,0-2.279,0.841-2.279,2.22
		c0,1.32,0.899,2.221,2.279,2.221s2.28-0.84,2.28-2.221C25.799,35.037,24.959,34.196,23.519,34.196z M44.938,34.196
		c-1.38,0-2.279,0.841-2.279,2.22c0,1.32,0.899,2.221,2.279,2.221c1.381,0,2.28-0.84,2.28-2.221
		C47.218,35.037,46.378,34.196,44.938,34.196z"/>
</g>
</svg>
