<?xml version="1.0" encoding="utf-8"?>
<!-- Generator: Adobe Illustrator 22.0.1, SVG Export Plug-In . SVG Version: 6.00 Build 0)  -->
<svg version="1.1" id="ICONS" xmlns="http://www.w3.org/2000/svg" x="0px"
     y="0px"
     viewBox="0 0 60 60" style="enable-background:new 0 0 60 60;" xml:space="preserve">
<g>
	<path d="M12.72,37.915c1.319-1.8,2.22-3.24,3.72-5.76l1.619,0.961c-2.159,3.239-3.72,5.398-5.459,7.619h-1.62
		c-1.8-2.221-3.3-4.32-5.46-7.619l1.62-0.961c1.5,2.52,2.399,3.96,3.72,5.76l-0.12-14.339l0.12-14.34c-1.32,1.8-2.22,3.24-3.72,5.76
		l-1.62-0.96c2.16-3.3,3.66-5.399,5.46-7.619h1.62c1.739,2.22,3.3,4.379,5.459,7.619l-1.619,0.96c-1.5-2.52-2.4-3.96-3.72-5.76
		l0.119,14.34L12.72,37.915z M29.819,20.097c-0.899-1.92-2.52-3-4.739-3c-3.181,0-5.7,2.219-5.7,5.039c0,0.96,0.18,1.92,0.54,2.7
		l1.32,2.819l-1.8,0.9l-1.44-3.06c-0.479-1.021-0.72-2.101-0.72-3.36c0-3.899,3.479-7.08,7.8-7.08c2.819,0,5.34,1.621,6.6,4.26
		l1.38,2.881l-1.86,0.84L29.819,20.097z M49.619,32.936c1.92,3.96,2.64,6.479,2.64,8.88c0,0.779-0.18,1.8-0.54,3.24l-0.48,1.619
		l1.801,3.9l-1.92,0.959l-2.16-4.619l0.6-1.92c0.36-1.439,0.48-2.4,0.48-3.3c0-2.16-0.601-4.26-1.92-7.08l-2.16-4.439
		c-0.42-0.899-0.9-1.261-1.62-1.261c-0.66,0-1.2,0.361-1.62,1.08h-1.859c-0.42-0.719-0.96-1.08-1.74-1.08s-1.32,0.361-1.74,1.08
		h-1.859c-0.42-0.719-1.021-1.08-1.86-1.08s-1.439,0.361-1.859,1.08h-1.86l-3.66-7.739c-0.3-0.659-0.72-1.021-1.319-1.021
		c-0.78,0-1.44,0.541-1.44,1.261c0,0.3,0.061,0.54,0.24,0.899l8.819,19.14l-1.859,0.84l-6.3-4.499
		c-0.3-0.301-0.66-0.421-1.021-0.421c-0.779,0-1.319,0.48-1.319,1.32c0,0.6,0.24,0.96,1.02,1.56l13.8,10.32l2.46,5.34l-1.86,0.84
		l-2.34-4.92L21.66,42.776c-1.021-0.72-1.681-1.92-1.681-2.94c0-1.859,1.5-3.42,3.36-3.42c0.84,0,1.68,0.301,2.52,0.961l3.12,2.34
		l-7.14-15.42c-0.3-0.6-0.42-1.141-0.42-1.74c0-1.8,1.56-3.3,3.42-3.3c1.439,0,2.76,0.841,3.359,2.101l3,6.539
		c0.66-0.66,1.5-1.02,2.46-1.02c1.141,0,2.16,0.48,2.76,1.38c0.66-0.899,1.62-1.38,2.7-1.38c1.02,0,1.92,0.42,2.58,1.26
		c0.66-0.84,1.68-1.26,2.76-1.26c1.439,0,2.64,0.9,3.479,2.64L49.619,32.936z"/>
</g>
</svg>
