<?xml version="1.0" encoding="utf-8"?>
<!-- Generator: Adobe Illustrator 22.0.1, SVG Export Plug-In . SVG Version: 6.00 Build 0)  -->
<svg version="1.1" id="ICONS" xmlns="http://www.w3.org/2000/svg" x="0px"
	 y="0px"
	 viewBox="0 0 60 60" style="enable-background:new 0 0 60 60;" xml:space="preserve">
<g>
	<path d="M8.58,21.416h38.519v23.519H8.58V21.416z M44.998,42.896V23.456H10.68v19.439H44.998z M51.418,17.157v23.579h-2.101V19.197
		H12.78v-2.04H51.418z M17.099,27.777H12.9v-2.041h4.199V27.777z M17.099,40.616H12.9v-2.04h4.199V40.616z M23.999,36.236h-2.521
		v-1.859h2.28c-0.06-0.36-0.06-0.78-0.06-1.2c0-0.421,0-0.841,0.06-1.2h-2.28v-1.859h2.521c0.66-2.94,2.46-4.381,5.399-4.381
		c0.78,0,1.68,0.181,2.7,0.48v1.859c-1.021-0.359-1.68-0.479-2.7-0.479c-1.8,0-2.88,0.78-3.42,2.521h4.38l-0.06,1.859h-4.62
		c-0.06,0.359-0.06,0.779-0.06,1.2c0,0.42,0,0.84,0.06,1.2h4.32l-0.061,1.859h-3.96c0.54,1.74,1.68,2.58,3.48,2.58
		c0.659,0,1.199-0.061,2.64-0.36v1.86c-0.72,0.24-1.68,0.359-2.64,0.359C26.459,40.675,24.66,39.236,23.999,36.236z M42.838,27.777
		h-4.199v-2.041h4.199V27.777z M42.838,40.616h-4.199v-2.04h4.199V40.616z"/>
</g>
</svg>
