<?xml version="1.0" encoding="utf-8"?>
<!-- Generator: Adobe Illustrator 22.0.1, SVG Export Plug-In . SVG Version: 6.00 Build 0)  -->
<svg version="1.1" id="ICONS" xmlns="http://www.w3.org/2000/svg" x="0px"
     y="0px"
     viewBox="0 0 60 60" style="enable-background:new 0 0 60 60;" xml:space="preserve">
<g>
	<path d="M26.401,14.997c2.46,0,4.14,1.021,5.34,3.3c1.5,2.88,2.52,7.62,2.52,11.699c0,4.32-0.96,8.881-2.52,11.641
		c-1.2,2.279-2.88,3.359-5.34,3.359c-10.14,0-17.819-6.48-17.819-15S16.261,14.997,26.401,14.997z M26.04,42.835
		c1.8,0,2.88-0.6,3.72-2.1c1.32-2.34,2.34-7.02,2.34-10.74c0-3.6-1.02-8.279-2.34-10.739c-0.84-1.499-1.92-2.1-3.72-2.1
		c-8.64,0-15.299,5.579-15.299,12.839S17.401,42.835,26.04,42.835z M39.24,23.156l5.34,5.34l5.34-5.34l1.5,1.5l-5.34,5.34l5.34,5.4
		l-1.5,1.5l-5.34-5.34l-5.34,5.34l-1.5-1.5l5.34-5.4l-5.34-5.34L39.24,23.156z"/>
</g>
</svg>
