<?xml version="1.0" encoding="utf-8"?>
<!-- Generator: Adobe Illustrator 22.0.1, SVG Export Plug-In . SVG Version: 6.00 Build 0)  -->
<svg version="1.1" id="ICONS" xmlns="http://www.w3.org/2000/svg" x="0px"
     y="0px"
     viewBox="0 0 60 60" style="enable-background:new 0 0 60 60;" xml:space="preserve">
<g>
	<path d="M10.74,37.016c0-2.94,0.18-3.36,3.12-6.84c3-3.601,4.439-4.44,7.619-4.44h7.62c2.7,0,4.56,0.541,7.979,2.461l4.56,3.42
		l2.94,0.719c3.18,0.721,4.68,2.58,4.68,5.641c0,1.5-0.42,2.82-1.2,3.899l-1.68-1.2c0.6-0.899,0.78-1.56,0.78-2.699
		c0-2.1-1.08-3.24-3.78-3.9l-2.939-0.72l-4.44-3.36c-2.159-1.619-4.02-2.219-6.899-2.219h-7.62c-2.46,0-3.359,0.6-6.119,3.899
		c-2.4,2.939-2.521,3.239-2.521,5.64v1.26c0,0.9,0.181,1.439,0.721,1.98l-1.44,1.319c-0.96-0.84-1.38-1.86-1.38-3.3V37.016z
		 M36.479,40.675c0-2.52,1.739-4.199,4.26-4.199c2.58,0,4.26,1.68,4.26,4.199c0,2.521-1.74,4.2-4.26,4.2
		c-1.74,0-3.12-0.84-3.78-2.159H23.099c-0.66,1.319-2.04,2.159-3.779,2.159c-2.521,0-4.26-1.739-4.26-4.2
		c0-2.52,1.739-4.199,4.26-4.199c2.579,0,4.26,1.68,4.26,4.199H36.479z M19.32,38.456c-1.38,0-2.28,0.841-2.28,2.22
		c0,1.32,0.9,2.221,2.28,2.221s2.279-0.84,2.279-2.221C21.599,39.296,20.759,38.456,19.32,38.456z M49.258,29.037l-10.619-8.52
		c-0.301,0.84-0.54,1.5-0.841,2.159l-1.26,0.181c-0.479-0.48-0.899-0.961-2.279-2.641c-1.08,0.12-1.92,0.18-3.48,0.24l-0.54-1.08
		c0.601-1.199,1.2-2.22,1.86-3.18c-0.72-1.5-1.021-2.279-1.32-3.48l0.72-0.779c1.32,0.24,2.46,0.54,3.601,0.96
		c1.02-0.96,1.5-1.32,2.939-2.22l1.08,0.479c0.12,0.9,0.12,1.38,0.12,3.479c1.32,0.78,1.92,1.201,2.88,2.041l-0.12,1.26
		c-0.6,0.359-1.32,0.66-2.1,1.02l10.56,8.52L49.258,29.037z M40.138,17.157c-0.779-0.66-1.68-1.2-2.399-1.56
		c0.06-0.961,0.06-2.16,0-2.881c-0.78,0.48-1.56,1.141-2.28,1.86c-0.779-0.3-1.8-0.6-2.699-0.78c0.3,0.961,0.72,1.92,1.08,2.58
		c-0.66,0.84-1.2,1.68-1.62,2.52c1.199,0,2.1-0.06,2.939-0.239c0.24,0.42,0.84,1.2,1.68,2.1c0.42-0.96,0.601-1.5,0.9-2.52
		C38.819,17.817,39.359,17.577,40.138,17.157z M40.739,38.456c-1.38,0-2.28,0.841-2.28,2.22c0,1.32,0.9,2.221,2.28,2.221
		s2.279-0.84,2.279-2.221C43.018,39.296,42.178,38.456,40.739,38.456z"/>
</g>
</svg>
