<?xml version="1.0" encoding="utf-8"?>
<!-- Generator: Adobe Illustrator 22.0.1, SVG Export Plug-In . SVG Version: 6.00 Build 0)  -->
<svg version="1.1" id="ICONS" xmlns="http://www.w3.org/2000/svg" x="0px"
	 y="0px"
	 viewBox="0 0 60 60" style="enable-background:new 0 0 60 60;" xml:space="preserve">
<g>
	<path d="M13.981,46.976l1.38-1.44c1.38-1.44,1.561-1.979,1.141-3.36l-0.421-1.319c-0.84-2.64-0.18-4.62,2.4-7.38l1.14-1.26
		l-3.06-3.061L35.04,10.796l3,3l5.22-5.219c1.619,0.239,3.479,0.659,5.579,1.26l0.48,1.619l-6.78,6.78l3.061,3.12L27.121,39.716
		l-3.18-3.181l-1.2,1.32c-0.66,0.659-0.66,1.38-0.18,2.88l0.239,0.72c1.08,3.12,0,5.64-4.26,9.96L13.981,46.976z M18.481,48.476
		c2.46-2.461,3.06-4.381,2.22-6.78l-0.42-1.2c-0.6-1.68-0.36-2.64,1.021-4.08l1.199-1.319l-1.38-1.38l-1.38,1.38
		c-1.979,2.1-2.46,3.479-1.8,5.159l0.42,1.141c0.84,2.22,0.48,3.539-1.439,5.52L18.481,48.476z M42.66,21.296l-7.619-7.619
		l-15.42,15.479l7.56,7.561L42.66,21.296z M41.039,16.796l5.521-5.459c-0.78-0.301-1.62-0.48-2.58-0.66l-4.5,4.5L41.039,16.796z"/>
</g>
</svg>
