<?xml version="1.0" encoding="utf-8"?>
<!-- Generator: Adobe Illustrator 22.0.1, SVG Export Plug-In . SVG Version: 6.00 Build 0)  -->
<svg version="1.1" id="ICONS" xmlns="http://www.w3.org/2000/svg" x="0px"
     y="0px"
     viewBox="0 0 60 60" style="enable-background:new 0 0 60 60;" xml:space="preserve">
<g>
	<path d="M23.519,29.456c0,0.54,0.18,1.2,0.479,1.98l-5.939,5.939c-0.6,0.6-0.9,1.38-0.9,2.28c0,1.739,1.44,3.18,3.181,3.18
		c0.84,0,1.619-0.3,2.22-0.9l8.939-8.939c0.54-0.54,0.84-1.38,0.84-2.22s-0.3-1.56-0.899-2.16l-0.78-0.779l1.5-1.5l0.779,0.779
		c1.08,1.08,1.681,2.4,1.681,3.601c0,1.38-0.48,2.64-1.32,3.539l-9.18,9.18c-1.02,1.021-2.34,1.561-3.779,1.561
		c-2.94,0-5.34-2.4-5.34-5.4c0-1.439,0.54-2.76,1.5-3.72l7.02-7.079V29.456z M36.478,30.537c0-0.84-0.18-1.439-0.54-1.92l6-6
		c0.6-0.6,0.9-1.38,0.9-2.279c0-1.74-1.44-3.24-3.181-3.24c-0.84,0-1.619,0.36-2.22,0.96l-8.64,8.64
		c-0.84,0.84-1.319,1.74-1.319,2.46s0.359,1.44,1.199,2.28l0.601,0.6l-1.5,1.5l-0.601-0.6c-1.26-1.26-1.859-2.521-1.859-3.84
		c0-1.44,0.54-2.58,1.859-3.9l8.64-8.64c1.021-1.02,2.341-1.56,3.84-1.56c2.94,0,5.4,2.52,5.4,5.46c0,1.319-0.54,2.58-1.62,3.659
		l-6.96,6.96V30.537z"/>
</g>
</svg>
