<?xml version="1.0" encoding="utf-8"?>
<!-- Generator: Adobe Illustrator 22.0.1, SVG Export Plug-In . SVG Version: 6.00 Build 0)  -->
<svg version="1.1" id="ICONS" xmlns="http://www.w3.org/2000/svg" x="0px"
     y="0px"
     viewBox="0 0 60 60" style="enable-background:new 0 0 60 60;" xml:space="preserve">
<g>
	<path d="M40.798,38.636c3.779,0,6.359-2.4,6.359-5.881c0-3.899-2.819-5.999-8.039-5.999c0-6.42-3.12-9.659-9.36-9.659
		c-6.42,0-9.479,3.359-9.479,10.499c-4.56,0-7.44,2.16-7.44,5.64c0,3.18,2.46,5.4,6.06,5.4h5.219l-0.66,2.1h-4.559
		c-4.74,0-8.16-3.12-8.16-7.5c0-4.08,2.88-7.02,7.5-7.56c0.42-6.78,4.62-10.62,11.519-10.62c6.66,0,10.979,3.66,11.399,9.721
		c5.04,0.299,8.1,3.299,8.1,7.979c0,4.801-3.359,7.98-8.52,7.98h-5.1l0.84-2.1H40.798z M29.638,48.055l1.021-7.319h-5.04l3.06-9.479
		h2.521l-2.46,7.38h5.58l-3.721,9.419H29.638z"/>
</g>
</svg>
