<?xml version="1.0" encoding="utf-8"?>
<!-- Generator: Adobe Illustrator 22.0.1, SVG Export Plug-In . SVG Version: 6.00 Build 0)  -->
<svg version="1.1" id="ICONS" xmlns="http://www.w3.org/2000/svg" x="0px"
	 y="0px"
	 viewBox="0 0 60 60" style="enable-background:new 0 0 60 60;" xml:space="preserve">
<g>
	<path d="M13.499,28.197c0.239-0.84,0.6-1.681,1.02-2.4c-0.72-1.74-1.08-2.76-1.08-4.199c0-1.44,0.601-2.461,2.22-2.461
		c1.62,0,3.181,0.601,4.44,1.2c1.319-0.659,2.88-1.14,4.56-1.44c0.18-2.999,2.34-4.919,5.34-4.919c3.06,0,5.16,1.979,5.34,4.919
		c5.34,1.141,8.88,3.961,10.56,8.04h0.24c1.439,0,2.399-0.899,2.399-2.28c0-1.379-0.96-2.279-2.52-2.279v-2.04
		c2.76,0,4.62,1.74,4.62,4.319c0,2.461-1.681,4.141-4.08,4.32c0.359,1.32,0.54,2.82,0.54,4.38c0,4.8-1.681,8.76-4.92,11.34
		c0.42,0.78,0.6,1.68,0.6,2.28c0,2.219-4.14,3.42-6.359,3.42c-1.5,0-2.4-1.201-2.88-2.341c-1.14,0.181-2.34,0.24-3.6,0.24
		c-1.2,0-2.4-0.06-3.48-0.181c-0.6,1.201-1.439,2.281-2.88,2.281c-2.22,0-6.359-1.201-6.359-3.42c0-0.601,0.18-1.44,0.54-2.221
		c-2.04-1.619-3.48-3.72-4.26-6.24c-4.08-0.719-4.92-2.159-4.92-5.159S9.419,28.915,13.499,28.197z M24.298,25.736l-0.539-1.859
		c0.72-0.3,1.499-0.54,2.279-0.721c-0.54-0.6-0.96-1.379-1.2-2.279c-1.859,0.359-3.359,1.02-4.8,1.8
		c-1.619-0.96-3.18-1.44-3.959-1.44c-0.36,0-0.601,0.301-0.601,0.841c0,0.96,0.3,1.8,1.32,3.84c-0.9,1.319-1.26,2.34-1.62,4.2
		c-3.84,0.539-4.5,0.959-4.5,3.239c0,2.22,0.66,2.7,4.5,3.239c0.66,3.24,2.28,5.7,5.04,7.381c-0.48,0.84-0.96,1.799-0.96,2.459
		c0,1.08,2.88,1.92,4.199,1.92c0.96,0,1.44-1.319,1.86-2.52c1.439,0.3,2.939,0.42,4.62,0.42c1.739,0,3.3-0.12,4.739-0.42
		c0.42,1.2,0.9,2.52,1.86,2.52c1.319,0,4.199-0.84,4.199-1.92c0-0.66-0.479-1.619-0.96-2.459c3.48-2.221,5.22-5.94,5.22-10.62
		c0-6.54-3.3-10.979-9.899-12.359c-0.24,0.84-0.6,1.56-1.2,2.159c0.841,0.181,1.561,0.421,2.341,0.721l-0.54,1.859
		c-1.681-0.66-3.601-1.08-5.7-1.08S25.979,25.076,24.298,25.736z M29.998,22.617c1.979,0,3.24-1.26,3.24-3.301
		c0-2.039-1.261-3.299-3.24-3.299c-2.04,0-3.24,1.26-3.24,3.299C26.758,21.357,27.958,22.617,29.998,22.617z"/>
</g>
</svg>
