<?xml version="1.0" encoding="utf-8"?>
<!-- Generator: Adobe Illustrator 22.0.1, SVG Export Plug-In . SVG Version: 6.00 Build 0)  -->
<svg version="1.1" id="ICONS" xmlns="http://www.w3.org/2000/svg" x="0px"
	 y="0px"
	 viewBox="0 0 60 60" style="enable-background:new 0 0 60 60;" xml:space="preserve">
<g>
	<path d="M43.018,37.376c0-1.32-0.899-2.221-2.279-2.221s-2.28,0.9-2.28,2.221v1.139H21.599v-1.139c0-1.32-0.899-2.221-2.279-2.221
		s-2.28,0.9-2.28,2.221v1.139h-2.28c-2.34,0-4.02-1.799-4.02-4.199v-1.561c0-2.939,0.18-3.359,3.12-6.839
		c3-3.601,4.439-4.44,7.619-4.44h7.62c3.18,0,5.04,0.601,7.979,2.461l4.56,3.42l2.94,0.719c3.18,0.721,4.68,2.58,4.68,5.641
		c0,3-1.44,4.799-3.84,4.799h-2.4V37.376z M23.459,36.476h13.14c0.359-1.92,1.979-3.3,4.14-3.3s3.779,1.38,4.14,3.3
		c1.8,0,2.28-0.6,2.28-2.76c0-2.1-1.08-3.24-3.78-3.9l-2.939-0.72l-4.44-3.36c-2.159-1.619-4.02-2.219-6.899-2.219h-7.62
		c-2.46,0-3.359,0.6-6.119,3.899c-2.4,2.939-2.521,3.239-2.521,5.64v1.26c0,1.32,0.721,2.16,1.86,2.16h0.479
		c0.36-1.92,1.98-3.3,4.141-3.3C21.479,33.176,23.099,34.556,23.459,36.476z"/>
</g>
</svg>
