<?xml version="1.0" encoding="utf-8"?>
<!-- Generator: Adobe Illustrator 22.0.1, SVG Export Plug-In . SVG Version: 6.00 Build 0)  -->
<svg version="1.1" id="ICONS" xmlns="http://www.w3.org/2000/svg" x="0px"
     y="0px"
     viewBox="0 0 60 60" style="enable-background:new 0 0 60 60;" xml:space="preserve">
<g>
	<path d="M18.899,36.415c-4.74,0-8.16-3.119-8.16-7.5c0-4.079,2.88-7.02,7.5-7.559c0.42-6.78,4.62-10.62,11.52-10.62
		c6.66,0,10.979,3.66,11.399,9.72c5.04,0.3,8.1,3.3,8.1,7.979c0,4.8-3.36,7.979-8.52,7.979H18.899z M47.158,28.436
		c0-3.899-2.82-5.999-8.04-5.999c0-6.42-3.12-9.66-9.36-9.66c-6.42,0-9.479,3.359-9.479,10.5c-4.56,0-7.44,2.16-7.44,5.639
		c0,3.181,2.46,5.4,6.06,5.4h21.899C44.578,34.316,47.158,31.915,47.158,28.436z M22.079,38.576l2.1,0.42l-1.92,8.64l-2.1-0.42
		L22.079,38.576z M28.859,38.576l2.1,0.42l-2.76,12.539l-2.1-0.42L28.859,38.576z M35.699,38.576l2.1,0.42l-1.92,8.64l-2.1-0.42
		L35.699,38.576z"/>
</g>
</svg>
