<?xml version="1.0" encoding="utf-8"?>
<!-- Generator: Adobe Illustrator 22.0.1, SVG Export Plug-In . SVG Version: 6.00 Build 0)  -->
<svg version="1.1" id="ICONS" xmlns="http://www.w3.org/2000/svg" x="0px"
     y="0px"
     viewBox="0 0 60 60" style="enable-background:new 0 0 60 60;" xml:space="preserve">
<g>
	<path d="M19.8,41.697h-2.699v3.359h-2.1v-3.359h-7.26v-1.801c1.739-4.199,3.959-8.159,6.539-11.939h2.82v11.7H19.8V41.697z
		 M22.5,48.176c2.22,0.78,4.739,1.2,7.499,1.2c11.82,0,19.439-7.62,19.439-19.38c0-11.819-7.559-19.379-19.439-19.379
		c-7.439,0-13.318,3-16.619,8.34c2.041-0.9,3.84-1.68,6.12-2.82l0.841,1.68c-3.121,1.44-5.101,2.28-8.4,3.601l-1.561-0.721
		c-0.479-4.14-0.6-6.119-0.6-8.939h1.86c0,2.7,0.06,4.2,0.18,5.94c3.601-5.88,10.079-9.12,18.179-9.12
		c13.141,0,21.54,8.399,21.54,21.419s-8.46,21.419-21.54,21.419c-2.999,0-5.699-0.42-8.158-1.26L22.5,48.176z M15.001,39.657v-9.3
		c-1.92,3-3.601,6.12-5.041,9.3H15.001z M28.98,15.057h2.1v13.92h13.92v2.04H28.98V15.057z"/>
</g>
</svg>
