<?xml version="1.0" encoding="utf-8"?>
<!-- Generator: Adobe Illustrator 22.0.1, SVG Export Plug-In . SVG Version: 6.00 Build 0)  -->
<svg version="1.1" id="ICONS" xmlns="http://www.w3.org/2000/svg" x="0px"
     y="0px"
     viewBox="0 0 60 60" style="enable-background:new 0 0 60 60;" xml:space="preserve">
<g>
	<path d="M8.459,29.996H2.1v-2.159h6.359V29.996z M11.16,21.296l-4.5-4.5l1.56-1.56l4.5,4.5L11.16,21.296z M12.719,38.095l-4.5,4.5
		l-1.56-1.56l4.5-4.5L12.719,38.095z M14.639,34.016c-1.2-1.32-1.8-3.06-1.8-5.16c0-4.56,2.94-7.439,7.5-7.439
		c2.16,0,3.84,0.601,5.16,1.8c-0.78,0.54-1.26,0.96-1.62,1.32c-0.84-0.721-2.1-1.08-3.54-1.08c-3.36,0-5.4,2.04-5.4,5.399
		c0,1.62,0.3,2.7,1.14,3.66C15.599,32.876,15.12,33.356,14.639,34.016z M23.279,47.095c-4.8,0-8.219-3.119-8.219-7.5
		c0-4.139,3.12-7.199,7.56-7.439c0.36-5.1,4.2-8.579,9.6-8.579c5.34,0,8.7,2.76,9,7.38c4.92,0.24,8.1,3.359,8.1,8.039
		c0,4.92-3.479,8.1-8.76,8.1H23.279z M47.278,38.996c0-3.959-3.06-6.24-8.1-6.06c0-4.979-2.22-7.319-6.959-7.319
		c-4.86,0-7.56,3-7.56,8.52c-4.74-0.18-7.56,1.859-7.56,5.459c0,3.181,2.52,5.4,6.18,5.4h17.279
		C44.518,44.996,47.278,42.536,47.278,38.996z M19.259,17.037v-6.359h2.16v6.359H19.259z M31.199,21.537
		c0.36-5.16,4.26-8.64,9.6-8.64s8.7,2.76,9,7.38c4.92,0.24,8.1,3.359,8.1,8.039c0,4.08-2.58,7.2-6.66,7.92
		c-0.18-0.72-0.36-1.08-0.78-1.92c3.3-0.66,5.4-2.939,5.4-6c0-3.959-3.06-6.239-8.1-6.06c0-4.979-2.22-7.319-6.96-7.319
		c-4.38,0-6.96,2.34-7.439,6.6C32.759,21.476,31.799,21.476,31.199,21.537z"/>
</g>
</svg>
