<?xml version="1.0" encoding="utf-8"?>
<!-- Generator: Adobe Illustrator 22.0.1, SVG Export Plug-In . SVG Version: 6.00 Build 0)  -->
<svg version="1.1" id="ICONS" xmlns="http://www.w3.org/2000/svg" x="0px"
	 y="0px"
	 viewBox="0 0 60 60" style="enable-background:new 0 0 60 60;" xml:space="preserve">
<g>
	<path d="M19.019,18.238c0,1.32-0.72,1.86-1.86,1.86c-1.14,0-1.859-0.54-1.859-1.86c0-1.32,0.72-1.86,1.859-1.86
		C18.299,16.378,19.019,16.917,19.019,18.238z M19.019,29.997c0,1.32-0.72,1.86-1.86,1.86c-1.14,0-1.859-0.54-1.859-1.86
		s0.72-1.86,1.859-1.86C18.299,28.137,19.019,28.677,19.019,29.997z M19.019,41.757c0,1.32-0.72,1.86-1.86,1.86
		c-1.14,0-1.859-0.54-1.859-1.86c0-1.32,0.72-1.86,1.859-1.86C18.299,39.896,19.019,40.436,19.019,41.757z M23.639,17.158h21.358
		v2.16H23.639V17.158z M23.639,28.917h21.358v2.16H23.639V28.917z M23.639,40.677h21.358v2.16H23.639V40.677z"/>
</g>
</svg>
