<?xml version="1.0" encoding="utf-8"?>
<!-- Generator: Adobe Illustrator 22.0.1, SVG Export Plug-In . SVG Version: 6.00 Build 0)  -->
<svg version="1.1" id="ICONS" xmlns="http://www.w3.org/2000/svg" x="0px"
     y="0px"
     viewBox="0 0 60 60" style="enable-background:new 0 0 60 60;" xml:space="preserve">
<g>
	<path d="M26.401,14.997c2.46,0,4.14,1.021,5.34,3.3c1.5,2.88,2.52,7.62,2.52,11.699c0,4.08-1.02,8.82-2.52,11.7
		c-1.2,2.28-2.88,3.3-5.34,3.3c-10.14,0-17.819-6.48-17.819-15S16.261,14.997,26.401,14.997z M26.04,42.835c1.8,0,2.88-0.6,3.72-2.1
		c1.32-2.46,2.34-7.14,2.34-10.74c0-3.6-1.02-8.279-2.34-10.739c-0.84-1.499-1.92-2.1-3.72-2.1c-8.64,0-15.299,5.579-15.299,12.839
		S17.401,42.835,26.04,42.835z M33.6,17.216h17.819v2.04H34.56L33.6,17.216z M51.419,40.736v2.04H33.6l0.96-2.04H51.419z
		 M35.88,23.037h15.539v2.1H36.24L35.88,23.037z M51.419,34.856v2.101H35.88l0.359-2.101H51.419z M51.419,31.076H36.48v-2.16h14.939
		V31.076z"/>
</g>
</svg>
