<?xml version="1.0" encoding="utf-8"?>
<!-- Generator: Adobe Illustrator 22.0.1, SVG Export Plug-In . SVG Version: 6.00 Build 0)  -->
<svg version="1.1" id="ICONS" xmlns="http://www.w3.org/2000/svg" x="0px"
	 y="0px"
	 viewBox="0 0 60 60" style="enable-background:new 0 0 60 60;" xml:space="preserve">
<g>
	<path d="M27.779,49.316h-2.4c-0.479-2.22-1.14-4.92-1.979-7.68h-10.38c-0.899,2.88-1.56,5.58-2.04,7.68H8.58
		c1.859-7.979,5.34-18.419,8.579-25.739h2.16C22.439,30.537,25.859,40.856,27.779,49.316z M22.799,39.537
		c-1.381-4.68-3-9.54-4.561-13.439c-1.56,4.14-3.239,9-4.619,13.439H22.799z M43.018,49.316v-2.4c-1.979,1.92-3.78,2.7-5.939,2.7
		c-3.601,0-5.7-1.92-5.7-5.28c0-3.78,2.1-5.7,6.3-5.7h5.22v-2.76c0-2.64-1.32-3.78-4.26-3.78c-1.979,0-4.08,0.36-6.479,1.02v-2.04
		c1.979-0.6,4.5-1.02,6.479-1.02c4.439,0,6.359,1.74,6.359,5.64v13.62H43.018z M42.898,44.637v-3.96h-5.04
		c-3.119,0-4.38,1.02-4.38,3.48c0,2.34,1.141,3.419,3.601,3.419C39.058,47.576,40.858,46.676,42.898,44.637z M36.418,19.258v-2.16
		h14.999v2.16H36.418z"/>
</g>
</svg>
