<?xml version="1.0" encoding="utf-8"?>
<!-- Generator: Adobe Illustrator 22.0.1, SVG Export Plug-In . SVG Version: 6.00 Build 0)  -->
<svg version="1.1" id="ICONS" xmlns="http://www.w3.org/2000/svg" x="0px"
	 y="0px"
	 viewBox="0 0 60 60" style="enable-background:new 0 0 60 60;" xml:space="preserve">
<g>
	<path d="M10.74,42.836v-23.52h11.699c2.46,0,3.84,0.54,5.4,2.101l4.32,4.319h8.58c2.88,0,4.26,1.38,4.26,4.26v12.84
		c0,2.88-1.38,4.26-4.26,4.26H14.999C12.12,47.096,10.74,45.716,10.74,42.836z M14.999,45.056h25.739c1.56,0,2.16-0.66,2.16-2.22
		v-12.84c0-1.56-0.6-2.22-2.16-2.22h-9.419l-4.68-4.68c-1.26-1.26-2.4-1.74-4.2-1.74h-9.6v21.479
		C12.839,44.396,13.439,45.056,14.999,45.056z M47.158,40.676v-17.1c0-1.56-0.6-2.22-2.16-2.22H34.259l-4.68-4.68
		c-1.26-1.26-2.4-1.74-4.2-1.74h-8.28v2.221h-2.1v-4.26h10.379c2.46,0,3.84,0.54,5.4,2.1l4.32,4.319h9.899
		c2.88,0,4.26,1.38,4.26,4.26v17.1H47.158z"/>
</g>
</svg>
