<?xml version="1.0" encoding="utf-8"?>
<!-- Generator: Adobe Illustrator 22.0.1, SVG Export Plug-In . SVG Version: 6.00 Build 0)  -->
<svg version="1.1" id="ICONS" xmlns="http://www.w3.org/2000/svg" x="0px"
     y="0px"
     viewBox="0 0 60 60" style="enable-background:new 0 0 60 60;" xml:space="preserve">
<g>
	<path d="M40.798,34.316c3.78,0,6.36-2.4,6.36-5.88c0-3.899-2.82-5.999-8.04-5.999c0-6.42-3.12-9.66-9.36-9.66
		c-6.42,0-9.479,3.359-9.479,10.5c-4.56,0-7.44,2.16-7.44,5.639c0,3.181,2.46,5.4,6.06,5.4h5.22l-0.66,2.1h-4.56
		c-4.74,0-8.16-3.119-8.16-7.5c0-4.079,2.88-7.02,7.5-7.559c0.42-6.78,4.62-10.62,11.52-10.62c6.66,0,10.979,3.66,11.399,9.72
		c5.04,0.3,8.1,3.3,8.1,7.979c0,4.8-3.36,7.979-8.52,7.979h-5.1l0.84-2.1H40.798z M17.159,38.515l2.1,0.421l-1.92,8.64l-2.1-0.42
		L17.159,38.515z M23.759,40.675l2.1,0.42l-2.28,10.38l-2.1-0.42L23.759,40.675z M29.639,43.736l1.02-7.32h-5.04l3.06-9.479h2.52
		l-2.46,7.38h5.58l-3.72,9.42H29.639z M38.579,38.515l2.1,0.421l-1.92,8.64l-2.1-0.42L38.579,38.515z"/>
</g>
</svg>
