<?xml version="1.0" encoding="utf-8"?>
<!-- Generator: Adobe Illustrator 22.0.1, SVG Export Plug-In . SVG Version: 6.00 Build 0)  -->
<svg version="1.1" id="ICONS" xmlns="http://www.w3.org/2000/svg" x="0px"
     y="0px"
     viewBox="0 0 60 60" style="enable-background:new 0 0 60 60;" xml:space="preserve">
<g>
	<path d="M12.9,21.537h1.2c3.3,0,5.159,0.6,7.979,2.46l3.18,2.399l3.24-3.959c1.68-2.101,3.42-3.121,5.22-3.121
		c0.96,0,1.859,0.24,2.699,0.781l-1.02,1.859c-0.6-0.359-1.14-0.54-1.68-0.54c-1.261,0-2.521,0.84-4.08,2.819l-2.7,3.24l2.64,0.66
		c3.181,0.72,4.681,2.58,4.681,5.64c0,1.5-0.42,2.819-1.2,3.899l-1.68-1.199c0.6-0.9,0.779-1.561,0.779-2.7
		c0-2.1-1.08-3.239-3.779-3.899l-2.94-0.721l-4.439-3.359c-2.16-1.62-4.02-2.22-6.899-2.22h-1.2V21.537z M12.9,36.476h8.579
		c0-2.52,1.74-4.2,4.26-4.2c2.58,0,4.261,1.681,4.261,4.2s-1.74,4.199-4.261,4.199c-1.739,0-3.119-0.84-3.779-2.16H12.9V36.476z
		 M25.739,34.255c-1.38,0-2.279,0.841-2.279,2.221c0,1.32,0.899,2.22,2.279,2.22c1.381,0,2.28-0.84,2.28-2.22
		S27.179,34.255,25.739,34.255z M36.599,27.896c0-2.16,0.899-4.56,3.119-8.52h2.16c2.22,4.141,3.06,6.48,3.06,8.52
		c0,2.58-1.56,4.141-4.14,4.141C38.159,32.037,36.599,30.476,36.599,27.896z M42.958,27.896c0-1.619-0.36-2.699-2.16-6.539
		c-1.739,3.42-2.22,4.859-2.22,6.539c0,1.32,0.9,2.221,2.22,2.221C42.119,30.117,42.958,29.277,42.958,27.896z"/>
</g>
</svg>
