<?xml version="1.0" encoding="utf-8"?>
<!-- Generator: Adobe Illustrator 22.0.1, SVG Export Plug-In . SVG Version: 6.00 Build 0)  -->
<svg version="1.1" id="ICONS" xmlns="http://www.w3.org/2000/svg" x="0px"
	 y="0px"
	 viewBox="0 0 60 60" style="enable-background:new 0 0 60 60;" xml:space="preserve">
<g>
	<path d="M12.12,25.076c-2.16,0.841-4.26,1.5-6.119,2.041L5.4,25.316c1.86-0.539,3.78-1.199,5.76-1.979
		c-0.24-0.78-0.42-1.68-0.42-2.64c0-4.859,3.9-7.8,10.199-7.8h6.601l1.26,1.5c-0.9,8.939-4.38,13.499-10.38,13.499
		C15.66,27.896,13.44,26.876,12.12,25.076z M20.939,21.117c-2.159,1.14-4.439,2.16-6.72,3.119c1.021,1.021,2.46,1.621,4.2,1.621
		c4.68,0,7.38-3.541,8.279-10.92h-5.76c-5.039,0-8.1,2.16-8.1,5.76c0,0.66,0.12,1.32,0.36,1.859c2.22-0.899,4.56-1.979,6.96-3.119
		L20.939,21.117z M25.739,42.835h-2.1V32.216h8.58v-8.58h8.579v-8.58h10.62v27.779h-2.101V17.097h-6.419v25.738h-2.101V25.676
		h-6.479v17.159h-2.1v-8.58h-6.48V42.835z M23.639,45.056h27.779v2.039H23.639V45.056z"/>
</g>
</svg>
