<?xml version="1.0" encoding="utf-8"?>
<!-- Generator: Adobe Illustrator 22.0.1, SVG Export Plug-In . SVG Version: 6.00 Build 0)  -->
<svg version="1.1" id="ICONS" xmlns="http://www.w3.org/2000/svg" x="0px"
     y="0px"
     viewBox="0 0 60 60" style="enable-background:new 0 0 60 60;" xml:space="preserve">
<g>
	<path d="M12.839,12.837c0-2.88,1.38-4.26,4.26-4.26h25.739c2.88,0,4.26,1.38,4.26,4.26v34.318c0,2.88-1.38,4.26-4.26,4.26H17.099
		c-2.88,0-4.26-1.38-4.26-4.26V12.837z M17.099,49.376h25.739c1.56,0,2.159-0.66,2.159-2.221V12.837c0-1.56-0.6-2.22-2.159-2.22
		H17.099c-1.56,0-2.16,0.66-2.16,2.22v34.318C14.939,48.716,15.539,49.376,17.099,49.376z M17.159,15.057h25.68v27.719h-25.68
		V15.057z M40.738,40.737v-23.64H19.199v23.64H40.738z M31.558,46.016c0,1.08-0.42,1.56-1.56,1.56c-1.08,0-1.56-0.479-1.56-1.56
		c0-1.14,0.479-1.56,1.56-1.56C31.138,44.456,31.558,44.876,31.558,46.016z"/>
</g>
</svg>
