<?xml version="1.0" encoding="utf-8"?>
<!-- Generator: Adobe Illustrator 22.0.1, SVG Export Plug-In . SVG Version: 6.00 Build 0)  -->
<svg version="1.1" id="ICONS" xmlns="http://www.w3.org/2000/svg" x="0px"
	 y="0px"
	 viewBox="0 0 60 60" style="enable-background:new 0 0 60 60;" xml:space="preserve">
<g>
	<path d="M16.799,42.776c-4.8,0-8.22-3.12-8.22-7.5c0-4.14,3.12-7.2,7.56-7.439c0.36-5.101,4.2-8.58,9.6-8.58
		c5.34,0,8.7,2.761,9,7.38c4.919,0.24,8.1,3.359,8.1,8.039c0,4.92-3.48,8.101-8.76,8.101H16.799z M40.798,34.675
		c0-3.959-3.06-6.239-8.1-6.059c0-4.98-2.22-7.32-6.96-7.32c-4.859,0-7.56,3-7.56,8.52c-4.74-0.18-7.56,1.86-7.56,5.46
		c0,3.18,2.52,5.399,6.18,5.399h17.279C38.038,40.675,40.798,38.216,40.798,34.675z M17.819,44.875l2.04,0.42l-1.44,6.42l-2.04-0.42
		L17.819,44.875z M24.599,44.875l2.04,0.42l-2.28,10.319l-2.04-0.42L24.599,44.875z M24.719,17.216c0.36-5.159,4.26-8.639,9.6-8.639
		c5.339,0,8.699,2.76,9,7.379c4.919,0.24,8.1,3.359,8.1,8.04c0,4.079-2.58,7.2-6.66,7.919c-0.18-0.719-0.36-1.14-0.78-1.92
		c3.3-0.659,5.4-2.939,5.4-5.999c0-3.96-3.06-6.239-8.1-6.06c0-4.98-2.22-7.32-6.959-7.32c-4.38,0-6.96,2.34-7.44,6.6
		C26.279,17.157,25.319,17.157,24.719,17.216z M31.439,44.875l2.04,0.42l-1.44,6.42l-2.04-0.42L31.439,44.875z"/>
</g>
</svg>
