<?xml version="1.0" encoding="utf-8"?>
<!-- Generator: Adobe Illustrator 22.0.1, SVG Export Plug-In . SVG Version: 6.00 Build 0)  -->
<svg version="1.1" id="ICONS" xmlns="http://www.w3.org/2000/svg" x="0px"
     y="0px"
     viewBox="0 0 60 60" style="enable-background:new 0 0 60 60;" xml:space="preserve">
<g>
	<path d="M28.139,16.197c-1.62-3.48-4.56-5.4-8.46-5.4c-5.52,0-9.899,4.021-9.899,9.12c0,1.62,0.3,2.94,1.08,4.44l1.32,2.819
		l-1.08,0.54l-1.44-3.061c-0.84-1.68-1.08-2.879-1.08-4.739c0-5.7,4.98-10.26,11.1-10.26c4.44,0,7.62,2.04,9.54,6.12l1.319,2.82
		l-1.079,0.479L28.139,16.197z M24.419,17.876c-0.9-1.92-2.521-3-4.74-3c-3.18,0-5.699,2.221-5.699,5.04c0,0.96,0.18,1.92,0.54,2.7
		l1.319,2.82l-1.8,0.899l-1.439-3.06c-0.48-1.021-0.721-2.101-0.721-3.36c0-3.899,3.48-7.079,7.8-7.079c2.82,0,5.34,1.619,6.6,4.26
		l1.38,2.879l-1.859,0.84L24.419,17.876z M44.218,30.716c1.92,3.959,2.64,6.479,2.64,8.879c0,0.78-0.18,1.801-0.539,3.24l-0.48,1.62
		l1.8,3.899l-1.92,0.961l-2.16-4.62l0.601-1.92c0.359-1.44,0.479-2.4,0.479-3.3c0-2.16-0.6-4.26-1.92-7.08l-2.159-4.439
		c-0.421-0.9-0.9-1.26-1.62-1.26c-0.66,0-1.2,0.359-1.62,1.08h-1.86c-0.42-0.721-0.96-1.08-1.739-1.08c-0.78,0-1.32,0.359-1.74,1.08
		h-1.86c-0.42-0.721-1.02-1.08-1.859-1.08s-1.44,0.359-1.86,1.08h-1.859l-3.66-7.74c-0.3-0.66-0.72-1.02-1.32-1.02
		c-0.779,0-1.439,0.539-1.439,1.26c0,0.3,0.06,0.539,0.24,0.899l8.819,19.14l-1.86,0.84l-6.3-4.5c-0.3-0.3-0.659-0.42-1.02-0.42
		c-0.78,0-1.32,0.48-1.32,1.32c0,0.6,0.24,0.959,1.021,1.56l13.799,10.319l2.46,5.34l-1.859,0.84l-2.34-4.92l-13.5-10.139
		c-1.02-0.721-1.68-1.92-1.68-2.94c0-1.86,1.5-3.42,3.36-3.42c0.84,0,1.68,0.3,2.52,0.96l3.12,2.34l-7.14-15.419
		c-0.301-0.601-0.42-1.14-0.42-1.74c0-1.8,1.56-3.3,3.42-3.3c1.439,0,2.76,0.84,3.359,2.1l3,6.54c0.66-0.66,1.5-1.021,2.46-1.021
		c1.14,0,2.16,0.48,2.76,1.381c0.66-0.9,1.62-1.381,2.7-1.381c1.02,0,1.92,0.42,2.579,1.261c0.66-0.841,1.681-1.261,2.761-1.261
		c1.439,0,2.64,0.9,3.479,2.641L44.218,30.716z"/>
</g>
</svg>
