<?xml version="1.0" encoding="utf-8"?>
<!-- Generator: Adobe Illustrator 22.0.1, SVG Export Plug-In . SVG Version: 6.00 Build 0)  -->
<svg version="1.1" id="ICONS" xmlns="http://www.w3.org/2000/svg" x="0px"
	 y="0px"
	 viewBox="0 0 60 60" style="enable-background:new 0 0 60 60;" xml:space="preserve">
<g>
	<path d="M47.159,47.215H12.839l2.34-30.059h8.46v-1.92c0-4.2,2.34-6.659,6.36-6.659c4.079,0,6.359,2.399,6.359,6.659v1.92h8.46
		L47.159,47.215z M17.16,19.197l-2.04,25.979h29.759l-2.04-25.979H17.16z M24.24,42.295l-1.561-1.02c0.3-3,0.54-4.62,0.96-6.36
		c-1.56-1.5-2.58-2.52-4.38-4.5l0.48-1.92c2.04-0.539,3.779-0.779,6.239-0.899c0.66-1.56,1.38-2.88,3.061-5.579h1.92
		c1.68,2.699,2.399,4.02,3.06,5.579c2.46,0.12,4.199,0.36,6.239,0.899l0.48,1.92c-1.8,1.98-2.82,3-4.38,4.5
		c0.42,1.74,0.66,3.36,0.96,6.36l-1.56,1.02c-1.801-0.78-3.181-1.499-5.76-2.999C27.419,40.796,26.039,41.515,24.24,42.295z
		 M27.539,29.456c-1.98,0.06-3.9,0.3-5.641,0.72c0.78,1.08,1.5,1.8,4.2,4.14c-0.42,1.08-0.78,2.939-1.02,5.279
		c2.04-0.959,3.6-1.799,4.92-2.699c1.319,0.9,2.88,1.74,4.919,2.699c-0.239-2.34-0.6-4.199-1.02-5.279c2.7-2.34,3.42-3.06,4.2-4.14
		c-1.74-0.42-3.66-0.66-5.641-0.72c-0.779-1.801-1.499-3.301-2.459-4.801C29.039,26.156,28.319,27.656,27.539,29.456z
		 M25.739,15.237v1.92h8.521v-1.92c0-3.12-1.38-4.62-4.26-4.62C27.179,10.617,25.739,12.177,25.739,15.237z"/>
</g>
</svg>
