<?xml version="1.0" encoding="utf-8"?>
<!-- Generator: Adobe Illustrator 22.0.1, SVG Export Plug-In . SVG Version: 6.00 Build 0)  -->
<svg version="1.1" id="ICONS" xmlns="http://www.w3.org/2000/svg" x="0px"
	 y="0px"
	 viewBox="0 0 60 60" style="enable-background:new 0 0 60 60;" xml:space="preserve">
<g>
	<path d="M15.12,30.356c-1.08-0.36-1.74-1.26-1.74-2.579c0-1.74,1.021-2.701,2.7-2.701c1.74,0,2.7,0.961,2.7,2.701
		c0,1.319-0.601,2.279-1.74,2.579v4.14h4.439v1.92H15.12V30.356z M31.259,41.816l-0.96,1.8l-3.78-2.101
		c-2.16-1.199-2.939-2.639-2.939-5.52v-3.84c0-5.699,0.3-6.42,4.92-11.819c4.919-5.939,7.56-7.38,13.259-7.38h3.12v2.04h-3.12
		c-4.979,0-7.079,1.2-11.459,6.479c-4.38,5.34-4.62,5.94-4.62,10.68v3.84c0,2.04,0.48,2.94,2.04,3.84L31.259,41.816z M39.659,36.415
		c3.899,0,6.359,2.461,6.359,6.42c0,3.96-2.46,6.42-6.359,6.42s-6.359-2.46-6.359-6.42C33.299,38.876,35.759,36.415,39.659,36.415z
		 M39.659,38.456c-2.64,0-4.32,1.74-4.32,4.38c0,2.641,1.74,4.38,4.32,4.38c2.64,0,4.319-1.739,4.319-4.38
		C43.978,40.136,42.298,38.456,39.659,38.456z"/>
</g>
</svg>
