<?xml version="1.0" encoding="utf-8"?>
<!-- Generator: Adobe Illustrator 22.0.1, SVG Export Plug-In . SVG Version: 6.00 Build 0)  -->
<svg version="1.1" id="ICONS" xmlns="http://www.w3.org/2000/svg" x="0px"
     y="0px"
     viewBox="0 0 60 60" style="enable-background:new 0 0 60 60;" xml:space="preserve">
<g>
	<path d="M11.7,37.915c-2.04-0.479-3.12-1.92-3.12-4.02v-2.88c0-2.22,0.24-2.819,1.68-4.5l1.5-1.739l1.98,0.779l-1.86,2.28
		c-1.14,1.44-1.2,1.62-1.2,3.479v2.58c0,1.02,0.3,1.62,1.02,1.92V37.915z M36.538,26.037c-3.9-2.221-5.16-2.52-10.56-2.52
		c-4.86,0-6.96,0.06-10.919,0.42l-2.16-0.841v-1.02c5.4-0.42,9.3-0.601,13.08-0.601c5.52,0,7.56,0.48,11.52,2.7l5.4,3.06l6.06,0.9
		c2.46,0.359,3.3,0.96,4.02,3c0.36,1.02,0.6,2.4,0.6,3.539c0,1.86-1.08,2.94-3.18,3.24v-2.1c0.78-0.18,1.08-0.48,1.08-1.08
		c0-0.9-0.12-1.619-0.36-2.52c-0.42-1.381-0.9-1.86-2.399-2.1l-6.78-1.021L36.538,26.037z M21.899,36.476h18.299v-0.061
		c0-2.52,1.68-4.199,4.26-4.199c2.52,0,4.26,1.68,4.26,4.199c0,2.461-1.74,4.2-4.26,4.2c-1.74,0-3.06-0.78-3.78-2.101H21.419
		c-0.72,1.32-2.04,2.101-3.78,2.101c-2.52,0-4.26-1.739-4.26-4.2c0-2.52,1.74-4.199,4.26-4.199c2.58,0,4.26,1.68,4.26,4.199V36.476z
		 M17.639,34.196c-1.38,0-2.28,0.841-2.28,2.22c0,1.32,0.9,2.221,2.28,2.221s2.28-0.84,2.28-2.221
		C19.919,35.037,19.079,34.196,17.639,34.196z M44.458,38.636c1.38,0,2.28-0.9,2.28-2.221c0-1.379-0.9-2.22-2.28-2.22
		c-1.44,0-2.28,0.841-2.28,2.22C42.178,37.796,43.078,38.636,44.458,38.636z"/>
</g>
</svg>
