<?xml version="1.0" encoding="utf-8"?>
<!-- Generator: Adobe Illustrator 22.0.1, SVG Export Plug-In . SVG Version: 6.00 Build 0)  -->
<svg version="1.1" id="ICONS" xmlns="http://www.w3.org/2000/svg" x="0px"
     y="0px"
     viewBox="0 0 60 60" style="enable-background:new 0 0 60 60;" xml:space="preserve">
<g>
	<path d="M29.458,52.555c-10.38-3.479-16.56-10.439-16.56-21.419v-15c7.86,0,11.64-1.68,16.5-6.42h1.199
		c4.86,4.74,8.64,6.42,16.5,6.42v15c0,10.979-6.18,17.939-16.56,21.419H29.458z M45.118,31.136v-13.02
		c-5.999,0-10.859-2.04-15.119-6.06c-4.2,4.079-9,6.06-15.119,6.06v13.02c0,10.14,6.119,16.619,15.119,19.499
		C38.998,47.755,45.118,41.276,45.118,31.136z M30.058,39.716h-2.22c-2.159-2.16-4.079-4.561-5.88-7.26l1.681-1.2
		c1.619,2.399,3.359,4.62,5.22,6.6c2.819-4.26,5.46-8.64,7.919-13.2l1.86,1.021C36.119,30.537,33.298,35.156,30.058,39.716z"/>
</g>
</svg>
