<?xml version="1.0" encoding="utf-8"?>
<!-- Generator: Adobe Illustrator 22.0.1, SVG Export Plug-In . SVG Version: 6.00 Build 0)  -->
<svg version="1.1" id="ICONS" xmlns="http://www.w3.org/2000/svg" x="0px"
     y="0px"
     viewBox="0 0 60 60" style="enable-background:new 0 0 60 60;" xml:space="preserve">
<g>
	<path d="M10.74,31.077v-2.16c5.34-6.12,12.359-9.6,19.259-9.6s13.92,3.48,19.259,9.6v2.16c-5.339,6.12-12.359,9.6-19.259,9.6
		S16.08,37.197,10.74,31.077z M22.019,37.197c-1.86-2.04-2.64-4.26-2.64-7.2s0.779-5.16,2.64-7.2c-3.48,1.68-6.18,3.84-9.3,7.2
		C15.839,33.357,18.538,35.517,22.019,37.197z M38.579,29.997c0-5.4-3.24-8.7-8.58-8.7s-8.58,3.3-8.58,8.7s3.24,8.7,8.58,8.7
		S38.579,35.397,38.579,29.997z M33.239,29.997c0,1.98-1.261,3.24-3.24,3.24s-3.24-1.26-3.24-3.24c0-2.04,1.261-3.24,3.24-3.24
		C32.038,26.757,33.239,27.957,33.239,29.997z M37.978,22.797c1.86,2.04,2.64,4.26,2.64,7.2s-0.779,5.16-2.64,7.2
		c3.48-1.68,6.18-3.84,9.3-7.2C44.158,26.637,41.458,24.477,37.978,22.797z"/>
</g>
</svg>
