<?xml version="1.0" encoding="utf-8"?>
<!-- Generator: Adobe Illustrator 22.0.1, SVG Export Plug-In . SVG Version: 6.00 Build 0)  -->
<svg version="1.1" id="ICONS" xmlns="http://www.w3.org/2000/svg" x="0px"
     y="0px"
     viewBox="0 0 60 60" style="enable-background:new 0 0 60 60;" xml:space="preserve">
<g>
	<path d="M44.938,19.258v29.938H15.059V10.678h21.359C39.718,13.438,42.658,16.378,44.938,19.258z M42.838,47.156V21.297h-8.52
		v-8.58h-17.16v34.438H42.838z M29.998,40.617c-5.279,0-8.459-3.06-8.459-8.1c0-5.1,3.66-8.82,8.76-8.82c4.74,0,8.16,3.18,8.16,7.5
		c0,2.88-1.86,5.16-4.2,5.16c-1.08,0-1.92-0.54-2.4-1.38c-0.9,0.9-1.92,1.38-2.88,1.38c-1.86,0-3.12-1.38-3.12-3.36
		c0-2.64,1.92-4.86,4.14-4.86c0.84,0,1.56,0.24,2.1,0.78l0.12-0.66h1.86c-0.72,4.8-0.72,4.74-0.72,5.16c0,0.84,0.3,1.14,1.02,1.14
		c1.26,0,2.16-1.38,2.16-3.36c0-3.36-2.52-5.64-6.24-5.64c-3.96,0-6.84,2.88-6.84,6.96c0,3.96,2.34,6.24,6.54,6.24V40.617z
		 M29.219,34.557c1.02,0,1.62-0.36,2.28-1.2c0-0.3,0-0.36,0.3-2.46c-0.36-0.6-1.08-0.96-1.68-0.96c-1.32,0-2.34,1.32-2.34,2.94
		C27.779,33.957,28.259,34.557,29.219,34.557z M42.298,19.317c-1.92-2.22-3.96-4.2-5.94-5.879v5.879H42.298z"/>
</g>
</svg>
