<?xml version="1.0" encoding="utf-8"?>
<!-- Generator: Adobe Illustrator 22.0.1, SVG Export Plug-In . SVG Version: 6.00 Build 0)  -->
<svg version="1.1" id="ICONS" xmlns="http://www.w3.org/2000/svg" x="0px"
	 y="0px"
	 viewBox="0 0 60 60" style="enable-background:new 0 0 60 60;" xml:space="preserve">
<g>
	<path d="M12.839,40.676V17.158h11.7c2.46,0,3.84,0.54,5.4,2.1l4.32,4.319h8.58c2.88,0,4.26,1.381,4.26,4.261v12.839
		c0,2.88-1.38,4.26-4.26,4.26H17.099C14.219,44.936,12.839,43.556,12.839,40.676z M17.099,42.896h25.739
		c1.56,0,2.16-0.659,2.16-2.22V27.837c0-1.561-0.6-2.221-2.16-2.221h-9.42l-4.68-4.68c-1.26-1.26-2.4-1.739-4.2-1.739h-9.6v21.479
		C14.939,42.237,15.539,42.896,17.099,42.896z M40.438,21.417h-1.62c-1.8-2.22-3.3-4.32-5.459-7.62l1.62-0.96
		c1.5,2.521,2.4,3.96,3.72,5.76l-0.12-14.339h2.1l-0.12,14.339c1.32-1.8,2.22-3.239,3.72-5.76l1.62,0.96
		C43.738,17.038,42.178,19.198,40.438,21.417z"/>
</g>
</svg>
