<?xml version="1.0" encoding="utf-8"?>
<!-- Generator: Adobe Illustrator 22.0.1, SVG Export Plug-In . SVG Version: 6.00 Build 0)  -->
<svg version="1.1" id="ICONS" xmlns="http://www.w3.org/2000/svg" x="0px"
     y="0px"
     viewBox="0 0 60 60" style="enable-background:new 0 0 60 60;" xml:space="preserve">
<g>
	<path d="M26.401,14.997c2.46,0,4.14,1.021,5.34,3.3c1.5,2.88,2.52,7.62,2.52,11.699c0,4.08-1.02,8.82-2.52,11.7
		c-1.2,2.28-2.88,3.3-5.34,3.3c-10.14,0-17.819-6.48-17.819-15S16.261,14.997,26.401,14.997z M26.04,42.835c1.8,0,2.88-0.6,3.72-2.1
		c1.32-2.46,2.34-7.14,2.34-10.74c0-3.6-1.02-8.279-2.34-10.739c-0.84-1.499-1.92-2.1-3.72-2.1c-8.64,0-15.299,5.579-15.299,12.839
		S17.401,42.835,26.04,42.835z M34.5,18.777l-1.021-2.4l5.82,1.68c0.72,1.021,1.319,1.86,1.8,2.641L34.5,18.777z M34.14,42.056
		l0.78-1.92l3.96,1.14c0.12,0.72,0.359,1.5,0.72,2.34L34.14,42.056z M35.88,36.716l0.359-2.041L39,35.456
		c-0.181,0.6-0.301,1.319-0.36,2.039L35.88,36.716z M36.42,25.256L36,22.976l6.84,1.92c0,0.721,0,1.5-0.181,2.16L36.42,25.256z
		 M36.48,31.076v-2.16l4.8,1.381c-0.359,0.6-0.72,1.199-1.02,1.859L36.48,31.076z M40.62,16.257l1.681-1.261
		c3.359,4.62,4.739,7.68,4.739,10.5c0,5.999-4.26,7.56-4.26,13.439c0,2.46,1.08,4.739,4.32,9.239l-1.681,1.26
		c-3.359-4.619-4.739-7.68-4.739-10.499c0-6.36,4.26-8.28,4.26-13.439C44.94,23.037,43.86,20.756,40.62,16.257z M51.419,38.996v2.16
		l-6.54-1.859c0-0.721,0.061-1.44,0.181-2.101L51.419,38.996z M51.419,33.176v2.159l-5.04-1.439c0.36-0.6,0.66-1.2,1.021-1.859
		L51.419,33.176z M46.379,43.375l5.04,1.44v2.16l-3.239-0.9C47.459,45.056,46.86,44.156,46.379,43.375z M51.419,21.537v2.1
		l-2.64-0.779c-0.18-0.721-0.42-1.5-0.78-2.28L51.419,21.537z M51.419,27.357v2.159l-2.7-0.78c0.181-0.6,0.301-1.319,0.36-2.039
		L51.419,27.357z"/>
</g>
</svg>
