<?xml version="1.0" encoding="utf-8"?>
<!-- Generator: Adobe Illustrator 22.0.1, SVG Export Plug-In . SVG Version: 6.00 Build 0)  -->
<svg version="1.1" id="ICONS" xmlns="http://www.w3.org/2000/svg" x="0px"
     y="0px"
     viewBox="0 0 60 60" style="enable-background:new 0 0 60 60;" xml:space="preserve">
<g>
	<path d="M27.299,30.056l-2.58-1.141c-2.46-1.079-3.24-2.399-3.24-5.219v-8.641c0-2.879,1.38-4.26,4.26-4.26h6.36
		c2.88,0,4.26,1.381,4.26,4.26v8.641c0,2.819-0.78,4.14-3.24,5.219l-2.58,1.141h12.36v2.04h-12.96v4.319c0,2.881-1.38,4.26-4.2,4.26
		v-2.039c1.5,0,2.101-0.601,2.101-2.221v-4.319h-4.2L20.7,44.935c-0.78,3.541-1.74,4.26-5.34,4.26h-2.82
		c-3.12,0-4.439-1.5-3.779-4.26l2.52-10.68c0.72-2.999,2.1-4.199,4.979-4.199H27.299z M18.419,44.935l2.94-12.839h-5.101
		c-1.739,0-2.279,0.479-2.699,2.159l-2.521,10.68c-0.359,1.5,0.12,2.221,1.5,2.221h2.82C17.4,47.156,17.999,46.736,18.419,44.935z
		 M23.58,19.316h10.68v-4.26c0-1.56-0.601-2.219-2.16-2.219h-6.36c-1.56,0-2.159,0.659-2.159,2.219V19.316z M32.159,26.996
		c1.8-0.84,2.101-1.499,2.101-3.299v-2.34H23.58v2.34c0,1.8,0.3,2.459,2.1,3.299l3.24,1.561L32.159,26.996z M43.498,26.277
		l4.5-4.561l1.56,1.561l-4.56,4.5L43.498,26.277z M49.558,38.636l-1.56,1.56l-4.5-4.56l1.5-1.5L49.558,38.636z M44.998,30.056h6.42
		v2.04h-6.42V30.056z"/>
</g>
</svg>
