<?xml version="1.0" encoding="utf-8"?>
<!-- Generator: Adobe Illustrator 22.0.1, SVG Export Plug-In . SVG Version: 6.00 Build 0)  -->
<svg version="1.1" id="ICONS" xmlns="http://www.w3.org/2000/svg" x="0px"
	 y="0px"
	 viewBox="0 0 60 60" style="enable-background:new 0 0 60 60;" xml:space="preserve">
<g>
	<path d="M8.58,27.837v-6.36h2.101v6.36H8.58z M17.161,40.737c-2.88,0-4.26-1.38-4.26-4.26v-12.9c0-2.88,1.38-4.26,4.26-4.26H34.32
		c2.88,0,4.26,1.38,4.26,4.26v0.06h3.479c2.46-1.44,4.5-2.4,7.26-3.419h2.101v18.419h-2.101c-2.76-1.02-4.8-1.98-7.26-3.42H38.58
		v1.26c0,2.88-1.38,4.26-4.26,4.26H17.161z M36.48,36.477v-12.9c0-1.56-0.601-2.22-2.16-2.22H17.161c-1.561,0-2.16,0.66-2.16,2.22
		v12.9c0,1.56,0.6,2.22,2.16,2.22H34.32C35.879,38.697,36.48,38.037,36.48,36.477z M49.319,36.417V22.437
		c-2.76,1.08-4.26,1.8-6.479,3.24h-4.26v7.5h4.26C45.059,34.617,46.559,35.337,49.319,36.417z"/>
</g>
</svg>
