<?xml version="1.0" encoding="utf-8"?>
<!-- Generator: Adobe Illustrator 22.0.1, SVG Export Plug-In . SVG Version: 6.00 Build 0)  -->
<svg version="1.1" id="ICONS" xmlns="http://www.w3.org/2000/svg" x="0px"
	 y="0px"
	 viewBox="0 0 60 60" style="enable-background:new 0 0 60 60;" xml:space="preserve">
<g>
	<path d="M8.58,12.898h42.839v34.199H8.58V12.898z M49.319,45.057V14.937H10.681v30.119H49.319z M23.46,28.977
		c-2.82-0.3-5.34-0.72-9.24-1.56l0.48-1.8c2.88,0.72,4.56,1.08,6.72,1.5l-8.64-8.52l1.439-1.5l8.521,8.64
		c-0.36-2.22-0.721-3.84-1.44-6.72l1.8-0.42c0.78,3.78,1.2,6.42,1.561,9.24L23.46,28.977z M22.741,34.197l-8.521,8.64l-1.439-1.5
		l8.64-8.52c-2.16,0.42-3.84,0.78-6.72,1.5l-0.48-1.8c3.9-0.84,6.42-1.26,9.24-1.56l1.2,1.14c-0.36,2.82-0.78,5.459-1.561,9.24
		l-1.8-0.42C22.02,38.037,22.38,36.417,22.741,34.197z M36.539,28.977l-1.2-1.14c0.36-2.82,0.78-5.46,1.561-9.24l1.8,0.42
		c-0.72,2.88-1.08,4.5-1.44,6.72l8.521-8.64l1.439,1.5l-8.64,8.52c2.16-0.42,3.84-0.78,6.72-1.5l0.48,1.8
		C41.879,28.257,39.36,28.677,36.539,28.977z M45.78,42.836l-8.521-8.64c0.36,2.22,0.721,3.84,1.44,6.72l-1.8,0.42
		c-0.78-3.78-1.2-6.42-1.561-9.24l1.2-1.14c2.82,0.3,5.34,0.72,9.24,1.56l-0.48,1.8c-2.88-0.72-4.56-1.08-6.72-1.5l8.64,8.52
		L45.78,42.836z"/>
</g>
</svg>
