<?xml version="1.0" encoding="utf-8"?>
<!-- Generator: Adobe Illustrator 22.0.1, SVG Export Plug-In . SVG Version: 6.00 Build 0)  -->
<svg version="1.1" id="ICONS" xmlns="http://www.w3.org/2000/svg" x="0px"
	 y="0px"
	 viewBox="0 0 60 60" style="enable-background:new 0 0 60 60;" xml:space="preserve">
<g>
	<path d="M51.418,42.776H8.58v-2.04h42.839V42.776z M11.76,27.716c0.539-2.939,0.779-3.3,4.26-6.24
		c2.999-2.459,4.499-3.18,6.359-3.18c1.439,0,2.939,0.24,9.42,1.5c3.3,0.6,5.039,1.5,7.439,3.78l3.899,4.14l2.76,1.26
		c2.58,1.08,3.78,2.76,3.78,5.1c0,1.92-0.72,3.721-1.979,4.86l-1.5-1.44c0.84-0.84,1.319-2.039,1.319-3.359
		c0-1.62-0.899-2.641-3.119-3.66l-2.641-1.199l-3.779-4.08c-1.8-1.92-3.601-2.881-6.54-3.42c-6.359-1.26-7.68-1.44-8.88-1.44
		c-1.5,0-2.699,0.601-5.399,2.819c-2.76,2.341-3,2.701-3.36,4.681c-0.84,5.1-0.359,2.159-0.359,2.28c0,0.6,0.12,1.02,0.479,1.5
		l-1.62,1.079c-0.6-0.84-0.899-1.56-0.899-2.399C11.4,30.056,11.339,30.476,11.76,27.716z M15.299,32.876
		c0-2.461,1.74-4.32,4.141-4.32c2.579,0,4.439,1.74,4.439,4.14c0,0.3,0,0.54-0.061,0.841l12.66,2.279
		c0.359-2.1,1.979-3.54,4.08-3.54c2.579,0,4.439,1.74,4.439,4.14c0,2.461-1.74,4.32-4.14,4.32c-2.101,0-3.72-1.141-4.26-2.88
		l-13.62-2.399c-0.72,0.959-1.859,1.56-3.239,1.56C17.16,37.016,15.299,35.276,15.299,32.876z M21.899,32.696
		c0-1.26-1.02-2.159-2.459-2.159c-1.32,0-2.16,0.959-2.16,2.34c0,1.26,1.02,2.16,2.46,2.16
		C21.059,35.037,21.899,34.076,21.899,32.696z M43.018,36.415c0-1.26-1.02-2.16-2.459-2.16c-1.32,0-2.16,0.961-2.16,2.34
		c0,1.261,1.02,2.16,2.46,2.16C42.178,38.755,43.018,37.796,43.018,36.415z"/>
</g>
</svg>
