<?xml version="1.0" encoding="utf-8"?>
<!-- Generator: Adobe Illustrator 22.0.1, SVG Export Plug-In . SVG Version: 6.00 Build 0)  -->
<svg version="1.1" id="ICONS" xmlns="http://www.w3.org/2000/svg" x="0px"
     y="0px"
     viewBox="0 0 60 60" style="enable-background:new 0 0 60 60;" xml:space="preserve">
<g>
	<path d="M33.838,44.997c-0.84,1.56-1.86,3.06-2.82,4.26h-1.92c-0.96-1.2-1.979-2.7-2.819-4.26H14.999c-2.58,0-4.26-1.68-4.26-4.26
		V14.937c0-2.52,1.739-4.2,4.26-4.2h29.998c2.82,0,4.26,1.44,4.26,4.26v25.739c0,2.7-1.619,4.26-4.319,4.26H33.838z M30.058,47.156
		c0.96-1.32,1.681-2.64,2.46-4.32h12.42c1.439,0,2.22-0.78,2.22-2.1V14.997c0-1.38-0.78-2.1-2.16-2.1H14.999
		c-1.261,0-2.101,0.78-2.101,2.04v25.799c0,1.26,0.84,2.1,2.101,2.1h12.6C28.378,44.517,29.098,45.836,30.058,47.156z
		 M25.079,23.637h6v10.68h3.72v2.04h-9.72v-2.04h3.9v-8.64h-3.9V23.637z M31.678,19.797c0,1.2-0.54,1.68-1.68,1.68
		s-1.68-0.48-1.68-1.68c0-1.2,0.54-1.68,1.68-1.68S31.678,18.598,31.678,19.797z"/>
</g>
</svg>
