<?xml version="1.0" encoding="utf-8"?>
<!-- Generator: Adobe Illustrator 22.0.1, SVG Export Plug-In . SVG Version: 6.00 Build 0)  -->
<svg version="1.1" id="ICONS" xmlns="http://www.w3.org/2000/svg" x="0px"
	 y="0px"
	 viewBox="0 0 60 60" style="enable-background:new 0 0 60 60;" xml:space="preserve">
<g>
	<path d="M12.72,31.496c1.319-1.799,2.22-3.239,3.72-5.76l1.619,0.961c-2.159,3.239-3.72,5.399-5.459,7.619h-1.62
		c-1.8-2.22-3.3-4.32-5.46-7.619l1.62-0.961c1.5,2.521,2.399,3.961,3.72,5.76l-0.12-12.18l0.12-12.179
		c-1.32,1.8-2.22,3.239-3.72,5.76l-1.62-0.96c2.16-3.3,3.66-5.4,5.46-7.619h1.62c1.739,2.219,3.3,4.379,5.459,7.619l-1.619,0.96
		c-1.5-2.521-2.4-3.96-3.72-5.76l0.119,12.179L12.72,31.496z M23.639,37.376c-0.899-0.541-1.979-0.961-3-0.961
		c-2.939,0-5.64,2.641-5.64,5.641c0,1.739,0.9,3.359,2.521,4.439l2.459,1.68l-1.079,1.68l-2.82-1.92
		c-2.04-1.439-3.18-3.539-3.18-5.879c0-4.141,3.66-7.74,7.68-7.74c1.56,0,2.939,0.6,4.26,1.38l1.2,0.72l0.54,2.7L23.639,37.376z
		 M47.159,57.294l-0.9-4.979l1.08-1.74c0.72-1.141,1.2-2.1,1.56-3.42c0.36-1.5,0.36-3.9-0.239-6.96l-0.96-4.86
		c-0.24-1.14-0.721-1.68-1.62-1.68c-0.48,0-0.96,0.24-1.44,0.66l-1.8-0.48c-0.18-1.02-1.08-1.56-1.859-1.56
		c-0.54,0-1.08,0.24-1.5,0.66l-1.8-0.479c-0.12-0.84-1.08-1.621-2.04-1.621c-0.66,0-1.141,0.24-1.561,0.66l-1.8-0.479l-1.62-8.399
		c-0.18-0.96-0.72-1.381-1.5-1.381c-0.779,0-1.319,0.541-1.319,1.32c0,0.18,0.06,0.48,0.12,0.84l3.72,21l-1.5,1.02l-8.16-4.26
		c-0.72-0.359-1.14-0.48-1.56-0.48c-0.66,0-1.26,0.541-1.26,1.32c0,0.66,0.3,1.02,1.56,1.68l9.24,4.92l5.879,4.98l-1.56,1.26
		l-5.52-4.68l-9.18-4.801c-1.74-0.899-2.521-1.92-2.521-3.239c0-2.04,1.44-3.479,3.42-3.479c0.96,0,1.5,0.24,2.34,0.66l6.42,3.359
		l-3.42-18.899c-0.12-0.54-0.12-0.78-0.12-1.08c0-1.92,1.44-3.479,3.42-3.479c1.86,0,3.181,1.26,3.54,3.06l1.32,7.08
		c0.54-0.3,1.14-0.48,1.74-0.48c1.56,0,2.819,0.841,3.3,2.16c0.6-0.479,1.26-0.72,1.979-0.72c1.38,0,2.58,0.72,3.12,1.92
		c0.54-0.36,1.2-0.54,1.92-0.54c1.979,0,3.359,1.319,3.72,3.54l0.899,4.799c0.66,3.48,0.78,5.881,0.24,7.92
		c-0.3,1.08-0.72,2.04-1.5,3.301l-0.899,1.439l0.72,4.199L47.159,57.294z M34.619,21.236c-0.479-2.52-2.699-4.139-5.64-4.139
		c-3.24,0-5.46,2.159-5.46,5.219c0,0.541,0.061,0.84,0.12,1.32l0.48,2.88l-1.98,0.42l-0.54-3.12c-0.12-0.66-0.18-1.08-0.18-1.739
		c0-3.96,3.18-7.021,7.56-7.021c4.02,0,6.96,2.101,7.56,5.521l0.72,3.72l-1.979,0.359L34.619,21.236z"/>
</g>
</svg>
