<?xml version="1.0" encoding="utf-8"?>
<!-- Generator: Adobe Illustrator 22.0.1, SVG Export Plug-In . SVG Version: 6.00 Build 0)  -->
<svg version="1.1" id="ICONS" xmlns="http://www.w3.org/2000/svg" x="0px"
     y="0px"
     viewBox="0 0 60 60" style="enable-background:new 0 0 60 60;" xml:space="preserve">
<g>
	<path d="M12.299,32.936c-3.18-0.42-5.76-0.899-9.179-1.68l-0.721-1.5c1.26-2.58,2.521-4.8,4.62-8.159l1.56,1.079
		C6.9,25.136,6,26.576,4.92,28.436L15.9,23.277l0.84,1.859l-11.1,5.04c2.16,0.42,3.84,0.6,6.84,0.899L12.299,32.936z M28.979,15.837
		c-0.899-1.98-2.58-3-4.739-3c-3.181,0-5.7,2.219-5.7,5.039c0,0.96,0.18,1.92,0.54,2.7l1.32,2.819l-1.801,0.9l-1.439-3.061
		c-0.48-1.02-0.72-2.1-0.72-3.359c0-3.899,3.479-7.08,7.8-7.08c2.819,0,5.339,1.621,6.6,4.26l1.38,2.881l-1.86,0.84L28.979,15.837z
		 M48.778,28.676c1.86,3.899,2.641,6.42,2.641,8.88c0,0.72-0.181,1.74-0.54,3.24l-0.48,1.619l1.8,3.9l-1.92,0.959l-2.159-4.619
		l0.6-1.92c0.36-1.32,0.48-2.34,0.48-3.3c0-2.101-0.54-4.2-1.92-7.08l-2.16-4.439c-0.42-0.9-0.9-1.261-1.62-1.261
		c-0.66,0-1.2,0.36-1.62,1.08h-1.859c-0.42-0.72-0.96-1.08-1.74-1.08s-1.32,0.36-1.74,1.08h-1.859c-0.42-0.72-1.021-1.08-1.86-1.08
		s-1.439,0.36-1.859,1.08h-1.86l-3.66-7.739c-0.3-0.66-0.72-1.021-1.319-1.021c-0.78,0-1.44,0.541-1.44,1.261
		c0,0.3,0.061,0.54,0.24,0.899l8.819,19.14l-1.859,0.84l-6.3-4.5c-0.3-0.3-0.601-0.42-1.021-0.42c-0.779,0-1.319,0.479-1.319,1.32
		c0,0.6,0.239,0.96,1.02,1.56l13.8,10.32l2.46,5.34l-1.86,0.84l-2.34-4.92L20.82,38.515c-1.021-0.719-1.681-1.92-1.681-2.939
		c0-1.859,1.5-3.42,3.36-3.42c0.84,0,1.68,0.301,2.52,0.961l3.12,2.34l-7.14-15.42c-0.3-0.6-0.42-1.141-0.42-1.74
		c0-1.8,1.56-3.3,3.42-3.3c1.439,0,2.76,0.841,3.359,2.101l3,6.539c0.66-0.66,1.5-1.02,2.46-1.02c1.14,0,2.16,0.479,2.76,1.38
		c0.66-0.9,1.62-1.38,2.7-1.38c1.02,0,1.92,0.42,2.58,1.26c0.66-0.84,1.68-1.26,2.76-1.26c1.439,0,2.64,0.9,3.479,2.64
		L48.778,28.676z M42.958,18.836l-1.56-1.079c1.68-2.461,2.579-3.9,3.659-5.76l-10.979,5.159l-0.84-1.86l11.1-5.039
		c-2.16-0.42-3.84-0.601-6.84-0.9l0.181-1.859c3.18,0.42,5.76,0.899,9.179,1.68l0.721,1.5
		C46.319,13.257,45.058,15.476,42.958,18.836z"/>
</g>
</svg>
