<?xml version="1.0" encoding="utf-8"?>
<!-- Generator: Adobe Illustrator 22.0.1, SVG Export Plug-In . SVG Version: 6.00 Build 0)  -->
<svg version="1.1" id="ICONS" xmlns="http://www.w3.org/2000/svg" x="0px"
     y="0px"
     viewBox="0 0 60 60" style="enable-background:new 0 0 60 60;" xml:space="preserve">
<g>
	<path d="M21.959,47.095c-2.82,0-4.56-1.68-4.86-4.68L15.06,19.857c-0.061-0.42-0.061-0.78-0.061-1.021c0-2.28,1.5-3.78,3.84-3.78
		c0.601,0,1.08,0.061,1.561,0.24l21.179,6.66c3.6,1.14,5.52,3.9,5.52,8.039c0,3.78-1.439,6.18-4.739,7.801l-17.64,8.639
		C23.819,46.855,22.919,47.095,21.959,47.095z M18.839,20.876c1.26,0,2.04-0.779,2.04-2.04c0-1.319-0.72-2.04-2.04-2.04
		c-1.319,0-2.04,0.721-2.04,2.04C16.799,20.097,17.58,20.876,18.839,20.876z M26.759,43.076l10.02-4.859
		c-4.38-0.84-6.72-3.721-6.72-8.221c0-4.02,1.86-6.719,5.34-7.859l-12.84-4.14c0.061,0.181,0.12,0.54,0.12,0.84
		c0,2.28-1.56,3.78-3.84,3.78c-0.54,0-0.96-0.061-1.56-0.24l1.439,16.199c0.9-0.84,1.98-1.199,3.24-1.199
		c2.939,0,4.859,1.92,4.859,4.859C26.819,42.716,26.819,42.835,26.759,43.076z M21.959,45.116c1.8,0,2.819-1.08,2.819-2.88
		c0-1.801-1.079-2.88-2.819-2.88c-1.68,0-2.82,1.14-2.82,2.88S20.219,45.116,21.959,45.116z M32.159,29.996
		c0,4.021,2.4,6.42,6.3,6.42c4.14,0,6.54-2.399,6.54-6.42c0-4.02-2.46-6.419-6.479-6.419C34.559,23.577,32.159,26.037,32.159,29.996
		z"/>
</g>
</svg>
