<?xml version="1.0" encoding="utf-8"?>
<!-- Generator: Adobe Illustrator 22.0.1, SVG Export Plug-In . SVG Version: 6.00 Build 0)  -->
<svg version="1.1" id="ICONS" xmlns="http://www.w3.org/2000/svg" x="0px"
     y="0px"
     viewBox="0 0 60 60" style="enable-background:new 0 0 60 60;" xml:space="preserve">
<g>
	<path d="M40.138,20.158l-1.8,1.26c-2.94-4.44-4.74-6.78-8.34-10.859c-3.6,4.079-5.399,6.419-8.34,10.859l-1.8-1.26
		c3.42-4.98,5.46-7.62,9-11.58h2.279C34.678,12.538,36.718,15.177,40.138,20.158z M28.859,51.415c-3.54-3.959-5.58-6.6-9-11.579
		l1.8-1.26c2.94,4.439,4.74,6.779,8.34,10.859c3.6-4.08,5.399-6.42,8.34-10.859l1.8,1.26c-3.42,4.979-5.46,7.62-9,11.579H28.859z"/>
</g>
</svg>
