<?xml version="1.0" encoding="utf-8"?>
<!-- Generator: Adobe Illustrator 22.0.1, SVG Export Plug-In . SVG Version: 6.00 Build 0)  -->
<svg version="1.1" id="ICONS" xmlns="http://www.w3.org/2000/svg" x="0px"
	 y="0px"
	 viewBox="0 0 60 60" style="enable-background:new 0 0 60 60;" xml:space="preserve">
<g>
	<path d="M32.159,17.817c0-2.4,1.5-3.66,4.26-3.66s4.26,1.26,4.26,3.66v1.56h4.32v23.399H14.999V19.376h4.32v-1.56
		c0-2.4,1.5-3.66,4.26-3.66s4.26,1.26,4.26,3.66v1.56h4.319V17.817z M42.899,40.736V21.416h-25.8v19.319H42.899z M21.419,19.376
		h4.319v-0.96c0-1.68-0.539-2.22-2.159-2.22s-2.16,0.54-2.16,2.22V19.376z M30.359,36.356h-0.96l0.601-4.26h-2.94l2.04-6.36h2.28
		l-1.5,4.381h3.479L30.359,36.356z M34.259,19.376h4.319v-0.96c0-1.68-0.54-2.22-2.16-2.22c-1.619,0-2.159,0.54-2.159,2.22V19.376z"
    />
</g>
</svg>
