<?xml version="1.0" encoding="utf-8"?>
<!-- Generator: Adobe Illustrator 22.0.1, SVG Export Plug-In . SVG Version: 6.00 Build 0)  -->
<svg version="1.1" id="ICONS" xmlns="http://www.w3.org/2000/svg" x="0px"
     y="0px"
     viewBox="0 0 60 60" style="enable-background:new 0 0 60 60;" xml:space="preserve">
<g>
	<path d="M6.78,22.017c-0.181,2.279-0.36,9.359-0.36,13.919c0,1.979,0.78,2.76,2.82,2.76h0.42v2.04H8.939
		c-3.119,0-4.619-1.561-4.619-4.8c0-4.86,0.18-11.999,0.359-13.919c0.24-3.601,1.5-4.801,5.04-4.801h18.06v2.04H9.419
		C7.499,19.256,6.9,19.857,6.78,22.017z M19.859,38.636h22.379v-0.061c0-2.52,1.681-4.199,4.26-4.199c2.521,0,4.26,1.68,4.26,4.199
		c0,2.46-1.739,4.2-4.26,4.2c-1.739,0-3.06-0.78-3.779-2.101H19.379c-0.66,1.32-2.04,2.101-3.78,2.101c-2.52,0-4.26-1.681-4.26-4.2
		c0-2.46,1.74-4.199,4.26-4.199s4.26,1.68,4.26,4.199V38.636z M15.599,36.356c-1.38,0-2.28,0.899-2.28,2.22
		c0,1.38,0.9,2.221,2.28,2.221c1.44,0,2.28-0.841,2.28-2.221S16.979,36.356,15.599,36.356z M43.497,21.176l3.48,3.84l4.439,1.62
		c2.88,1.02,3.66,1.98,4.021,4.74c0.18,1.319,0.239,2.699,0.239,5.459c0,1.86-1.08,2.94-3.239,3.24v-2.1
		c0.84-0.18,1.14-0.48,1.14-1.08c0-2.221-0.06-3.72-0.24-5.04c-0.24-1.979-0.779-2.7-2.399-3.239l-5.1-1.801l-3.78-4.14
		c-2.82-3.06-3.72-3.42-8.939-3.42h-1.021v17.159h-2.1V17.216h3.12C38.758,17.216,40.498,17.876,43.497,21.176z M46.497,40.796
		c1.38,0,2.28-0.9,2.28-2.221c0-1.38-0.9-2.22-2.28-2.22c-1.439,0-2.279,0.84-2.279,2.22S45.118,40.796,46.497,40.796z"/>
</g>
</svg>
