<?xml version="1.0" encoding="utf-8"?>
<!-- Generator: Adobe Illustrator 22.0.1, SVG Export Plug-In . SVG Version: 6.00 Build 0)  -->
<svg version="1.1" id="ICONS" xmlns="http://www.w3.org/2000/svg" x="0px"
     y="0px"
     viewBox="0 0 60 60" style="enable-background:new 0 0 60 60;" xml:space="preserve">
<g>
	<path d="M8.58,12.898h42.839v34.199H8.58V12.898z M49.319,45.057V14.937H10.681v30.119H49.319z M23.22,28.977l-8.52-8.64
		c0.36,2.22,0.72,3.84,1.439,6.72l-1.8,0.42c-0.779-3.78-1.199-6.419-1.56-9.239l1.2-1.14c2.819,0.3,5.34,0.72,9.239,1.56
		l-0.479,1.8c-2.88-0.72-4.561-1.08-6.72-1.5l8.64,8.52L23.22,28.977z M13.981,42.836l-1.2-1.14c0.36-2.82,0.78-5.46,1.56-9.24
		l1.8,0.42c-0.72,2.88-1.079,4.5-1.439,6.72l8.52-8.64l1.44,1.5l-8.64,8.52c2.159-0.42,3.84-0.78,6.72-1.5l0.479,1.8
		C19.321,42.117,16.8,42.537,13.981,42.836z M45.299,20.337l-8.52,8.64l-1.44-1.5l8.64-8.52c-2.159,0.42-3.84,0.78-6.72,1.5
		l-0.479-1.8c3.899-0.84,6.42-1.26,9.239-1.56l1.2,1.14c-0.36,2.82-0.78,5.459-1.56,9.239l-1.8-0.42
		C44.58,24.177,44.939,22.558,45.299,20.337z M46.019,42.836c-2.819-0.3-5.34-0.72-9.239-1.56l0.479-1.8
		c2.88,0.72,4.561,1.08,6.72,1.5l-8.64-8.52l1.44-1.5l8.52,8.64c-0.36-2.22-0.72-3.84-1.439-6.72l1.8-0.42
		c0.779,3.78,1.199,6.42,1.56,9.24L46.019,42.836z"/>
</g>
</svg>
