<?xml version="1.0" encoding="utf-8"?>
<!-- Generator: Adobe Illustrator 22.0.1, SVG Export Plug-In . SVG Version: 6.00 Build 0)  -->
<svg version="1.1" id="ICONS" xmlns="http://www.w3.org/2000/svg" x="0px"
     y="0px"
     viewBox="0 0 60 60" style="enable-background:new 0 0 60 60;" xml:space="preserve">
<g>
	<path d="M23.58,40.796c-8.28,0-14.999-6.721-14.999-15c0-8.34,6.719-15.06,14.999-15.06c7.439,0,13.8,5.58,14.819,12.96
		c-0.779,0-1.5,0.06-2.22,0.18c-0.96-6.3-6.36-10.92-12.659-10.92c-7.08,0-12.779,5.76-12.779,12.84s5.699,12.779,12.779,12.779
		c1.08,0,1.799-0.061,2.34-0.24c0.119,1.08,0.24,1.62,0.479,2.221C25.021,40.736,24.3,40.796,23.58,40.796z M26.34,25.197
		c-0.72-1.5-0.181-2.58,2.101-4.32l1.379-1.08c-0.72-0.72-1.56-1.38-2.459-1.859l-0.601,1.68c-0.84,2.46-1.62,3.24-3.239,3.24
		c-1.561,0-2.34-0.78-3.18-3.24l-0.601-1.62c-0.899,0.42-1.739,1.021-2.46,1.8l1.38,1.08c2.22,1.74,2.7,2.58,2.16,3.96
		c-0.66,1.62-1.681,2.159-4.14,2.159H14.88c0.181,1.021,0.48,2.041,0.961,2.881l1.439-0.961c2.16-1.439,3.18-1.619,4.561-0.719
		c1.199,0.779,1.319,1.799,0.6,4.439l-0.541,1.8c0.541,0.06,1.08,0.12,1.621,0.12c0.66,0,1.199-0.061,1.619-0.12l-0.539-1.8
		c-0.721-2.641-0.601-3.66,0.6-4.439c1.08-0.721,1.92-0.721,3.24-0.061c-0.24,0.359-0.48,0.72-0.961,1.38
		c-0.6-0.12-0.779-0.12-1.14,0.12c-0.479,0.359-0.479,0.66-0.12,1.92l0.12,0.42c-0.42,1.26-0.601,2.699-0.601,4.26
		c-0.539,0.18-1.26,0.24-2.219,0.24c-5.881,0-10.68-4.8-10.68-10.68c0-5.939,4.739-10.74,10.68-10.74c5.459,0,9.959,3.9,10.619,9.24
		c-1.92,0.66-3.42,1.5-4.619,2.64C27.9,26.816,26.82,26.216,26.34,25.197z M18.06,22.676l-1.92-1.44
		c-0.719,1.141-1.199,2.461-1.319,3.9h2.399c1.141,0,1.681-0.24,1.86-0.779C19.261,23.816,19.08,23.517,18.06,22.676z M18.72,30.056
		l-1.859,1.38c0.9,1.08,1.98,1.86,3.24,2.399l0.72-2.279c0.36-1.26,0.36-1.561-0.12-1.92C20.101,29.277,19.56,29.396,18.72,30.056z
		 M24.84,19.556l0.72-2.22c-0.6-0.18-1.26-0.239-1.92-0.239c-0.72,0-1.439,0.06-2.1,0.239l0.721,2.22c0.42,1.2,0.659,1.5,1.26,1.5
		C24.121,21.056,24.48,20.636,24.84,19.556z M38.52,47.095c-6.54,0-10.68-4.14-10.68-10.68c0-6.6,4.14-10.68,10.68-10.68
		c6.6,0,10.679,4.08,10.679,10.68C49.199,42.956,45.12,47.095,38.52,47.095z M32.1,25.136c-0.12-1.38-0.54-2.699-1.2-3.84
		l-1.859,1.38c-1.02,0.841-1.2,1.14-1.02,1.681c0.18,0.539,0.719,0.779,1.859,0.779H32.1z M38.52,45.056
		c5.34,0,8.579-3.24,8.579-8.641c0-5.399-3.239-8.639-8.579-8.639s-8.579,3.239-8.579,8.639
		C29.941,41.816,33.18,45.056,38.52,45.056z M38.94,40.616h-2.101c-1.26-1.739-1.979-2.819-2.819-4.26l1.8-1.021
		c0.66,1.08,1.32,2.101,2.04,3.18c1.319-2.039,2.399-4.02,3.78-6.539l1.799,1.02C41.58,36.356,40.56,38.095,38.94,40.616z"/>
</g>
</svg>
