<?xml version="1.0" encoding="utf-8"?>
<!-- Generator: Adobe Illustrator 22.0.1, SVG Export Plug-In . SVG Version: 6.00 Build 0)  -->
<svg version="1.1" id="ICONS" xmlns="http://www.w3.org/2000/svg" x="0px"
     y="0px"
     viewBox="0 0 60 60" style="enable-background:new 0 0 60 60;" xml:space="preserve">
<g>
	<path d="M44.938,19.258v29.938H15.059V10.678h21.359C40.138,13.858,43.078,16.798,44.938,19.258z M42.838,47.156V21.297h-8.52
		v-8.58h-17.16v34.438H42.838z M28.919,27.657h-4.2c-1.08,0-1.44,0.18-2.52,1.38c-0.72,0.84-0.9,1.2-0.9,2.04v1.38
		c0,0.66,0.12,1.08,0.48,1.62l-1.62,0.78c-0.54-0.78-0.72-1.38-0.72-2.4v-1.38c0-1.38,0.3-2.1,1.38-3.3
		c1.32-1.5,2.04-1.86,3.84-1.86h4.26c2.1,0,3.36,0.42,5.16,1.62l1.14,0.78l2.04,0.42c2.28,0.48,3.36,1.8,3.36,4.08
		c0,0.78-0.18,1.5-0.54,2.04l-1.56-0.78c0.18-0.3,0.24-0.66,0.24-1.26c0-1.38-0.6-2.1-2.04-2.4l-2.22-0.42l-2.46-1.56
		C31.018,27.777,30.538,27.657,28.919,27.657z M35.338,37.917c-1.26,0-2.16-0.66-2.46-1.68h-5.459c-0.3,1.02-1.2,1.68-2.46,1.68
		c-1.56,0-2.58-1.02-2.58-2.52s1.02-2.52,2.58-2.52c1.2,0,2.1,0.6,2.46,1.62h5.459c0.36-1.02,1.26-1.62,2.46-1.62
		c1.56,0,2.58,1.02,2.58,2.52S36.898,37.917,35.338,37.917z M24.959,34.437c-0.6,0-0.96,0.36-0.96,0.96s0.36,0.96,0.96,0.96
		s0.96-0.36,0.96-0.96S25.559,34.437,24.959,34.437z M35.338,34.437c-0.6,0-0.96,0.36-0.96,0.96s0.36,0.96,0.96,0.96
		c0.6,0,0.96-0.36,0.96-0.96S35.938,34.437,35.338,34.437z M42.298,19.317c-2.16-2.46-4.2-4.5-5.94-5.939v5.939H42.298z"/>
</g>
</svg>
