<?xml version="1.0" encoding="utf-8"?>
<!-- Generator: Adobe Illustrator 22.0.1, SVG Export Plug-In . SVG Version: 6.00 Build 0)  -->
<svg version="1.1" id="ICONS" xmlns="http://www.w3.org/2000/svg" x="0px"
     y="0px"
     viewBox="0 0 60 60" style="enable-background:new 0 0 60 60;" xml:space="preserve">
<g>
	<path d="M30.06,47.097c-3.66-2.28-7.2-4.86-11.58-8.52H8.58V21.417h9.899c3.78-3.36,7.26-5.94,11.58-8.52h2.04v34.199H30.06z
		 M19.26,36.477c4.38,3.72,6.72,5.459,10.8,8.1V15.418c-4.08,2.459-6.54,4.319-10.8,8.1h-8.64v12.959H19.26z M38.58,22.078
		l5.34,5.339l5.34-5.339l1.5,1.5l-5.34,5.34l5.34,5.4l-1.5,1.5l-5.34-5.34l-5.34,5.34l-1.5-1.5l5.34-5.4l-5.34-5.34L38.58,22.078z"
    />
</g>
</svg>
