<?xml version="1.0" encoding="utf-8"?>
<!-- Generator: Adobe Illustrator 22.0.1, SVG Export Plug-In . SVG Version: 6.00 Build 0)  -->
<svg version="1.1" id="ICONS" xmlns="http://www.w3.org/2000/svg" x="0px"
     y="0px"
     viewBox="0 0 60 60" style="enable-background:new 0 0 60 60;" xml:space="preserve">
<g>
	<path d="M22.919,38.576c-1.2,2.641-3.72,4.26-6.84,4.26c-4.38,0-7.5-3.119-7.5-7.5c0-4.5,3.12-7.439,7.8-7.439h0.66l-1.26,1.98
		c-3.18,0.119-5.1,2.22-5.1,5.459c0,3.36,2.04,5.461,5.399,5.461c2.1,0,3.66-0.781,4.56-2.221H22.919z M16.139,36.415l-1.079-1.74
		l7.68-12.119l-1.86-3.3h-3.72v-2.04h8.579v2.04h-2.52l1.2,2.22h14.399l1.08,1.74l-8.34,13.199H16.139z M29.339,34.376l-5.521-9.9
		l-6.299,9.9H29.339z M31.079,33.537l6.36-10.02h-11.88L31.079,33.537z M36.418,17.216h4.98c2.579,0,4.079,1.32,4.079,3.6
		c0,1.44-0.96,2.82-2.64,3.721l-1.08-1.74c0.96-0.54,1.561-1.26,1.561-1.98c0-1.02-0.721-1.56-2.04-1.56h-4.86V17.216z
		 M51.418,35.335c0,4.381-3.12,7.5-7.5,7.5s-7.5-3.119-7.5-7.5c0-4.379,3.12-7.499,7.5-7.499S51.418,30.956,51.418,35.335z
		 M38.519,35.335c0,3.36,2.04,5.461,5.399,5.461c3.36,0,5.399-2.101,5.399-5.461c0-3.359-2.039-5.459-5.399-5.459
		C40.559,29.876,38.519,31.976,38.519,35.335z"/>
</g>
</svg>
