<?xml version="1.0" encoding="utf-8"?>
<!-- Generator: Adobe Illustrator 22.0.1, SVG Export Plug-In . SVG Version: 6.00 Build 0)  -->
<svg version="1.1" id="ICONS" xmlns="http://www.w3.org/2000/svg" x="0px"
     y="0px"
     viewBox="0 0 60 60" style="enable-background:new 0 0 60 60;" xml:space="preserve">
<g>
	<path d="M8.58,35.276v-2.04c1.141-0.779,2.4-1.08,4.26-1.08h34.319c1.859,0,3.119,0.301,4.26,1.08v2.04
		c-1.38-0.78-2.641-1.08-4.26-1.08H34.259v12.899h-2.101V34.196h-4.319v12.899h-2.101V34.196H12.839
		C11.22,34.196,9.959,34.496,8.58,35.276z M10.74,24.296c0-2.939,0.18-3.359,3.12-6.84c3-3.6,4.439-4.439,7.619-4.439h7.62
		c3.359,0,5.22,0.6,7.979,2.459l4.56,3.42l2.94,0.721c3.18,0.72,4.68,2.58,4.68,5.64c0,1.5-0.42,2.819-1.2,3.899l-1.68-1.199
		c0.6-0.9,0.78-1.561,0.78-2.7c0-2.101-1.08-3.239-3.78-3.899l-2.939-0.721l-4.44-3.359c-2.159-1.62-4.02-2.221-6.899-2.221h-7.62
		c-2.46,0-3.359,0.601-6.119,3.9c-2.34,2.88-2.521,3.18-2.521,5.64v1.261c0,0.899,0.181,1.439,0.721,1.979l-1.44,1.319
		c-0.96-0.84-1.38-1.859-1.38-3.299V24.296z M36.479,27.956c0-2.52,1.739-4.2,4.26-4.2c2.58,0,4.26,1.681,4.26,4.2
		s-1.74,4.199-4.26,4.199c-1.74,0-3.12-0.84-3.78-2.16H23.099c-0.66,1.32-2.04,2.16-3.779,2.16c-2.521,0-4.26-1.74-4.26-4.199
		c0-2.52,1.739-4.2,4.26-4.2c2.579,0,4.26,1.681,4.26,4.2H36.479z M19.32,25.736c-1.38,0-2.28,0.84-2.28,2.221
		c0,1.32,0.9,2.22,2.28,2.22s2.279-0.84,2.279-2.22C21.599,26.576,20.759,25.736,19.32,25.736z M40.739,25.736
		c-1.38,0-2.28,0.84-2.28,2.221c0,1.32,0.9,2.22,2.28,2.22s2.279-0.84,2.279-2.22C43.018,26.576,42.178,25.736,40.739,25.736z"/>
</g>
</svg>
