<?xml version="1.0" encoding="utf-8"?>
<!-- Generator: Adobe Illustrator 22.0.1, SVG Export Plug-In . SVG Version: 6.00 Build 0)  -->
<svg version="1.1" id="ICONS" xmlns="http://www.w3.org/2000/svg" x="0px"
	 y="0px"
	 viewBox="0 0 60 60" style="enable-background:new 0 0 60 60;" xml:space="preserve">
<g>
	<path d="M4.68,19.857c-0.18,2.52-0.36,10.379-0.36,16.079c0,1.979,0.78,2.76,2.82,2.76h1.92v2.04H6.84c-3.12,0-4.62-1.561-4.62-4.8
		c0-6.06,0.18-13.919,0.36-16.079c0.24-3.6,1.5-4.801,5.04-4.801h22.379v2.041H7.32C5.4,17.097,4.8,17.697,4.68,19.857z
		 M14.999,44.935c-2.52,0-4.26-1.739-4.26-4.199c0-2.52,1.74-4.2,4.26-4.2c1.74,0,3.12,0.78,3.78,2.101h26.099
		c0.72-1.32,2.04-2.101,3.78-2.101c2.52,0,4.26,1.74,4.26,4.2c0,2.52-1.74,4.199-4.26,4.199c-2.58,0-4.26-1.68-4.26-4.199v-0.061
		H19.259v0.061C19.259,43.255,17.519,44.935,14.999,44.935z M14.999,38.515c-1.38,0-2.28,0.841-2.28,2.221
		c0,1.32,0.9,2.22,2.28,2.22s2.28-0.84,2.28-2.22S16.439,38.515,14.999,38.515z M44.398,19.796l5.58,6.3l3.6,1.261
		c2.88,1.02,3.66,1.979,4.02,4.739c0.18,1.26,0.24,2.579,0.24,4.739c0,1.86-1.08,2.94-3.24,3.24v-2.1c0.84-0.18,1.14-0.48,1.14-1.08
		c0-1.859-0.06-3.12-0.24-4.32c-0.24-1.979-0.78-2.699-2.4-3.239l-4.26-1.44l-5.879-6.6c-3.18-3.6-4.2-4.14-8.7-4.199v19.318h-2.1
		V15.056h1.32C39.178,15.056,40.858,15.777,44.398,19.796z M48.658,42.956c1.38,0,2.28-0.84,2.28-2.22c0-1.32-0.9-2.221-2.28-2.221
		c-1.38,0-2.28,0.841-2.28,2.221S47.218,42.956,48.658,42.956z"/>
</g>
</svg>
