<?xml version="1.0" encoding="utf-8"?>
<!-- Generator: Adobe Illustrator 22.0.1, SVG Export Plug-In . SVG Version: 6.00 Build 0)  -->
<svg version="1.1" id="ICONS" xmlns="http://www.w3.org/2000/svg" x="0px"
     y="0px"
     viewBox="0 0 60 60" style="enable-background:new 0 0 60 60;" xml:space="preserve">
<g>
	<path d="M44.338,21.357H15.66l-2.64,6.479h-2.4l2.521-6.479H8.58v-2.041h42.839v2.041h-4.561l2.521,6.479h-2.4L44.338,21.357z
		 M9.78,44.996l7.56-21.359h2.34L12.36,44.996H9.78z M19.679,17.157l1.561-4.319h2.22l-1.5,4.319H19.679z M28.979,17.157v-4.319h2.1
		v4.319H28.979z M28.979,29.996v-6.359h2.1v6.359H28.979z M28.979,34.255h2.1v10.74h-2.1V34.255z M38.099,17.157l-1.5-4.319h2.22
		l1.56,4.319H38.099z M40.319,23.636h2.34l7.619,21.359h-2.579L40.319,23.636z"/>
</g>
</svg>
