<?xml version="1.0" encoding="utf-8"?>
<!-- Generator: Adobe Illustrator 22.0.1, SVG Export Plug-In . SVG Version: 6.00 Build 0)  -->
<svg version="1.1" id="ICONS" xmlns="http://www.w3.org/2000/svg" x="0px"
	 y="0px"
	 viewBox="0 0 60 60" style="enable-background:new 0 0 60 60;" xml:space="preserve">
<g>
	<path d="M17.101,47.156h-2.1v-3.12c0-8.52,3.479-13.74,9.898-15.479c-2.219-1.44-3.479-3.9-3.479-7.14
		c0-5.46,3.181-8.64,8.579-8.64c5.4,0,8.58,3.24,8.58,8.64c0,3.24-1.26,5.7-3.479,7.14c6.479,1.68,9.899,6.9,9.899,15.479v3.12h-2.1
		v-3c0-9.3-4.561-14.22-12.9-14.22c-8.279,0-12.898,4.98-12.898,14.22V47.156z M36.48,21.417c0-4.26-2.279-6.6-6.48-6.6
		c-4.139,0-6.479,2.34-6.479,6.6c0,4.14,2.34,6.48,6.479,6.48C34.14,27.897,36.48,25.497,36.48,21.417z"/>
</g>
</svg>
