<?xml version="1.0" encoding="utf-8"?>
<!-- Generator: Adobe Illustrator 22.0.1, SVG Export Plug-In . SVG Version: 6.00 Build 0)  -->
<svg version="1.1" id="ICONS" xmlns="http://www.w3.org/2000/svg" x="0px"
	 y="0px"
	 viewBox="0 0 60 60" style="enable-background:new 0 0 60 60;" xml:space="preserve">
<g>
	<path d="M30.06,47.097c-3.78-2.34-7.319-4.98-11.58-8.52H8.58V21.417h9.899c3.84-3.42,7.32-6,11.58-8.52h2.04v34.199H30.06z
		 M19.26,36.477c4.32,3.66,6.66,5.399,10.8,8.1V15.418c-4.02,2.399-6.479,4.26-10.8,8.1h-8.64v12.959H19.26z M38.16,18.298
		l1.68-1.14c3.54,4.62,5.16,8.58,5.16,12.839s-1.62,8.22-5.16,12.839l-1.68-1.14c3.3-4.5,4.74-7.98,4.74-11.7
		S41.459,22.797,38.16,18.298z M43.32,14.997l1.68-1.14c4.439,5.76,6.42,10.739,6.42,16.139c0,5.46-2.04,10.56-6.42,16.14
		l-1.68-1.14c4.14-5.58,5.999-10.2,5.999-15C49.319,25.137,47.519,20.578,43.32,14.997z"/>
</g>
</svg>
