<?xml version="1.0" encoding="utf-8"?>
<!-- Generator: Adobe Illustrator 22.0.1, SVG Export Plug-In . SVG Version: 6.00 Build 0)  -->
<svg version="1.1" id="ICONS" xmlns="http://www.w3.org/2000/svg" x="0px"
	 y="0px"
	 viewBox="0 0 60 60" style="enable-background:new 0 0 60 60;" xml:space="preserve">
<g>
	<path d="M12.901,21.236h-1.5c-3.3,0-4.979-1.439-4.979-4.199c0-2.82,1.68-4.26,4.979-4.26h10.32c2.399,0,3.539,0.18,7.68,1.32
		c3.779,1.08,4.859,1.92,4.859,3.84c0,2.34-1.62,3.299-5.52,3.299h-0.96v2.16h-2.04v-2.16h-10.8v2.16h-2.04V21.236z M8.581,35.276
		v3.36c0,1.08,0.359,1.619,1.38,1.859l1.26,0.301v2.1l-1.26-0.301c-2.521-0.6-3.48-1.739-3.48-3.959v-3.301
		c0-3.06,0.24-3.719,1.86-5.34l1.02-1.02l2.101,0.6l-1.561,1.621C8.822,32.335,8.581,33.056,8.581,35.276z M8.521,17.037
		c0,1.439,0.96,2.16,2.88,2.16H28.8c2.34,0,3.42-0.42,3.42-1.26s-0.6-1.26-2.76-1.86c-3.6-1.021-5.1-1.26-7.739-1.26h-10.32
		C9.481,14.817,8.521,15.597,8.521,17.037z M34.14,29.996c-2.7-1.68-4.439-2.159-8.039-2.159h-13.32l-4.199-0.96v-1.08h17.52
		c4.079,0,6.119,0.54,9.06,2.34l6.06,3.72l7.439,1.14c2.34,0.36,3.24,0.961,4.08,2.76c0.479,1.021,0.84,2.7,0.84,3.9
		c0,1.859-1.08,2.939-3.18,3.24v-2.1c0.84-0.181,1.14-0.48,1.14-1.08c0-0.721-0.24-1.98-0.54-2.76c-0.54-1.381-1.02-1.74-2.58-1.98
		l-8.22-1.2L34.14,29.996z M17.101,47.095c-2.52,0-4.26-1.68-4.26-4.199c0-2.461,1.74-4.2,4.26-4.2c1.74,0,3.12,0.84,3.779,2.16
		h19.8c0.66-1.32,2.04-2.16,3.779-2.16c2.521,0,4.26,1.739,4.26,4.2c0,2.52-1.739,4.199-4.26,4.199c-2.579,0-4.26-1.68-4.26-4.199
		H21.361C21.361,45.415,19.681,47.095,17.101,47.095z M17.101,40.675c-1.38,0-2.28,0.9-2.28,2.221c0,1.379,0.9,2.22,2.28,2.22
		c1.439,0,2.28-0.841,2.28-2.22C19.381,41.515,18.481,40.675,17.101,40.675z M44.459,45.116c1.38,0,2.28-0.841,2.28-2.22
		c0-1.32-0.9-2.221-2.28-2.221s-2.279,0.84-2.279,2.221C42.18,44.275,43.02,45.116,44.459,45.116z"/>
</g>
</svg>
