<?xml version="1.0" encoding="utf-8"?>
<!-- Generator: Adobe Illustrator 22.0.1, SVG Export Plug-In . SVG Version: 6.00 Build 0)  -->
<svg version="1.1" id="ICONS" xmlns="http://www.w3.org/2000/svg" x="0px"
     y="0px"
     viewBox="0 0 60 60" style="enable-background:new 0 0 60 60;" xml:space="preserve">
<g>
	<path d="M52.438,44.335v-2.1c0.84-0.18,1.14-0.48,1.14-1.08c0-2.04-0.06-3.6-0.239-5.04c-0.24-1.979-0.78-2.7-2.4-3.239l-5.1-1.801
		l-3.78-4.14c-2.819-3.06-3.72-3.419-8.939-3.419H9.419c-1.92,0-2.52,0.6-2.64,2.76C6.6,28.617,6.42,35.696,6.42,40.196
		c0,1.979,0.779,2.76,2.819,2.76h0.42v2.04H8.94c-3.12,0-4.62-1.561-4.62-4.8c0-4.8,0.181-11.939,0.36-13.919
		c0.24-3.601,1.5-4.801,5.04-4.801h23.398c5.64,0,7.38,0.66,10.38,3.961l3.479,3.84l4.44,1.619c2.88,1.02,3.659,1.98,4.02,4.74
		c0.18,1.32,0.24,2.699,0.24,5.459C55.678,42.956,54.598,44.036,52.438,44.335z M19.86,42.896h22.379v-0.061
		c0-2.52,1.68-4.199,4.26-4.199c2.52,0,4.26,1.68,4.26,4.199c0,2.46-1.74,4.2-4.26,4.2c-1.74,0-3.06-0.78-3.78-2.101H19.379
		c-0.66,1.32-2.04,2.101-3.779,2.101c-2.521,0-4.261-1.681-4.261-4.2c0-2.46,1.74-4.199,4.261-4.199c2.52,0,4.26,1.68,4.26,4.199
		V42.896z M15.6,40.616c-1.381,0-2.28,0.899-2.28,2.22c0,1.38,0.899,2.221,2.28,2.221c1.439,0,2.279-0.841,2.279-2.221
		S16.98,40.616,15.6,40.616z M19.979,13.796l1.561-1.56l4.319,4.319l-1.56,1.561L19.979,13.796z M28.979,16.857
		c1.32,0,1.98,0.84,1.98,2.399h-3.96C26.999,17.636,27.659,16.857,28.979,16.857z M27.959,8.578h2.1v6.419h-2.1V8.578z
		 M32.279,16.556l4.32-4.319l1.56,1.56l-4.319,4.32L32.279,16.556z M46.498,45.056c1.38,0,2.279-0.9,2.279-2.221
		c0-1.38-0.899-2.22-2.279-2.22c-1.44,0-2.28,0.84-2.28,2.22S45.119,45.056,46.498,45.056z"/>
</g>
</svg>
