<?xml version="1.0" encoding="utf-8"?>
<!-- Generator: Adobe Illustrator 22.0.1, SVG Export Plug-In . SVG Version: 6.00 Build 0)  -->
<svg version="1.1" id="ICONS" xmlns="http://www.w3.org/2000/svg" x="0px"
     y="0px"
     viewBox="0 0 60 60" style="enable-background:new 0 0 60 60;" xml:space="preserve">
<g>
	<path d="M16.799,47.156c-4.8,0-8.22-3.12-8.22-7.5c0-4.14,3.12-7.199,7.56-7.439c0.36-5.1,4.2-8.58,9.6-8.58
		c5.34,0,8.7,2.76,9,7.38c4.919,0.24,8.1,3.36,8.1,8.04c0,4.92-3.48,8.1-8.76,8.1H16.799z M40.798,39.056
		c0-3.96-3.06-6.24-8.1-6.061c0-4.979-2.22-7.319-6.96-7.319c-4.859,0-7.56,3-7.56,8.52c-4.74-0.18-7.56,1.86-7.56,5.46
		c0,3.18,2.52,5.4,6.18,5.4h17.279C38.038,45.056,40.798,42.595,40.798,39.056z M24.719,21.597c0.36-5.16,4.26-8.641,9.6-8.641
		c5.339,0,8.699,2.76,9,7.38c4.919,0.24,8.1,3.36,8.1,8.04c0,4.08-2.58,7.199-6.66,7.92c-0.18-0.721-0.36-1.141-0.78-1.92
		c3.3-0.66,5.4-2.94,5.4-6c0-3.96-3.06-6.24-8.1-6.061c0-4.979-2.22-7.319-6.959-7.319c-4.38,0-6.96,2.34-7.44,6.601
		C26.279,21.537,25.319,21.537,24.719,21.597z"/>
</g>
</svg>
