<?xml version="1.0" encoding="utf-8"?>
<!-- Generator: Adobe Illustrator 22.0.1, SVG Export Plug-In . SVG Version: 6.00 Build 0)  -->
<svg version="1.1" id="ICONS" xmlns="http://www.w3.org/2000/svg" x="0px"
     y="0px"
     viewBox="0 0 60 60" style="enable-background:new 0 0 60 60;" xml:space="preserve">
<g>
	<path d="M7.919,35.156l3.24,0.66v2.1l-3.24-0.66c-2.52-0.539-3.6-1.739-3.6-4.079v-2.341c0-1.499,0.12-2.34,0.66-3.539l0.84-1.859
		l1.92,0.779l-0.78,1.8c-0.42,1.08-0.54,1.56-0.54,2.819v2.341C6.42,34.376,6.84,34.915,7.919,35.156z M48.958,28.136
		c2.46,0.359,3.3,0.96,4.02,3c0.36,1.02,0.6,2.4,0.6,3.539c0,1.86-1.08,2.94-3.18,3.24v-2.1c0.78-0.18,1.08-0.48,1.08-1.08
		c0-0.9-0.12-1.619-0.36-2.52c-0.42-1.381-0.9-1.86-2.399-2.1l-6.78-1.021l-5.4-3.06c-3.9-2.221-5.16-2.52-10.56-2.52
		c-7.68,0-11.459,0.18-17.399,0.899l-2.16-0.84v-0.9c7.919-0.899,12.419-1.2,19.559-1.2c5.52,0,7.56,0.48,11.52,2.7l5.4,3.06
		L48.958,28.136z M21.359,36.476h18.839v-0.061c0-2.52,1.68-4.199,4.26-4.199c2.52,0,4.26,1.68,4.26,4.199
		c0,2.461-1.74,4.2-4.26,4.2c-1.74,0-3.06-0.78-3.78-2.101H20.879c-0.72,1.32-2.04,2.101-3.78,2.101c-2.52,0-4.26-1.739-4.26-4.2
		c0-2.52,1.74-4.199,4.26-4.199c2.58,0,4.26,1.68,4.26,4.199V36.476z M17.099,34.196c-1.38,0-2.28,0.841-2.28,2.22
		c0,1.32,0.9,2.221,2.28,2.221s2.28-0.84,2.28-2.221C19.379,35.037,18.539,34.196,17.099,34.196z M44.458,38.636
		c1.38,0,2.28-0.9,2.28-2.221c0-1.379-0.9-2.22-2.28-2.22c-1.44,0-2.28,0.841-2.28,2.22C42.178,37.796,43.078,38.636,44.458,38.636z
		"/>
</g>
</svg>
