<?xml version="1.0" encoding="utf-8"?>
<!-- Generator: Adobe Illustrator 22.0.1, SVG Export Plug-In . SVG Version: 6.00 Build 0)  -->
<svg version="1.1" id="ICONS" xmlns="http://www.w3.org/2000/svg" x="0px"
     y="0px"
     viewBox="0 0 60 60" style="enable-background:new 0 0 60 60;" xml:space="preserve">
<g>
	<path d="M27.959,17.216v-4.979l1.5-1.14c4.38,1.56,6.959,4.8,6.959,8.64c0,3.96-2.34,6.96-6.479,8.159v17.1
		c0,2.64-1.62,4.26-4.2,4.26c-2.579,0-4.199-1.62-4.199-4.26v-17.1c-4.14-1.199-6.479-4.199-6.479-8.159
		c0-3.84,2.579-7.08,6.959-8.64l1.5,1.14v4.979l1.08,2.16h2.28L27.959,17.216z M23.16,21.416l-1.74-3.479v-4.5
		c-2.939,1.38-4.26,3.359-4.26,6.24c0,3.6,2.399,5.999,6.42,6.539v18.779c0,1.439,0.84,2.279,2.159,2.279
		c1.381,0,2.16-0.779,2.16-2.279V26.216c4.021-0.54,6.42-2.939,6.42-6.539c0-2.881-1.32-4.86-4.26-6.24v4.5l-1.74,3.479H23.16z
		 M39.239,40.616l-2.28-4.2l2.28-4.199h5.04l2.34,4.199l-2.34,4.2H39.239z M44.399,36.415l-1.261-2.22h-2.76l-1.2,2.22l1.2,2.221
		h2.76L44.399,36.415z"/>
</g>
</svg>
