<?xml version="1.0" encoding="utf-8"?>
<!-- Generator: Adobe Illustrator 22.0.1, SVG Export Plug-In . SVG Version: 6.00 Build 0)  -->
<svg version="1.1" id="ICONS" xmlns="http://www.w3.org/2000/svg" x="0px"
     y="0px"
     viewBox="0 0 60 60" style="enable-background:new 0 0 60 60;" xml:space="preserve">
<g>
	<path d="M10.08,37.675c-2.58-0.539-3.66-1.68-3.66-3.959v-3.24c0-3.06,0.36-4.08,2.76-7.56l1.86,0.84
		c-2.4,3.899-2.52,4.2-2.52,6.72v3.24c0,1.08,0.42,1.619,1.56,1.859l1.08,0.24v2.1L10.08,37.675z M45.178,28.076l-5.521-3.479
		c-4.439-2.819-6.18-3.239-13.379-3.239c-4.8,0-7.8,0.119-14.399,0.72l-2.16-0.841v-0.899c8.52-0.84,11.759-1.021,16.559-1.021
		c7.5,0,9.779,0.541,14.339,3.42l5.521,3.48l3.899,1.8c1.8,0.84,2.34,1.32,2.88,2.76c0.42,1.14,0.66,2.7,0.66,3.899
		c0,1.86-1.08,2.94-3.18,3.24v-2.1c0.779-0.18,1.08-0.48,1.08-1.08c0-0.96-0.12-1.859-0.36-2.699c-0.42-1.261-0.78-1.561-2.04-2.16
		L45.178,28.076z M21.359,36.476h18.839v-0.061c0-2.52,1.681-4.199,4.26-4.199c2.521,0,4.261,1.68,4.261,4.199
		c0,2.461-1.74,4.2-4.261,4.2c-1.739,0-3.06-0.78-3.779-2.101H20.879c-0.72,1.32-2.04,2.101-3.78,2.101c-2.52,0-4.26-1.739-4.26-4.2
		c0-2.52,1.74-4.199,4.26-4.199c2.58,0,4.26,1.68,4.26,4.199V36.476z M17.099,34.196c-1.38,0-2.28,0.841-2.28,2.22
		c0,1.32,0.9,2.221,2.28,2.221s2.28-0.84,2.28-2.221C19.379,35.037,18.539,34.196,17.099,34.196z M44.457,38.636
		c1.381,0,2.28-0.9,2.28-2.221c0-1.379-0.899-2.22-2.28-2.22c-1.439,0-2.279,0.841-2.279,2.22
		C42.178,37.796,43.078,38.636,44.457,38.636z"/>
</g>
</svg>
