<?xml version="1.0" encoding="utf-8"?>
<!-- Generator: Adobe Illustrator 22.0.1, SVG Export Plug-In . SVG Version: 6.00 Build 0)  -->
<svg version="1.1" id="ICONS" xmlns="http://www.w3.org/2000/svg" x="0px"
	 y="0px"
	 viewBox="0 0 60 60" style="enable-background:new 0 0 60 60;" xml:space="preserve">
<g>
	<path d="M42.84,28.556V15.237c0-3.3-1.32-4.62-4.561-4.62H27.72c-4.499,3.9-6.84,6.24-10.56,10.619v19.199
		c0,3.301,1.32,4.621,4.561,4.621h4.68c0.18,0.779,0.479,1.5,0.779,2.039h-5.459c-4.5,0-6.66-2.16-6.66-6.66V20.336
		c0.9-1.08,1.8-2.1,2.7-3.06l-2.76-2.76c1.859-2.221,3.72-4.02,6.06-6l2.76,2.699c1.439-1.379,2.16-2.039,2.939-2.639h11.52
		c4.5,0,6.66,2.159,6.66,6.659v14.1C44.28,28.976,43.62,28.736,42.84,28.556z M19.141,15.837c1.02-1.141,2.04-2.16,3.18-3.181
		l-1.44-1.44c-1.199,1.021-2.22,2.041-3.18,3.181L19.141,15.837z M30.06,21.357c-2.46,0-4.26-1.801-4.26-4.2s1.8-4.2,4.26-4.2h6.42
		c2.46,0,4.26,1.801,4.26,4.2s-1.8,4.2-4.26,4.2H30.06z M38.76,17.157c0-1.319-0.9-2.22-2.28-2.22h-6.42
		c-1.38,0-2.279,0.9-2.279,2.22s0.899,2.22,2.279,2.22h6.42C37.86,19.376,38.76,18.476,38.76,17.157z M38.58,51.415
		c-6.54,0-10.68-4.141-10.68-10.68c0-6.6,4.14-10.68,10.68-10.68c6.6,0,10.679,4.08,10.679,10.68S45.18,51.415,38.58,51.415z
		 M38.58,49.375c5.339,0,8.579-3.24,8.579-8.64c0-5.4-3.24-8.64-8.579-8.64c-5.34,0-8.58,3.239-8.58,8.64
		C30,46.135,33.241,49.375,38.58,49.375z M39,44.935H36.9c-1.26-1.799-1.979-2.879-2.819-4.26l1.8-1.02
		c0.66,1.08,1.319,2.1,2.04,3.18c1.319-2.039,2.399-4.02,3.779-6.539l1.8,1.02C41.58,40.796,40.56,42.476,39,44.935z"/>
</g>
</svg>
