<?xml version="1.0" encoding="utf-8"?>
<!-- Generator: Adobe Illustrator 22.0.1, SVG Export Plug-In . SVG Version: 6.00 Build 0)  -->
<svg version="1.1" id="ICONS" xmlns="http://www.w3.org/2000/svg" x="0px"
     y="0px"
     viewBox="0 0 60 60" style="enable-background:new 0 0 60 60;" xml:space="preserve">
<g>
	<path d="M14.999,40.316c-5.279-1.02-8.579-5.34-8.579-11.4c0-7.259,4.56-11.759,11.819-11.759h7.499c0.421-2.7,2.46-4.14,5.88-4.14
		h4.74v1.859h4.439v1.98h-4.439v2.76h4.439v1.98h-4.439v1.799h-4.74c-3.3,0-5.459-1.56-5.88-4.199H18.24
		c-5.94,0-9.72,3.72-9.72,9.719c0,4.86,2.34,8.16,6.479,9.301c0.12-2.101,0.54-2.76,3.12-5.82c3-3.6,4.439-4.439,7.619-4.439h7.62
		c3.18,0,5.04,0.6,7.979,2.459l4.56,3.42l2.94,0.721c3.18,0.72,4.68,2.58,4.68,5.64c0,1.5-0.42,2.819-1.2,3.899l-1.68-1.199
		c0.6-0.9,0.78-1.561,0.78-2.7c0-2.101-1.08-3.239-3.78-3.899l-2.939-0.721l-4.44-3.359c-2.159-1.62-4.02-2.221-6.899-2.221h-7.62
		c-2.459,0-3.359,0.601-6.119,3.9c-2.4,2.939-2.521,3.24-2.521,5.64v1.261c0,0.899,0.181,1.439,0.721,1.979l-1.44,1.319
		c-0.96-0.84-1.38-1.859-1.38-3.299V40.316z M40.739,42.896c0-2.521,1.74-4.2,4.26-4.2c2.58,0,4.26,1.68,4.26,4.2
		c0,2.52-1.74,4.199-4.26,4.199c-1.74,0-3.12-0.84-3.78-2.16H27.359c-0.66,1.32-2.04,2.16-3.779,2.16c-2.521,0-4.26-1.74-4.26-4.199
		c0-2.521,1.739-4.2,4.26-4.2c2.58,0,4.26,1.68,4.26,4.2H40.739z M23.58,40.675c-1.38,0-2.28,0.84-2.28,2.221
		c0,1.319,0.9,2.22,2.28,2.22s2.279-0.841,2.279-2.22C25.859,41.515,25.019,40.675,23.58,40.675z M34.378,14.876h-2.76
		c-2.52,0-3.96,1.2-3.96,3.301c0,2.219,1.381,3.42,3.96,3.42h2.76V14.876z M44.998,40.675c-1.38,0-2.28,0.84-2.28,2.221
		c0,1.319,0.9,2.22,2.28,2.22s2.28-0.841,2.28-2.22C47.279,41.515,46.438,40.675,44.998,40.675z"/>
</g>
</svg>
