<?xml version="1.0" encoding="utf-8"?>
<!-- Generator: Adobe Illustrator 22.0.1, SVG Export Plug-In . SVG Version: 6.00 Build 0)  -->
<svg version="1.1" id="ICONS" xmlns="http://www.w3.org/2000/svg" x="0px"
	 y="0px"
	 viewBox="0 0 60 60" style="enable-background:new 0 0 60 60;" xml:space="preserve">
<g>
	<path d="M14.999,27.837c-2.88,0-4.26-1.38-4.26-4.26v-8.58c0-2.88,1.38-4.26,4.26-4.26h8.52c2.88,0,4.26,1.38,4.26,4.26v8.58
		c0,2.88-1.38,4.26-4.26,4.26H14.999z M14.999,49.316c-2.88,0-4.26-1.38-4.26-4.26v-8.58c0-2.88,1.38-4.26,4.26-4.26h8.52
		c2.88,0,4.26,1.38,4.26,4.26v8.58c0,2.88-1.38,4.26-4.26,4.26H14.999z M25.679,23.577v-8.58c0-1.56-0.601-2.22-2.16-2.22h-8.52
		c-1.561,0-2.16,0.66-2.16,2.22v8.58c0,1.56,0.6,2.22,2.16,2.22h8.52C25.079,25.797,25.679,25.137,25.679,23.577z M25.679,45.057
		v-8.58c0-1.56-0.601-2.22-2.16-2.22h-8.52c-1.561,0-2.16,0.66-2.16,2.22v8.58c0,1.56,0.6,2.22,2.16,2.22h8.52
		C25.079,47.276,25.679,46.616,25.679,45.057z M36.478,49.316c-2.88,0-4.26-1.38-4.26-4.26v-8.58c0-2.88,1.38-4.26,4.26-4.26h8.52
		c2.88,0,4.26,1.38,4.26,4.26v8.58c0,2.88-1.38,4.26-4.26,4.26H36.478z M47.158,45.057v-8.58c0-1.56-0.6-2.22-2.16-2.22h-8.52
		c-1.56,0-2.159,0.66-2.159,2.22v8.58c0,1.56,0.6,2.22,2.159,2.22h8.52C46.558,47.276,47.158,46.616,47.158,45.057z M40.738,23.577
		c-2.88,0-4.26-1.38-4.26-4.26v-4.32c0-2.88,1.38-4.26,4.26-4.26h4.26c2.88,0,4.26,1.38,4.26,4.26v4.32c0,2.88-1.38,4.26-4.26,4.26
		H40.738z M47.218,19.377v-4.44c0-1.56-0.601-2.22-2.16-2.22h-4.38c-1.56,0-2.16,0.66-2.16,2.22v4.44c0,1.56,0.601,2.22,2.16,2.22
		h4.38C46.618,21.598,47.218,20.937,47.218,19.377z"/>
</g>
</svg>
