<?xml version="1.0" encoding="utf-8"?>
<!-- Generator: Adobe Illustrator 22.0.1, SVG Export Plug-In . SVG Version: 6.00 Build 0)  -->
<svg version="1.1" id="ICONS" xmlns="http://www.w3.org/2000/svg" x="0px"
     y="0px"
     viewBox="0 0 60 60" style="enable-background:new 0 0 60 60;" xml:space="preserve">
<g>
	<path d="M10.741,39.176c0-2.939,0.18-3.359,3.12-6.84c3-3.6,4.439-4.439,7.619-4.439h7.62c3.42,0,5.279,0.6,7.979,2.46l4.56,3.42
		l2.94,0.72c3.18,0.72,4.68,2.58,4.68,5.64c0,1.5-0.42,2.82-1.2,3.9l-1.68-1.2c0.6-0.9,0.78-1.56,0.78-2.7
		c0-2.1-1.08-3.239-3.78-3.899l-2.939-0.72l-4.44-3.36c-2.16-1.62-4.02-2.22-6.899-2.22h-7.62c-2.46,0-3.359,0.6-6.119,3.899
		c-2.28,2.76-2.521,3.12-2.521,5.64v1.261c0,0.899,0.181,1.439,0.721,1.979l-1.44,1.32c-0.96-0.84-1.38-1.86-1.38-3.3V39.176z
		 M36.48,42.836c0-2.52,1.739-4.2,4.26-4.2c2.58,0,4.26,1.681,4.26,4.2c0,2.46-1.68,4.2-4.26,4.2c-1.74,0-3.12-0.841-3.78-2.16H23.1
		c-0.66,1.319-1.979,2.16-3.779,2.16c-2.521,0-4.26-1.74-4.26-4.2c0-2.52,1.739-4.2,4.26-4.2c2.579,0,4.26,1.681,4.26,4.2H36.48z
		 M34.919,14.757l-1.08,1.74c-2.579-1.98-5.1-2.88-8.159-2.88s-5.58,0.899-8.16,2.88l-1.079-1.74c2.939-2.16,5.879-3.18,9.239-3.18
		C29.039,11.578,31.98,12.597,34.919,14.757z M19.321,40.617c-1.38,0-2.28,0.84-2.28,2.22c0,1.32,0.9,2.22,2.28,2.22
		c1.439,0,2.279-0.899,2.279-2.22C21.6,41.456,20.76,40.617,19.321,40.617z M32.76,18.357l-1.021,1.681
		c-1.8-1.44-3.779-2.101-6.06-2.101s-4.26,0.66-6.06,2.101L18.6,18.357c2.221-1.68,4.5-2.46,7.08-2.46S30.539,16.677,32.76,18.357z
		 M30.6,21.897l-1.021,1.68c-1.5-0.96-2.64-1.38-3.899-1.38s-2.4,0.42-3.899,1.38l-1.021-1.68c1.68-1.14,3.36-1.739,4.92-1.739
		S28.92,20.757,30.6,21.897z M40.74,40.617c-1.38,0-2.28,0.84-2.28,2.22c0,1.32,0.9,2.22,2.28,2.22c1.439,0,2.279-0.899,2.279-2.22
		C43.019,41.456,42.179,40.617,40.74,40.617z"/>
</g>
</svg>
