<?xml version="1.0" encoding="utf-8"?>
<!-- Generator: Adobe Illustrator 22.0.1, SVG Export Plug-In . SVG Version: 6.00 Build 0)  -->
<svg version="1.1" id="ICONS" xmlns="http://www.w3.org/2000/svg" x="0px"
	 y="0px"
	 viewBox="0 0 60 60" style="enable-background:new 0 0 60 60;" xml:space="preserve">
<g>
	<path d="M29.998,12.838c10.739,0,17.159,6.959,17.159,17.159c0,10.14-6.42,17.159-17.159,17.159s-17.159-7.02-17.159-17.159
		C12.839,19.797,19.259,12.838,29.998,12.838z M29.998,14.937c-9.54,0-14.999,6.06-14.999,15.06c0,8.939,5.459,15.06,14.999,15.06
		s14.999-6.12,14.999-15.06C44.997,20.997,39.538,14.937,29.998,14.937z M23.279,29.997c0,1.32-0.72,1.86-1.86,1.86
		c-1.14,0-1.859-0.54-1.859-1.86s0.72-1.86,1.859-1.86C22.559,28.137,23.279,28.677,23.279,29.997z M31.859,29.997
		c0,1.32-0.721,1.86-1.86,1.86s-1.86-0.54-1.86-1.86s0.721-1.86,1.86-1.86S31.859,28.677,31.859,29.997z M40.438,29.997
		c0,1.32-0.72,1.86-1.859,1.86c-1.141,0-1.86-0.54-1.86-1.86s0.72-1.86,1.86-1.86C39.718,28.137,40.438,28.677,40.438,29.997z"/>
</g>
</svg>
