<?xml version="1.0" encoding="utf-8"?>
<!-- Generator: Adobe Illustrator 22.0.1, SVG Export Plug-In . SVG Version: 6.00 Build 0)  -->
<svg version="1.1" id="ICONS" xmlns="http://www.w3.org/2000/svg" x="0px"
     y="0px"
     viewBox="0 0 60 60" style="enable-background:new 0 0 60 60;" xml:space="preserve">
<g>
	<path d="M32.16,14.877l5.28-2.04l8.52,22.56l-1.86,0.96H35.7l-6.96,2.64c-6.6,2.46-10.379,0.72-12.959-5.939l-0.3-0.78
		c-2.521-6.6-0.78-10.68,5.64-13.199l4.619-1.8v2.22l-3.779,1.439c-5.4,2.04-6.6,4.86-4.56,10.56l0.3,0.84
		c1.92,5.46,4.979,6.9,10.319,4.8l7.26-2.819h8.1l-7.08-18.779l-4.14,1.62V14.877z M28.98,30.057c-2.58,0-4.26-1.681-4.26-4.26
		c0-2.28,1.2-3.78,3.18-4.141V8.578h2.1v13.079c2.04,0.36,3.24,1.86,3.24,4.141C33.24,28.376,31.62,30.057,28.98,30.057z
		 M28.98,23.457c-1.5,0-2.34,0.779-2.34,2.34c0,1.5,0.84,2.34,2.34,2.34c1.56,0,2.34-0.84,2.34-2.34
		C31.32,24.237,30.539,23.457,28.98,23.457z M40.799,47.156c0-2.159,0.9-4.56,3.12-8.52h2.16c2.22,4.14,3.06,6.48,3.06,8.52
		c0,2.58-1.56,4.141-4.14,4.141C42.36,51.296,40.799,49.736,40.799,47.156z M47.16,47.156c0-1.619-0.36-2.699-2.16-6.539
		c-1.74,3.42-2.22,4.859-2.22,6.539c0,1.32,0.899,2.221,2.22,2.221C46.319,49.376,47.16,48.536,47.16,47.156z"/>
</g>
</svg>
