<?xml version="1.0" encoding="utf-8"?>
<!-- Generator: Adobe Illustrator 22.0.1, SVG Export Plug-In . SVG Version: 6.00 Build 0)  -->
<svg version="1.1" id="ICONS" xmlns="http://www.w3.org/2000/svg" x="0px"
     y="0px"
     viewBox="0 0 60 60" style="enable-background:new 0 0 60 60;" xml:space="preserve">
<g>
	<path d="M8.58,26.456L7.14,23.396c-0.48-1.02-0.72-2.1-0.72-3.359c0-3.061,1.859-5.34,5.1-6.359c1.08-2.4,3.42-3.84,6.42-3.84
		c1.02,0,2.039,0.24,2.819,0.66c0.9-0.42,1.86-0.66,2.88-0.66c2.94,0,4.8,1.26,6.24,4.14l1.02,2.04l-1.859,0.84l-1.021-2.1
		c-0.899-1.92-2.34-2.881-4.38-2.881c-1.08,0-2.22,0.36-2.939,0.9c-0.78-0.6-1.681-0.9-2.76-0.9c-2.34,0-4.26,1.26-4.92,3.301
		c-2.88,0.72-4.5,2.399-4.5,4.859c0,1.02,0.18,1.92,0.54,2.699l1.319,2.82L8.58,26.456z M26.639,55.735l-2.34-4.919L10.8,40.675
		c-1.021-0.72-1.681-1.92-1.681-2.939c0-1.859,1.5-3.42,3.36-3.42c0.84,0,1.68,0.3,2.52,0.96l3.12,2.34l-7.14-15.419
		c-0.3-0.6-0.42-1.141-0.42-1.74c0-1.8,1.5-3.3,3.42-3.3c0.18,0,0.42,0,0.66,0.06c0-1.8,1.499-3.239,3.3-3.239
		c1.199,0,2.1,0.479,2.76,1.499c0.479-0.959,1.439-1.499,2.64-1.499c1.5,0,2.46,0.659,3.18,2.159l4.5,9.66
		c0.66-0.66,1.56-1.02,2.58-1.02c1.439,0,2.64,0.899,3.479,2.64l1.68,3.419c1.92,3.961,2.641,6.48,2.641,8.881
		c0,0.779-0.181,1.799-0.54,3.239l-0.48,1.62l1.8,3.9l-1.92,0.959l-2.159-4.619l0.6-1.92c0.36-1.44,0.479-2.4,0.479-3.301
		c0-2.159-0.6-4.26-1.92-7.079l-2.159-4.44c-0.42-0.899-0.9-1.26-1.62-1.26c-0.66,0-1.2,0.36-1.62,1.08h-2.1l-5.1-10.92
		c-0.301-0.659-0.721-1.02-1.32-1.02c-0.78,0-1.44,0.54-1.44,1.26c0,0.301,0.061,0.541,0.24,0.9l4.74,10.199l-1.86,0.84
		l-5.699-12.18c-0.301-0.659-0.721-1.02-1.32-1.02c-0.78,0-1.439,0.54-1.439,1.26c0,0.301,0.06,0.541,0.239,0.9l5.1,11.039
		l-1.859,0.84l-4.62-9.839c-0.3-0.66-0.72-1.021-1.319-1.021c-0.78,0-1.44,0.541-1.44,1.26c0,0.301,0.061,0.541,0.24,0.9
		l8.819,19.139l-1.859,0.841l-6.3-4.5c-0.36-0.24-0.721-0.42-1.021-0.42c-0.779,0-1.319,0.479-1.319,1.319
		c0,0.601,0.239,0.961,1.02,1.561l13.8,10.319l2.46,5.34L26.639,55.735z M42.899,4.377c5.22,0,8.459,3.239,8.459,8.46
		c0,5.159-3.239,8.459-8.459,8.459c-5.16,0-8.46-3.3-8.46-8.459C34.439,7.617,37.679,4.377,42.899,4.377z M42.899,19.376
		c4.079,0,6.479-2.4,6.479-6.539c0-4.141-2.4-6.54-6.479-6.54c-4.08,0-6.48,2.399-6.48,6.54
		C36.418,16.976,38.819,19.376,42.899,19.376z M41.998,13.796V7.977h1.92v3.899h3.54v1.92H41.998z"/>
</g>
</svg>
