<?xml version="1.0" encoding="utf-8"?>
<!-- Generator: Adobe Illustrator 22.0.1, SVG Export Plug-In . SVG Version: 6.00 Build 0)  -->
<svg version="1.1" id="ICONS" xmlns="http://www.w3.org/2000/svg" x="0px"
     y="0px"
     viewBox="0 0 60 60" style="enable-background:new 0 0 60 60;" xml:space="preserve">
<g>
	<path d="M19.201,51.415H8.58V40.796h4.26v-10.8h16.14v-8.64H23.58V8.578H36.36v12.779h-5.28v8.64h16.08v10.8h4.26v10.619h-10.62
		V40.796h4.26v-8.699H31.08v8.699h4.2v10.619H24.661V40.796h4.319v-8.699H14.941v8.699h4.26V51.415z M10.681,49.376H17.1v-6.54
		h-6.419V49.376z M25.68,10.618v8.699h8.58v-8.699H25.68z M26.76,42.836v6.54h6.42v-6.54H26.76z M42.9,42.836v6.54h6.419v-6.54H42.9
		z"/>
</g>
</svg>
