<?xml version="1.0" encoding="utf-8"?>
<!-- Generator: Adobe Illustrator 22.0.1, SVG Export Plug-In . SVG Version: 6.00 Build 0)  -->
<svg version="1.1" id="ICONS" xmlns="http://www.w3.org/2000/svg" x="0px"
     y="0px"
     viewBox="0 0 60 60" style="enable-background:new 0 0 60 60;" xml:space="preserve">
<g>
	<path d="M44.878,31.617c0,6.419,2.28,9.959,2.28,13.979c0,3.66-1.98,5.82-5.34,5.82c-3.42,0-5.4-2.16-5.4-5.82V32.096
		c0-1.56-0.6-2.16-2.159-2.16h-4.32v4.319H14.999v-6.419H10.68v-2.04h4.319v-6.54H10.68v-2.04h4.319v-2.22
		c0-2.88,1.38-4.26,4.26-4.26h6.42c2.88,0,4.26,1.38,4.26,4.26v12.899h4.32c2.88,0,4.26,1.381,4.26,4.26v13.439
		c0,2.52,1.08,3.78,3.3,3.78s3.3-1.261,3.3-3.78c0-4.02-2.22-7.319-2.22-13.979v-5.94c-2.7-0.42-4.141-2.46-4.141-5.819v-4.801h1.92
		v-4.319h1.98v4.319h2.58v-4.319h1.979v4.319h1.86v4.801c0,3.239-1.561,5.399-4.2,5.819V31.617z M25.679,12.777h-6.42
		c-1.56,0-2.16,0.66-2.16,2.22v17.22h10.74v-17.22C27.839,13.437,27.239,12.777,25.679,12.777z M22.62,27.836h-0.96l0.6-4.26H19.32
		l2.04-6.36h2.279l-1.5,4.381h3.48L22.62,27.836z M40.678,16.976v2.881c0,2.52,1.141,3.959,3.181,3.959
		c2.159,0,3.359-1.379,3.359-3.959v-2.881H40.678z"/>
</g>
</svg>
