<?xml version="1.0" encoding="utf-8"?>
<!-- Generator: Adobe Illustrator 22.0.1, SVG Export Plug-In . SVG Version: 6.00 Build 0)  -->
<svg version="1.1" id="ICONS" xmlns="http://www.w3.org/2000/svg" x="0px"
     y="0px"
     viewBox="0 0 60 60" style="enable-background:new 0 0 60 60;" xml:space="preserve">
<g>
	<path d="M29.999,12.837c10.56,0,17.219,6.659,17.219,17.158c0,10.439-6.72,17.16-17.219,17.16c-10.5,0-17.22-6.721-17.22-17.16
		C12.78,19.497,19.499,12.837,29.999,12.837z M29.999,14.876c-9.36,0-15.12,5.76-15.12,15.119c0,9.301,5.82,15.12,15.12,15.12
		c9.359,0,15.119-5.819,15.119-15.12C45.119,20.636,39.359,14.876,29.999,14.876z M30.959,40.736h-1.92
		c-1.44-3.48-2.58-6.96-3.54-10.74c0.96-3.779,2.1-7.26,3.54-10.739h1.92c1.439,3.479,2.579,6.96,3.539,10.739
		C33.538,33.776,32.399,37.255,30.959,40.736z M32.279,29.996c-0.66-2.52-1.439-5.1-2.279-7.559c-0.841,2.459-1.62,5.039-2.28,7.559
		H32.279z"/>
</g>
</svg>
