<?xml version="1.0" encoding="utf-8"?>
<!-- Generator: Adobe Illustrator 22.0.1, SVG Export Plug-In . SVG Version: 6.00 Build 0)  -->
<svg version="1.1" id="ICONS" xmlns="http://www.w3.org/2000/svg" x="0px"
	 y="0px"
	 viewBox="0 0 60 60" style="enable-background:new 0 0 60 60;" xml:space="preserve">
<g>
	<path d="M33.3,44.876l1.02,1.859c-1.38,0.301-2.88,0.42-4.32,0.42c-10.499,0-17.219-6.72-17.219-17.159
		c0-10.499,6.72-17.159,17.219-17.159c1.44,0,2.94,0.12,4.32,0.42l-1.02,1.86c-1.021-0.181-1.98-0.24-3.301-0.24
		c-9.359,0-15.119,5.76-15.119,15.119c0,9.3,5.82,15.12,15.119,15.12C31.32,45.117,32.28,45.056,33.3,44.876z M36.48,46.196
		l-8.64-16.199l8.64-16.199c6.899,2.34,10.739,8.16,10.739,16.199C47.219,38.037,43.379,43.856,36.48,46.196z M37.499,43.556
		c4.92-2.34,7.62-7.14,7.62-13.56s-2.7-11.22-7.62-13.56l-7.319,13.56L37.499,43.556z"/>
</g>
</svg>
