<?xml version="1.0" encoding="utf-8"?>
<!-- Generator: Adobe Illustrator 22.0.1, SVG Export Plug-In . SVG Version: 6.00 Build 0)  -->
<svg version="1.1" id="ICONS" xmlns="http://www.w3.org/2000/svg" x="0px"
     y="0px"
     viewBox="0 0 60 60" style="enable-background:new 0 0 60 60;" xml:space="preserve">
<g>
	<path d="M28.98,12.837v-2.16h-3.24v-2.1h8.58v2.1h-3.24v2.16c4.98,0.24,9,1.98,11.76,4.979l1.74-1.739l-1.74-1.74l1.5-1.5
		l4.98,4.979l-1.5,1.5l-1.74-1.739l-1.859,1.859c1.92,2.82,3,6.36,3,10.56c0,10.439-6.721,17.159-17.221,17.159
		c-10.499,0-17.219-6.72-17.219-17.159C12.781,19.857,19.08,13.257,28.98,12.837z M29.999,14.877
		c-9.359,0-15.119,5.76-15.119,15.119c0,9.3,5.82,15.12,15.119,15.12c9.36,0,15.12-5.82,15.12-15.12
		C45.12,20.637,39.36,14.877,29.999,14.877z M20.88,29.937c0,1.08-0.42,1.56-1.56,1.56c-1.08,0-1.56-0.479-1.56-1.56
		c0-1.14,0.479-1.561,1.56-1.561C20.46,28.376,20.88,28.797,20.88,29.937z M31.56,40.676c0,1.08-0.42,1.561-1.561,1.561
		c-1.079,0-1.559-0.48-1.559-1.561c0-1.14,0.479-1.56,1.559-1.56C31.14,39.117,31.56,39.537,31.56,40.676z M28.98,17.158h2.1v12.839
		h-2.1V17.158z M42.179,29.937c0,1.08-0.42,1.56-1.56,1.56c-1.079,0-1.56-0.479-1.56-1.56c0-1.14,0.48-1.561,1.56-1.561
		C41.759,28.376,42.179,28.797,42.179,29.937z"/>
</g>
</svg>
