<?xml version="1.0" encoding="utf-8"?>
<!-- Generator: Adobe Illustrator 22.0.1, SVG Export Plug-In . SVG Version: 6.00 Build 0)  -->
<svg version="1.1" id="ICONS" xmlns="http://www.w3.org/2000/svg" x="0px"
     y="0px"
     viewBox="0 0 60 60" style="enable-background:new 0 0 60 60;" xml:space="preserve">
<g>
	<path d="M6.36,32.156c0,1.26,0.54,1.92,1.68,1.98l3.12,0.18v2.1l-3.12-0.18c-2.52-0.12-3.78-1.5-3.78-4.08v-6.42h19.259v-6.42h2.58
		c4.08,0,6.12,0.541,9.06,2.341l6.06,3.72l7.44,1.14c2.34,0.36,3.24,0.96,4.08,2.761c0.48,1.02,0.84,2.699,0.84,3.899
		c0,1.86-1.08,2.939-3.18,3.239v-2.1c0.84-0.18,1.14-0.48,1.14-1.08c0-0.72-0.24-1.979-0.54-2.76c-0.54-1.38-1.02-1.74-2.58-1.98
		l-8.22-1.199l-6.06-3.779c-2.76-1.681-4.5-2.16-8.04-2.16h-0.48v6.42H6.36V32.156z M17.099,40.616c-2.52,0-4.26-1.68-4.26-4.2
		c0-2.459,1.74-4.199,4.26-4.199c1.74,0,3.12,0.84,3.78,2.16h19.799c0.66-1.32,2.04-2.16,3.78-2.16c2.52,0,4.26,1.74,4.26,4.199
		c0,2.521-1.74,4.2-4.26,4.2c-2.58,0-4.26-1.68-4.26-4.2H21.359C21.359,38.936,19.679,40.616,17.099,40.616z M17.099,34.196
		c-1.38,0-2.28,0.9-2.28,2.22c0,1.381,0.9,2.221,2.28,2.221c1.44,0,2.28-0.84,2.28-2.221C19.379,35.037,18.479,34.196,17.099,34.196
		z M44.458,38.636c1.38,0,2.28-0.84,2.28-2.221c0-1.319-0.9-2.22-2.28-2.22c-1.38,0-2.28,0.841-2.28,2.22
		C42.178,37.796,43.018,38.636,44.458,38.636z"/>
</g>
</svg>
