<?xml version="1.0" encoding="utf-8"?>
<!-- Generator: Adobe Illustrator 22.0.1, SVG Export Plug-In . SVG Version: 6.00 Build 0)  -->
<svg version="1.1" id="ICONS" xmlns="http://www.w3.org/2000/svg" x="0px"
	 y="0px"
	 viewBox="0 0 60 60" style="enable-background:new 0 0 60 60;" xml:space="preserve">
<g>
	<path d="M2.16,45.595c0-2.939,0.18-3.359,3.12-6.84c3-3.6,4.44-4.439,7.62-4.439h7.62c3.3,0,5.16,0.6,7.98,2.46l4.56,3.42
		l2.94,0.72c3.18,0.721,4.68,2.58,4.68,5.641c0,1.499-0.42,2.819-1.2,3.899l-1.68-1.2c0.6-0.9,0.78-1.561,0.78-2.699
		c0-2.101-1.08-3.24-3.78-3.9l-2.939-0.721l-4.44-3.359c-2.16-1.619-4.02-2.22-6.9-2.22h-7.62c-2.46,0-3.36,0.601-6.12,3.899
		c-2.4,2.94-2.52,3.24-2.52,5.641v1.26c0,0.899,0.18,1.439,0.72,1.979l-1.44,1.32c-0.96-0.841-1.38-1.86-1.38-3.3V45.595z
		 M27.899,49.316c0-2.521,1.74-4.2,4.26-4.2c2.58,0,4.26,1.68,4.26,4.2c0,2.52-1.74,4.199-4.26,4.199c-1.74,0-3.12-0.84-3.78-2.16
		H14.519c-0.66,1.32-2.04,2.16-3.78,2.16c-2.52,0-4.26-1.74-4.26-4.199c0-2.521,1.74-4.2,4.26-4.2c2.58,0,4.26,1.68,4.26,4.2H27.899
		z M10.74,47.095c-1.38,0-2.28,0.84-2.28,2.221c0,1.319,0.9,2.219,2.28,2.219s2.28-0.84,2.28-2.219
		C13.019,47.935,12.18,47.095,10.74,47.095z M21.539,21.476h7.62c3.3,0,5.16,0.601,7.98,2.461l4.56,3.42l2.94,0.719
		c3.18,0.721,4.68,2.58,4.68,5.641c0,1.5-0.42,2.819-1.2,3.899l-1.68-1.2c0.6-0.899,0.78-1.56,0.78-2.699c0-2.1-1.08-3.24-3.78-3.9
		l-2.939-0.72l-4.44-3.36c-2.16-1.619-4.02-2.219-6.9-2.219h-7.62c-2.46,0-3.36,0.6-6.12,3.899c-2.22,2.579-2.52,3.239-2.52,4.739
		h-2.1c0-2.399,0.18-2.76,3.12-6.239C16.919,22.316,18.359,21.476,21.539,21.476z M19.379,19.256c0-2.399,0.18-2.76,3.12-6.239
		c3-3.6,4.44-4.439,7.62-4.439h7.62c3.3,0,5.16,0.6,7.98,2.459l4.56,3.42l2.94,0.721c3.18,0.72,4.68,2.58,4.68,5.639
		c0,1.5-0.42,2.82-1.2,3.9l-1.68-1.199c0.6-0.9,0.78-1.561,0.78-2.701c0-2.1-1.08-3.239-3.78-3.899l-2.94-0.72l-4.44-3.359
		c-2.16-1.621-4.02-2.221-6.9-2.221h-7.62c-2.46,0-3.36,0.6-6.12,3.9c-2.22,2.58-2.52,3.24-2.52,4.739H19.379z M32.159,47.095
		c-1.38,0-2.28,0.84-2.28,2.221c0,1.319,0.9,2.219,2.28,2.219s2.28-0.84,2.28-2.219C34.438,47.935,33.599,47.095,32.159,47.095z
		 M40.798,40.616c-2.52,0-4.26-1.739-4.26-4.2c0-2.52,1.74-4.199,4.26-4.199c2.58,0,4.26,1.68,4.26,4.199
		C45.058,38.936,43.318,40.616,40.798,40.616z M40.798,34.196c-1.38,0-2.28,0.841-2.28,2.22c0,1.32,0.9,2.221,2.28,2.221
		s2.28-0.84,2.28-2.221C43.078,35.037,42.238,34.196,40.798,34.196z M49.378,27.716c-2.52,0-4.26-1.74-4.26-4.199
		c0-2.521,1.74-4.201,4.26-4.201c2.58,0,4.26,1.681,4.26,4.201C53.638,26.037,51.898,27.716,49.378,27.716z M49.378,21.296
		c-1.38,0-2.28,0.84-2.28,2.221c0,1.319,0.9,2.219,2.28,2.219s2.28-0.84,2.28-2.219C51.658,22.136,50.818,21.296,49.378,21.296z"/>
</g>
</svg>
