<?xml version="1.0" encoding="utf-8"?>
<!-- Generator: Adobe Illustrator 22.0.1, SVG Export Plug-In . SVG Version: 6.00 Build 0)  -->
<svg version="1.1" id="ICONS" xmlns="http://www.w3.org/2000/svg" x="0px"
     y="0px"
     viewBox="0 0 60 60" style="enable-background:new 0 0 60 60;" xml:space="preserve">
<g>
	<path d="M12.779,30.056H6.419v-2.16h6.359V30.056z M15.479,21.357l-4.5-4.5l1.561-1.561l4.5,4.5L15.479,21.357z M17.039,38.156
		l-4.5,4.5l-1.561-1.561l4.5-4.5L17.039,38.156z M18.959,34.076c-1.2-1.32-1.801-3.06-1.801-5.16c0-4.559,2.94-7.439,7.5-7.439
		c2.16,0,3.84,0.601,5.16,1.801c-0.78,0.539-1.26,0.959-1.62,1.319c-0.84-0.72-2.1-1.079-3.54-1.079
		c-3.359,0-5.399,2.039-5.399,5.398c0,1.621,0.3,2.701,1.14,3.66C19.919,32.936,19.439,33.415,18.959,34.076z M27.599,47.156
		c-4.8,0-8.22-3.12-8.22-7.5c0-4.14,3.119-7.199,7.56-7.439c0.359-5.1,4.199-8.58,9.6-8.58c5.34,0,8.699,2.76,8.999,7.38
		c4.92,0.24,8.1,3.36,8.1,8.04c0,4.92-3.479,8.1-8.759,8.1H27.599z M51.598,39.056c0-3.96-3.061-6.24-8.101-6.061
		c0-4.979-2.22-7.319-6.959-7.319c-4.86,0-7.56,3-7.56,8.52c-4.74-0.18-7.561,1.86-7.561,5.46c0,3.18,2.521,5.4,6.181,5.4h17.279
		C48.837,45.056,51.598,42.595,51.598,39.056z M23.579,17.097v-6.36h2.16v6.36H23.579z M32.279,19.796l4.499-4.5l1.561,1.561
		l-4.5,4.5L32.279,19.796z"/>
</g>
</svg>
