<?xml version="1.0" encoding="utf-8"?>
<!-- Generator: Adobe Illustrator 22.0.1, SVG Export Plug-In . SVG Version: 6.00 Build 0)  -->
<svg version="1.1" id="ICONS" xmlns="http://www.w3.org/2000/svg" x="0px"
	 y="0px"
	 viewBox="0 0 60 60" style="enable-background:new 0 0 60 60;" xml:space="preserve">
<g>
	<path d="M29.999,12.837c10.56,0,17.219,6.659,17.219,17.158c0,10.439-6.72,17.16-17.219,17.16c-10.5,0-17.22-6.721-17.22-17.16
		C12.78,19.497,19.499,12.837,29.999,12.837z M29.999,14.876c-9.36,0-15.12,5.76-15.12,15.119c0,9.301,5.82,15.12,15.12,15.12
		c9.359,0,15.119-5.819,15.119-15.12C45.119,20.636,39.359,14.876,29.999,14.876z M38.519,24.596v10.86l-8.52,4.379l-8.521-4.379
		v-10.86l8.521-4.38L38.519,24.596z M36.418,34.316v-8.58l-6.419-3.299l-6.42,3.299v8.58l6.42,3.3L36.418,34.316z M25.859,32.876
		v-5.641l4.141-2.22l4.14,2.22v5.641l-4.14,2.16L25.859,32.876z M32.219,31.676v-3.24l-2.22-1.2l-2.221,1.2v3.24l2.221,1.14
		L32.219,31.676z"/>
</g>
</svg>
