<?xml version="1.0" encoding="utf-8"?>
<!-- Generator: Adobe Illustrator 22.0.1, SVG Export Plug-In . SVG Version: 6.00 Build 0)  -->
<svg version="1.1" id="ICONS" xmlns="http://www.w3.org/2000/svg" x="0px"
	 y="0px"
	 viewBox="0 0 60 60" style="enable-background:new 0 0 60 60;" xml:space="preserve">
<g>
	<path d="M40.738,24.957c0,3.9-1.5,7.56-3.899,10.319l11.88,11.879l-1.561,1.62L35.279,36.897c-2.82,2.4-6.42,3.84-10.32,3.84
		c-8.76,0-16.379-7.62-16.379-16.379c0-8.64,7.14-15.779,15.779-15.779C33.298,8.578,40.738,16.018,40.738,24.957z M24.298,10.738
		c-7.499,0-13.559,6-13.559,13.56c0,7.68,6.6,14.279,14.279,14.279c7.56,0,13.56-6.06,13.56-13.559
		C38.579,17.278,32.038,10.738,24.298,10.738z M23.579,25.677h-6.42v-2.16h6.42v-6.36h2.16v6.36h6.42v2.16h-6.42v6.48h-2.16V25.677z
		"/>
</g>
</svg>
