<?xml version="1.0" encoding="utf-8"?>
<!-- Generator: Adobe Illustrator 22.0.1, SVG Export Plug-In . SVG Version: 6.00 Build 0)  -->
<svg version="1.1" id="ICONS" xmlns="http://www.w3.org/2000/svg" x="0px"
     y="0px"
     viewBox="0 0 60 60" style="enable-background:new 0 0 60 60;" xml:space="preserve">
<g>
	<path d="M42.778,30.835l-5.7-5.999c-2.82-3-3.84-3.42-8.34-3.42H12.24c-2.4,0-2.94,0.479-3.18,2.76c-0.3,2.7-0.54,8.1-0.54,11.88
		c0,1.02,0.3,1.619,1.02,1.92v2.1c-2.04-0.42-3.12-1.859-3.12-4.02c0-4.38,0.18-9.12,0.48-11.88c0.36-3.84,1.5-4.8,5.64-4.8h16.199
		c5.1,0,6.9,0.721,9.84,3.96l5.16,5.64l4.98,0.9c2.28,0.42,3.3,1.14,4.02,2.939c0.54,1.5,0.84,3,0.84,4.02
		c0,1.86-1.08,2.94-3.18,3.24v-2.1c0.84-0.18,1.14-0.48,1.14-1.08c0-0.96-0.18-1.8-0.6-2.939c-0.54-1.44-1.02-1.86-2.46-2.101
		L42.778,30.835z M19.739,38.636h20.459v-0.061c0-2.52,1.68-4.199,4.26-4.199c2.52,0,4.26,1.68,4.26,4.199c0,2.46-1.74,4.2-4.26,4.2
		c-1.74,0-3.06-0.78-3.78-2.101H19.259c-0.72,1.32-2.04,2.101-3.78,2.101c-2.52,0-4.26-1.74-4.26-4.2c0-2.52,1.74-4.199,4.26-4.199
		c2.58,0,4.26,1.68,4.26,4.199V38.636z M15.479,36.356c-1.38,0-2.28,0.84-2.28,2.22c0,1.32,0.9,2.221,2.28,2.221
		s2.28-0.841,2.28-2.221S16.919,36.356,15.479,36.356z M44.458,40.796c1.38,0,2.28-0.9,2.28-2.221c0-1.38-0.9-2.22-2.28-2.22
		c-1.44,0-2.28,0.84-2.28,2.22S43.078,40.796,44.458,40.796z"/>
</g>
</svg>
