<?xml version="1.0" encoding="utf-8"?>
<!-- Generator: Adobe Illustrator 22.0.1, SVG Export Plug-In . SVG Version: 6.00 Build 0)  -->
<svg version="1.1" id="ICONS" xmlns="http://www.w3.org/2000/svg" x="0px"
     y="0px"
     viewBox="0 0 60 60" style="enable-background:new 0 0 60 60;" xml:space="preserve">
<g>
	<path d="M8.16,27.656c1.44-1.56,2.22-1.859,4.86-1.859c9.66,0,15.719,1.38,24.779,1.5l-2.94-1.74c-1.38-0.9-2.94-1.619-4.86-2.279
		l0.84-1.801c2.34,0.9,3.42,1.381,4.86,2.28l6.3,3.601l5.58,0.899c1.98,0.3,2.88,0.96,3.24,2.22c0.42,1.32,0.66,3,0.66,4.199
		c0,1.86-1.08,2.94-3.18,3.24v-2.1c0.84-0.18,1.14-0.48,1.14-1.08c0-0.72-0.24-2.279-0.48-3.119c-0.3-0.961-0.6-1.201-1.62-1.381
		l-5.64-0.899l-0.96-0.06c-12.179,0-17.039-1.5-27.659-1.5c-2.04,0-2.52,0.18-3.48,1.199s-1.08,1.32-1.08,2.939v1.98
		c0,1.02,0.3,1.62,1.02,1.92v2.1c-2.04-0.42-3.12-1.859-3.12-4.02v-1.98C6.42,29.697,6.539,29.396,8.16,27.656z M19.739,36.476
		h18.359v-0.061c0-2.52,1.68-4.199,4.26-4.199c2.52,0,4.26,1.68,4.26,4.199c0,2.461-1.74,4.2-4.26,4.2c-1.74,0-3.06-0.78-3.78-2.101
		H19.259c-0.72,1.32-2.04,2.101-3.78,2.101c-2.52,0-4.26-1.739-4.26-4.2c0-2.52,1.74-4.199,4.26-4.199c2.58,0,4.26,1.68,4.26,4.199
		V36.476z M15.479,34.196c-1.38,0-2.28,0.841-2.28,2.22c0,1.32,0.9,2.221,2.28,2.221s2.28-0.84,2.28-2.221
		C17.759,35.037,16.919,34.196,15.479,34.196z M42.358,38.636c1.38,0,2.28-0.9,2.28-2.221c0-1.379-0.9-2.22-2.28-2.22
		c-1.44,0-2.28,0.841-2.28,2.22C40.079,37.796,40.978,38.636,42.358,38.636z"/>
</g>
</svg>
