<?xml version="1.0" encoding="utf-8"?>
<!-- Generator: Adobe Illustrator 22.0.1, SVG Export Plug-In . SVG Version: 6.00 Build 0)  -->
<svg version="1.1" id="ICONS" xmlns="http://www.w3.org/2000/svg" x="0px"
     y="0px"
     viewBox="0 0 60 60" style="enable-background:new 0 0 60 60;" xml:space="preserve">
<g>
	<path d="M8.58,16.198h2.101c7.079,3.96,11.819,7.08,19.318,12.779V16.198H32.1c7.079,3.96,11.819,7.08,19.319,12.779v2.04
		c-7.5,5.7-12.24,8.82-19.319,12.779h-2.101V31.017c-7.499,5.7-12.239,8.82-19.318,12.779H8.58V16.198z M10.681,41.396
		c6.419-3.66,10.859-6.6,17.219-11.399c-6.359-4.8-10.8-7.74-17.219-11.399V41.396z M32.1,41.396
		c6.42-3.66,10.859-6.6,17.219-11.399c-6.359-4.8-10.799-7.74-17.219-11.399V41.396z"/>
</g>
</svg>
