<?xml version="1.0" encoding="utf-8"?>
<!-- Generator: Adobe Illustrator 22.0.1, SVG Export Plug-In . SVG Version: 6.00 Build 0)  -->
<svg version="1.1" id="ICONS" xmlns="http://www.w3.org/2000/svg" x="0px"
     y="0px"
     viewBox="0 0 60 60" style="enable-background:new 0 0 60 60;" xml:space="preserve">
<g>
	<path d="M34.26,32.096h-8.52l-8.399-17.1h-4.5v-2.04h5.939l1.08,2.16H40.14l1.08-2.16h5.939v2.04h-4.5L34.26,32.096z
		 M32.821,30.056l6.359-12.899H20.821l6.359,12.899H32.821z M25.68,42.896c0-1.92,0.78-4.08,3.24-8.58h2.16
		c2.399,4.68,3.18,6.72,3.18,8.58c0,2.64-1.62,4.26-4.26,4.26C27.3,47.156,25.68,45.536,25.68,42.896z M32.161,42.896
		c0-1.561-0.42-2.76-2.16-6.48c-1.74,3.42-2.22,4.801-2.22,6.48c0,1.319,0.899,2.22,2.22,2.22S32.161,44.275,32.161,42.896z"/>
</g>
</svg>
