<?xml version="1.0" encoding="utf-8"?>
<!-- Generator: Adobe Illustrator 22.0.1, SVG Export Plug-In . SVG Version: 6.00 Build 0)  -->
<svg version="1.1" id="ICONS" xmlns="http://www.w3.org/2000/svg" x="0px"
	 y="0px"
	 viewBox="0 0 60 60" style="enable-background:new 0 0 60 60;" xml:space="preserve">
<g>
	<path d="M10.26,47.335H8.039c-2.46-4.38-3.72-9.359-3.72-15.06s1.26-10.739,3.72-15.119h2.221c-2.521,4.5-3.84,9.6-3.84,15.119
		C6.42,37.796,7.68,42.716,10.26,47.335z M10.74,32.755c0-2.939,0.18-3.359,3.12-6.839c3-3.601,4.439-4.44,7.619-4.44h7.62
		c3.359,0,5.22,0.601,7.979,2.461l4.56,3.42l2.94,0.719c3.18,0.721,4.68,2.58,4.68,5.641c0,1.5-0.42,2.819-1.2,3.899l-1.68-1.2
		c0.6-0.899,0.78-1.56,0.78-2.699c0-2.1-1.08-3.24-3.78-3.9l-2.939-0.72l-4.44-3.36c-2.159-1.619-4.02-2.219-6.899-2.219h-7.62
		c-2.46,0-3.359,0.6-6.119,3.899c-2.34,2.88-2.521,3.18-2.521,5.64v1.26c0,0.9,0.181,1.439,0.721,1.98l-1.44,1.319
		c-0.96-0.84-1.38-1.86-1.38-3.3V32.755z M36.479,36.415c0-2.52,1.739-4.199,4.26-4.199c2.58,0,4.26,1.68,4.26,4.199
		c0,2.521-1.74,4.2-4.26,4.2c-1.74,0-3.12-0.84-3.78-2.16H23.099c-0.66,1.32-2.04,2.16-3.779,2.16c-2.521,0-4.26-1.739-4.26-4.2
		c0-2.52,1.739-4.199,4.26-4.199c2.579,0,4.26,1.68,4.26,4.199H36.479z M19.32,34.196c-1.38,0-2.28,0.841-2.28,2.22
		c0,1.32,0.9,2.221,2.28,2.221s2.279-0.84,2.279-2.221C21.599,35.037,20.759,34.196,19.32,34.196z M40.739,34.196
		c-1.38,0-2.28,0.841-2.28,2.22c0,1.32,0.9,2.221,2.28,2.221s2.279-0.84,2.279-2.221C43.018,35.037,42.178,34.196,40.739,34.196z
		 M49.738,17.157h2.221c2.46,4.38,3.72,9.419,3.72,15.119s-1.26,10.68-3.72,15.06h-2.221c2.58-4.619,3.84-9.539,3.84-15.06
		C53.578,26.756,52.258,21.657,49.738,17.157z"/>
</g>
</svg>
