<?xml version="1.0" encoding="utf-8"?>
<!-- Generator: Adobe Illustrator 22.0.1, SVG Export Plug-In . SVG Version: 6.00 Build 0)  -->
<svg version="1.1" id="ICONS" xmlns="http://www.w3.org/2000/svg" x="0px"
     y="0px"
     viewBox="0 0 60 60" style="enable-background:new 0 0 60 60;" xml:space="preserve">
<g>
	<path d="M29.038,47.097c-9.779-5.94-16.14-14.58-16.14-22.02c0-6.18,3.36-10.02,8.76-10.02c3.48,0,6.479,1.8,8.34,4.98
		c1.86-3.18,4.859-4.98,8.34-4.98c5.399,0,8.76,3.84,8.76,10.02c0,7.44-6.36,16.08-16.14,22.02H29.038z M21.659,17.098
		c-4.14,0-6.659,3-6.659,7.979c0,6.78,6.359,15.3,14.999,20.1c8.64-4.8,14.999-13.32,14.999-20.1c0-4.979-2.52-7.979-6.659-7.979
		c-3.24,0-5.82,1.98-8.34,6.479C27.538,19.078,24.958,17.098,21.659,17.098z"/>
</g>
</svg>
