<?xml version="1.0" encoding="utf-8"?>
<!-- Generator: Adobe Illustrator 22.0.1, SVG Export Plug-In . SVG Version: 6.00 Build 0)  -->
<svg version="1.1" id="ICONS" xmlns="http://www.w3.org/2000/svg" x="0px"
     y="0px"
     viewBox="0 0 60 60" style="enable-background:new 0 0 60 60;" xml:space="preserve">
<g>
	<path d="M42.898,30.357V10.618H17.099v34.438h11.04c0.06,0.72,0.18,1.38,0.36,2.04h-13.5V8.578h29.999v22.199
		C44.338,30.597,43.738,30.477,42.898,30.357z M23.639,19.198h-2.1c-0.54-0.78-1.14-1.62-1.98-2.94l1.62-0.96
		c0.48,0.84,0.96,1.56,1.38,2.16c0.72-1.2,1.5-2.52,2.76-4.62l1.62,0.9C25.919,15.477,25.139,16.798,23.639,19.198z M23.639,29.937
		h-2.1c-0.54-0.78-1.14-1.62-1.98-2.94l1.62-0.96c0.48,0.84,0.96,1.56,1.38,2.16c0.72-1.2,1.5-2.52,2.76-4.62l1.62,0.9
		C25.919,26.217,25.139,27.537,23.639,29.937z M23.639,40.617h-2.1c-0.54-0.78-1.14-1.62-1.98-2.94l1.62-0.96
		c0.48,0.84,0.96,1.56,1.38,2.16c0.72-1.2,1.5-2.52,2.76-4.62l1.62,0.9C25.919,36.897,25.139,38.217,23.639,40.617z M27.899,17.158
		h10.62v2.04h-10.62V17.158z M27.899,27.897h10.62v2.04h-10.62V27.897z M40.738,53.576c-6.54,0-10.68-4.14-10.68-10.68
		c0-6.6,4.14-10.68,10.68-10.68c6.6,0,10.68,4.08,10.68,10.68C51.418,49.436,47.338,53.576,40.738,53.576z M40.738,51.536
		c5.34,0,8.58-3.24,8.58-8.64c0-5.399-3.24-8.64-8.58-8.64s-8.58,3.24-8.58,8.64C32.159,48.296,35.398,51.536,40.738,51.536z
		 M41.158,47.097h-2.1c-1.14-1.56-1.92-2.7-2.82-4.26l1.8-1.02c0.66,1.08,1.32,2.1,2.04,3.18c1.32-2.04,2.399-4.02,3.78-6.54
		l1.8,1.02C43.858,42.776,42.838,44.517,41.158,47.097z"/>
</g>
</svg>
