<?xml version="1.0" encoding="utf-8"?>
<!-- Generator: Adobe Illustrator 22.0.1, SVG Export Plug-In . SVG Version: 6.00 Build 0)  -->
<svg version="1.1" id="ICONS" xmlns="http://www.w3.org/2000/svg" x="0px"
	 y="0px"
	 viewBox="0 0 60 60" style="enable-background:new 0 0 60 60;" xml:space="preserve">
<g>
	<path d="M10.74,37.016c0-2.94,0.18-3.36,3.119-6.84c3-3.601,4.44-4.44,7.62-4.44h7.619c3.36,0,5.221,0.601,7.98,2.461l4.56,3.42
		l2.939,0.719c3.181,0.721,4.68,2.58,4.68,5.641c0,1.5-0.42,2.82-1.199,3.899l-1.681-1.2c0.601-0.899,0.78-1.56,0.78-2.699
		c0-2.1-1.08-3.24-3.779-3.9l-2.94-0.72l-4.439-3.36c-2.16-1.619-4.021-2.219-6.9-2.219h-7.619c-2.46,0-3.36,0.6-6.12,3.899
		c-2.34,2.88-2.52,3.18-2.52,5.64v1.26c0,0.9,0.18,1.439,0.72,1.98l-1.439,1.319c-0.96-0.84-1.38-1.86-1.38-3.3V37.016z
		 M36.478,40.675c0-2.52,1.74-4.199,4.26-4.199c2.58,0,4.26,1.68,4.26,4.199c0,2.521-1.739,4.2-4.26,4.2
		c-1.739,0-3.119-0.84-3.779-2.159H23.099c-0.66,1.319-2.04,2.159-3.78,2.159c-2.52,0-4.26-1.739-4.26-4.2
		c0-2.52,1.74-4.199,4.26-4.199c2.58,0,4.26,1.68,4.26,4.199H36.478z M19.319,38.456c-1.38,0-2.279,0.841-2.279,2.22
		c0,1.32,0.899,2.221,2.279,2.221s2.28-0.84,2.28-2.221C21.599,39.296,20.759,38.456,19.319,38.456z M32.159,9.956
		c0.42,0,0.779,0,1.08,0.121l0.239-0.24c0.841-0.84,1.681-1.26,2.521-1.26c1.62,0,3.6,1.319,6.96,4.68
		c2.76,2.76,3.84,4.439,3.84,5.879c0,0.9-0.421,1.74-1.381,2.7l6.061,6.06l-1.38,1.381l-6.061-6.061
		c-0.899,0.9-1.739,1.32-2.64,1.32c-1.5,0-3.3-1.141-5.939-3.78c-0.42-0.42-0.66-0.659-0.84-0.84c-0.78,0.36-1.62,0.601-2.46,0.601
		c-2.82,0-5.16-2.34-5.16-5.28S29.338,9.956,32.159,9.956z M33.178,18.357c-1.14-1.381-1.859-2.52-2.1-3.48
		c0.18-0.42,0.66-0.72,1.14-0.72c0.36,0,0.66,0.12,0.96,0.42c0.36,1.08,1.44,2.46,3.72,4.739c2.101,2.101,3.42,3,4.38,3
		c0.42,0,0.84-0.18,1.26-0.6l1.381-1.38c0.479-0.479,0.659-0.899,0.659-1.319c0-0.9-0.84-2.101-3.06-4.32
		c-2.939-2.939-4.319-3.96-5.34-3.96c-0.36,0-0.66,0.12-0.96,0.36c0.72,0.479,1.26,1.14,1.62,1.979c0.6,0.06,1.2,0.78,1.2,1.44
		s-0.9,1.439-1.561,1.439c-0.72,0-1.5-0.779-1.5-1.5c0-0.18,0-0.18,0.061-0.3c-0.181-1.319-1.38-2.22-2.88-2.22
		c-1.86,0-3.12,1.38-3.12,3.3s1.26,3.3,3.12,3.3C32.518,18.537,32.819,18.476,33.178,18.357z M40.738,38.456
		c-1.38,0-2.279,0.841-2.279,2.22c0,1.32,0.899,2.221,2.279,2.221s2.28-0.84,2.28-2.221C43.018,39.296,42.178,38.456,40.738,38.456z
		"/>
</g>
</svg>
