<?xml version="1.0" encoding="utf-8"?>
<!-- Generator: Adobe Illustrator 22.0.1, SVG Export Plug-In . SVG Version: 6.00 Build 0)  -->
<svg version="1.1" id="ICONS" xmlns="http://www.w3.org/2000/svg" x="0px"
     y="0px"
     viewBox="0 0 60 60" style="enable-background:new 0 0 60 60;" xml:space="preserve">
<g>
	<path d="M19.379,39.296c-3.6,1.379-7.08,2.52-10.26,3.42l-0.54-1.98c3.24-1.02,6.48-2.1,9.72-3.3c-0.72-1.56-1.14-3.36-1.14-5.28
		c0-9.18,7.619-14.939,19.799-14.939h12.84l1.56,1.68c-2.04,17.34-8.76,26.039-20.099,26.039
		C26.099,44.935,21.839,42.776,19.379,39.296z M36.359,31.796c-4.74,2.459-9.899,4.739-14.939,6.719
		c2.1,2.701,5.64,4.381,9.84,4.381c10.02,0,16.079-7.98,17.939-23.64h-12.24c-11.039,0-17.699,4.86-17.699,12.899
		c0,1.68,0.36,3.18,1.021,4.561c5.1-1.98,10.199-4.2,15.239-6.721L36.359,31.796z"/>
</g>
</svg>
