<?xml version="1.0" encoding="utf-8"?>
<!-- Generator: Adobe Illustrator 22.0.1, SVG Export Plug-In . SVG Version: 6.00 Build 0)  -->
<svg version="1.1" id="ICONS" xmlns="http://www.w3.org/2000/svg" x="0px"
     y="0px"
     viewBox="0 0 60 60" style="enable-background:new 0 0 60 60;" xml:space="preserve">
<g>
	<path d="M14.94,32.037L2.82,31.976c1.8,1.32,3.24,2.22,5.76,3.72l-0.96,1.62C4.38,35.156,2.22,33.596,0,31.856v-1.62
		c2.22-1.8,4.319-3.3,7.619-5.459l0.96,1.619c-2.52,1.5-3.96,2.4-5.76,3.721l12.12-0.061V32.037z M19.559,19.916
		c0.601-1.26,1.92-2.1,3.36-2.1c1.859,0,3.42,1.499,3.42,3.3c0,0.6-0.12,1.14-0.42,1.74l-7.14,15.419l3.119-2.34
		c0.841-0.66,1.681-0.96,2.521-0.96c1.859,0,3.359,1.56,3.359,3.42c0,1.02-0.659,2.22-1.68,2.939L12.6,51.475l-2.34,4.92l-1.86-0.84
		l2.46-5.34l13.8-10.319c0.779-0.6,1.02-0.96,1.02-1.561c0-0.84-0.54-1.319-1.32-1.319c-0.359,0-0.72,0.18-1.26,0.54l-6.06,4.379
		l-1.86-0.84l8.82-19.139c0.18-0.359,0.24-0.6,0.24-0.9c0-0.72-0.66-1.26-1.44-1.26c-0.6,0-1.02,0.36-1.32,1.02l-3.659,7.74
		l-1.8-0.96L19.559,19.916z M14.7,20.756l1.38-2.88c1.26-2.64,3.78-4.26,6.6-4.26c4.32,0,7.8,3.18,7.8,7.08
		c0,1.26-0.24,2.34-0.72,3.359l-1.44,3.061l-1.8-0.9l1.32-2.82c0.359-0.779,0.54-1.739,0.54-2.699c0-2.82-2.521-5.04-5.7-5.04
		c-2.22,0-3.84,1.08-4.739,3l-1.38,2.94L14.7,20.756z M42.058,7.257c-0.899-1.92-2.52-3-4.739-3c-3.18,0-5.7,2.22-5.7,5.039
		c0,0.961,0.181,1.92,0.54,2.701l1.32,2.819l-1.8,0.899l-1.44-3.06c-0.479-1.021-0.72-2.1-0.72-3.36c0-3.899,3.479-7.079,7.8-7.079
		c2.819,0,5.34,1.62,6.6,4.26l1.38,2.88l-1.859,0.84L42.058,7.257z M42.178,17.157l-3.659-7.739c-0.301-0.66-0.721-1.021-1.32-1.021
		c-0.78,0-1.439,0.54-1.439,1.26c0,0.3,0.06,0.54,0.239,0.9l8.82,19.14l-1.86,0.84l-6.06-4.32c-0.601-0.42-0.9-0.6-1.26-0.6
		c-0.78,0-1.32,0.479-1.32,1.319c0,0.601,0.24,0.96,1.02,1.56l13.8,10.32l2.46,5.34l-1.86,0.84l-2.34-4.92l-13.499-10.14
		c-1.02-0.72-1.68-1.92-1.68-2.94c0-1.859,1.5-3.419,3.359-3.419c0.84,0,1.68,0.3,2.521,0.96l3.119,2.34l-7.14-15.42
		c-0.3-0.6-0.42-1.14-0.42-1.74c0-1.799,1.561-3.299,3.42-3.299c1.44,0,2.76,0.84,3.36,2.1l3.6,7.68L42.178,17.157z M45.058,19.376
		l12.12,0.061c-1.8-1.32-3.24-2.221-5.76-3.721l0.96-1.619c3.3,2.16,5.399,3.66,7.619,5.459v1.62c-2.22,1.74-4.38,3.3-7.619,5.46
		l-0.96-1.62c2.52-1.499,3.96-2.399,5.76-3.72l-12.12,0.061V19.376z"/>
</g>
</svg>
