<?xml version="1.0" encoding="utf-8"?>
<!-- Generator: Adobe Illustrator 22.0.1, SVG Export Plug-In . SVG Version: 6.00 Build 0)  -->
<svg version="1.1" id="ICONS" xmlns="http://www.w3.org/2000/svg" x="0px"
     y="0px"
     viewBox="0 0 60 60" style="enable-background:new 0 0 60 60;" xml:space="preserve">
<g>
	<path d="M42.838,10.737v3.181h6.42v2.039h-6.42v4.561h6.42v2.039h-6.42v3.18h-6.42c-4.979,0-8.22-2.459-8.579-6.479h-8.58
		c-3.899,0-6.42,2.101-6.42,5.28c0,2.82,1.98,4.619,6.24,5.76l3.42,0.9c5.34,1.379,7.56,3.539,7.56,7.318
		c0,4.021-2.82,6.48-7.319,6.48h-3.42v-2.16h3.72c3,0,4.859-1.619,4.859-4.32c0-2.579-1.739-4.199-5.46-5.1l-3.42-0.84
		c-5.579-1.379-8.279-3.959-8.279-8.039c0-4.32,3.54-7.38,8.52-7.38h8.58c0.359-3.96,3.659-6.42,8.579-6.42H42.838z M29.939,18.237
		c0,3.479,2.34,5.46,6.479,5.46h4.32v-10.92h-4.32C32.279,12.777,29.939,14.757,29.939,18.237z M42.838,47.156h-2.22
		c-2.16-2.16-4.08-4.561-5.88-7.26l1.68-1.2c1.62,2.399,3.36,4.62,5.22,6.6c2.82-4.26,5.46-8.64,7.92-13.199l1.86,1.021
		C48.898,37.976,46.079,42.595,42.838,47.156z"/>
</g>
</svg>
