<?xml version="1.0" encoding="utf-8"?>
<!-- Generator: Adobe Illustrator 22.0.1, SVG Export Plug-In . SVG Version: 6.00 Build 0)  -->
<svg version="1.1" id="ICONS" xmlns="http://www.w3.org/2000/svg" x="0px"
	 y="0px"
	 viewBox="0 0 60 60" style="enable-background:new 0 0 60 60;" xml:space="preserve">
<g>
	<path d="M18.9,42.896c-4.74,0-8.16-3.12-8.16-7.5c0-4.14,3.12-7.199,7.5-7.439c0.42-6.42,5.04-10.74,11.459-10.74
		c6.78,0,11.04,3.54,11.46,9.54c4.92,0.239,8.1,3.36,8.1,8.04c0,4.92-3.479,8.1-8.76,8.1H18.9z M47.218,34.796
		c0-3.961-3.06-6.24-8.1-6.061c0-6.42-3-9.479-9.42-9.479c-6.119,0-9.419,3.78-9.419,10.68c-4.68-0.18-7.5,1.86-7.5,5.46
		c0,3.18,2.52,5.4,6.12,5.4h21.599C44.458,40.796,47.218,38.335,47.218,34.796z"/>
</g>
</svg>
