<?xml version="1.0" encoding="utf-8"?>
<!-- Generator: Adobe Illustrator 22.0.1, SVG Export Plug-In . SVG Version: 6.00 Build 0)  -->
<svg version="1.1" id="ICONS" xmlns="http://www.w3.org/2000/svg" x="0px"
     y="0px"
     viewBox="0 0 60 60" style="enable-background:new 0 0 60 60;" xml:space="preserve">
<g>
	<path d="M18.959,17.997c-0.9-1.979-2.58-3-4.74-3c-3.18,0-5.699,2.22-5.699,5.04c0,0.96,0.18,1.92,0.54,2.699l1.319,2.82l-1.8,0.9
		L7.14,23.396c-0.48-1.02-0.72-2.1-0.72-3.359c0-3.9,3.479-7.08,7.799-7.08c2.82,0,5.34,1.62,6.601,4.26l1.38,2.881l-1.86,0.84
		L18.959,17.997z M38.758,30.835c1.86,3.9,2.641,6.42,2.641,8.881c0,0.719-0.181,1.739-0.54,3.239l-0.48,1.62l1.8,3.9l-1.92,0.959
		l-2.159-4.619l0.6-1.92c0.36-1.32,0.479-2.34,0.479-3.301c0-2.1-0.539-4.199-1.92-7.079l-2.159-4.44
		c-0.42-0.899-0.9-1.26-1.62-1.26c-0.66,0-1.2,0.36-1.62,1.08h-1.859c-0.421-0.72-0.96-1.08-1.74-1.08s-1.32,0.36-1.74,1.08H24.66
		c-0.42-0.72-1.021-1.08-1.86-1.08s-1.439,0.36-1.86,1.08H19.08l-3.66-7.739c-0.3-0.66-0.72-1.021-1.319-1.021
		c-0.78,0-1.44,0.541-1.44,1.26c0,0.301,0.061,0.541,0.24,0.9l8.819,19.139l-1.859,0.841l-6.3-4.5c-0.301-0.3-0.601-0.42-1.021-0.42
		c-0.779,0-1.319,0.479-1.319,1.319c0,0.601,0.239,0.961,1.02,1.561l13.8,10.319l2.46,5.34l-1.86,0.84l-2.34-4.919L10.8,40.675
		c-1.021-0.72-1.681-1.92-1.681-2.939c0-1.859,1.5-3.42,3.36-3.42c0.84,0,1.68,0.3,2.52,0.96l3.12,2.34l-7.14-15.419
		c-0.3-0.6-0.42-1.141-0.42-1.74c0-1.8,1.56-3.3,3.42-3.3c1.439,0,2.76,0.84,3.359,2.1l3,6.54c0.66-0.66,1.5-1.02,2.46-1.02
		c1.14,0,2.16,0.479,2.76,1.379c0.66-0.899,1.62-1.379,2.7-1.379c1.02,0,1.92,0.42,2.58,1.26c0.659-0.84,1.68-1.26,2.76-1.26
		c1.439,0,2.64,0.899,3.479,2.64L38.758,30.835z M42.899,4.377c5.22,0,8.459,3.239,8.459,8.46c0,5.159-3.239,8.459-8.459,8.459
		c-5.16,0-8.46-3.3-8.46-8.459C34.439,7.617,37.679,4.377,42.899,4.377z M42.899,19.376c4.079,0,6.479-2.4,6.479-6.539
		c0-4.141-2.4-6.54-6.479-6.54c-4.08,0-6.48,2.399-6.48,6.54C36.418,16.976,38.819,19.376,42.899,19.376z M41.998,13.796V7.977h1.92
		v3.899h3.54v1.92H41.998z"/>
</g>
</svg>
