<?xml version="1.0" encoding="utf-8"?>
<!-- Generator: Adobe Illustrator 22.0.1, SVG Export Plug-In . SVG Version: 6.00 Build 0)  -->
<svg version="1.1" id="ICONS" xmlns="http://www.w3.org/2000/svg" x="0px"
	 y="0px"
	 viewBox="0 0 60 60" style="enable-background:new 0 0 60 60;" xml:space="preserve">
<g>
	<path d="M17.16,21.357H8.58v-2.041h9C17.339,19.857,17.16,20.577,17.16,21.357z M35.399,44.816c0.479,0.24,0.72,0.3,1.02,0.3
		c0.721,0,1.38-0.72,1.38-1.44c0-0.6-0.06-0.72-0.96-1.26l-7.859-4.56l1.021-1.74l11.159,6.479c0.479,0.301,0.72,0.301,1.02,0.301
		c0.66,0,1.38-0.721,1.38-1.44c0-0.6-0.119-0.78-0.96-1.26l-9.719-5.64l1.02-1.74l11.64,6.72c0.479,0.24,0.78,0.3,1.02,0.3
		c0.721,0,1.38-0.72,1.38-1.439c0-0.54-0.18-0.84-0.96-1.26l-10.499-6.12l1.02-1.739l9.42,5.398c0.479,0.24,0.72,0.301,1.02,0.301
		c0.721,0,1.38-0.721,1.38-1.439c0-0.541-0.18-0.841-0.96-1.261l-16.259-9.54l2.04-1.199l15.239,8.939c1.38,0.78,2.04,1.8,2.04,3
		c0,1.68-0.84,2.76-2.28,3.06c0.6,0.54,0.84,1.2,0.84,1.92c0,1.86-1.5,3.36-3.42,3.36c-0.359,0-0.72-0.061-1.14-0.24
		c-0.12,1.92-1.56,3.359-3.3,3.359c-0.54,0-1.14-0.18-1.98-0.6l-0.539-0.3c-0.181,1.86-1.5,3.12-3.36,3.12c-0.6,0-1.2-0.24-1.86-0.6
		l-11.579-6.601c-3.78-2.159-4.8-2.399-7.859-2.399H8.58v-2.04H15.6c2.76,0,4.56,0.54,7.379,2.159L35.399,44.816z M32.279,20.157
		l-7.319,4.319c-0.66,0.36-1.08,0.6-2.16,0.6c-1.92,0-3.479-1.559-3.479-3.479c0-1.381,0.54-2.101,2.22-3.061l9.779-5.64
		c3.9,0,5.76,2.159,8.88,2.159c1.68,0,2.76-0.359,4.859-1.619l5.34-3.24l1.021,1.74l-5.88,3.6c-1.8,1.08-3.36,1.561-5.34,1.561
		c-3.24,0-5.04-1.98-8.399-2.16l-9.54,5.52c-0.54,0.3-0.84,0.66-0.84,1.141c0,0.779,0.6,1.439,1.38,1.439
		c0.42,0,0.66-0.12,1.32-0.48l7.02-4.08L32.279,20.157z M52.498,23.816l1.02,1.74l-4.319,2.4l-2.04-1.141L52.498,23.816z"/>
</g>
</svg>
