<?xml version="1.0" encoding="utf-8"?>
<!-- Generator: Adobe Illustrator 22.0.1, SVG Export Plug-In . SVG Version: 6.00 Build 0)  -->
<svg version="1.1" id="ICONS" xmlns="http://www.w3.org/2000/svg" x="0px"
     y="0px"
     viewBox="0 0 60 60" style="enable-background:new 0 0 60 60;" xml:space="preserve">
<g>
	<path d="M12.839,20.097c0-4.2,2.46-7.5,7.02-9.359l8.88,8.88l-4.92,4.8l11.699,11.759l4.8-4.92l8.88,8.88
		c-1.86,4.56-5.16,7.02-9.359,7.02c-5.04,0-10.08-2.939-17.1-9.959C15.779,30.237,12.839,25.137,12.839,20.097z M39.838,45.056
		c3,0,5.34-1.5,6.84-4.38l-6.36-6.359l-4.8,4.859L20.819,24.417l4.86-4.8l-6.36-6.36c-2.88,1.5-4.38,3.84-4.38,6.84
		c0,4.32,2.88,9.18,9.359,15.659C30.718,42.176,35.518,45.056,39.838,45.056z"/>
</g>
</svg>
