<?xml version="1.0" encoding="utf-8"?>
<!-- Generator: Adobe Illustrator 22.0.1, SVG Export Plug-In . SVG Version: 6.00 Build 0)  -->
<svg version="1.1" id="ICONS" xmlns="http://www.w3.org/2000/svg" x="0px"
	 y="0px"
	 viewBox="0 0 60 60" style="enable-background:new 0 0 60 60;" xml:space="preserve">
<g>
	<path d="M47.1,35.396c0,4.02-0.54,7.859-1.74,11.76H19.321c-2.58-9.3-4.68-19.439-6.42-30.659l1.2-1.38h9.06
		c8.399,0,13.739,2.04,21.239,8.039C46.32,27.836,47.1,31.256,47.1,35.396z M23.161,17.157h-8.1c0.54,3.479,1.14,7.079,1.86,10.739
		H43.98c-0.3-1.02-0.66-2.1-1.14-3.3C35.82,18.956,31.02,17.157,23.161,17.157z M43.86,45.116c0.9-3.36,1.26-6.12,1.26-9.72
		c0-1.92-0.18-3.66-0.6-5.46H17.341c1.02,4.92,2.22,9.96,3.539,15.18H43.86z M25.621,34.196h-4.08v-2.04h4.08V34.196z"/>
</g>
</svg>
