<?xml version="1.0" encoding="utf-8"?>
<!-- Generator: Adobe Illustrator 22.0.1, SVG Export Plug-In . SVG Version: 6.00 Build 0)  -->
<svg version="1.1" id="ICONS" xmlns="http://www.w3.org/2000/svg" x="0px"
     y="0px"
     viewBox="0 0 60 60" style="enable-background:new 0 0 60 60;" xml:space="preserve">
<g>
	<path d="M12.779,27.896H6.42v-2.16h6.359V27.896z M15.479,19.197l-4.5-4.5l1.56-1.561l4.5,4.5L15.479,19.197z M17.039,35.996
		l-4.5,4.5l-1.56-1.56l4.5-4.5L17.039,35.996z M18.959,31.915c-1.2-1.319-1.8-3.06-1.8-5.159c0-4.56,2.94-7.44,7.5-7.44
		c2.16,0,3.84,0.601,5.16,1.801c-0.66,0.48-1.2,0.9-1.62,1.32c-0.84-0.721-2.04-1.08-3.54-1.08c-3.36,0-5.4,2.039-5.4,5.399
		c0,1.68,0.3,2.76,1.14,3.659C19.859,30.776,19.439,31.316,18.959,31.915z M19.379,37.436c0-4.08,3.12-7.14,7.56-7.38
		c0.36-5.1,4.2-8.58,9.6-8.58c5.34,0,8.7,2.76,9,7.38c4.92,0.24,8.1,3.36,8.1,8.04c0,4.859-3.48,8.039-8.759,8.039h-2.46l0.84-2.1
		h1.62c3.959,0,6.72-2.46,6.72-5.939c0-3.96-3.06-6.24-8.1-6.061c0-4.979-2.22-7.318-6.959-7.318c-4.86,0-7.56,2.999-7.56,8.52
		c-4.74-0.181-7.56,1.859-7.56,5.399c0,3.18,2.52,5.399,6.18,5.399h3.3l-0.66,2.1h-2.64C22.799,44.935,19.379,41.816,19.379,37.436z
		 M23.579,14.937V8.578h2.16v6.359H23.579z M32.279,17.636l4.5-4.5l1.56,1.561l-4.5,4.5L32.279,17.636z M36.418,52.255l1.02-7.32
		h-5.04l3.06-9.479h2.52l-2.46,7.379h5.58l-3.72,9.42H36.418z"/>
</g>
</svg>
