<?xml version="1.0" encoding="utf-8"?>
<!-- Generator: Adobe Illustrator 22.0.1, SVG Export Plug-In . SVG Version: 6.00 Build 0)  -->
<svg version="1.1" id="ICONS" xmlns="http://www.w3.org/2000/svg" x="0px"
	 y="0px"
	 viewBox="0 0 60 60" style="enable-background:new 0 0 60 60;" xml:space="preserve">
<g>
	<path d="M36.358,24.117c1.44,0,2.64-0.18,3.6-0.54l1.38,1.38c0,3.36,1.2,4.5,4.62,4.5l1.26,1.26
		c-0.36,10.139-7.02,16.439-17.22,16.439c-10.5,0-17.219-6.72-17.219-17.159c0-10.14,6.3-16.799,16.379-17.159l1.32,1.32
		c-0.54,1.86-0.66,2.58-0.66,3.6C29.819,21.957,32.038,24.117,36.358,24.117z M29.998,45.117c8.82,0,14.459-5.16,15.06-13.56
		c-3.72-0.36-5.46-2.04-5.76-5.64c-0.96,0.18-1.92,0.3-2.94,0.3c-5.4,0-8.64-3.18-8.64-8.459c0-0.9,0.12-1.68,0.42-2.82
		c-8.219,0.72-13.259,6.3-13.259,15.06C14.879,39.297,20.699,45.117,29.998,45.117z M25.439,23.577c0,1.2-0.6,1.86-1.86,1.86
		c-1.2,0-1.86-0.66-1.86-1.86c0-1.26,0.66-1.86,1.86-1.86C24.839,21.717,25.439,22.317,25.439,23.577z M27.599,36.417
		c0,1.2-0.6,1.86-1.86,1.86c-1.2,0-1.86-0.66-1.86-1.86c0-1.26,0.66-1.86,1.86-1.86C26.999,34.557,27.599,35.157,27.599,36.417z
		 M38.278,34.317c0,1.2-0.6,1.86-1.86,1.86c-1.2,0-1.86-0.66-1.86-1.86c0-1.26,0.66-1.86,1.86-1.86
		C37.678,32.457,38.278,33.057,38.278,34.317z"/>
</g>
</svg>
