<?xml version="1.0" encoding="utf-8"?>
<!-- Generator: Adobe Illustrator 22.0.1, SVG Export Plug-In . SVG Version: 6.00 Build 0)  -->
<svg version="1.1" id="ICONS" xmlns="http://www.w3.org/2000/svg" x="0px"
     y="0px"
     viewBox="0 0 60 60" style="enable-background:new 0 0 60 60;" xml:space="preserve">
<g>
	<path d="M12.839,12.837c0-2.881,1.38-4.26,4.26-4.26h23.64c2.88,0,4.26,1.379,4.26,4.26v34.318c0,2.879-1.38,4.26-4.26,4.26h-23.64
		c-2.88,0-4.26-1.381-4.26-4.26V12.837z M17.099,49.375h23.64c1.56,0,2.16-0.66,2.16-2.22V12.837c0-1.561-0.601-2.221-2.16-2.221
		h-23.64c-1.56,0-2.159,0.66-2.159,2.221v34.318C14.94,48.715,15.539,49.375,17.099,49.375z M19.259,14.997h19.26v10.68h-19.26
		V14.997z M19.259,30.056h4.38v2.04h-4.38V30.056z M19.259,36.476h4.38v2.039h-4.38V36.476z M19.259,43.015h4.38v2.041h-4.38V43.015
		z M36.418,23.636v-6.539H21.419v6.539H36.418z M26.519,30.056h4.92v2.04h-4.92V30.056z M26.519,36.476h4.92v2.039h-4.92V36.476z
		 M26.519,43.015h4.92v2.041h-4.92V43.015z M34.319,30.056h4.2v2.04h-4.2V30.056z M34.319,36.476h4.2v2.039h-4.2V36.476z
		 M34.319,43.015h4.2v2.041h-4.2V43.015z"/>
</g>
</svg>
