<?xml version="1.0" encoding="utf-8"?>
<!-- Generator: Adobe Illustrator 22.0.1, SVG Export Plug-In . SVG Version: 6.00 Build 0)  -->
<svg version="1.1" id="ICONS" xmlns="http://www.w3.org/2000/svg" x="0px"
     y="0px"
     viewBox="0 0 60 60" style="enable-background:new 0 0 60 60;" xml:space="preserve">
<g>
	<path d="M12.839,47.095c-2.88,0-4.26-1.38-4.26-4.26V19.256c0-2.88,1.38-4.26,4.26-4.26h10.8V8.578h12.72v6.419h10.8
		c2.88,0,4.26,1.38,4.26,4.26v23.579c0,2.88-1.38,4.26-4.26,4.26H12.839z M17.16,45.056v-28.02h-4.32c-1.56,0-2.159,0.66-2.159,2.22
		v23.579c0,1.561,0.6,2.221,2.159,2.221H17.16z M40.739,45.056v-28.02H19.259v28.02H40.739z M25.739,14.997h8.521v-4.38h-8.521
		V14.997z M49.318,42.835V19.256c0-1.56-0.6-2.22-2.159-2.22h-4.32v28.02h4.32C48.718,45.056,49.318,44.396,49.318,42.835z"/>
</g>
</svg>
