<?xml version="1.0" encoding="utf-8"?>
<!-- Generator: Adobe Illustrator 22.0.1, SVG Export Plug-In . SVG Version: 6.00 Build 0)  -->
<svg version="1.1" id="ICONS" xmlns="http://www.w3.org/2000/svg" x="0px"
     y="0px"
     viewBox="0 0 60 60" style="enable-background:new 0 0 60 60;" xml:space="preserve">
<g>
	<path d="M28.439,29.997V14.398c0-1.02-0.48-1.62-1.38-1.62c-0.9,0-1.38,0.6-1.38,1.62v20.819l-2.101,0.6l-3.84-7.14
		c-0.3-0.6-0.72-0.9-1.14-0.9c-0.78,0-1.44,0.54-1.44,1.26c0,0.36,0.12,0.72,0.36,1.32l8.16,15.18v5.879h-2.101v-5.459
		l-7.979-14.879c-0.3-0.54-0.54-1.44-0.54-2.04c0-1.8,1.56-3.3,3.54-3.3c1.32,0,2.22,0.66,3.06,2.22l1.92,3.54V14.398
		c0-2.16,1.44-3.66,3.48-3.66c2.1,0,3.479,1.44,3.479,3.66v5.399c0.479-0.3,1.02-0.48,1.68-0.48c1.8,0,3,1.26,3.18,3.24
		c0.48-0.3,1.021-0.48,1.681-0.48c1.8,0,3,1.26,3.18,3.24c0.479-0.3,1.02-0.48,1.62-0.48c1.979,0,3.239,1.44,3.239,3.66v5.46
		c0,6.24-0.779,9.06-3.239,11.879l-1.141,1.32v4.26h-2.159v-5.04l1.319-1.5c2.34-2.64,3.12-5.16,3.12-10.02v-6.36
		c0-1.02-0.48-1.62-1.38-1.62c-0.9,0-1.38,0.6-1.38,1.62v3.66h-2.1v-6.42c0-1.02-0.48-1.62-1.381-1.62c-0.899,0-1.38,0.6-1.38,1.62
		v5.34h-2.1v-8.1c0-1.02-0.479-1.62-1.38-1.62s-1.38,0.6-1.38,1.62v7.02H28.439z"/>
</g>
</svg>
