<?xml version="1.0" encoding="utf-8"?>
<!-- Generator: Adobe Illustrator 22.0.1, SVG Export Plug-In . SVG Version: 6.00 Build 0)  -->
<svg version="1.1" id="ICONS" xmlns="http://www.w3.org/2000/svg" x="0px"
	 y="0px"
	 viewBox="0 0 60 60" style="enable-background:new 0 0 60 60;" xml:space="preserve">
<g>
	<path d="M35.878,9.658l0.78-0.9c2.999,1.44,6.3,3.42,8.64,5.16l-0.36,1.14c-0.48,1.5-0.72,2.88-0.72,4.08
		c0,2.76,1.68,4.38,5.76,5.52l1.319,0.36c0.12,3.54,0.12,6.419,0,9.899l-1.319,0.36c-4.08,1.14-5.76,2.76-5.76,5.52
		c0,1.2,0.239,2.58,0.72,4.08l0.36,1.14c-2.34,1.74-5.641,3.72-8.64,5.16l-0.78-0.9c-1.86-2.22-3.66-3.24-5.88-3.24
		s-4.02,1.02-5.88,3.24l-0.78,0.9c-2.999-1.44-6.299-3.42-8.64-5.16l0.36-1.14c0.48-1.5,0.72-2.88,0.72-4.08
		c0-2.76-1.68-4.38-5.76-5.52L8.7,34.917c-0.12-3.48-0.12-6.36,0-9.899l1.319-0.36c4.08-1.14,5.76-2.76,5.76-5.52
		c0-1.2-0.239-2.58-0.72-4.08l-0.36-1.14c2.341-1.74,5.641-3.72,8.64-5.16l0.78,0.9c1.86,2.22,3.66,3.24,5.88,3.24
		S34.018,11.878,35.878,9.658z M22.859,11.458c-1.74,0.78-3.72,2.04-5.58,3.42c0.42,1.38,0.601,2.82,0.601,4.26
		c0,3.72-2.221,6.06-7.08,7.5c-0.12,2.1-0.12,4.5,0,6.66c4.859,1.44,7.08,3.78,7.08,7.5c0,1.44-0.181,2.88-0.601,4.26
		c1.86,1.38,3.84,2.64,5.58,3.42c2.04-2.4,4.26-3.48,7.14-3.48s5.1,1.08,7.14,3.48c1.74-0.78,3.72-2.04,5.58-3.42
		c-0.42-1.38-0.601-2.82-0.601-4.26c0-3.72,2.221-6.06,7.08-7.5c0.12-2.16,0.12-4.56,0-6.66c-4.859-1.44-7.08-3.78-7.08-7.5
		c0-1.44,0.181-2.88,0.601-4.26c-1.86-1.38-3.84-2.64-5.58-3.42c-2.04,2.4-4.26,3.479-7.14,3.479S24.899,13.858,22.859,11.458z
		 M29.998,21.477c5.28,0,8.46,3.18,8.46,8.459c0,5.22-3.18,8.46-8.46,8.46c-5.22,0-8.46-3.24-8.46-8.46
		C21.538,24.657,24.719,21.477,29.998,21.477z M29.998,36.357c3.96,0,6.359-2.4,6.359-6.42c0-4.02-2.399-6.419-6.359-6.419
		s-6.359,2.4-6.359,6.419C23.639,33.957,26.038,36.357,29.998,36.357z"/>
</g>
</svg>
