<?xml version="1.0" encoding="utf-8"?>
<!-- Generator: Adobe Illustrator 22.0.1, SVG Export Plug-In . SVG Version: 6.00 Build 0)  -->
<svg version="1.1" id="ICONS" xmlns="http://www.w3.org/2000/svg" x="0px"
     y="0px"
     viewBox="0 0 60 60" style="enable-background:new 0 0 60 60;" xml:space="preserve">
<g>
	<path d="M21.06,10.377c0.42,0.42,0.84,0.96,1.26,1.68c-4.199,1.801-7.319,4.561-9.479,8.46c-0.6-0.359-1.199-0.84-1.68-1.319
		C13.861,14.877,16.68,12.297,21.06,10.377z M13.141,45.596l3.359-4.2c-2.399-2.88-3.72-6.779-3.72-11.399
		c0-10.499,6.72-17.159,17.219-17.159c10.56,0,17.22,6.66,17.22,17.159c0,4.62-1.32,8.52-3.72,11.399l3.359,4.2l-1.859,1.5
		l-3.06-4.02c-3,2.64-7.08,4.079-11.94,4.079c-4.859,0-8.939-1.439-11.939-4.079L15,47.096L13.141,45.596z M29.999,14.877
		c-9.359,0-15.119,5.76-15.119,15.119c0,9.3,5.82,15.12,15.119,15.12c9.36,0,15.12-5.82,15.12-15.12
		C45.12,20.637,39.36,14.877,29.999,14.877z M28.98,17.097h2.1v11.819h11.76v2.04H28.98V17.097z M47.099,20.517
		c-2.16-3.899-5.279-6.659-9.479-8.46c0.42-0.72,0.84-1.26,1.26-1.68c4.38,1.92,7.2,4.5,9.899,8.82
		C48.299,19.677,47.7,20.158,47.099,20.517z"/>
</g>
</svg>
