<?xml version="1.0" encoding="utf-8"?>
<!-- Generator: Adobe Illustrator 22.0.1, SVG Export Plug-In . SVG Version: 6.00 Build 0)  -->
<svg version="1.1" id="ICONS" xmlns="http://www.w3.org/2000/svg" x="0px"
	 y="0px"
	 viewBox="0 0 60 60" style="enable-background:new 0 0 60 60;" xml:space="preserve">
<g>
	<path d="M8.581,29.936c0-11.819,9.6-21.358,21.418-21.358c11.881,0,21.48,9.539,21.48,21.358c0,11.88-9.6,21.479-21.48,21.479
		C18.181,51.415,8.581,41.816,8.581,29.936z M49.259,29.936c0-10.62-8.64-19.199-19.26-19.199c-10.619,0-19.199,8.579-19.199,19.199
		c0,10.68,8.58,19.319,19.199,19.319C40.62,49.255,49.259,40.616,49.259,29.936z M45.06,29.996c0,8.28-6.721,15-15,15
		s-14.999-6.72-14.999-15c0-8.339,6.72-15.059,14.999-15.059S45.06,21.657,45.06,29.996z M22.32,25.437l-3.059-2.281
		c-1.141,1.74-1.801,3.84-1.98,6.061l3.779-0.061c1.561,0,2.28-0.3,2.58-1.26C23.941,26.996,23.521,26.336,22.32,25.437z
		 M27.24,42.476c0.9,0.18,1.86,0.3,2.82,0.3c0.9,0,1.74-0.12,2.58-0.24l-0.96-3c-0.899-2.94-0.66-4.439,1.021-5.64
		c1.68-1.26,3.18-1.02,5.699,0.779l2.641,1.92c0.899-1.559,1.499-3.299,1.739-5.219H39.54c-3.061,0-4.44-0.721-5.101-2.7
		c-0.601-1.979,0.06-3.36,2.521-5.159l2.699-1.98c-1.199-1.38-2.699-2.52-4.439-3.3l-1.02,3.18c-0.961,2.88-2.041,3.96-4.141,3.96
		s-3.18-1.08-4.14-3.96l-1.021-3.18c-1.68,0.78-3.18,1.86-4.379,3.239l2.58,1.92c2.399,1.801,3.119,3.18,2.459,5.16
		s-1.979,2.7-5.039,2.7h-3.18c0.18,1.86,0.779,3.6,1.619,5.159l2.58-1.859c2.46-1.74,3.96-1.98,5.64-0.721
		c1.74,1.201,1.979,2.7,1.021,5.58L27.24,42.476z M23.22,35.936l-3.06,2.159c1.38,1.681,3.12,2.94,5.1,3.78l1.14-3.6
		c0.48-1.44,0.36-2.28-0.42-2.819C25.201,34.915,24.42,35.037,23.22,35.936z M32.04,21.296l1.199-3.72c-1.02-0.3-2.1-0.42-3.18-0.42
		s-2.16,0.12-3.18,0.42l1.199,3.72c0.48,1.439,1.021,2.04,1.98,2.04S31.56,22.736,32.04,21.296z M33.48,38.335l1.2,3.6
		c1.979-0.779,3.78-2.039,5.159-3.659l-3.119-2.28c-1.26-0.84-2.04-1.02-2.82-0.479C33.121,36.116,33.06,36.896,33.48,38.335z
		 M38.94,29.277l3.899,0.06c-0.119-2.28-0.84-4.38-1.92-6.12l-3.18,2.28c-1.199,0.899-1.619,1.62-1.32,2.52
		C36.72,28.976,37.44,29.277,38.94,29.277z"/>
</g>
</svg>
