<?xml version="1.0" encoding="utf-8"?>
<!-- Generator: Adobe Illustrator 22.0.1, SVG Export Plug-In . SVG Version: 6.00 Build 0)  -->
<svg version="1.1" id="ICONS" xmlns="http://www.w3.org/2000/svg" x="0px"
     y="0px"
     viewBox="0 0 60 60" style="enable-background:new 0 0 60 60;" xml:space="preserve">
<g>
	<path d="M38.579,27.836v-8.58H12.78v19.319h15.06v2.04H10.68V17.216h4.319v-1.56c0-2.399,1.5-3.659,4.26-3.659
		s4.26,1.26,4.26,3.659v1.56h4.32v-1.56c0-2.399,1.5-3.659,4.26-3.659s4.26,1.26,4.26,3.659v1.56h4.319v10.62H38.579z
		 M17.099,17.216h4.32v-0.959c0-1.681-0.54-2.221-2.16-2.221s-2.16,0.54-2.16,2.221V17.216z M26.039,34.196h-0.96l0.6-4.26H22.74
		l2.039-6.359h2.28l-1.5,4.38h3.48L26.039,34.196z M29.939,17.216h4.32v-0.959c0-1.681-0.54-2.221-2.16-2.221s-2.16,0.54-2.16,2.221
		V17.216z M49.258,35.335c0,3.18-3.84,5.28-9.6,5.28s-9.6-2.101-9.6-5.28s3.84-5.279,9.6-5.279S49.258,32.156,49.258,35.335z
		 M49.258,39.835v2.28c-2.22,1.739-5.939,2.819-9.6,2.819s-7.38-1.08-9.6-2.819v-2.28c2.16,1.98,5.64,3.12,9.6,3.12
		S47.098,41.816,49.258,39.835z M30.059,46.855v-2.279c2.52,1.859,5.52,2.699,9.6,2.699s7.08-0.84,9.6-2.699v2.279
		c-2.64,1.561-5.88,2.4-9.6,2.4S32.699,48.415,30.059,46.855z M32.219,35.335c0,1.92,3.119,3.301,7.439,3.301
		c4.319,0,7.439-1.381,7.439-3.301s-3.12-3.299-7.439-3.299C35.338,32.037,32.219,33.415,32.219,35.335z"/>
</g>
</svg>
