<?xml version="1.0" encoding="utf-8"?>
<!-- Generator: Adobe Illustrator 22.0.1, SVG Export Plug-In . SVG Version: 6.00 Build 0)  -->
<svg version="1.1" id="ICONS" xmlns="http://www.w3.org/2000/svg" x="0px"
     y="0px"
     viewBox="0 0 60 60" style="enable-background:new 0 0 60 60;" xml:space="preserve">
<g>
	<path d="M19.259,34.255c-5.22,0-8.459-3.239-8.459-8.459c0-3.779,1.979-8.34,7.499-17.219h1.92c5.52,8.879,7.5,13.439,7.5,17.219
		C27.719,31.016,24.479,34.255,19.259,34.255z M19.259,11.037c-4.92,8.16-6.359,11.52-6.359,14.76c0,4.02,2.399,6.42,6.359,6.42
		s6.36-2.4,6.36-6.42C25.62,22.556,24.179,19.197,19.259,11.037z M23.519,25.796c0,2.82-1.5,4.38-4.26,4.38s-4.26-1.56-4.26-4.38
		H23.519z M40.739,51.415c-5.22,0-8.46-3.24-8.46-8.46c0-3.78,1.98-8.34,7.5-17.22h1.92c5.52,8.88,7.5,13.439,7.5,17.22
		C49.199,48.175,45.958,51.415,40.739,51.415z M40.739,28.197c-4.92,8.159-6.36,11.52-6.36,14.759c0,4.021,2.4,6.42,6.36,6.42
		s6.359-2.399,6.359-6.42C47.098,39.716,45.659,36.356,40.739,28.197z M39.418,34.496h2.64c2.16,3.84,2.94,6.18,2.94,8.46
		c0,2.819-1.5,4.38-4.26,4.38s-4.26-1.561-4.26-4.38C36.479,40.796,37.319,38.335,39.418,34.496z"/>
</g>
</svg>
