<?xml version="1.0" encoding="utf-8"?>
<!-- Generator: Adobe Illustrator 22.0.1, SVG Export Plug-In . SVG Version: 6.00 Build 0)  -->
<svg version="1.1" id="ICONS" xmlns="http://www.w3.org/2000/svg" x="0px"
	 y="0px"
	 viewBox="0 0 60 60" style="enable-background:new 0 0 60 60;" xml:space="preserve">
<g>
	<path d="M21.359,29.877v0.06c0,2.94,0.3,3.42,3.06,5.1l4.56,2.82v-12.12l0.12-14.339c-1.26,1.74-2.1,3.12-3.72,5.76l-1.62-0.96
		c1.979-3.12,3.479-5.22,5.459-7.62h1.62c2.58,3.36,3.9,5.28,5.459,7.62l-1.62,0.96c-1.62-2.64-2.46-4.02-3.72-5.76l0.12,14.339
		v8.34l5.64-2.58c2.22-1.02,2.64-1.44,2.76-3.72h-3v-7.8h7.919v7.8h-2.88c-0.12,3.12-0.9,4.08-3.479,5.28l-6.96,3.24v6.72
		c1.92,0.36,3.12,1.92,3.12,4.14c0,2.64-1.62,4.26-4.2,4.26c-2.58,0-4.2-1.62-4.2-4.26c0-2.28,1.2-3.78,3.18-4.14v-2.76l-5.88-3.66
		c-3.24-2.04-3.78-2.939-3.78-6.66v-0.06c-1.98-0.36-3.18-1.86-3.18-4.14c0-2.64,1.62-4.26,4.2-4.26c2.58,0,4.2,1.62,4.2,4.26
		C24.539,28.017,23.339,29.517,21.359,29.877z M20.339,23.457c-1.38,0-2.16,0.84-2.16,2.28s0.84,2.28,2.16,2.28
		c1.38,0,2.16-0.78,2.16-2.28S21.719,23.457,20.339,23.457z M29.998,44.876c-1.38,0-2.16,0.84-2.16,2.28s0.84,2.28,2.16,2.28
		c1.38,0,2.16-0.78,2.16-2.28S31.379,44.876,29.998,44.876z M42.418,25.857v-3.96h-3.96v3.96H42.418z"/>
</g>
</svg>
