<?xml version="1.0" encoding="utf-8"?>
<!-- Generator: Adobe Illustrator 22.0.1, SVG Export Plug-In . SVG Version: 6.00 Build 0)  -->
<svg version="1.1" id="ICONS" xmlns="http://www.w3.org/2000/svg" x="0px"
	 y="0px"
	 viewBox="0 0 60 60" style="enable-background:new 0 0 60 60;" xml:space="preserve">
<g>
	<path d="M9.059,44.996H6.78c-3.06,0-4.56-1.561-4.56-4.8c0-7.8,0.24-17.22,0.54-22.499c0.18-3.72,1.38-4.8,5.46-4.8h32.699
		c3.54,0,4.56,0.479,6.3,2.819c1.38,1.801,2.04,3.36,2.04,4.5c0,2.16-1.38,3.301-4.02,3.301h-1.32l6.06,6.839l3.6,1.261
		c2.88,1.02,3.66,1.979,4.02,4.739c0.18,1.2,0.24,2.521,0.24,4.739c0,1.86-1.08,2.94-3.24,3.24v-2.1c0.84-0.18,1.14-0.48,1.14-1.08
		c0-1.92-0.06-3.18-0.24-4.32c-0.24-1.979-0.78-2.699-2.4-3.239l-4.26-1.44l-7.74-8.639h-6.839v17.158h-2.1V21.476h13.08
		c1.32,0,1.92-0.42,1.92-1.26c0-0.66-0.48-1.74-1.5-3.18c-1.32-1.859-1.86-2.1-4.74-2.1H7.919c-2.28,0-2.939,0.6-3.06,2.76
		c-0.42,7.74-0.54,11.699-0.54,22.499c0,1.979,0.78,2.76,2.76,2.76h1.98V44.996z M14.999,49.195c-2.52,0-4.26-1.68-4.26-4.199
		c0-2.46,1.74-4.199,4.26-4.199c1.74,0,3.06,0.779,3.78,2.1h26.099c0.72-1.32,2.04-2.1,3.78-2.1c2.52,0,4.26,1.739,4.26,4.199
		c0,2.52-1.74,4.199-4.26,4.199c-2.58,0-4.26-1.68-4.26-4.199v-0.061H19.259v0.061C19.259,47.515,17.579,49.195,14.999,49.195z
		 M14.999,42.776c-1.38,0-2.28,0.899-2.28,2.22c0,1.38,0.9,2.22,2.28,2.22c1.44,0,2.28-0.84,2.28-2.22S16.379,42.776,14.999,42.776z
		 M48.658,47.215c1.38,0,2.28-0.84,2.28-2.22c0-1.32-0.9-2.22-2.28-2.22c-1.38,0-2.28,0.84-2.28,2.22S47.218,47.215,48.658,47.215z"
    />
</g>
</svg>
