<?xml version="1.0" encoding="utf-8"?>
<!-- Generator: Adobe Illustrator 22.0.1, SVG Export Plug-In . SVG Version: 6.00 Build 0)  -->
<svg version="1.1" id="ICONS" xmlns="http://www.w3.org/2000/svg" x="0px"
	 y="0px"
	 viewBox="0 0 60 60" style="enable-background:new 0 0 60 60;" xml:space="preserve">
<g>
	<path d="M11.4,16.976c1.92,1.32,3.3,2.28,5.76,3.721l-0.96,1.619c-3.36-2.159-5.399-3.659-7.62-5.459v-1.62
		c2.34-1.8,4.5-3.36,7.62-5.46l0.96,1.62c-2.46,1.5-3.84,2.399-5.76,3.72l12.119-0.061c4.021,0,6.48,2.461,6.48,6.42
		c0,3.9-2.46,6.36-6.48,6.36H8.58v-2.04h14.939c2.58,0,4.32-1.8,4.32-4.32c0-2.58-1.74-4.379-4.32-4.379L11.4,16.976z
		 M16.919,29.756l-1.56,1.92c-2.34,2.88-2.521,3.18-2.521,5.64v1.26c0,0.9,0.181,1.439,0.721,1.98l-1.44,1.319
		c-0.96-0.84-1.38-1.86-1.38-3.3v-1.56c0-2.94,0.18-3.36,3.12-6.84l0.359-0.42H16.919z M36.479,40.675
		c0-2.52,1.739-4.199,4.26-4.199c2.58,0,4.26,1.68,4.26,4.199c0,2.521-1.74,4.2-4.26,4.2c-1.74,0-3.12-0.84-3.78-2.159H23.099
		c-0.66,1.319-2.04,2.159-3.779,2.159c-2.521,0-4.26-1.739-4.26-4.2c0-2.52,1.739-4.199,4.26-4.199c2.579,0,4.26,1.68,4.26,4.199
		H36.479z M19.32,38.456c-1.38,0-2.28,0.841-2.28,2.22c0,1.32,0.9,2.221,2.28,2.221s2.279-0.84,2.279-2.221
		C21.599,39.296,20.759,38.456,19.32,38.456z M37.079,28.197l4.56,3.42l2.94,0.719c3.18,0.721,4.68,2.58,4.68,5.641
		c0,1.5-0.42,2.82-1.2,3.899l-1.68-1.2c0.6-0.899,0.78-1.56,0.78-2.699c0-2.1-1.08-3.24-3.78-3.9l-2.939-0.72l-4.44-3.36
		c-1.979-1.5-3.779-2.1-6.539-2.159c0.779-0.601,1.26-1.14,1.68-1.979C33.299,26.096,34.918,26.756,37.079,28.197z M40.739,38.456
		c-1.38,0-2.28,0.841-2.28,2.22c0,1.32,0.9,2.221,2.28,2.221s2.279-0.84,2.279-2.221C43.018,39.296,42.178,38.456,40.739,38.456z"/>
</g>
</svg>
