<?xml version="1.0" encoding="utf-8"?>
<!-- Generator: Adobe Illustrator 22.0.1, SVG Export Plug-In . SVG Version: 6.00 Build 0)  -->
<svg version="1.1" id="ICONS" xmlns="http://www.w3.org/2000/svg" x="0px"
     y="0px"
     viewBox="0 0 60 60" style="enable-background:new 0 0 60 60;" xml:space="preserve">
<g>
	<path d="M51.299,24.297l-1.74,1.62c-6.06-6.12-11.88-8.7-19.56-8.7s-13.499,2.58-19.559,8.7l-1.74-1.62
		c6.84-6.54,13.199-9.36,21.299-9.36C38.1,14.937,44.459,17.757,51.299,24.297z M45.12,30.296l-1.8,1.74
		c-4.32-4.439-8.16-6.239-13.32-6.239c-5.159,0-8.999,1.8-13.319,6.239l-1.8-1.74c4.92-4.739,9.42-6.779,15.119-6.779
		C35.7,23.517,40.2,25.557,45.12,30.296z M38.94,36.296l-1.74,1.62c-2.58-2.58-4.62-3.6-7.2-3.6c-2.579,0-4.619,1.02-7.199,3.6
		l-1.74-1.62c3.24-3,5.76-4.199,8.939-4.199C33.18,32.097,35.7,33.296,38.94,36.296z M31.86,44.997c0,1.199-0.6,1.859-1.86,1.859
		c-1.199,0-1.859-0.66-1.859-1.859c0-1.261,0.66-1.86,1.859-1.86C31.26,43.136,31.86,43.736,31.86,44.997z"/>
</g>
</svg>
