<?xml version="1.0" encoding="utf-8"?>
<!-- Generator: Adobe Illustrator 22.0.1, SVG Export Plug-In . SVG Version: 6.00 Build 0)  -->
<svg version="1.1" id="ICONS" xmlns="http://www.w3.org/2000/svg" x="0px"
	 y="0px"
	 viewBox="0 0 60 60" style="enable-background:new 0 0 60 60;" xml:space="preserve">
<g>
	<path d="M9.481,36.417h-2.1v-1.02c0-4.8,1.68-7.8,5.1-9c-1.141-0.9-1.74-2.28-1.74-3.9c0-3.24,2.16-5.34,5.34-5.34
		s5.34,2.16,5.34,5.34c0,1.68-0.72,3.18-2.1,4.2c1.68,0.66,2.819,1.68,3.72,3.24c-0.54,0.3-1.141,0.72-1.74,1.2
		c-1.26-2.22-3.12-3.3-5.7-3.3c-4.079,0-6.119,2.52-6.119,7.62V36.417z M19.321,22.497c0-2.04-1.261-3.3-3.24-3.3
		c-2.04,0-3.24,1.26-3.24,3.3c0,2.04,1.2,3.3,3.24,3.3C18.06,25.797,19.321,24.537,19.321,22.497z M21.42,42.776h-2.1v-1.26
		c0-5.88,2.159-9.419,6.6-10.739c-1.561-1.08-2.34-2.82-2.34-5.1c0-3.96,2.46-6.419,6.419-6.419c3.96,0,6.42,2.459,6.42,6.419
		c0,2.28-0.779,4.02-2.34,5.1c4.5,1.32,6.66,4.8,6.66,10.739v1.26h-2.101v-1.26c0-6.36-2.76-9.419-8.64-9.419
		c-5.76,0-8.579,3.12-8.579,9.419V42.776z M34.32,25.677c0-2.76-1.56-4.38-4.32-4.38c-2.76,0-4.319,1.62-4.319,4.38
		s1.56,4.38,4.319,4.38C32.76,30.057,34.32,28.437,34.32,25.677z M52.619,36.417h-2.1v-0.96c0-5.1-2.04-7.62-6.12-7.62
		c-2.579,0-4.439,1.08-5.699,3.3c-0.6-0.48-1.2-0.9-1.74-1.2c0.9-1.56,2.04-2.58,3.72-3.24c-1.38-1.02-2.1-2.52-2.1-4.2
		c0-3.18,2.16-5.34,5.34-5.34c3.24,0,5.34,2.1,5.34,5.34c0,1.62-0.6,3-1.74,3.9c3.42,1.2,5.1,4.2,5.1,9V36.417z M47.16,22.497
		c0-2.04-1.2-3.3-3.24-3.3c-1.979,0-3.24,1.26-3.24,3.3c0,2.04,1.261,3.3,3.24,3.3C45.959,25.797,47.16,24.537,47.16,22.497z"/>
</g>
</svg>
