<?xml version="1.0" encoding="utf-8"?>
<!-- Generator: Adobe Illustrator 22.0.1, SVG Export Plug-In . SVG Version: 6.00 Build 0)  -->
<svg version="1.1" id="ICONS" xmlns="http://www.w3.org/2000/svg" x="0px"
     y="0px"
     viewBox="0 0 60 60" style="enable-background:new 0 0 60 60;" xml:space="preserve">
<g>
	<path d="M29.999,47.095c-6.54,0-10.68-4.14-10.68-10.68c0-4.739,2.76-10.919,9.6-21.419h2.159c6.84,10.5,9.6,16.68,9.6,21.419
		C40.678,42.956,36.538,47.095,29.999,47.095z M29.999,17.216c-6.36,10.02-8.58,14.939-8.58,19.199c0,5.4,3.24,8.641,8.58,8.641
		c5.339,0,8.579-3.24,8.579-8.641C38.579,32.156,36.359,27.236,29.999,17.216z M36.239,38.576c-0.66,2.88-2.88,4.439-6.239,4.439
		c-3.36,0-5.58-1.56-6.24-4.439H36.239z"/>
</g>
</svg>
