<?xml version="1.0" encoding="utf-8"?>
<!-- Generator: Adobe Illustrator 22.0.1, SVG Export Plug-In . SVG Version: 6.00 Build 0)  -->
<svg version="1.1" id="ICONS" xmlns="http://www.w3.org/2000/svg" x="0px"
	 y="0px"
	 viewBox="0 0 60 60" style="enable-background:new 0 0 60 60;" xml:space="preserve">
<g>
	<path d="M10.74,39.176c0-2.939,0.18-3.359,3.119-6.84c3-3.6,4.44-4.439,7.62-4.439h7.619c3.42,0,5.28,0.6,7.98,2.46l4.56,3.42
		l2.939,0.72c3.181,0.72,4.68,2.58,4.68,5.64c0,1.5-0.42,2.82-1.199,3.9l-1.681-1.2c0.601-0.9,0.78-1.56,0.78-2.7
		c0-2.1-1.08-3.239-3.779-3.899l-2.94-0.72l-4.439-3.36c-2.16-1.62-4.021-2.22-6.9-2.22h-7.619c-2.46,0-3.36,0.6-6.12,3.899
		c-2.279,2.76-2.52,3.12-2.52,5.64v1.261c0,0.899,0.18,1.439,0.72,1.979l-1.439,1.32c-0.96-0.84-1.38-1.86-1.38-3.3V39.176z
		 M36.478,42.836c0-2.52,1.74-4.2,4.26-4.2c2.58,0,4.26,1.681,4.26,4.2c0,2.46-1.68,4.2-4.26,4.2c-1.739,0-3.119-0.841-3.779-2.16
		H23.099c-0.66,1.319-1.98,2.16-3.78,2.16c-2.52,0-4.26-1.74-4.26-4.2c0-2.52,1.74-4.2,4.26-4.2c2.58,0,4.26,1.681,4.26,4.2H36.478z
		 M19.319,40.617c-1.38,0-2.279,0.84-2.279,2.22c0,1.32,0.899,2.22,2.279,2.22c1.44,0,2.28-0.899,2.28-2.22
		C21.599,41.456,20.759,40.617,19.319,40.617z M21.839,12.837l3.84,3.9l3.84-3.84l1.499,1.5l-3.84,3.84l3.84,3.84l-1.499,1.499
		l-3.84-3.84l-3.84,3.9l-1.5-1.5l3.899-3.899l-3.899-3.9L21.839,12.837z M40.738,40.617c-1.38,0-2.279,0.84-2.279,2.22
		c0,1.32,0.899,2.22,2.279,2.22c1.44,0,2.28-0.899,2.28-2.22C43.018,41.456,42.178,40.617,40.738,40.617z"/>
</g>
</svg>
