<?xml version="1.0" encoding="utf-8"?>
<!-- Generator: Adobe Illustrator 22.0.1, SVG Export Plug-In . SVG Version: 6.00 Build 0)  -->
<svg version="1.1" id="ICONS" xmlns="http://www.w3.org/2000/svg" x="0px"
	 y="0px"
	 viewBox="0 0 60 60" style="enable-background:new 0 0 60 60;" xml:space="preserve">
<g>
	<path d="M29.999,12.837c10.561,0,17.221,6.659,17.221,17.158c0,10.439-6.721,17.16-17.221,17.16
		c-10.499,0-17.219-6.721-17.219-17.16C12.781,19.497,19.5,12.837,29.999,12.837z M29.999,14.876
		c-9.359,0-15.119,5.76-15.119,15.119c0,9.301,5.82,15.12,15.119,15.12c9.36,0,15.12-5.819,15.12-15.12
		C45.12,20.636,39.36,14.876,29.999,14.876z M23.64,35.335c0-3.359,2.28-5.279,6.359-5.279c4.08,0,6.36,1.92,6.36,5.279
		c0,3.42-2.28,5.28-6.36,5.28C25.92,40.616,23.64,38.696,23.64,35.335z M27.601,25.736c0,1.2-0.601,1.86-1.861,1.86
		c-1.199,0-1.859-0.66-1.859-1.86c0-1.26,0.66-1.859,1.859-1.859C27,23.876,27.601,24.476,27.601,25.736z M34.38,35.335
		c0-2.219-1.5-3.359-4.381-3.359c-2.879,0-4.379,1.141-4.379,3.359c0,2.221,1.5,3.36,4.379,3.36
		C32.82,38.696,34.38,37.496,34.38,35.335z M36.121,25.736c0,1.2-0.601,1.86-1.86,1.86c-1.2,0-1.86-0.66-1.86-1.86
		c0-1.26,0.66-1.859,1.86-1.859C35.52,23.876,36.121,24.476,36.121,25.736z"/>
</g>
</svg>
