<?xml version="1.0" encoding="utf-8"?>
<!-- Generator: Adobe Illustrator 22.0.1, SVG Export Plug-In . SVG Version: 6.00 Build 0)  -->
<svg version="1.1" id="ICONS" xmlns="http://www.w3.org/2000/svg" x="0px"
	 y="0px"
	 viewBox="0 0 60 60" style="enable-background:new 0 0 60 60;" xml:space="preserve">
<g>
	<path d="M24.719,34.316h19.56l2.4-12.899H22.439l-0.18-2.04h26.639v2.04l-2.76,14.939H24.66c-3.54,0-4.98-1.26-5.4-4.68l-1.8-14.7
		c-0.18-1.439-0.9-2.039-2.4-2.039h-4.32v-2.04h4.32c3.18,0,4.32,1.021,4.68,4.079l1.68,14.76
		C21.6,33.537,22.62,34.316,24.719,34.316z M21.419,47.036c-2.52,0-4.26-1.74-4.26-4.2c0-2.52,1.74-4.199,4.26-4.199
		c2.58,0,4.26,1.68,4.26,4.199C25.679,45.295,23.999,47.036,21.419,47.036z M21.419,40.616c-1.38,0-2.28,0.84-2.28,2.22
		c0,1.32,0.9,2.221,2.28,2.221c1.44,0,2.28-0.9,2.28-2.221C23.7,41.456,22.859,40.616,21.419,40.616z M40.739,47.036
		c-2.52,0-4.26-1.74-4.26-4.2c0-2.52,1.74-4.199,4.26-4.199c2.58,0,4.26,1.68,4.26,4.199C44.998,45.295,43.319,47.036,40.739,47.036
		z M40.739,40.616c-1.38,0-2.28,0.84-2.28,2.22c0,1.32,0.9,2.221,2.28,2.221c1.44,0,2.28-0.9,2.28-2.221
		C43.018,41.456,42.179,40.616,40.739,40.616z"/>
</g>
</svg>
