<?xml version="1.0" encoding="utf-8"?>
<!-- Generator: Adobe Illustrator 22.0.1, SVG Export Plug-In . SVG Version: 6.00 Build 0)  -->
<svg version="1.1" id="ICONS" xmlns="http://www.w3.org/2000/svg" x="0px"
	 y="0px"
	 viewBox="0 0 60 60" style="enable-background:new 0 0 60 60;" xml:space="preserve">
<g>
	<path d="M12.781,27.837c0,7.319,3.359,13.019,9.239,15.599l0.3,2.34c-7.379-2.64-11.639-9.18-11.639-17.939
		c0-11.7,7.499-19.199,19.318-19.199c11.82,0,19.319,7.5,19.319,19.199c0,8.759-4.26,15.299-11.64,17.939l0.301-2.34
		c5.88-2.58,9.239-8.28,9.239-15.599c0-10.5-6.72-17.16-17.22-17.16C19.5,10.678,12.781,17.338,12.781,27.837z M42.78,27.837
		c0,4.2-1.38,7.5-4.08,9.899c0-0.96-0.12-1.74-0.42-2.64c1.62-1.86,2.399-4.319,2.399-7.259c0-6.6-4.079-10.68-10.68-10.68
		c-6.539,0-10.679,4.08-10.679,10.68c0,2.94,0.779,5.399,2.399,7.259c-0.3,0.9-0.42,1.68-0.42,2.64c-2.7-2.4-4.08-5.7-4.08-9.899
		c0-7.86,4.92-12.72,12.779-12.72C37.86,15.118,42.78,19.977,42.78,27.837z M34.62,51.416H25.38l-1.5-10.259
		c-0.3-2.22-0.36-2.58-0.36-3.18c0-3.6,2.4-5.76,6.479-5.76c4.08,0,6.48,2.16,6.48,5.76c0,0.84-0.12,1.74-0.36,3.18L34.62,51.416z
		 M34.02,40.497c0.18-1.38,0.24-1.8,0.24-2.34c0-2.46-1.561-3.9-4.261-3.9c-2.699,0-4.26,1.44-4.26,3.9c0,0.6,0.061,1.08,0.24,2.34
		l1.32,8.82H32.7L34.02,40.497z M29.999,29.937c-2.579,0-4.199-1.62-4.199-4.26c0-2.64,1.62-4.26,4.199-4.26
		c2.58,0,4.2,1.62,4.2,4.26C34.2,28.317,32.58,29.937,29.999,29.937z M29.999,23.397c-1.38,0-2.159,0.84-2.159,2.28
		s0.84,2.28,2.159,2.28c1.381,0,2.16-0.78,2.16-2.28S31.38,23.397,29.999,23.397z"/>
</g>
</svg>
