<?xml version="1.0" encoding="utf-8"?>
<!-- Generator: Adobe Illustrator 22.0.1, SVG Export Plug-In . SVG Version: 6.00 Build 0)  -->
<svg version="1.1" id="ICONS" xmlns="http://www.w3.org/2000/svg" x="0px"
     y="0px"
     viewBox="0 0 60 60" style="enable-background:new 0 0 60 60;" xml:space="preserve">
<g>
	<path d="M25.859,44.935h-2.76l1.8-14.999H12.9l6.42-21.358h10.199L25.62,21.476h12.479L25.859,44.935z M25.679,41.095l8.88-17.578
		h-11.76l3.899-12.9h-5.819l-5.16,17.279h11.7L25.679,41.095z M41.758,51.415c-4.5,0-7.319-2.82-7.319-7.38
		c0-3.239,1.92-7.5,6.239-14.04h2.16c4.5,7.021,6.36,11.04,6.36,14.04C49.199,48.595,46.319,51.415,41.758,51.415z M41.758,32.216
		c-3.899,6.18-5.22,9.18-5.22,11.819c0,3.36,1.98,5.34,5.22,5.34c3.36,0,5.34-1.979,5.34-5.34
		C47.098,41.576,45.659,38.396,41.758,32.216z M44.998,44.036c0,2.159-1.14,3.3-3.24,3.3c-2.04,0-3.119-1.141-3.119-3.3
		c0-1.979,0.779-4.08,3.119-8.04C44.098,39.956,44.998,42.116,44.998,44.036z"/>
</g>
</svg>
