<?xml version="1.0" encoding="utf-8"?>
<!-- Generator: Adobe Illustrator 22.0.1, SVG Export Plug-In . SVG Version: 6.00 Build 0)  -->
<svg version="1.1" id="ICONS" xmlns="http://www.w3.org/2000/svg" x="0px"
     y="0px"
     viewBox="0 0 60 60" style="enable-background:new 0 0 60 60;" xml:space="preserve">
<g>
	<path d="M42.838,8.578v3.18h6.42v2.039h-6.42v4.561h6.42v2.039h-6.42v3.181h-6.42c-4.979,0-8.22-2.46-8.579-6.479h-8.58
		c-3.899,0-6.42,2.1-6.42,5.279c0,2.82,1.98,4.619,6.24,5.76l3.42,0.9c5.34,1.379,7.56,3.539,7.56,7.319
		c0,4.02-2.82,6.479-7.319,6.479h-3.42v-2.16h3.72c3,0,4.859-1.619,4.859-4.319c0-2.58-1.739-4.2-5.46-5.1l-3.42-0.841
		c-5.579-1.379-8.279-3.959-8.279-8.039c0-4.32,3.54-7.38,8.52-7.38h8.58c0.359-3.96,3.659-6.419,8.579-6.419H42.838z
		 M29.939,16.077c0,3.479,2.34,5.46,6.479,5.46h4.32v-10.92h-4.32C32.279,10.617,29.939,12.597,29.939,16.077z M39.599,51.415
		c-4.5,0-7.32-2.82-7.32-7.38c0-3.239,1.92-7.5,6.24-14.04h2.159c4.561,7.141,6.36,11.1,6.36,14.04
		C47.038,48.595,44.159,51.415,39.599,51.415z M39.599,32.216c-3.9,6.18-5.221,9.18-5.221,11.819c0,3.36,1.98,5.34,5.221,5.34
		c3.359,0,5.339-1.979,5.339-5.34C44.938,41.576,43.498,38.396,39.599,32.216z M42.838,44.036c0,2.159-1.14,3.3-3.239,3.3
		c-2.04,0-3.12-1.141-3.12-3.3c0-1.979,0.779-4.08,3.12-8.04C41.939,39.956,42.838,42.116,42.838,44.036z"/>
</g>
</svg>
