<?xml version="1.0" encoding="utf-8"?>
<!-- Generator: Adobe Illustrator 22.0.1, SVG Export Plug-In . SVG Version: 6.00 Build 0)  -->
<svg version="1.1" id="ICONS" xmlns="http://www.w3.org/2000/svg" x="0px"
	 y="0px"
	 viewBox="0 0 60 60" style="enable-background:new 0 0 60 60;" xml:space="preserve">
<g>
	<path d="M36.958,20.877c4.08,0.66,7.92,1.62,11.819,2.88l0.479,2.16c-2.699,2.82-5.039,4.919-8.579,7.62
		c1.08,4.32,1.68,7.68,2.16,12.299l-1.8,1.32c-4.38-2.04-7.86-3.899-11.04-5.819c-3.18,1.92-6.66,3.78-11.039,5.819l-1.801-1.32
		c0.48-4.62,1.08-7.979,2.16-12.299c-3.54-2.7-5.88-4.8-8.579-7.62l0.479-2.16c4.08-1.26,7.859-2.22,11.819-2.88
		c1.8-3.66,3.24-6.06,5.94-10.2h2.039C33.718,14.818,35.159,17.218,36.958,20.877z M40.558,44.577c-0.6-4.62-1.08-7.2-2.28-11.879
		c4.08-3,6.12-4.68,8.7-7.38c-4.68-1.44-7.56-2.1-11.46-2.58c-2.1-4.14-3.659-6.899-5.52-9.779c-1.86,2.88-3.42,5.64-5.52,9.779
		c-3.72,0.54-6.66,1.2-11.46,2.64c2.521,2.58,4.5,4.26,8.7,7.32c-1.2,4.68-1.681,7.259-2.28,11.879c3.84-1.86,6.6-3.42,10.56-5.82
		C33.958,41.157,36.718,42.717,40.558,44.577z"/>
</g>
</svg>
