<?xml version="1.0" encoding="utf-8"?>
<!-- Generator: Adobe Illustrator 22.0.1, SVG Export Plug-In . SVG Version: 6.00 Build 0)  -->
<svg version="1.1" id="ICONS" xmlns="http://www.w3.org/2000/svg" x="0px"
     y="0px"
     viewBox="0 0 60 60" style="enable-background:new 0 0 60 60;" xml:space="preserve">
<g>
	<path d="M44.278,35.697l1.98,0.72c-2.28,6.78-8.22,10.739-16.26,10.739c-10.5,0-17.22-6.72-17.22-17.159
		c0-10.5,6.72-17.159,17.22-17.159c9,0,15.18,4.8,16.739,12.839c1.08-3,1.44-4.26,2.1-6.419l1.801,0.479
		c-1.021,3.3-1.86,5.52-3.36,9l-1.74,0.24c-3.06-2.34-4.8-3.72-7.079-5.76l1.26-1.38c1.92,1.68,3.42,2.94,5.16,4.32
		c-1.74-7.26-6.96-11.279-14.88-11.279c-9.359,0-15.119,5.76-15.119,15.119c0,9.3,5.819,15.12,15.119,15.12
		C37.199,45.117,42.358,41.697,44.278,35.697z"/>
</g>
</svg>
