<?xml version="1.0" encoding="utf-8"?>
<!-- Generator: Adobe Illustrator 22.0.1, SVG Export Plug-In . SVG Version: 6.00 Build 0)  -->
<svg version="1.1" id="ICONS" xmlns="http://www.w3.org/2000/svg" x="0px"
     y="0px"
     viewBox="0 0 60 60" style="enable-background:new 0 0 60 60;" xml:space="preserve">
<g>
	<path d="M16.86,42.835c-3.78-6.42-5.88-10.68-8.28-16.68c4.2-5.639,12.18-8.999,21.42-8.999c9.299,0,17.279,3.36,21.419,8.999
		c-2.4,6-4.5,10.26-8.28,16.68c-4.38-1.38-9.239-2.16-13.139-2.16C25.559,40.675,20.82,41.456,16.86,42.835z M42.058,40.435
		c3.061-5.1,4.92-8.759,7.08-13.859c-3.779-4.619-10.859-7.319-19.139-7.319c-8.28,0-15.359,2.7-19.14,7.319
		c2.16,5.101,4.02,8.76,7.08,13.859c3.659-1.139,7.979-1.799,12.06-1.799C34.079,38.636,38.458,39.296,42.058,40.435z"/>
</g>
</svg>
