<?xml version="1.0" encoding="utf-8"?>
<!-- Generator: Adobe Illustrator 22.0.1, SVG Export Plug-In . SVG Version: 6.00 Build 0)  -->
<svg version="1.1" id="ICONS" xmlns="http://www.w3.org/2000/svg" x="0px"
	 y="0px"
	 viewBox="0 0 60 60" style="enable-background:new 0 0 60 60;" xml:space="preserve">
<g>
	<path d="M40.679,22.257l2.04,7.739c1.021,3.9,1.8,5.4,4.38,8.58v2.1H36.36c0,3.96-2.4,6.42-6.36,6.42
		c-3.959,0-6.359-2.46-6.359-6.42h-10.8v-2.1c2.58-3.18,3.36-4.68,4.38-8.58l2.04-7.739c1.74-6.54,4.92-9.359,10.739-9.359
		C35.82,12.898,38.879,15.597,40.679,22.257z M21.36,22.737l-2.039,7.62c-1.021,3.72-1.801,5.46-3.84,8.22h28.979
		c-2.04-2.76-2.82-4.5-3.84-8.22l-2.04-7.62c-1.5-5.699-3.84-7.8-8.58-7.8C25.2,14.937,22.86,17.038,21.36,22.737z M24.42,21.417
		c0.779-3.12,2.279-4.26,5.579-4.26v2.04c-2.279,0-2.88,0.42-3.479,2.819L24.42,21.417z M29.999,45.056
		c2.761,0,4.261-1.5,4.261-4.38H25.74C25.74,43.556,27.24,45.056,29.999,45.056z"/>
</g>
</svg>
