<?xml version="1.0" encoding="utf-8"?>
<!-- Generator: Adobe Illustrator 22.0.1, SVG Export Plug-In . SVG Version: 6.00 Build 0)  -->
<svg version="1.1" id="ICONS" xmlns="http://www.w3.org/2000/svg" x="0px"
	 y="0px"
	 viewBox="0 0 60 60" style="enable-background:new 0 0 60 60;" xml:space="preserve">
<g>
	<path d="M13.44,24.296l-1.44-3.061c-0.479-1.02-0.72-2.1-0.72-3.359c0-3.06,1.86-5.34,5.1-6.359c1.08-2.4,3.42-3.84,6.42-3.84
		c1.02,0,2.04,0.24,2.82,0.66c0.899-0.42,1.859-0.66,2.88-0.66c2.939,0,4.8,1.26,6.239,4.14l1.021,2.04l-1.86,0.84l-1.02-2.1
		c-0.9-1.92-2.341-2.881-4.38-2.881c-1.08,0-2.221,0.361-2.94,0.9c-0.78-0.6-1.68-0.9-2.76-0.9c-2.34,0-4.26,1.261-4.92,3.301
		c-2.88,0.72-4.5,2.399-4.5,4.859c0,1.02,0.181,1.92,0.54,2.7l1.32,2.819L13.44,24.296z M31.498,53.576l-2.34-4.92L15.66,38.515
		c-1.02-0.719-1.68-1.92-1.68-2.939c0-1.859,1.5-3.42,3.359-3.42c0.84,0,1.68,0.301,2.521,0.961l3.119,2.34l-7.14-15.42
		c-0.3-0.6-0.42-1.141-0.42-1.74c0-1.8,1.5-3.3,3.42-3.3c0.18,0,0.42,0,0.66,0.06c0-1.799,1.5-3.239,3.3-3.239
		c1.2,0,2.1,0.479,2.76,1.5c0.48-0.96,1.44-1.5,2.64-1.5c1.5,0,2.46,0.66,3.181,2.16l4.499,9.659c0.66-0.66,1.561-1.02,2.58-1.02
		c1.44,0,2.64,0.9,3.48,2.64l1.68,3.42c1.92,3.96,2.64,6.479,2.64,8.88c0,0.779-0.18,1.8-0.54,3.24l-0.479,1.619l1.8,3.9
		l-1.92,0.959l-2.16-4.619l0.6-1.92c0.36-1.439,0.48-2.4,0.48-3.3c0-2.16-0.6-4.26-1.92-7.08l-2.16-4.439
		c-0.42-0.9-0.899-1.261-1.62-1.261c-0.659,0-1.199,0.36-1.619,1.08h-2.101l-5.1-10.919c-0.3-0.66-0.72-1.021-1.32-1.021
		c-0.779,0-1.439,0.541-1.439,1.26c0,0.301,0.06,0.541,0.24,0.9l4.739,10.199l-1.859,0.84l-5.7-12.179
		c-0.3-0.66-0.72-1.021-1.32-1.021c-0.779,0-1.439,0.541-1.439,1.26c0,0.301,0.06,0.541,0.24,0.9l5.1,11.039l-1.86,0.841
		l-4.619-9.84c-0.301-0.66-0.721-1.021-1.32-1.021c-0.78,0-1.439,0.541-1.439,1.261c0,0.3,0.06,0.54,0.239,0.899l8.82,19.14
		l-1.86,0.84l-6.3-4.5c-0.36-0.239-0.72-0.42-1.02-0.42c-0.78,0-1.32,0.479-1.32,1.32c0,0.6,0.24,0.96,1.02,1.56l13.8,10.32
		l2.46,5.34L31.498,53.576z"/>
</g>
</svg>
