<?xml version="1.0" encoding="utf-8"?>
<!-- Generator: Adobe Illustrator 22.0.1, SVG Export Plug-In . SVG Version: 6.00 Build 0)  -->
<svg version="1.1" id="ICONS" xmlns="http://www.w3.org/2000/svg" x="0px"
     y="0px"
     viewBox="0 0 60 60" style="enable-background:new 0 0 60 60;" xml:space="preserve">
<g>
	<path d="M40.678,32.156v19.26h-2.1v-19.26c0-1.56-0.6-2.22-2.16-2.22H21.419c-1.56,0-2.16,0.66-2.16,2.22v19.26h-2.1v-19.26
		c0-2.879,1.38-4.26,4.26-4.26h0.78l1.38-4.26h4.319v-2.34h-2.1v-6.24h6.3v6.24h-2.1v2.34h4.26l1.38,4.26h0.779
		C39.298,27.896,40.678,29.277,40.678,32.156z M33.538,27.896l-0.72-2.279h-7.8l-0.72,2.279H33.538z M30.239,19.437v-2.58h-2.58
		v2.58H30.239z M37.079,13.437l4.5-4.561l1.56,1.561l-4.56,4.5L37.079,13.437z M43.138,25.796l-1.56,1.561l-4.5-4.561l1.5-1.5
		L43.138,25.796z M38.579,17.216h6.42v2.04h-6.42V17.216z"/>
</g>
</svg>
