<?xml version="1.0" encoding="utf-8"?>
<!-- Generator: Adobe Illustrator 22.0.1, SVG Export Plug-In . SVG Version: 6.00 Build 0)  -->
<svg version="1.1" id="ICONS" xmlns="http://www.w3.org/2000/svg" x="0px"
	 y="0px"
	 viewBox="0 0 60 60" style="enable-background:new 0 0 60 60;" xml:space="preserve">
<g>
	<path d="M8.58,15.058h42.839v29.879H8.58V15.058z M49.319,42.896V17.098H10.681v25.799H49.319z M19.321,27.837
		c-2.58,0-4.26-1.68-4.26-4.26c0-2.64,1.68-4.26,4.26-4.26c2.64,0,4.26,1.62,4.26,4.26C23.58,26.157,21.96,27.837,19.321,27.837z
		 M19.321,21.237c-1.5,0-2.34,0.78-2.34,2.34c0,1.5,0.84,2.34,2.34,2.34c1.56,0,2.34-0.84,2.34-2.34
		C21.661,22.018,20.88,21.237,19.321,21.237z M43.799,40.677c-0.78-1.68-1.2-2.64-4.14-8.34c-1.98,3.78-3.18,6.18-4.2,8.34H33.48
		c-1.86-4.14-3.18-6.84-6.12-12.66c-3.239,6.24-4.8,9.54-6.119,12.66H19.02c1.681-3.78,3.721-7.979,7.32-15h2.1
		c2.82,5.52,4.2,8.28,6.12,12.419c1.14-2.22,2.46-4.86,4.079-8.1h2.101c3.6,7.08,3.779,7.5,5.34,10.68H43.799z"/>
</g>
</svg>
