<?xml version="1.0" encoding="utf-8"?>
<!-- Generator: Adobe Illustrator 22.0.1, SVG Export Plug-In . SVG Version: 6.00 Build 0)  -->
<svg version="1.1" id="ICONS" xmlns="http://www.w3.org/2000/svg" x="0px"
     y="0px"
     viewBox="0 0 60 60" style="enable-background:new 0 0 60 60;" xml:space="preserve">
<g>
	<path d="M19.499,23.517h-4.56v12.898h14.459l1.561,2.1H12.9V21.416h5.04L19.499,23.517z M38.878,44.996L17.099,16.497l1.86-1.44
		l21.779,28.5L38.878,44.996z M42.899,36.415V23.517h-14.52l-1.62-2.101h18.179v4.319h1.561c2.399,0,3.66,1.5,3.66,4.26
		s-1.261,4.26-3.66,4.26h-1.561v4.26h-5.1l-1.62-2.1H42.899z M44.938,27.836v4.319h0.96c1.681,0,2.221-0.539,2.221-2.16
		c0-1.619-0.54-2.159-2.221-2.159H44.938z"/>
</g>
</svg>
