<?xml version="1.0" encoding="utf-8"?>
<!-- Generator: Adobe Illustrator 22.0.1, SVG Export Plug-In . SVG Version: 6.00 Build 0)  -->
<svg version="1.1" id="ICONS" xmlns="http://www.w3.org/2000/svg" x="0px"
     y="0px"
     viewBox="0 0 60 60" style="enable-background:new 0 0 60 60;" xml:space="preserve">
<g>
	<path d="M38.579,39.536c1.021,0.24,2.1,0.54,3.479,0.899c3.061-5.1,4.92-8.759,7.08-13.859c-3.779-4.619-10.859-7.319-19.139-7.319
		c-8.28,0-15.359,2.7-19.14,7.319c2.16,5.101,4.02,8.76,7.08,13.859c1.079-0.359,2.22-0.659,3.42-0.899l0.659,1.92
		c-2.1,0.479-3.72,0.899-5.159,1.38c-3.66-6.3-5.76-10.56-8.28-16.68c4.2-5.639,12.18-8.999,21.42-8.999
		c9.299,0,17.279,3.36,21.419,8.999c-2.521,6.12-4.62,10.38-8.28,16.68c-1.319-0.42-2.46-0.72-3.84-1.02L38.579,39.536z
		 M19.86,23.577c2.579,6.479,5.039,13.259,7.499,20.698l-1.979,0.721c-2.58-7.92-5.04-14.699-7.56-20.699L19.86,23.577z
		 M27.779,38.696c1.44-0.12,2.521-0.12,3.9,0l0.72,2.101c-1.32-0.121-2.46-0.121-3.96-0.061L27.779,38.696z M30.479,23.577
		c2.58,6.479,5.04,13.259,7.5,20.698l-1.98,0.721c-2.58-7.92-5.039-14.699-7.56-20.699L30.479,23.577z"/>
</g>
</svg>
