<?xml version="1.0" encoding="utf-8"?>
<!-- Generator: Adobe Illustrator 22.0.1, SVG Export Plug-In . SVG Version: 6.00 Build 0)  -->
<svg version="1.1" id="ICONS" xmlns="http://www.w3.org/2000/svg" x="0px"
	 y="0px"
	 viewBox="0 0 60 60" style="enable-background:new 0 0 60 60;" xml:space="preserve">
<g>
	<path d="M10.741,49.256V10.797h8.58v16.859c6.359-2.46,9.779-3.72,13.379-4.859l1.561,1.14v3.78c4.379-1.74,8.579-3.24,13.499-4.86
		l1.56,1.141v25.259H10.741z M47.16,47.216V25.257c-5.4,1.859-10.26,3.659-14.939,5.52v-5.58c-5.04,1.62-9.9,3.42-15,5.521v-17.88
		h-4.38v34.379H47.16z M17.22,34.256h4.26v2.16h-4.26V34.256z M17.22,40.737h4.26v2.159h-4.26V40.737z M23.64,34.256h4.26v2.16
		h-4.26V34.256z M23.64,40.737h4.26v2.159h-4.26V40.737z M32.22,34.256h4.26v2.16h-4.26V34.256z M32.22,40.737h4.26v2.159h-4.26
		V40.737z M38.639,34.256H42.9v2.16h-4.261V34.256z M38.639,40.737H42.9v2.159h-4.261V40.737z"/>
</g>
</svg>
