<?xml version="1.0" encoding="utf-8"?>
<!-- Generator: Adobe Illustrator 22.0.1, SVG Export Plug-In . SVG Version: 6.00 Build 0)  -->
<svg version="1.1" id="ICONS" xmlns="http://www.w3.org/2000/svg" x="0px"
     y="0px"
     viewBox="0 0 60 60" style="enable-background:new 0 0 60 60;" xml:space="preserve">
<g>
	<path d="M12.839,44.996h-2.34l7.68-17.159h-9.6v-2.04h6.42v-4.68c-0.479,0.18-1.08,0.24-1.74,0.24c-2.939,0-4.68-1.74-4.68-4.62
		c0-2.04,1.021-3.36,3-3.899c-0.18-2.461,1.68-4.26,4.44-4.26c2.76,0,4.619,1.799,4.439,4.26c1.979,0.539,3,1.859,3,3.899
		c0,2.88-1.74,4.62-4.68,4.62c-0.601,0-1.2-0.061-1.681-0.24v4.68h4.32L12.839,44.996z M13.379,12.777c0,0.48,0.061,0.84,0.24,1.38
		c-1.8,0-3,1.021-3,2.58c0,1.739,1.021,2.64,2.94,2.64c1.02,0,1.859-0.24,2.46-0.72c0.6,0.479,1.439,0.72,2.46,0.72
		c1.92,0,2.939-0.9,2.939-2.64c0-1.56-1.2-2.58-3-2.58c0.18-0.54,0.24-0.899,0.24-1.38c0-1.38-1.021-2.22-2.64-2.22
		C14.4,10.557,13.379,11.397,13.379,12.777z M28.979,34.316v-6.479h2.1v6.479H28.979z M28.979,38.576h2.1v6.42h-2.1V38.576z
		 M51.418,25.796v2.04h-9.6l7.68,17.159h-2.34l-8.58-19.199H51.418z"/>
</g>
</svg>
