<?xml version="1.0" encoding="utf-8"?>
<!-- Generator: Adobe Illustrator 22.0.1, SVG Export Plug-In . SVG Version: 6.00 Build 0)  -->
<svg version="1.1" id="ICONS" xmlns="http://www.w3.org/2000/svg" x="0px"
	 y="0px"
	 viewBox="0 0 60 60" style="enable-background:new 0 0 60 60;" xml:space="preserve">
<g>
	<path d="M12.839,32.096H10.68v6.479H8.58V23.577h2.101v6.479h2.159v-8.52h8.58v-2.34h-6.42v-2.04h14.939v2.04h-6.42v2.34h9.42
		l9.899,8.459v2.16h2.16v-4.26h6.42v17.039h-6.42v-4.319h-2.16v4.319H19.379l-6.54-6.359V32.096z M14.94,37.675l5.34,5.221h20.459
		v-4.32h6.359v4.32h2.22v-12.96h-2.22v4.26h-6.359v-3.239l-8.58-7.38H14.94V37.675z M19.44,37.556v-9.72h1.859v4.499l3.54-4.439
		h2.04l-3.36,4.32c1.32,1.74,2.4,3.42,3.48,5.34h-2.101c-0.899-1.62-1.739-2.82-2.64-3.96l-0.96,1.14v2.82H19.44z M31.739,33.476
		l-1.2,4.08h-2.1l-1.8-6.42h1.8l1.2,4.5l1.26-4.5h1.8l1.2,4.5l1.14-4.5h1.74l-1.8,6.42h-2.1L31.739,33.476z"/>
</g>
</svg>
