<?xml version="1.0" encoding="utf-8"?>
<!-- Generator: Adobe Illustrator 22.0.1, SVG Export Plug-In . SVG Version: 6.00 Build 0)  -->
<svg version="1.1" id="ICONS" xmlns="http://www.w3.org/2000/svg" x="0px"
	 y="0px"
	 viewBox="0 0 60 60" style="enable-background:new 0 0 60 60;" xml:space="preserve">
<g>
	<path d="M12.779,25.736H6.419v-2.159h6.359V25.736z M15.479,17.037l-4.5-4.5l1.561-1.56l4.5,4.499L15.479,17.037z M17.039,33.835
		l-4.5,4.5l-1.561-1.56l4.5-4.5L17.039,33.835z M18.959,29.756c-1.2-1.32-1.801-3.06-1.801-5.16c0-4.56,2.94-7.439,7.5-7.439
		c2.16,0,3.84,0.601,5.16,1.8c-0.78,0.54-1.26,0.96-1.62,1.32c-0.84-0.721-2.1-1.08-3.54-1.08c-3.359,0-5.399,2.039-5.399,5.399
		c0,1.62,0.3,2.7,1.14,3.66C19.919,28.617,19.439,29.096,18.959,29.756z M48.837,39.716c1.74-1.021,2.761-2.82,2.761-4.98
		c0-3.96-3.061-6.24-8.101-6.06c0-4.979-2.22-7.319-6.959-7.319c-4.86,0-7.56,3-7.56,8.52c-4.74-0.18-7.561,1.859-7.561,5.459
		c0,2.041,1.08,3.721,2.82,4.62l-0.6,2.04c-2.7-1.199-4.26-3.66-4.26-6.66c0-4.139,3.18-7.26,7.56-7.439
		c0.359-5.1,4.199-8.58,9.6-8.58c5.34,0,8.699,2.761,8.999,7.381c4.92,0.239,8.1,3.359,8.1,8.039c0,3.359-1.619,5.939-4.38,7.199
		L48.837,39.716z M23.579,12.777V6.417h2.16v6.359H23.579z M30.779,37.196c0,1.2-0.601,1.86-1.86,1.86c-1.2,0-1.859-0.66-1.859-1.86
		c0-1.26,0.659-1.86,1.859-1.86C30.178,35.335,30.779,35.936,30.779,37.196z M30.779,45.956c0,1.2-0.601,1.86-1.86,1.86
		c-1.2,0-1.859-0.66-1.859-1.86c0-1.26,0.659-1.86,1.859-1.86C30.178,44.095,30.779,44.696,30.779,45.956z M32.279,15.476
		l4.499-4.499l1.561,1.56l-4.5,4.5L32.279,15.476z M38.278,33.956c0,1.199-0.6,1.859-1.859,1.859c-1.2,0-1.86-0.66-1.86-1.859
		c0-1.261,0.66-1.86,1.86-1.86C37.678,32.096,38.278,32.696,38.278,33.956z M38.278,41.576c0,1.2-0.6,1.859-1.859,1.859
		c-1.2,0-1.86-0.659-1.86-1.859c0-1.26,0.66-1.859,1.86-1.859S38.278,40.316,38.278,41.576z M38.278,49.195
		c0,1.201-0.6,1.86-1.859,1.86c-1.2,0-1.86-0.659-1.86-1.86c0-1.26,0.66-1.859,1.86-1.859
		C37.678,47.335,38.278,47.935,38.278,49.195z M45.778,37.196c0,1.2-0.6,1.86-1.859,1.86c-1.2,0-1.86-0.66-1.86-1.86
		c0-1.26,0.66-1.86,1.86-1.86C45.178,35.335,45.778,35.936,45.778,37.196z M45.778,45.956c0,1.2-0.6,1.86-1.859,1.86
		c-1.2,0-1.86-0.66-1.86-1.86c0-1.26,0.66-1.86,1.86-1.86C45.178,44.095,45.778,44.696,45.778,45.956z"/>
</g>
</svg>
