<?xml version="1.0" encoding="utf-8"?>
<!-- Generator: Adobe Illustrator 22.0.1, SVG Export Plug-In . SVG Version: 6.00 Build 0)  -->
<svg version="1.1" id="ICONS" xmlns="http://www.w3.org/2000/svg" x="0px"
	 y="0px"
	 viewBox="0 0 60 60" style="enable-background:new 0 0 60 60;" xml:space="preserve">
<g>
	<path d="M40.738,23.456v-2.04h2.1c2.58,0,4.26,1.68,4.26,4.26c0,2.521-1.68,4.26-4.26,4.26H12.899v-2.04h29.939
		c1.38,0,2.22-0.84,2.22-2.22s-0.84-2.22-2.22-2.22H40.738z M12.899,32.216h21.359c2.58,0,4.26,1.68,4.26,4.26
		c0,2.52-1.68,4.26-4.26,4.26h-2.1v-2.04h2.1c1.38,0,2.22-0.84,2.22-2.22s-0.84-2.221-2.22-2.221H12.899V32.216z"/>
</g>
</svg>
