<?xml version="1.0" encoding="utf-8"?>
<!-- Generator: Adobe Illustrator 22.0.1, SVG Export Plug-In . SVG Version: 6.00 Build 0)  -->
<svg version="1.1" id="ICONS" xmlns="http://www.w3.org/2000/svg" x="0px"
     y="0px"
     viewBox="0 0 60 60" style="enable-background:new 0 0 60 60;" xml:space="preserve">
<g>
	<path d="M45.66,51.415H35.34c-3.06,0-4.62-3.9-5.16-12.84h2.22c0.36,6.779,1.44,10.8,2.94,10.8c1.859,0,2.939-4.44,3.18-13.02
		h-8.579c-1.44,0-2.101,0.66-2.101,2.28v5.34c0,4.739-2.279,7.379-6.42,7.379c-4.079,0-6.359-2.64-6.359-7.379v-3.301h-4.319v-14.1
		c-2.88-1.68-4.38-4.499-4.38-8.339c0-5.94,3.72-9.659,9.659-9.659s9.659,3.719,9.659,9.659c0,3.78-1.499,6.72-4.319,8.339v14.1
		h-4.2v3.301c0,3.659,1.32,5.34,4.26,5.34c3.061,0,4.32-1.561,4.32-5.34v-5.4c0-2.88,1.38-4.26,4.26-4.26h8.58v-2.16
		c0-11.219-1.141-17.219-3.24-17.219c-1.86,0-3.06,6.66-3.06,17.219H30c0-13.26,1.68-19.259,5.34-19.259H45.66
		c5.4,0,7.92,6.12,7.92,19.259C53.58,45.295,51.06,51.415,45.66,51.415z M23.58,18.237c0-4.681-2.88-7.62-7.56-7.62
		s-7.56,2.88-7.56,7.62c0,4.68,2.88,7.56,7.56,7.56C20.761,25.796,23.58,22.916,23.58,18.237z M16.021,20.097
		c-1.14,0-1.92-0.781-1.92-1.92v-0.42l-1.86-2.16l1.261-1.26l2.1,1.92h0.42c1.14,0,1.92,0.779,1.92,1.92
		C17.941,19.316,17.161,20.097,16.021,20.097z M19.261,38.636v-11.22c-0.9,0.3-1.98,0.42-3.24,0.42c-1.2,0-2.22-0.12-3.18-0.42
		v11.22H19.261z M38.58,49.255h7.379c3.42,0,5.34-6.119,5.34-17.1c0-11.039-1.92-17.159-5.34-17.159H38.58
		c1.56,2.761,2.279,8.28,2.279,17.159C40.86,40.976,40.2,46.496,38.58,49.255z M42.12,21.416c-0.239-1.62-0.54-3-0.899-4.26h2.34
		c0.54,1.8,0.84,3.06,0.96,4.26H42.12z M44.58,42.835c-0.239,1.561-0.6,3.12-1.02,4.32h-2.34c0.359-1.32,0.66-2.76,0.899-4.32H44.58
		z M42.66,27.836c-0.12-2.101-0.18-3.12-0.3-4.26h2.46c0.12,1.14,0.18,2.159,0.3,4.26H42.66z M45.12,36.415
		c-0.06,1.86-0.18,2.94-0.3,4.32h-2.46c0.12-1.32,0.24-2.4,0.3-4.32H45.12z M42.72,29.996h2.46v4.26h-2.46V29.996z M46.26,21.416
		c-0.36-1.979-0.66-3.239-1.021-4.26h2.4c0.42,1.26,0.779,2.64,1.079,4.26H46.26z M48.719,42.835c-0.3,1.74-0.659,3.18-1.079,4.32
		h-2.4c0.36-1.021,0.66-2.28,1.021-4.32H48.719z M46.919,27.836c-0.06-1.56-0.18-3-0.359-4.26h2.46c0.12,1.14,0.18,2.159,0.3,4.26
		H46.919z M49.379,36.415c-0.06,1.561-0.18,3-0.359,4.32h-2.46c0.18-1.32,0.3-2.76,0.359-4.32H49.379z M46.98,29.996h2.46v4.26
		h-2.46V29.996z"/>
</g>
</svg>
