<?xml version="1.0" encoding="utf-8"?>
<!-- Generator: Adobe Illustrator 22.0.1, SVG Export Plug-In . SVG Version: 6.00 Build 0)  -->
<svg version="1.1" id="ICONS" xmlns="http://www.w3.org/2000/svg" x="0px"
     y="0px"
     viewBox="0 0 60 60" style="enable-background:new 0 0 60 60;" xml:space="preserve">
<g>
	<path d="M12.72,37.915c1.319-1.8,2.22-3.24,3.72-5.76l1.619,0.961c-2.159,3.239-3.72,5.398-5.459,7.619h-1.62
		c-1.8-2.221-3.3-4.32-5.46-7.619l1.62-0.961c1.5,2.52,2.399,3.96,3.72,5.76l-0.12-14.339l0.12-14.34c-1.32,1.8-2.22,3.24-3.72,5.76
		l-1.62-0.96c2.16-3.3,3.66-5.399,5.46-7.619h1.62c1.739,2.22,3.3,4.379,5.459,7.619l-1.619,0.96c-1.5-2.52-2.4-3.96-3.72-5.76
		l0.119,14.34L12.72,37.915z M19.44,28.556l-1.44-3.06c-0.479-1.021-0.72-2.101-0.72-3.36c0-3.06,1.859-5.34,5.1-6.359
		c1.08-2.4,3.42-3.84,6.42-3.84c1.02,0,2.04,0.24,2.819,0.66c0.9-0.42,1.86-0.66,2.88-0.66c2.94,0,4.8,1.26,6.24,4.14l1.02,2.04
		l-1.859,0.84l-1.021-2.1c-0.899-1.92-2.34-2.88-4.38-2.88c-1.08,0-2.22,0.36-2.939,0.899c-0.78-0.6-1.68-0.899-2.76-0.899
		c-2.34,0-4.26,1.26-4.92,3.3c-2.88,0.72-4.5,2.4-4.5,4.859c0,1.02,0.18,1.92,0.54,2.7l1.32,2.819L19.44,28.556z M37.498,57.835
		l-2.34-4.92L21.66,42.776c-1.021-0.72-1.681-1.92-1.681-2.94c0-1.859,1.5-3.42,3.36-3.42c0.84,0,1.68,0.301,2.52,0.961l3.12,2.34
		l-7.14-15.42c-0.3-0.6-0.42-1.141-0.42-1.74c0-1.8,1.5-3.3,3.42-3.3c0.18,0,0.42,0,0.66,0.06c0-1.799,1.5-3.239,3.3-3.239
		c1.2,0,2.1,0.479,2.76,1.5c0.479-0.96,1.439-1.5,2.64-1.5c1.5,0,2.46,0.66,3.18,2.16l4.5,9.659c0.66-0.66,1.561-1.02,2.58-1.02
		c1.439,0,2.64,0.9,3.479,2.64l1.681,3.42c1.92,3.96,2.64,6.479,2.64,8.88c0,0.779-0.18,1.8-0.54,3.24l-0.48,1.619l1.801,3.9
		l-1.92,0.959l-2.16-4.619l0.6-1.92c0.36-1.439,0.48-2.4,0.48-3.3c0-2.16-0.601-4.26-1.92-7.08l-2.16-4.439
		c-0.42-0.899-0.9-1.261-1.62-1.261c-0.66,0-1.2,0.361-1.62,1.08h-2.1l-5.1-10.919c-0.3-0.66-0.72-1.021-1.32-1.021
		c-0.78,0-1.439,0.541-1.439,1.26c0,0.301,0.06,0.541,0.239,0.9l4.74,10.199l-1.86,0.841l-5.699-12.18
		c-0.3-0.66-0.72-1.021-1.32-1.021c-0.779,0-1.439,0.541-1.439,1.26c0,0.301,0.06,0.541,0.239,0.9l5.101,11.04l-1.86,0.84
		l-4.62-9.84c-0.3-0.659-0.72-1.021-1.319-1.021c-0.78,0-1.44,0.541-1.44,1.261c0,0.3,0.061,0.54,0.24,0.899l8.819,19.14
		l-1.859,0.84l-6.3-4.499c-0.36-0.24-0.72-0.421-1.021-0.421c-0.779,0-1.319,0.48-1.319,1.32c0,0.6,0.24,0.96,1.02,1.56l13.8,10.32
		l2.46,5.34L37.498,57.835z"/>
</g>
</svg>
