<?xml version="1.0" encoding="utf-8"?>
<!-- Generator: Adobe Illustrator 22.0.1, SVG Export Plug-In . SVG Version: 6.00 Build 0)  -->
<svg version="1.1" id="ICONS" xmlns="http://www.w3.org/2000/svg" x="0px"
	 y="0px"
	 viewBox="0 0 60 60" style="enable-background:new 0 0 60 60;" xml:space="preserve">
<g>
	<path d="M17.161,15.057h2.16v-4.38h2.1v4.38h17.219v-4.38h2.101v4.38h2.1c2.88,0,4.26,1.38,4.26,4.26v25.68
		c0,2.88-1.38,4.26-4.26,4.26H17.161c-2.88,0-4.26-1.38-4.26-4.26v-25.68C12.901,16.437,14.281,15.057,17.161,15.057z M15,23.517
		h29.999v-4.2c0-1.56-0.601-2.22-2.16-2.22H17.161c-1.561,0-2.16,0.66-2.16,2.22V23.517z M42.839,47.216c1.56,0,2.16-0.66,2.16-2.22
		V25.557H15v19.439c0,1.56,0.6,2.22,2.16,2.22H42.839z M22.98,32.157c0,1.08-0.42,1.56-1.56,1.56c-1.08,0-1.56-0.479-1.56-1.56
		c0-1.14,0.479-1.56,1.56-1.56C22.56,30.597,22.98,31.017,22.98,32.157z M22.98,40.737c0,1.079-0.42,1.56-1.56,1.56
		c-1.08,0-1.56-0.48-1.56-1.56c0-1.141,0.479-1.561,1.56-1.561C22.56,39.176,22.98,39.596,22.98,40.737z M31.56,32.157
		c0,1.08-0.42,1.56-1.561,1.56c-1.079,0-1.56-0.479-1.56-1.56c0-1.14,0.48-1.56,1.56-1.56C31.14,30.597,31.56,31.017,31.56,32.157z
		 M31.56,40.737c0,1.079-0.42,1.56-1.561,1.56c-1.079,0-1.56-0.48-1.56-1.56c0-1.141,0.48-1.561,1.56-1.561
		C31.14,39.176,31.56,39.596,31.56,40.737z M40.139,32.157c0,1.08-0.42,1.56-1.56,1.56c-1.08,0-1.56-0.479-1.56-1.56
		c0-1.14,0.479-1.56,1.56-1.56C39.719,30.597,40.139,31.017,40.139,32.157z M40.139,40.737c0,1.079-0.42,1.56-1.56,1.56
		c-1.08,0-1.56-0.48-1.56-1.56c0-1.141,0.479-1.561,1.56-1.561C39.719,39.176,40.139,39.596,40.139,40.737z"/>
</g>
</svg>
