<?xml version="1.0" encoding="utf-8"?>
<!-- Generator: Adobe Illustrator 22.0.1, SVG Export Plug-In . SVG Version: 6.00 Build 0)  -->
<svg version="1.1" id="ICONS" xmlns="http://www.w3.org/2000/svg" x="0px"
     y="0px"
     viewBox="0 0 60 60" style="enable-background:new 0 0 60 60;" xml:space="preserve">
<g>
	<path d="M10.74,45.597c0.48-4.2,0.9-6.42,2.16-11.28L38.579,8.578l10.679,10.739L23.579,45.057c-4.62,1.26-6.96,1.68-11.28,2.1
		L10.74,45.597z M16.679,44.577c1.86-0.3,3.66-0.72,5.64-1.32c-2.459-2.64-4.8-5.04-7.62-7.74c-0.66,2.1-1.08,3.84-1.38,5.64
		C14.58,42.297,15.599,43.316,16.679,44.577z M16.199,34.017c2.58,2.4,5.16,4.979,7.68,7.74l22.259-22.319l-7.62-7.74L16.199,34.017
		z M17.159,49.376h32.099v2.04H17.159V49.376z"/>
</g>
</svg>
