<?xml version="1.0" encoding="utf-8"?>
<!-- Generator: Adobe Illustrator 22.0.1, SVG Export Plug-In . SVG Version: 6.00 Build 0)  -->
<svg version="1.1" id="ICONS" xmlns="http://www.w3.org/2000/svg" x="0px"
     y="0px"
     viewBox="0 0 60 60" style="enable-background:new 0 0 60 60;" xml:space="preserve">
<g>
	<path d="M12.839,32.096H10.68v6.479H8.58V23.577h2.101v6.479h2.159v-8.52h8.58v-2.34h-6.42v-2.04h14.939v2.04h-6.42v2.34h9.42
		l9.899,8.459v2.16h2.16v-4.26h6.42v17.039h-6.42v-4.319h-2.16v4.319H19.379l-6.54-6.359V32.096z M14.94,37.675l5.34,5.221h20.459
		v-4.32h6.359v4.32h2.22v-12.96h-2.22v4.26h-6.359v-3.239l-8.58-7.38H14.94V37.675z M23.639,35.516c0-2.16,0.9-4.56,3.12-8.521h2.16
		c2.22,4.141,3.06,6.48,3.06,8.521c0,2.579-1.56,4.14-4.14,4.14C25.2,39.656,23.639,38.095,23.639,35.516z M29.999,35.516
		c0-1.62-0.36-2.7-2.16-6.54c-1.74,3.42-2.22,4.859-2.22,6.54c0,1.319,0.899,2.22,2.22,2.22
		C29.159,37.736,29.999,36.896,29.999,35.516z"/>
</g>
</svg>
