<?xml version="1.0" encoding="utf-8"?>
<!-- Generator: Adobe Illustrator 22.0.1, SVG Export Plug-In . SVG Version: 6.00 Build 0)  -->
<svg version="1.1" id="ICONS" xmlns="http://www.w3.org/2000/svg" x="0px"
     y="0px"
     viewBox="0 0 60 60" style="enable-background:new 0 0 60 60;" xml:space="preserve">
<g>
	<path d="M6.36,29.996c0,14.4,9.18,23.58,23.639,23.58c7.92,0,14.52-2.82,18.839-8.16c-2.159,0.66-4.079,1.26-6.479,2.1l-0.601-1.74
		c2.76-0.899,4.739-1.5,8.76-2.579l1.5,0.899c-0.06,4.02-0.181,6.061-0.479,9l-1.86-0.24c0.36-3.3,0.479-4.74,0.54-6
		c-4.62,5.641-11.82,8.76-20.22,8.76c-15.72,0-25.739-10.02-25.739-25.619H6.36z M53.638,29.996c0-14.398-9.18-23.578-23.64-23.578
		c-7.919,0-14.519,2.819-18.839,8.159c2.16-0.659,4.08-1.26,6.479-2.1l0.601,1.739c-2.76,0.9-4.74,1.5-8.76,2.58l-1.5-0.899
		c0.06-4.021,0.18-6.06,0.479-9l1.86,0.24c-0.36,3.3-0.48,4.739-0.54,5.999c4.62-5.639,11.819-8.759,20.219-8.759
		c15.72,0,25.739,10.02,25.739,25.618H53.638z M10.74,30.596c0-2.94,0.18-3.36,3.119-6.84c3-3.6,4.44-4.44,7.62-4.44h7.62
		c3.3,0,5.16,0.601,7.979,2.461l4.56,3.42l2.939,0.72c3.181,0.72,4.68,2.579,4.68,5.64c0,1.5-0.42,2.82-1.199,3.9l-1.68-1.201
		c0.6-0.899,0.779-1.56,0.779-2.699c0-2.1-1.08-3.24-3.779-3.9l-2.939-0.72l-4.44-3.359c-2.16-1.62-4.021-2.22-6.899-2.22h-7.62
		c-2.46,0-3.36,0.6-6.12,3.899c-2.399,2.94-2.52,3.239-2.52,5.64v1.26c0,0.9,0.18,1.44,0.721,1.98l-1.44,1.32
		c-0.96-0.841-1.38-1.86-1.38-3.301V30.596z M36.478,34.255c0-2.52,1.74-4.199,4.26-4.199c2.58,0,4.26,1.68,4.26,4.199
		c0,2.521-1.739,4.2-4.26,4.2c-1.739,0-3.119-0.84-3.779-2.159H23.099c-0.66,1.319-2.04,2.159-3.779,2.159
		c-2.521,0-4.26-1.739-4.26-4.2c0-2.52,1.739-4.199,4.26-4.199c2.579,0,4.26,1.68,4.26,4.199H36.478z M19.32,32.037
		c-1.381,0-2.28,0.84-2.28,2.219c0,1.32,0.899,2.221,2.28,2.221c1.379,0,2.279-0.84,2.279-2.221
		C21.599,32.876,20.759,32.037,19.32,32.037z M40.738,32.037c-1.379,0-2.279,0.84-2.279,2.219c0,1.32,0.9,2.221,2.279,2.221
		c1.381,0,2.28-0.84,2.28-2.221C43.018,32.876,42.178,32.037,40.738,32.037z"/>
</g>
</svg>
