<?xml version="1.0" encoding="utf-8"?>
<!-- Generator: Adobe Illustrator 22.0.1, SVG Export Plug-In . SVG Version: 6.00 Build 0)  -->
<svg version="1.1" id="ICONS" xmlns="http://www.w3.org/2000/svg" x="0px"
     y="0px"
     viewBox="0 0 60 60" style="enable-background:new 0 0 60 60;" xml:space="preserve">
<g>
	<path d="M8.58,28.796v3.359c0,1.08,0.359,1.62,1.38,1.86l1.26,0.3v2.1l-1.26-0.3c-2.52-0.6-3.479-1.739-3.479-3.96v-3.3
		c0-3.06,0.239-3.72,1.859-5.339l1.021-1.021l2.1,0.6l-1.561,1.62C8.82,25.857,8.58,26.576,8.58,28.796z M34.138,23.517
		c-2.699-1.681-4.439-2.16-8.039-2.16h-13.32L8.58,20.396v-1.08h17.52c4.079,0,6.119,0.541,9.06,2.341l6.06,3.72l7.439,1.14
		c2.34,0.36,3.24,0.96,4.08,2.761c0.479,1.02,0.84,2.699,0.84,3.899c0,1.86-1.08,2.939-3.18,3.239v-2.1
		c0.84-0.18,1.14-0.48,1.14-1.08c0-0.72-0.24-1.979-0.54-2.76c-0.54-1.38-1.02-1.74-2.58-1.98l-8.22-1.199L34.138,23.517z
		 M17.099,40.616c-2.52,0-4.26-1.68-4.26-4.2c0-2.459,1.74-4.199,4.26-4.199c1.74,0,3.12,0.84,3.78,2.16h19.799
		c0.66-1.32,2.04-2.16,3.779-2.16c2.521,0,4.261,1.74,4.261,4.199c0,2.521-1.74,4.2-4.261,4.2c-2.579,0-4.26-1.68-4.26-4.2H21.359
		C21.359,38.936,19.679,40.616,17.099,40.616z M17.099,34.196c-1.38,0-2.28,0.9-2.28,2.22c0,1.381,0.9,2.221,2.28,2.221
		c1.439,0,2.28-0.84,2.28-2.221C19.379,35.037,18.479,34.196,17.099,34.196z M44.457,38.636c1.381,0,2.28-0.84,2.28-2.221
		c0-1.319-0.899-2.22-2.28-2.22c-1.38,0-2.279,0.841-2.279,2.22C42.178,37.796,43.018,38.636,44.457,38.636z"/>
</g>
</svg>
