<?xml version="1.0" encoding="utf-8"?>
<!-- Generator: Adobe Illustrator 22.0.1, SVG Export Plug-In . SVG Version: 6.00 Build 0)  -->
<svg version="1.1" id="ICONS" xmlns="http://www.w3.org/2000/svg" x="0px"
     y="0px"
     viewBox="0 0 60 60" style="enable-background:new 0 0 60 60;" xml:space="preserve">
<g>
	<path d="M44.938,19.257v29.938H15.059V10.677h21.359C39.838,13.557,42.778,16.497,44.938,19.257z M42.838,47.156V21.297h-8.52
		v-8.58h-17.16v34.438H42.838z M30.659,38.577h-1.2c-3.6-2.16-5.819-5.34-5.819-8.28c0-2.64,1.619-4.56,3.84-4.56
		c1.08,0,1.979,0.36,2.579,1.08c0.721-0.72,1.561-1.08,2.58-1.08c2.22,0,3.84,1.92,3.84,4.56
		C36.478,33.237,34.258,36.416,30.659,38.577z M34.498,30.296c0-1.68-0.78-2.64-2.22-2.64c-0.9,0-1.62,0.54-2.221,1.68
		c-0.6-1.14-1.319-1.68-2.22-1.68c-1.439,0-2.22,0.96-2.22,2.64c0,2.221,1.98,5.04,4.439,6.36
		C32.518,35.397,34.498,32.577,34.498,30.296z M42.298,19.317c-1.98-2.279-3.96-4.319-5.94-5.939v5.939H42.298z"/>
</g>
</svg>
