<?xml version="1.0" encoding="utf-8"?>
<!-- Generator: Adobe Illustrator 22.0.1, SVG Export Plug-In . SVG Version: 6.00 Build 0)  -->
<svg version="1.1" id="ICONS" xmlns="http://www.w3.org/2000/svg" x="0px"
     y="0px"
     viewBox="0 0 60 60" style="enable-background:new 0 0 60 60;" xml:space="preserve">
<g>
	<path d="M9.78,19.916c0,1.38,0.36,2.76,1.08,4.44l1.32,2.819l-1.08,0.54l-1.44-3.061c-0.779-1.68-1.08-2.939-1.08-4.739
		c0-4.02,2.221-7.2,6.061-8.76c1.92-3.06,4.859-4.8,8.459-4.8c4.56,0,8.16,2.28,9.96,6.24l1.8,3.959l-1.08,0.541l-1.859-4.021
		c-1.62-3.54-4.86-5.579-8.82-5.579c-3.18,0-6.06,1.68-7.619,4.5C11.879,13.257,9.78,16.197,9.78,19.916z M14.039,26.336
		l-1.439-3.06c-0.48-1.021-0.721-2.101-0.721-3.36c0-3.06,1.86-5.34,5.101-6.36c1.079-2.399,3.42-3.84,6.419-3.84
		c2.94,0,5.58,1.681,6.78,4.261l1.8,3.96l-1.8,0.84l-1.86-4.02c-0.899-1.98-2.58-3-4.92-3s-4.26,1.26-4.919,3.299
		c-2.88,0.721-4.5,2.461-4.5,4.86c0,1.021,0.18,1.92,0.54,2.7l1.319,2.82L14.039,26.336z M32.099,55.615l-2.34-4.92l-13.5-10.139
		c-1.02-0.721-1.68-1.92-1.68-2.94c0-1.86,1.5-3.42,3.36-3.42c0.84,0,1.68,0.3,2.52,0.96l3.12,2.34l-7.14-15.419
		c-0.301-0.601-0.42-1.14-0.42-1.74c0-1.8,1.5-3.3,3.42-3.3c0.18,0,0.42,0,0.659,0.061c0-1.801,1.5-3.24,3.3-3.24
		c1.5,0,2.521,0.66,3.24,2.16l4.56,9.779c0.66-0.721,1.561-1.141,2.521-1.141c1.02,0,1.92,0.42,2.579,1.261
		c0.66-0.841,1.681-1.261,2.761-1.261c1.439,0,2.64,0.9,3.479,2.641l1.68,3.42c1.92,3.959,2.64,6.479,2.64,8.879
		c0,0.721-0.18,1.621-0.539,3.24l-0.48,1.62l1.8,3.899l-1.92,0.961l-2.16-4.62l0.601-1.92c0.359-1.32,0.479-2.28,0.479-3.3
		c0-2.16-0.6-4.26-1.92-7.08l-2.159-4.439c-0.421-0.9-0.9-1.26-1.62-1.26c-0.66,0-1.2,0.359-1.62,1.08h-1.86
		c-0.42-0.721-0.96-1.08-1.739-1.08c-0.78,0-1.32,0.359-1.74,1.08h-2.1l-5.101-10.92c-0.3-0.66-0.72-1.02-1.319-1.02
		c-0.78,0-1.44,0.539-1.44,1.26c0,0.299,0.061,0.539,0.24,0.899l5.1,11.04l-1.859,0.84l-4.62-9.84c-0.3-0.66-0.72-1.02-1.32-1.02
		c-0.779,0-1.439,0.539-1.439,1.26c0,0.3,0.06,0.539,0.24,0.899l8.819,19.14l-1.86,0.84l-6.3-4.5c-0.359-0.24-0.72-0.42-1.02-0.42
		c-0.78,0-1.32,0.48-1.32,1.32c0,0.6,0.24,0.959,1.021,1.56l13.799,10.319l2.46,5.34L32.099,55.615z"/>
</g>
</svg>
