<?xml version="1.0" encoding="utf-8"?>
<!-- Generator: Adobe Illustrator 22.0.1, SVG Export Plug-In . SVG Version: 6.00 Build 0)  -->
<svg version="1.1" id="ICONS" xmlns="http://www.w3.org/2000/svg" x="0px"
     y="0px"
     viewBox="0 0 60 60" style="enable-background:new 0 0 60 60;" xml:space="preserve">
<g>
	<path d="M10.681,49.256h-2.1v-1.26c0-5.88,2.16-9.42,6.6-10.74c-1.561-1.08-2.34-2.82-2.34-5.1c0-3.96,2.459-6.42,6.42-6.42
		c3.959,0,6.42,2.46,6.42,6.42c0,2.22-0.781,3.959-2.281,5.1c4.44,1.32,6.6,4.8,6.6,10.74v1.26h-2.1v-1.26
		c0-6.36-2.76-9.42-8.639-9.42c-5.76,0-8.58,3.12-8.58,9.42V49.256z M23.58,32.157c0-2.76-1.56-4.38-4.319-4.38
		s-4.32,1.62-4.32,4.38c0,2.76,1.561,4.38,4.32,4.38S23.58,34.917,23.58,32.157z M32.16,30.057c-2.76-1.8-4.26-4.86-4.26-8.64
		c0-6.6,4.5-10.68,11.76-10.68s11.76,4.08,11.76,10.68s-4.5,10.68-11.76,10.68c-1.08,0-1.8-0.06-2.939-0.24
		c-1.74,1.74-3.12,2.94-4.561,4.08l-1.379-1.62c2.159-1.68,3.779-3.12,5.279-4.74c1.619,0.36,2.46,0.48,3.6,0.48
		c6.12,0,9.66-3.18,9.66-8.64s-3.54-8.64-9.66-8.64c-6.119,0-9.66,3.18-9.66,8.64c0,3.18,1.201,5.64,3.541,7.14
		C33.24,29.097,32.88,29.517,32.16,30.057z"/>
</g>
</svg>
