<?xml version="1.0" encoding="utf-8"?>
<!-- Generator: Adobe Illustrator 22.0.1, SVG Export Plug-In . SVG Version: 6.00 Build 0)  -->
<svg version="1.1" id="ICONS" xmlns="http://www.w3.org/2000/svg" x="0px"
     y="0px"
     viewBox="0 0 60 60" style="enable-background:new 0 0 60 60;" xml:space="preserve">
<g>
	<path d="M16.86,25.736l-1.5,1.74c-2.28,2.7-2.521,3.24-2.521,5.641v1.26c0,0.899,0.181,1.439,0.721,1.979l-1.44,1.319
		c-0.96-0.84-1.38-1.859-1.38-3.299v-1.561c0-2.939,0.24-3.42,3.12-6.84l1.38-1.619L16.86,25.736z M36.479,36.476
		c0-2.52,1.739-4.2,4.26-4.2c2.58,0,4.26,1.681,4.26,4.2s-1.74,4.199-4.26,4.199c-1.74,0-3.12-0.84-3.78-2.16H23.099
		c-0.66,1.32-2.04,2.16-3.779,2.16c-2.521,0-4.26-1.739-4.26-4.199c0-2.52,1.739-4.2,4.26-4.2c2.579,0,4.26,1.681,4.26,4.2H36.479z
		 M19.32,34.255c-1.38,0-2.28,0.841-2.28,2.221c0,1.32,0.9,2.22,2.28,2.22s2.279-0.84,2.279-2.22S20.759,34.255,19.32,34.255z
		 M27.359,32.156H23.58l-1.86-6.359c-0.24-0.78-0.3-1.141-0.3-1.32c0-0.6,0.36-0.899,1.08-0.899c0.54,0,0.84,0.239,1.02,0.899
		l1.62,5.52h2.52c0.78,0,1.08,0.301,1.08,0.961C28.739,31.856,28.439,32.156,27.359,32.156z M35.038,32.156h-3.779l-1.86-6.359
		c-0.24-0.78-0.3-1.141-0.3-1.32c0-0.6,0.36-0.899,1.08-0.899c0.54,0,0.84,0.239,1.02,0.899l1.62,5.52h2.52
		c0.78,0,1.08,0.301,1.08,0.961C36.418,31.856,36.119,32.156,35.038,32.156z M37.319,24.176l4.319,3.24l2.94,0.72
		c3.18,0.72,4.68,2.58,4.68,5.64c0,1.5-0.42,2.819-1.2,3.899l-1.68-1.199c0.6-0.9,0.78-1.561,0.78-2.7c0-2.1-1.08-3.239-3.78-3.899
		l-2.939-0.721l-4.44-3.359L37.319,24.176z M40.739,34.255c-1.38,0-2.28,0.841-2.28,2.221c0,1.32,0.9,2.22,2.28,2.22
		s2.279-0.84,2.279-2.22S42.178,34.255,40.739,34.255z"/>
</g>
</svg>
