<?xml version="1.0" encoding="utf-8"?>
<!-- Generator: Adobe Illustrator 22.0.1, SVG Export Plug-In . SVG Version: 6.00 Build 0)  -->
<svg version="1.1" id="ICONS" xmlns="http://www.w3.org/2000/svg" x="0px"
     y="0px"
     viewBox="0 0 60 60" style="enable-background:new 0 0 60 60;" xml:space="preserve">
<g>
	<path d="M27.839,25.617h-3.3l4.26,15.059h-2.22l-4.32-15.119c-3.24-0.359-5.1-2.279-5.1-5.22c0-3.3,2.34-5.28,6.359-5.28h12.96
		c4.02,0,6.359,1.98,6.359,5.28s-2.34,5.28-6.359,5.28h-6.42l4.26,15.059h-2.22L27.839,25.617z M17.16,42.896h25.679v2.039H17.16
		V42.896z M19.2,20.336c0,2.101,1.56,3.24,4.319,3.24h12.96c2.819,0,4.319-1.14,4.319-3.24c0-2.159-1.439-3.239-4.319-3.239h-12.96
		C20.639,17.097,19.2,18.177,19.2,20.336z"/>
</g>
</svg>
