<?xml version="1.0" encoding="utf-8"?>
<!-- Generator: Adobe Illustrator 22.0.1, SVG Export Plug-In . SVG Version: 6.00 Build 0)  -->
<svg version="1.1" id="ICONS" xmlns="http://www.w3.org/2000/svg" x="0px"
     y="0px"
     viewBox="0 0 60 60" style="enable-background:new 0 0 60 60;" xml:space="preserve">
<g>
	<path d="M44.938,19.258v29.938H15.059V10.678h21.359C39.838,13.558,42.778,16.497,44.938,19.258z M42.838,47.156V21.297h-8.52
		v-8.58h-17.16v34.438H42.838z M28.259,28.377l-2.28-2.1l0.42-1.8c0.84-0.48,2.1-0.78,3.24-0.78c3.06,0,5.64,2.46,5.64,5.4
		c0,1.02-0.24,2.04-0.66,3.12l3.78,3.72l-1.38,1.44l-4.74-4.8c0.78-1.14,1.08-2.34,1.08-3.42c0-1.92-1.74-3.6-3.78-3.6
		c-0.48,0-0.96,0.06-1.38,0.18l1.98,1.86v3.54l-1.2,1.26h-3.54l-1.86-1.98c-0.12,0.42-0.18,0.9-0.18,1.38c0,2.04,1.68,3.78,3.6,3.78
		c1.08,0,2.28-0.3,3.42-1.08l4.8,4.74l-1.44,1.38l-3.72-3.78c-1.08,0.42-2.1,0.66-3.12,0.66c-2.94,0-5.4-2.58-5.4-5.64
		c0-1.14,0.3-2.4,0.78-3.24l1.8-0.42l2.1,2.28h2.04V28.377z M42.298,19.317c-1.98-2.28-3.96-4.32-5.94-5.939v5.939H42.298z"/>
</g>
</svg>
