<?xml version="1.0" encoding="utf-8"?>
<!-- Generator: Adobe Illustrator 22.0.1, SVG Export Plug-In . SVG Version: 6.00 Build 0)  -->
<svg version="1.1" id="ICONS" xmlns="http://www.w3.org/2000/svg" x="0px"
     y="0px"
     viewBox="0 0 60 60" style="enable-background:new 0 0 60 60;" xml:space="preserve">
<g>
	<path d="M17.16,45.056h25.679v2.039H17.16V45.056z M21.419,40.796h17.159v2.039H21.419V40.796z M32.458,29.876h-0.3
		c-0.6,0-1.199-0.061-1.739-0.12l-2.16,8.819h-2.22l2.279-9.42c-2.939-1.199-4.619-3.959-4.619-7.739c0-5.28,3.18-8.46,8.459-8.46
		c5.28,0,8.46,3.18,8.46,8.46c0,4.38-2.22,7.319-6,8.22l-1.8,8.939h-2.22L32.458,29.876z M32.159,27.836
		c3.96,0,6.36-2.399,6.36-6.42s-2.4-6.42-6.36-6.42s-6.359,2.399-6.359,6.42S28.199,27.836,32.159,27.836z"/>
</g>
</svg>
