<?xml version="1.0" encoding="utf-8"?>
<!-- Generator: Adobe Illustrator 22.0.1, SVG Export Plug-In . SVG Version: 6.00 Build 0)  -->
<svg version="1.1" id="ICONS" xmlns="http://www.w3.org/2000/svg" x="0px"
	 y="0px"
	 viewBox="0 0 60 60" style="enable-background:new 0 0 60 60;" xml:space="preserve">
<g>
	<path d="M34.319,38.517h-8.58c-1.74-6.6-6.359-7.979-6.359-14.939c0-6.239,4.38-10.619,10.56-10.619
		c6.3,0,10.739,4.38,10.739,10.619C40.678,30.537,36.058,31.917,34.319,38.517z M38.579,23.577c0-5.279-3.3-8.58-8.64-8.58
		c-5.22,0-8.46,3.3-8.46,8.58c0,5.88,4.02,7.56,5.76,12.9h5.58C34.558,31.137,38.579,29.457,38.579,23.577z M34.258,42.836h-8.52
		v-2.04h8.52V42.836z M25.739,46.256v-1.26h8.58v1.26c-1.141,0.54-2.7,0.84-4.32,0.84S26.878,46.796,25.739,46.256z M29.998,19.258
		v-1.98c3.899,0,6.42,2.459,6.42,6.299h-2.04C34.199,20.877,32.579,19.258,29.998,19.258z"/>
</g>
</svg>
