<?xml version="1.0" encoding="utf-8"?>
<!-- Generator: Adobe Illustrator 22.0.1, SVG Export Plug-In . SVG Version: 6.00 Build 0)  -->
<svg version="1.1" id="ICONS" xmlns="http://www.w3.org/2000/svg" x="0px"
	 y="0px"
	 viewBox="0 0 60 60" style="enable-background:new 0 0 60 60;" xml:space="preserve">
<g>
	<path d="M10.74,49.316V10.677h2.1v38.639H10.74z M47.579,38.456c-3.66-1.499-6.12-2.1-9.06-2.1c-5.22,0-7.8,2.159-13.02,2.159
		c-3.18,0-5.58-0.539-10.439-2.279V11.817l1.619-1.08c3.66,1.5,6.12,2.101,9.06,2.101c5.221,0,7.8-2.101,13.02-2.101
		c3.181,0,5.58,0.54,10.44,2.28v24.359L47.579,38.456z M47.159,14.517c-3-1.2-5.58-1.74-8.4-1.74c-5.1,0-7.799,2.1-13.02,2.1
		c-3.239,0-5.279-0.42-8.64-1.8v21.659c2.88,1.2,5.46,1.74,8.4,1.74c5.1,0,7.8-2.16,13.02-2.16c3.239,0,5.279,0.42,8.64,1.8V14.517z
		 M31.019,20.816h-3.6c-1.62,0-2.04,0.181-3.061,1.32c-0.72,0.84-0.899,1.2-0.899,2.04v1.38c0,0.66,0.12,1.08,0.479,1.62l-1.68,0.78
		c-0.54-0.78-0.72-1.381-0.72-2.4v-1.38c0-1.38,0.3-2.1,1.38-3.3c1.38-1.561,2.22-1.92,4.439-1.92h3.66c2.04,0,3.3,0.42,5.16,1.68
		l1.14,0.78l2.04,0.42c2.279,0.479,3.359,1.8,3.359,4.08c0,0.78-0.18,1.5-0.54,2.04l-1.619-0.78c0.18-0.3,0.239-0.66,0.239-1.26
		c0-1.38-0.6-2.101-1.979-2.34l-2.28-0.421l-2.46-1.619C33.119,20.937,32.639,20.816,31.019,20.816z M37.439,31.016
		c-1.2,0-2.101-0.601-2.46-1.62h-5.46c-0.36,1.02-1.26,1.62-2.46,1.62c-1.56,0-2.58-1.021-2.58-2.521s1.021-2.52,2.58-2.52
		c1.2,0,2.1,0.6,2.4,1.561h5.579c0.3-0.961,1.2-1.561,2.4-1.561c1.56,0,2.58,1.02,2.58,2.52S38.998,31.016,37.439,31.016z
		 M27.059,27.537c-0.6,0-0.96,0.359-0.96,0.959c0,0.601,0.36,0.961,0.96,0.961s0.96-0.36,0.96-0.961
		C28.019,27.896,27.659,27.537,27.059,27.537z M37.439,27.537c-0.601,0-0.96,0.359-0.96,0.959c0,0.601,0.359,0.961,0.96,0.961
		c0.6,0,0.96-0.36,0.96-0.961C38.399,27.896,38.038,27.537,37.439,27.537z"/>
</g>
</svg>
