<?xml version="1.0" encoding="utf-8"?>
<!-- Generator: Adobe Illustrator 22.0.1, SVG Export Plug-In . SVG Version: 6.00 Build 0)  -->
<svg version="1.1" id="ICONS" xmlns="http://www.w3.org/2000/svg" x="0px"
     y="0px"
     viewBox="0 0 60 60" style="enable-background:new 0 0 60 60;" xml:space="preserve">
<g>
	<path d="M12.839,29.936c0-9.419,7.68-17.099,17.16-17.099c9.419,0,17.099,7.68,17.099,17.099c0,9.479-7.68,17.22-17.099,17.22
		C20.519,47.156,12.839,39.415,12.839,29.936z M20.459,23.697l-2.76-2.28c-1.62,2.22-2.58,4.979-2.7,7.92l3.72-0.24
		c1.92-0.12,2.82-0.66,3.24-1.92C22.379,25.976,21.959,24.956,20.459,23.697z M32.939,44.755l-0.78-3.119
		c-0.899-3.36-0.479-5.101,1.44-6.54c1.92-1.38,3.6-1.2,6.6,0.659l2.76,1.681c1.02-1.74,1.68-3.72,1.92-5.819l-3.12-0.24
		c-3.479-0.18-5.039-1.08-5.76-3.36c-0.72-2.22,0-3.84,2.7-6.12l2.399-1.979c-1.38-1.5-3.06-2.76-4.919-3.659l-1.141,2.819
		c-1.26,3.239-2.58,4.44-4.979,4.44c-2.4,0-3.72-1.201-4.979-4.44l-1.141-2.88c-1.92,0.84-3.6,2.1-4.979,3.6l2.28,1.92
		c2.699,2.221,3.42,3.84,2.699,6.061c-0.72,2.279-2.279,3.18-5.76,3.359l-3.119,0.24c0.18,2.1,0.84,4.08,1.8,5.879l2.58-1.619
		c2.999-1.92,4.739-2.1,6.659-0.66c1.92,1.38,2.34,3.119,1.44,6.479l-0.841,3.24c1.08,0.239,2.16,0.36,3.301,0.36
		C31.019,45.056,31.979,44.935,32.939,44.755z M21.12,36.956l-3.12,1.979c1.68,2.34,4.02,4.14,6.72,5.159l0.96-3.779
		c0.54-1.86,0.3-2.939-0.78-3.721C23.819,35.876,22.74,35.936,21.12,36.956z M27.659,30.835c0,0.9-0.6,1.561-1.56,1.561
		c-0.899,0-1.56-0.72-1.56-1.561c0-0.84,0.66-1.559,1.56-1.559C27.059,29.277,27.659,29.936,27.659,30.835z M32.879,18.956
		l1.319-3.42c-1.319-0.359-2.76-0.6-4.199-0.6c-1.44,0-2.82,0.18-4.141,0.6l1.38,3.42c0.721,1.8,1.5,2.52,2.82,2.52
		S32.159,20.756,32.879,18.956z M28.979,26.576c0,0.9-0.6,1.561-1.56,1.561c-0.9,0-1.561-0.72-1.561-1.561
		c0-0.84,0.66-1.56,1.561-1.56C28.379,25.016,28.979,25.676,28.979,26.576z M31.559,34.016c0,0.899-0.6,1.56-1.56,1.56
		c-0.9,0-1.561-0.72-1.561-1.56s0.66-1.56,1.561-1.56C30.959,32.456,31.559,33.117,31.559,34.016z M34.079,26.576
		c0,0.9-0.6,1.561-1.56,1.561c-0.9,0-1.56-0.72-1.56-1.561c0-0.84,0.659-1.56,1.56-1.56C33.479,25.016,34.079,25.676,34.079,26.576z
		 M35.458,30.835c0,0.9-0.6,1.561-1.56,1.561c-0.9,0-1.56-0.72-1.56-1.561c0-0.84,0.659-1.559,1.56-1.559
		C34.859,29.277,35.458,29.936,35.458,30.835z M33.958,40.435l1.021,3.78c2.7-1.02,5.04-2.76,6.779-4.979l-3.239-2.1
		c-1.62-1.021-2.7-1.141-3.72-0.42C33.719,37.496,33.479,38.576,33.958,40.435z M41.218,29.277l3.72,0.239
		c-0.119-3-1.02-5.7-2.579-7.979l-2.88,2.4c-1.44,1.199-1.92,2.219-1.5,3.479C38.399,28.676,39.298,29.216,41.218,29.277z"/>
</g>
</svg>
