<?xml version="1.0" encoding="utf-8"?>
<!-- Generator: Adobe Illustrator 22.0.1, SVG Export Plug-In . SVG Version: 6.00 Build 0)  -->
<svg version="1.1" id="ICONS" xmlns="http://www.w3.org/2000/svg" x="0px"
     y="0px"
     viewBox="0 0 60 60" style="enable-background:new 0 0 60 60;" xml:space="preserve">
<g>
	<path d="M42.838,10.737v3.181h6.42v2.039h-6.42v4.561h6.42v2.039h-6.42v3.18h-6.42c-4.979,0-8.22-2.459-8.579-6.479h-8.58
		c-3.899,0-6.42,2.101-6.42,5.28c0,2.82,1.98,4.619,6.24,5.76l3.42,0.9c5.34,1.379,7.56,3.539,7.56,7.318
		c0,4.021-2.82,6.48-7.319,6.48h-3.42v-2.16h3.72c3,0,4.859-1.619,4.859-4.32c0-2.579-1.739-4.199-5.46-5.1l-3.42-0.84
		c-5.579-1.379-8.279-3.959-8.279-8.039c0-4.32,3.54-7.38,8.52-7.38h8.58c0.359-3.96,3.659-6.42,8.579-6.42H42.838z M29.939,18.237
		c0,3.479,2.34,5.46,6.479,5.46h4.32v-10.92h-4.32C32.279,12.777,29.939,14.757,29.939,18.237z M38.579,33.415l5.34,5.34l5.34-5.34
		l1.5,1.5l-5.34,5.34l5.34,5.4l-1.5,1.5l-5.34-5.34l-5.34,5.34l-1.5-1.5l5.34-5.4l-5.34-5.34L38.579,33.415z"/>
</g>
</svg>
