<?xml version="1.0" encoding="utf-8"?>
<!-- Generator: Adobe Illustrator 22.0.1, SVG Export Plug-In . SVG Version: 6.00 Build 0)  -->
<svg version="1.1" id="ICONS" xmlns="http://www.w3.org/2000/svg" x="0px"
     y="0px"
     viewBox="0 0 60 60" style="enable-background:new 0 0 60 60;" xml:space="preserve">
<g>
	<path d="M12.48,47.396l-2.521,1.859l-1.38-1.5l2.521-1.859c2.939-2.221,5.1-3,8.159-3c4.14,0,8.04,1.92,14.1,2.16l15.119-10.381
		c0.601-0.42,0.84-0.719,0.84-1.139c0-0.781-0.6-1.44-1.38-1.44c-0.42,0-0.659,0.12-1.14,0.42l-6.779,4.56
		c-0.54,1.26-1.801,1.98-3.48,1.98h-8.699v-2.04h8.699c1.021,0,1.62-0.48,1.62-1.38c0-0.9-0.6-1.381-1.62-1.381h-16.02
		c-4.079,0-5.76,0.541-8.579,2.761l-1.98,1.56l-1.38-1.5l1.98-1.56c3.359-2.521,5.64-3.3,10.02-3.3h15.959
		c1.74,0,3.12,0.9,3.54,2.34l5.819-3.84c0.721-0.48,1.261-0.66,2.04-0.66c1.92,0,3.48,1.561,3.48,3.48
		c0,1.199-0.48,1.859-2.22,3.059l-14.88,10.5c-6.479,0-10.619-2.16-15.06-2.16C16.499,44.935,14.999,45.476,12.48,47.396z
		 M22.379,10.796c0.42,0,0.78,0,1.08,0.121l0.24-0.24c0.84-0.84,1.68-1.26,2.52-1.26c1.62,0,3.6,1.319,6.96,4.68
		c2.76,2.76,3.84,4.439,3.84,5.879c0,0.9-0.42,1.74-1.38,2.7l6.06,6.06l-1.38,1.381l-6.06-6.061c-0.9,0.9-1.74,1.32-2.641,1.32
		c-1.5,0-3.3-1.141-5.939-3.779c-0.42-0.421-0.66-0.66-0.84-0.841c-0.78,0.36-1.62,0.601-2.46,0.601c-2.82,0-5.16-2.34-5.16-5.28
		S19.559,10.796,22.379,10.796z M23.399,19.197c-1.14-1.38-1.859-2.52-2.1-3.48c0.18-0.42,0.66-0.72,1.14-0.72
		c0.36,0,0.66,0.12,0.96,0.42c0.36,1.08,1.44,2.46,3.721,4.74c2.1,2.1,3.419,2.999,4.379,2.999c0.421,0,0.841-0.18,1.261-0.6
		l1.38-1.38c0.479-0.479,0.66-0.899,0.66-1.319c0-0.9-0.841-2.1-3.061-4.32c-2.939-2.939-4.319-3.96-5.34-3.96
		c-0.359,0-0.66,0.12-0.96,0.36c0.721,0.48,1.26,1.14,1.62,1.98c0.6,0.06,1.2,0.779,1.2,1.439c0,0.66-0.9,1.439-1.561,1.439
		c-0.72,0-1.499-0.779-1.499-1.5c0-0.18,0-0.18,0.06-0.3c-0.18-1.319-1.38-2.22-2.88-2.22c-1.86,0-3.12,1.38-3.12,3.3
		s1.26,3.3,3.12,3.3C22.74,19.376,23.039,19.316,23.399,19.197z"/>
</g>
</svg>
