<?xml version="1.0" encoding="utf-8"?>
<!-- Generator: Adobe Illustrator 22.0.1, SVG Export Plug-In . SVG Version: 6.00 Build 0)  -->
<svg version="1.1" id="ICONS" xmlns="http://www.w3.org/2000/svg" x="0px"
     y="0px"
     viewBox="0 0 60 60" style="enable-background:new 0 0 60 60;" xml:space="preserve">
<g>
	<path d="M19.32,21.537h1.199c3.3,0,5.16,0.6,7.98,2.46l3.18,2.399l3.239-3.959c1.681-2.101,3.42-3.121,5.22-3.121
		c0.96,0,1.86,0.24,2.7,0.781l-1.02,1.859c-0.601-0.359-1.141-0.54-1.681-0.54c-1.26,0-2.52,0.84-4.079,2.819l-2.7,3.24l2.64,0.66
		c3.18,0.72,4.68,2.58,4.68,5.64c0,1.5-0.42,2.819-1.199,3.899l-1.681-1.199c0.601-0.9,0.78-1.561,0.78-2.7
		c0-2.1-1.08-3.239-3.779-3.899l-2.94-0.721l-4.439-3.359c-2.16-1.62-4.021-2.22-6.9-2.22H19.32V21.537z M19.32,36.476h8.579
		c0-2.52,1.74-4.2,4.26-4.2c2.58,0,4.26,1.681,4.26,4.2s-1.739,4.199-4.26,4.199c-1.739,0-3.119-0.84-3.779-2.16h-9.06V36.476z
		 M32.159,34.255c-1.38,0-2.279,0.841-2.279,2.221c0,1.32,0.899,2.22,2.279,2.22s2.28-0.84,2.28-2.22S33.599,34.255,32.159,34.255z"
    />
</g>
</svg>
