<?xml version="1.0" encoding="utf-8"?>
<!-- Generator: Adobe Illustrator 22.0.1, SVG Export Plug-In . SVG Version: 6.00 Build 0)  -->
<svg version="1.1" id="ICONS" xmlns="http://www.w3.org/2000/svg" x="0px"
     y="0px"
     viewBox="0 0 60 60" style="enable-background:new 0 0 60 60;" xml:space="preserve">
<g>
	<path d="M12.841,15.056h4.319v2.041h-2.22v1.08c0,4.379,1.8,6.898,5.34,7.499c-0.66-2.1-1.02-4.62-1.02-7.499v-7.44H40.8v7.44
		c0,2.879-0.36,5.399-0.96,7.439c3.42-0.601,5.159-3.12,5.159-7.439v-1.08h-2.1v-2.041h4.2v3.121c0,5.639-3.061,9.18-8.16,9.6
		c-1.62,3.299-4.26,5.159-7.859,5.459v7.5h7.439l2.22,10.68H19.261l2.22-10.68h7.439v-7.5c-3.54-0.3-6.18-2.16-7.8-5.459
		c-5.159-0.36-8.279-3.9-8.279-9.6V15.056z M30,31.256c5.64,0,8.699-4.56,8.699-13.02v-5.46H21.361v5.4
		C21.361,26.576,24.42,31.256,30,31.256z M23.221,42.835l-1.381,6.54H38.16l-1.38-6.54H23.221z M25.741,45.056h8.52v2.039h-8.52
		V45.056z"/>
</g>
</svg>
