<?xml version="1.0" encoding="utf-8"?>
<!-- Generator: Adobe Illustrator 22.0.1, SVG Export Plug-In . SVG Version: 6.00 Build 0)  -->
<svg version="1.1" id="ICONS" xmlns="http://www.w3.org/2000/svg" x="0px"
	 y="0px"
	 viewBox="0 0 60 60" style="enable-background:new 0 0 60 60;" xml:space="preserve">
<g>
	<path d="M54.598,40.076v-2.1c0.84-0.18,1.14-0.48,1.14-1.08c0-1.859-0.06-3.12-0.24-4.32c-0.24-1.979-0.78-2.699-2.4-3.239
		l-4.26-1.44l-5.879-6.6c-3.36-3.779-4.32-4.199-9.48-4.199H7.32c-1.92,0-2.52,0.6-2.64,2.76c-0.18,2.52-0.36,10.379-0.36,16.079
		c0,1.979,0.78,2.76,2.82,2.76h1.92v2.04H6.84c-3.12,0-4.62-1.561-4.62-4.8c0-6.06,0.18-13.919,0.36-16.079
		c0.24-3.6,1.5-4.801,5.04-4.801h25.859c5.7,0,7.38,0.721,10.919,4.74l5.58,6.3l3.6,1.261c2.88,1.02,3.66,1.979,4.02,4.739
		c0.18,1.26,0.24,2.579,0.24,4.739C57.837,38.696,56.758,39.776,54.598,40.076z M14.999,44.935c-2.52,0-4.26-1.739-4.26-4.199
		c0-2.52,1.74-4.2,4.26-4.2c1.74,0,3.12,0.78,3.78,2.101h26.099c0.72-1.32,2.04-2.101,3.78-2.101c2.52,0,4.26,1.74,4.26,4.2
		c0,2.52-1.74,4.199-4.26,4.199c-2.58,0-4.26-1.68-4.26-4.199v-0.061H19.259v0.061C19.259,43.255,17.519,44.935,14.999,44.935z
		 M14.999,38.515c-1.38,0-2.28,0.841-2.28,2.221c0,1.32,0.9,2.22,2.28,2.22s2.28-0.84,2.28-2.22S16.439,38.515,14.999,38.515z
		 M48.658,42.956c1.38,0,2.28-0.84,2.28-2.22c0-1.32-0.9-2.221-2.28-2.221c-1.38,0-2.28,0.841-2.28,2.221
		S47.218,42.956,48.658,42.956z"/>
</g>
</svg>
