<?xml version="1.0" encoding="utf-8"?>
<!-- Generator: Adobe Illustrator 22.0.1, SVG Export Plug-In . SVG Version: 6.00 Build 0)  -->
<svg version="1.1" id="ICONS" xmlns="http://www.w3.org/2000/svg" x="0px"
     y="0px"
     viewBox="0 0 60 60" style="enable-background:new 0 0 60 60;" xml:space="preserve">
<g>
	<path d="M10.56,29.996c0,11.76,7.619,19.38,19.439,19.38c11.819,0,19.438-7.62,19.438-19.38c0-11.818-7.56-19.379-19.438-19.379
		c-7.44,0-13.32,3-16.62,8.34c2.04-0.9,3.84-1.68,6.12-2.82l0.84,1.681c-3.12,1.439-5.1,2.28-8.399,3.6l-1.561-0.72
		c-0.479-4.141-0.6-6.12-0.6-8.939h1.86c0,2.699,0.06,4.199,0.18,5.939c3.6-5.88,10.079-9.119,18.18-9.119
		c13.139,0,21.539,8.398,21.539,21.418s-8.46,21.42-21.539,21.42c-13.08,0-21.54-8.4-21.54-21.42H10.56z M39.659,26.756
		c0,3.18-3.84,5.28-9.6,5.28s-9.6-2.101-9.6-5.28s3.84-5.28,9.6-5.28S39.659,23.577,39.659,26.756z M39.659,31.256v2.399
		c-2.28,1.74-6,2.82-9.6,2.82s-7.319-1.08-9.6-2.82v-2.399c2.16,1.979,5.64,3.12,9.6,3.12S37.498,33.236,39.659,31.256z
		 M20.459,38.276v-2.28c2.46,1.801,5.46,2.641,9.6,2.641s7.14-0.84,9.6-2.641v2.28c-2.7,1.56-5.939,2.399-9.6,2.399
		S23.16,39.835,20.459,38.276z M22.62,26.756c0,1.92,3.119,3.3,7.439,3.3c4.319,0,7.439-1.38,7.439-3.3s-3.12-3.3-7.439-3.3
		C25.739,23.456,22.62,24.836,22.62,26.756z"/>
</g>
</svg>
