<?xml version="1.0" encoding="utf-8"?>
<!-- Generator: Adobe Illustrator 22.0.1, SVG Export Plug-In . SVG Version: 6.00 Build 0)  -->
<svg version="1.1" id="ICONS" xmlns="http://www.w3.org/2000/svg" x="0px"
     y="0px"
     viewBox="0 0 60 60" style="enable-background:new 0 0 60 60;" xml:space="preserve">
<g>
	<path d="M27.779,49.316h-2.4c-0.479-2.28-1.199-4.92-1.979-7.68h-10.38c-0.899,2.88-1.56,5.58-2.039,7.68h-2.4
		c1.859-7.979,5.34-18.419,8.58-25.739h2.16C22.499,30.657,25.919,40.976,27.779,49.316z M22.799,39.537
		c-1.38-4.74-3.06-9.6-4.56-13.439c-1.621,4.14-3.24,8.94-4.62,13.439H22.799z M43.018,49.316v-2.4c-1.979,1.92-3.78,2.7-5.939,2.7
		c-3.601,0-5.7-1.92-5.7-5.28c0-3.78,2.1-5.7,6.3-5.7h5.22v-2.76c0-2.64-1.32-3.78-4.26-3.78c-1.859,0-3.959,0.3-6.479,1.02v-2.04
		c2.04-0.6,4.56-1.02,6.479-1.02c4.439,0,6.359,1.74,6.359,5.64v13.62H43.018z M42.898,44.637v-3.96h-5.039
		c-3.12,0-4.381,1.02-4.381,3.48c0,2.34,1.141,3.419,3.601,3.419C39.058,47.576,40.859,46.676,42.898,44.637z M42.838,19.258h-6.42
		v-2.16h6.42v-6.36h2.159v6.36h6.42v2.16h-6.42v6.479h-2.159V19.258z"/>
</g>
</svg>
