<?xml version="1.0" encoding="utf-8"?>
<!-- Generator: Adobe Illustrator 22.0.1, SVG Export Plug-In . SVG Version: 6.00 Build 0)  -->
<svg version="1.1" id="ICONS" xmlns="http://www.w3.org/2000/svg" x="0px"
     y="0px"
     viewBox="0 0 60 60" style="enable-background:new 0 0 60 60;" xml:space="preserve">
<g>
	<path d="M15.66,23.937l4.56,3.42l2.94,0.719c3.18,0.721,4.68,2.58,4.68,5.641c0,1.5-0.42,2.819-1.2,3.899l-1.68-1.2
		c0.6-0.899,0.779-1.56,0.779-2.699c0-2.1-1.079-3.24-3.779-3.9l-2.94-0.72l-4.439-3.36c-1.979-1.5-3.899-2.219-6-2.219v-2.041
		C11.28,21.476,13.32,22.197,15.66,23.937z M8.58,36.415h6.48c0-2.52,1.739-4.199,4.26-4.199c2.579,0,4.26,1.68,4.26,4.199
		c0,2.521-1.74,4.2-4.26,4.2c-1.74,0-3.12-0.84-3.78-2.16H8.58V36.415z M19.32,34.196c-1.38,0-2.28,0.841-2.28,2.22
		c0,1.32,0.9,2.221,2.28,2.221s2.279-0.84,2.279-2.221C21.599,35.037,20.759,34.196,19.32,34.196z M29.219,14.997l3.779-1.8
		l0.54,0.721l-2.819,3.18l4.26,2.76l-0.42,0.84l-5.34-1.44l-0.96,4.44h-0.84l-0.96-4.381l-5.4,1.681l-0.42-0.78l4.32-3.119
		l-4.26-4.62l0.6-0.72l5.16,3.239l0.899-4.859h0.96L29.219,14.997z M42.838,23.517c-2.46,0-3.359,0.6-6.119,3.899
		c-2.4,2.939-2.521,3.239-2.521,5.64v1.26c0,0.9,0.18,1.439,0.72,1.98l-1.439,1.319c-0.96-0.84-1.38-1.86-1.38-3.3v-1.561
		c0-2.939,0.18-3.359,3.12-6.839c2.999-3.601,4.439-4.44,7.619-4.44h8.58v2.041H42.838z M51.418,36.415v2.04h-6.96
		c-0.66,1.32-2.04,2.16-3.78,2.16c-2.52,0-4.26-1.739-4.26-4.2c0-2.52,1.74-4.199,4.26-4.199c2.58,0,4.26,1.68,4.26,4.199H51.418z
		 M40.678,34.196c-1.38,0-2.279,0.841-2.279,2.22c0,1.32,0.899,2.221,2.279,2.221s2.28-0.84,2.28-2.221
		C42.958,35.037,42.119,34.196,40.678,34.196z"/>
</g>
</svg>
