<?xml version="1.0" encoding="utf-8"?>
<!-- Generator: Adobe Illustrator 22.0.1, SVG Export Plug-In . SVG Version: 6.00 Build 0)  -->
<svg version="1.1" id="ICONS" xmlns="http://www.w3.org/2000/svg" x="0px"
	 y="0px"
	 viewBox="0 0 60 60" style="enable-background:new 0 0 60 60;" xml:space="preserve">
<g>
	<path d="M2.16,38.696h6.9v2.04h-6.9V38.696z M14.999,44.935c-2.52,0-4.26-1.68-4.26-4.199c0-2.46,1.74-4.2,4.26-4.2
		c1.74,0,3.06,0.78,3.78,2.101h26.099c0.72-1.32,2.04-2.101,3.78-2.101c2.52,0,4.26,1.74,4.26,4.2c0,2.52-1.74,4.199-4.26,4.199
		c-2.58,0-4.26-1.68-4.26-4.199v-0.061H19.259v0.061C19.259,43.255,17.579,44.935,14.999,44.935z M14.999,38.515
		c-1.38,0-2.28,0.9-2.28,2.221c0,1.38,0.9,2.22,2.28,2.22c1.44,0,2.28-0.84,2.28-2.22S16.379,38.515,14.999,38.515z M44.398,19.796
		l5.58,6.3l3.6,1.261c2.88,1.02,3.66,1.979,4.02,4.739c0.18,1.26,0.24,2.579,0.24,4.739c0,1.86-1.08,2.94-3.24,3.24v-2.1
		c0.84-0.18,1.14-0.48,1.14-1.08c0-1.859-0.06-3.12-0.24-4.32c-0.24-1.979-0.78-2.699-2.4-3.239l-4.26-1.44l-5.879-6.6
		c-3.18-3.6-4.2-4.14-8.7-4.199v19.318h-2.1V15.056h1.32C39.178,15.056,40.858,15.777,44.398,19.796z M48.658,42.956
		c1.38,0,2.28-0.84,2.28-2.22c0-1.32-0.9-2.221-2.28-2.221c-1.38,0-2.28,0.841-2.28,2.221S47.218,42.956,48.658,42.956z"/>
</g>
</svg>
