<?xml version="1.0" encoding="utf-8"?>
<!-- Generator: Adobe Illustrator 22.0.1, SVG Export Plug-In . SVG Version: 6.00 Build 0)  -->
<svg version="1.1" id="ICONS" xmlns="http://www.w3.org/2000/svg" x="0px"
	 y="0px"
	 viewBox="0 0 60 60" style="enable-background:new 0 0 60 60;" xml:space="preserve">
<g>
	<path d="M47.099,18.657v24.179c0,2.88-1.38,4.26-4.26,4.26H17.16c-2.88,0-4.26-1.38-4.26-4.26V17.157c0-2.88,1.38-4.26,4.26-4.26
		h24.179C43.739,14.937,44.998,16.197,47.099,18.657z M44.998,42.835V19.256c-1.44-1.62-2.52-2.7-4.32-4.319v8.58H19.26v-8.58h-2.1
		c-1.56,0-2.16,0.66-2.16,2.22v25.679c0,1.56,0.6,2.22,2.16,2.22h25.679C44.399,45.056,44.998,44.395,44.998,42.835z M38.579,14.937
		H21.36v6.54h17.219V14.937z M29.999,27.896c3.959,0,6.359,2.4,6.359,6.42c0,4.02-2.4,6.42-6.359,6.42c-3.96,0-6.36-2.4-6.36-6.42
		C23.64,30.296,26.039,27.896,29.999,27.896z M29.999,29.936c-2.64,0-4.32,1.62-4.32,4.38c0,2.7,1.68,4.38,4.32,4.38
		c2.7,0,4.319-1.68,4.319-4.38C34.319,31.556,32.699,29.936,29.999,29.936z"/>
</g>
</svg>
