<?xml version="1.0" encoding="utf-8"?>
<!-- Generator: Adobe Illustrator 22.0.1, SVG Export Plug-In . SVG Version: 6.00 Build 0)  -->
<svg version="1.1" id="ICONS" xmlns="http://www.w3.org/2000/svg" x="0px"
     y="0px"
     viewBox="0 0 60 60" style="enable-background:new 0 0 60 60;" xml:space="preserve">
<g>
	<path d="M17.519,42.295c-1.439-0.06-2.88,0-4.319,0.06v-2.039c2.1-0.12,4.319-0.12,6.419,0l8.46-8.16h-11.1
		c-1.439,1.62-3.06,3.24-4.739,4.68l-1.44-1.439c1.14-1.02,2.28-2.1,3.36-3.24H8.58v-2.039h5.58c-1.08-1.141-2.221-2.221-3.36-3.24
		l1.44-1.439c1.68,1.439,3.3,3.059,4.739,4.68h11.1l-8.46-8.1c-1.979,0.06-4.14,0.06-6.119-0.061v-2.04
		c1.319,0.06,2.699,0.12,4.02,0.06l-3.96-3.779l1.5-1.5l4.439,4.26c0.061-1.62,0-3.3-0.06-4.92h2.04c0.12,2.28,0.12,4.74,0,6.84
		l7.5,7.14v-9.96c-1.62-1.439-3.24-3.06-4.681-4.739l1.44-1.44c1.02,1.141,2.1,2.28,3.24,3.36V9.716h2.1v5.521
		c1.14-1.08,2.22-2.22,3.24-3.36l1.439,1.44c-1.439,1.68-3.06,3.3-4.68,4.739v9.96l7.5-7.14c-0.12-2.22-0.12-4.619,0-6.84h2.039
		c-0.06,1.62-0.119,3.3-0.06,4.92l4.439-4.26l1.5,1.5l-3.96,3.779c1.32,0.061,2.7,0,4.021-0.06v2.04
		c-1.98,0.12-4.14,0.12-6.12,0.061l-8.46,8.1h11.1c1.44-1.621,3.061-3.24,4.74-4.68l1.439,1.439c-1.14,1.02-2.279,2.1-3.359,3.24
		h5.58v2.039h-5.58c1.08,1.141,2.22,2.221,3.359,3.24l-1.439,1.439c-1.68-1.439-3.3-3.06-4.74-4.68h-11.1l8.46,8.16
		c2.1-0.12,4.32-0.12,6.42,0v2.039c-1.44-0.06-2.88-0.119-4.32-0.06l3.96,3.78l-1.5,1.5l-4.14-3.96c-0.06,1.5,0,3.12,0.061,4.62
		h-2.04c-0.12-2.16-0.12-4.44,0-6.54l-7.8-7.44v9.96c1.62,1.44,3.24,3.06,4.68,4.74l-1.439,1.44c-1.021-1.141-2.101-2.281-3.24-3.36
		v5.52h-2.1v-5.52c-1.141,1.079-2.221,2.22-3.24,3.36l-1.44-1.44c1.44-1.681,3.061-3.3,4.681-4.74v-9.96l-7.8,7.44
		c0.12,2.1,0.12,4.38,0,6.54h-2.04c0.06-1.5,0.12-3.12,0.06-4.62l-4.14,3.96l-1.5-1.5L17.519,42.295z"/>
</g>
</svg>
