<?xml version="1.0" encoding="utf-8"?>
<!-- Generator: Adobe Illustrator 22.0.1, SVG Export Plug-In . SVG Version: 6.00 Build 0)  -->
<svg version="1.1" id="ICONS" xmlns="http://www.w3.org/2000/svg" x="0px"
     y="0px"
     viewBox="0 0 60 60" style="enable-background:new 0 0 60 60;" xml:space="preserve">
<g>
	<path d="M30,12.837c10.56,0,17.22,6.659,17.22,17.158c0,10.439-6.72,17.16-17.22,17.16s-17.22-6.721-17.22-17.16
		C12.781,19.497,19.5,12.837,30,12.837z M30,14.876c-9.359,0-15.119,5.76-15.119,15.119c0,9.301,5.819,15.12,15.119,15.12
		c9.359,0,15.119-5.819,15.119-15.12C45.12,20.636,39.36,14.876,30,14.876z M21.661,31.736l1.92-0.72c1.44,3.78,3.42,5.46,6.42,5.46
		s4.979-1.68,6.42-5.46l1.92,0.72c-1.68,4.5-4.5,6.779-8.34,6.779S23.34,36.236,21.661,31.736z M27.6,25.736
		c0,1.2-0.6,1.86-1.859,1.86c-1.2,0-1.86-0.66-1.86-1.86c0-1.26,0.66-1.859,1.86-1.859C27,23.876,27.6,24.476,27.6,25.736z
		 M36.121,25.736c0,1.2-0.601,1.86-1.86,1.86c-1.2,0-1.86-0.66-1.86-1.86c0-1.26,0.66-1.859,1.86-1.859
		C35.52,23.876,36.121,24.476,36.121,25.736z"/>
</g>
</svg>
