<?xml version="1.0" encoding="utf-8"?>
<!-- Generator: Adobe Illustrator 22.0.1, SVG Export Plug-In . SVG Version: 6.00 Build 0)  -->
<svg version="1.1" id="ICONS" xmlns="http://www.w3.org/2000/svg" x="0px"
     y="0px"
     viewBox="0 0 60 60" style="enable-background:new 0 0 60 60;" xml:space="preserve">
<g>
	<path d="M17.161,36.415c0.601,0,1.141,0.061,1.681,0.18l5.34-5.339l-2.341-2.28l1.561-1.5l9.06,9.06l-1.5,1.56l-2.28-2.279
		l-5.34,5.34c0.12,0.48,0.181,1.08,0.181,1.68c0,4.02-2.4,6.42-6.36,6.42s-6.359-2.4-6.359-6.42S13.201,36.415,17.161,36.415z
		 M17.161,38.456c-2.699,0-4.319,1.681-4.319,4.38c0,2.7,1.68,4.38,4.319,4.38c2.7,0,4.32-1.68,4.32-4.38
		C21.481,40.076,19.861,38.456,17.161,38.456z M22.5,38.996l4.68-4.68l-1.56-1.561l-4.68,4.681
		C21.601,37.796,22.141,38.335,22.5,38.996z M26.401,24.476l9.06,9.061l-1.5,1.5l-9.06-9.061L26.401,24.476z M29.46,21.416
		l2.28,2.28l4.92-4.92c-0.12-0.48-0.181-1.08-0.181-1.68c0-4.021,2.4-6.42,6.36-6.42c3.959,0,6.359,2.399,6.359,6.42
		c0,4.02-2.4,6.42-6.359,6.42c-0.601,0-1.141-0.061-1.681-0.181l-4.859,4.86l2.22,2.279l-1.5,1.5l-9.06-9.06L29.46,21.416z
		 M34.8,26.756l4.2-4.26c-0.601-0.42-1.141-0.96-1.561-1.56l-4.199,4.26L34.8,26.756z M42.84,12.716c-2.7,0-4.32,1.681-4.32,4.381
		c0,2.699,1.68,4.379,4.32,4.379c2.699,0,4.319-1.68,4.319-4.379C47.16,14.337,45.539,12.716,42.84,12.716z"/>
</g>
</svg>
