<?xml version="1.0" encoding="utf-8"?>
<!-- Generator: Adobe Illustrator 22.0.1, SVG Export Plug-In . SVG Version: 6.00 Build 0)  -->
<svg version="1.1" id="ICONS" xmlns="http://www.w3.org/2000/svg" x="0px"
     y="0px"
     viewBox="0 0 60 60" style="enable-background:new 0 0 60 60;" xml:space="preserve">
<g>
	<path d="M8.58,8.578h42.839v42.838H8.58V8.578z M49.318,49.375V10.617H10.68v38.759H49.318z M25.679,23.577
		c0,4.26-1.92,6.72-5.34,6.72s-5.34-2.46-5.34-6.72c0-4.32,1.92-6.72,5.34-6.72S25.679,19.256,25.679,23.577z M17.099,23.577
		c0,3.06,1.08,4.68,3.24,4.68s3.24-1.62,3.24-4.68c0-3.12-1.08-4.681-3.24-4.681S17.099,20.456,17.099,23.577z M23.28,42.835
		l11.159-25.679h2.34L25.62,42.835H23.28z M45.058,36.415c0,4.26-1.92,6.721-5.34,6.721s-5.34-2.461-5.34-6.721
		c0-4.319,1.92-6.719,5.34-6.719S45.058,32.096,45.058,36.415z M36.479,36.415c0,3.061,1.08,4.68,3.239,4.68
		c2.16,0,3.24-1.619,3.24-4.68c0-3.119-1.08-4.68-3.24-4.68C37.559,31.736,36.479,33.296,36.479,36.415z"/>
</g>
</svg>
