<?xml version="1.0" encoding="utf-8"?>
<!-- Generator: Adobe Illustrator 22.0.1, SVG Export Plug-In . SVG Version: 6.00 Build 0)  -->
<svg version="1.1" id="ICONS" xmlns="http://www.w3.org/2000/svg" x="0px"
	 y="0px"
	 viewBox="0 0 60 60" style="enable-background:new 0 0 60 60;" xml:space="preserve">
<g>
	<path d="M29.999,12.837c10.561,0,17.221,6.659,17.221,17.158c0,10.439-6.721,17.16-17.221,17.16
		c-10.499,0-17.219-6.721-17.219-17.16C12.781,19.497,19.5,12.837,29.999,12.837z M29.999,14.876
		c-9.359,0-15.119,5.76-15.119,15.119c0,9.301,5.82,15.12,15.119,15.12c9.36,0,15.12-5.819,15.12-15.12
		C45.12,20.636,39.36,14.876,29.999,14.876z M24.96,36.776l-1.439-1.38c1.859-2.22,3.959-3.24,6.479-3.24
		c2.521,0,4.681,1.08,6.48,3.24l-1.439,1.38c-1.621-1.8-3.121-2.58-5.041-2.58S26.58,34.976,24.96,36.776z M27.601,25.736
		c0,1.2-0.601,1.86-1.861,1.86c-1.199,0-1.859-0.66-1.859-1.86c0-1.26,0.66-1.859,1.859-1.859
		C27,23.876,27.601,24.476,27.601,25.736z M36.121,25.736c0,1.2-0.601,1.86-1.86,1.86c-1.2,0-1.86-0.66-1.86-1.86
		c0-1.26,0.66-1.859,1.86-1.859C35.52,23.876,36.121,24.476,36.121,25.736z"/>
</g>
</svg>
