<?xml version="1.0" encoding="utf-8"?>
<!-- Generator: Adobe Illustrator 22.0.1, SVG Export Plug-In . SVG Version: 6.00 Build 0)  -->
<svg version="1.1" id="ICONS" xmlns="http://www.w3.org/2000/svg" x="0px"
     y="0px"
     viewBox="0 0 60 60" style="enable-background:new 0 0 60 60;" xml:space="preserve">
<g>
	<path d="M42.838,15.056v3.181h6.42v2.04h-6.42v4.56h6.42v2.04h-6.42v3.18h-6.42c-4.979,0-8.22-2.46-8.579-6.479h-8.58
		c-3.899,0-6.42,2.1-6.42,5.279c0,2.82,1.98,4.62,6.24,5.76l3.42,0.9c5.34,1.38,7.56,3.54,7.56,7.319c0,4.02-2.82,6.48-7.319,6.48
		h-3.42v-2.16h3.72c3,0,4.859-1.62,4.859-4.32c0-2.58-1.739-4.199-5.46-5.1l-3.42-0.84c-5.579-1.38-8.279-3.96-8.279-8.04
		c0-4.319,3.54-7.38,8.52-7.38h8.58c0.359-3.959,3.659-6.42,8.579-6.42H42.838z M29.939,22.556c0,3.48,2.34,5.46,6.479,5.46h4.32
		V17.097h-4.32C32.279,17.097,29.939,19.077,29.939,22.556z"/>
</g>
</svg>
