<?xml version="1.0" encoding="utf-8"?>
<!-- Generator: Adobe Illustrator 22.0.1, SVG Export Plug-In . SVG Version: 6.00 Build 0)  -->
<svg version="1.1" id="ICONS" xmlns="http://www.w3.org/2000/svg" x="0px"
     y="0px"
     viewBox="0 0 60 60" style="enable-background:new 0 0 60 60;" xml:space="preserve">
<g>
	<path d="M8.459,25.676H2.1v-2.159h6.359V25.676z M11.16,16.976l-4.5-4.499l1.56-1.56l4.5,4.499L11.16,16.976z M12.719,33.776
		l-4.5,4.5l-1.56-1.56l4.5-4.5L12.719,33.776z M14.639,29.697c-1.2-1.32-1.8-3.061-1.8-5.16c0-4.561,2.94-7.439,7.5-7.439
		c2.16,0,3.84,0.6,5.16,1.799c-0.78,0.541-1.26,0.961-1.62,1.32c-0.84-0.72-2.1-1.08-3.54-1.08c-3.36,0-5.4,2.04-5.4,5.4
		c0,1.619,0.3,2.699,1.14,3.66C15.599,28.556,15.12,29.037,14.639,29.697z M23.279,42.776c-4.8,0-8.219-3.12-8.219-7.5
		c0-4.14,3.12-7.2,7.56-7.439c0.36-5.101,4.2-8.58,9.6-8.58c5.34,0,8.7,2.761,9,7.38c4.92,0.24,8.1,3.359,8.1,8.039
		c0,4.92-3.479,8.101-8.76,8.101H23.279z M47.278,34.675c0-3.959-3.06-6.239-8.1-6.059c0-4.98-2.22-7.32-6.959-7.32
		c-4.86,0-7.56,3-7.56,8.52c-4.74-0.18-7.56,1.86-7.56,5.46c0,3.18,2.52,5.399,6.18,5.399h17.279
		C44.518,40.675,47.278,38.216,47.278,34.675z M19.259,12.716V6.357h2.16v6.359H19.259z M24.299,44.875l2.04,0.42l-1.44,6.42
		l-2.04-0.42L24.299,44.875z M31.079,44.875l2.04,0.42l-2.28,10.319l-2.04-0.42L31.079,44.875z M31.199,17.216
		c0.36-5.159,4.26-8.639,9.6-8.639s8.7,2.76,9,7.379c4.92,0.24,8.1,3.359,8.1,8.04c0,4.079-2.58,7.2-6.66,7.919
		c-0.18-0.719-0.36-1.14-0.78-1.92c3.3-0.659,5.4-2.939,5.4-5.999c0-3.96-3.06-6.239-8.1-6.06c0-4.98-2.22-7.32-6.96-7.32
		c-4.38,0-6.96,2.34-7.439,6.6C32.759,17.157,31.799,17.157,31.199,17.216z M37.918,44.875l2.04,0.42l-1.44,6.42l-2.04-0.42
		L37.918,44.875z"/>
</g>
</svg>
