<?xml version="1.0" encoding="utf-8"?>
<!-- Generator: Adobe Illustrator 22.0.1, SVG Export Plug-In . SVG Version: 6.00 Build 0)  -->
<svg version="1.1" id="ICONS" xmlns="http://www.w3.org/2000/svg" x="0px"
     y="0px"
     viewBox="0 0 60 60" style="enable-background:new 0 0 60 60;" xml:space="preserve">
<g>
	<path d="M48.958,28.136c2.46,0.359,3.3,0.96,4.02,3c0.36,1.02,0.6,2.4,0.6,3.539c0,1.86-1.08,2.94-3.18,3.24v-2.1
		c0.78-0.18,1.08-0.48,1.08-1.08c0-0.9-0.12-1.619-0.36-2.52c-0.42-1.381-0.9-1.86-2.399-2.1l-6.78-1.021l-5.4-3.06
		c-3.84-2.16-5.4-2.52-11.16-2.52c-5.64,0-7.5,0.6-13.5,4.139l-3.9,0.48c-1.14,0.12-1.56,0.66-1.56,1.859v3.181
		c0,1.2,0.42,1.739,1.5,1.979l3.24,0.66v2.1l-3.24-0.66c-2.52-0.539-3.6-1.739-3.6-4.079v-3.181c0-2.34,0.96-3.42,3.24-3.719
		l3.18-0.42c6.479-3.66,8.939-4.381,14.639-4.381c5.88,0,8.4,0.541,12.12,2.7l5.4,3.06L48.958,28.136z M21.359,36.476h18.839v-0.061
		c0-2.52,1.68-4.199,4.26-4.199c2.52,0,4.26,1.68,4.26,4.199c0,2.461-1.74,4.2-4.26,4.2c-1.74,0-3.06-0.78-3.78-2.101H20.879
		c-0.72,1.32-2.04,2.101-3.78,2.101c-2.52,0-4.26-1.739-4.26-4.2c0-2.52,1.74-4.199,4.26-4.199c2.58,0,4.26,1.68,4.26,4.199V36.476z
		 M17.099,34.196c-1.38,0-2.28,0.841-2.28,2.22c0,1.32,0.9,2.221,2.28,2.221s2.28-0.84,2.28-2.221
		C19.379,35.037,18.539,34.196,17.099,34.196z M44.458,38.636c1.38,0,2.28-0.9,2.28-2.221c0-1.379-0.9-2.22-2.28-2.22
		c-1.44,0-2.28,0.841-2.28,2.22C42.178,37.796,43.078,38.636,44.458,38.636z"/>
</g>
</svg>
