<?xml version="1.0" encoding="utf-8"?>
<!-- Generator: Adobe Illustrator 22.0.1, SVG Export Plug-In . SVG Version: 6.00 Build 0)  -->
<svg version="1.1" id="ICONS" xmlns="http://www.w3.org/2000/svg" x="0px"
	 y="0px"
	 viewBox="0 0 60 60" style="enable-background:new 0 0 60 60;" xml:space="preserve">
<g>
	<path d="M42.838,46.496L17.759,21.416l1.5-1.5l25.079,25.079L42.838,46.496z M23.039,29.697c-1.141,2.579-1.62,4.68-1.62,6.719
		c0,5.4,3.24,8.641,8.58,8.641c2.579,0,4.739-0.781,6.18-2.221l1.5,1.5c-1.86,1.8-4.5,2.76-7.68,2.76
		c-6.54,0-10.68-4.14-10.68-10.68c0-2.34,0.659-4.979,2.1-8.34L23.039,29.697z M38.579,36.236c-0.06-4.199-2.28-9.119-8.579-19.02
		c-1.561,2.461-2.88,4.62-3.96,6.48l-1.561-1.561c1.98-3.3,3.18-5.22,4.44-7.14h2.159c6.84,10.5,9.6,16.68,9.6,21.419
		c0,0.48-0.06,1.08-0.119,1.801L38.579,36.236z"/>
</g>
</svg>
