<?xml version="1.0" encoding="utf-8"?>
<!-- Generator: Adobe Illustrator 22.0.1, SVG Export Plug-In . SVG Version: 6.00 Build 0)  -->
<svg version="1.1" id="ICONS" xmlns="http://www.w3.org/2000/svg" x="0px"
     y="0px"
     viewBox="0 0 60 60" style="enable-background:new 0 0 60 60;" xml:space="preserve">
<g>
	<path d="M52.438,40.076v-2.1c0.84-0.18,1.14-0.48,1.14-1.08c0-2.04-0.06-3.6-0.24-5.04c-0.24-1.979-0.779-2.7-2.399-3.239
		l-5.1-1.801l-3.78-4.14c-2.82-3.06-3.72-3.42-8.939-3.42H9.419c-1.92,0-2.52,0.601-2.64,2.761c-0.18,2.34-0.36,9.419-0.36,13.919
		c0,1.979,0.78,2.76,2.82,2.76h0.42v2.04h-0.72c-3.12,0-4.62-1.561-4.62-4.8c0-4.8,0.18-11.939,0.36-13.919
		c0.24-3.601,1.5-4.801,5.04-4.801h23.399c5.64,0,7.38,0.66,10.379,3.96l3.48,3.84l4.439,1.62c2.88,1.02,3.66,1.98,4.021,4.74
		c0.18,1.319,0.239,2.699,0.239,5.459C55.677,38.696,54.597,39.776,52.438,40.076z M19.859,38.636h22.378v-0.061
		c0-2.52,1.681-4.199,4.26-4.199c2.521,0,4.26,1.68,4.26,4.199c0,2.46-1.739,4.2-4.26,4.2c-1.739,0-3.06-0.78-3.779-2.101H19.379
		c-0.66,1.32-2.04,2.101-3.78,2.101c-2.52,0-4.26-1.681-4.26-4.2c0-2.46,1.74-4.199,4.26-4.199c2.52,0,4.26,1.68,4.26,4.199V38.636z
		 M15.599,36.356c-1.38,0-2.28,0.899-2.28,2.22c0,1.38,0.9,2.221,2.28,2.221c1.44,0,2.28-0.841,2.28-2.221
		S16.979,36.356,15.599,36.356z M46.497,40.796c1.38,0,2.28-0.9,2.28-2.221c0-1.38-0.9-2.22-2.28-2.22
		c-1.439,0-2.279,0.84-2.279,2.22S45.118,40.796,46.497,40.796z"/>
</g>
</svg>
