<?xml version="1.0" encoding="utf-8"?>
<!-- Generator: Adobe Illustrator 22.0.1, SVG Export Plug-In . SVG Version: 6.00 Build 0)  -->
<svg version="1.1" id="ICONS" xmlns="http://www.w3.org/2000/svg" x="0px"
     y="0px"
     viewBox="0 0 60 60" style="enable-background:new 0 0 60 60;" xml:space="preserve">
<g>
	<path d="M8.58,10.376l1.8-1.799c4.32-0.301,9.36-0.301,15,0l24.599,24.299c0.96,0.899,1.44,1.859,1.44,2.76
		c0,0.84-0.42,1.68-1.5,2.819l-10.56,11.399c-1.02,1.08-1.98,1.561-2.94,1.561c-1.02,0-1.98-0.48-2.94-1.44L8.58,25.437
		C8.28,19.796,8.28,14.697,8.58,10.376z M34.679,48.175c0.66,0.66,1.2,0.96,1.74,0.96s1.02-0.3,1.74-1.08l10.32-11.099
		c0.54-0.601,0.66-0.841,0.66-1.261c0-0.54-0.24-0.96-0.78-1.44L24.359,10.617c-4.56-0.24-9.12-0.24-13.679,0
		c-0.24,4.561-0.24,9.24,0,13.8L34.679,48.175z M18.12,22.197c-2.58,0-4.26-1.68-4.26-4.26c0-2.641,1.68-4.26,4.26-4.26
		c2.64,0,4.26,1.619,4.26,4.26C22.379,20.517,20.76,22.197,18.12,22.197z M18.12,15.597c-1.5,0-2.34,0.779-2.34,2.34
		c0,1.5,0.84,2.34,2.34,2.34c1.56,0,2.34-0.84,2.34-2.34C20.459,16.376,19.68,15.597,18.12,15.597z"/>
</g>
</svg>
