<?xml version="1.0" encoding="utf-8"?>
<!-- Generator: Adobe Illustrator 22.0.1, SVG Export Plug-In . SVG Version: 6.00 Build 0)  -->
<svg version="1.1" id="ICONS" xmlns="http://www.w3.org/2000/svg" x="0px"
	 y="0px"
	 viewBox="0 0 60 60" style="enable-background:new 0 0 60 60;" xml:space="preserve">
<g>
	<path d="M29.939,34.255H2.161v-2.039h25.259L17.16,17.937l-0.24,0.959c-0.899,3.36-2.1,4.621-4.439,4.621s-3.9-1.681-3.9-4.201
		h2.101c0,1.261,0.72,2.16,1.8,2.16c1.2,0,1.739-0.6,2.279-2.58l0.9-3.359l1.86-0.48l12.419,17.16V34.255z M2.161,38.696H9.06v2.04
		H2.161V38.696z M14.999,44.935c-2.52,0-4.26-1.68-4.26-4.199c0-2.46,1.74-4.2,4.26-4.2c1.74,0,3.06,0.78,3.78,2.101h26.099
		c0.72-1.32,2.04-2.101,3.78-2.101c2.52,0,4.26,1.74,4.26,4.2c0,2.52-1.74,4.199-4.26,4.199c-2.58,0-4.26-1.68-4.26-4.199v-0.061
		h-25.14v0.061C19.259,43.255,17.58,44.935,14.999,44.935z M14.999,38.515c-1.38,0-2.279,0.9-2.279,2.221
		c0,1.38,0.899,2.22,2.279,2.22c1.44,0,2.28-0.84,2.28-2.22S16.379,38.515,14.999,38.515z M44.399,19.796l5.579,6.3l3.6,1.261
		c2.88,1.02,3.66,1.979,4.021,4.739c0.18,1.26,0.24,2.579,0.24,4.739c0,1.86-1.08,2.94-3.24,3.24v-2.1
		c0.84-0.18,1.14-0.48,1.14-1.08c0-1.859-0.06-3.12-0.24-4.32c-0.239-1.979-0.779-2.699-2.399-3.239l-4.26-1.44l-5.88-6.6
		c-3.18-3.6-4.2-4.14-8.699-4.199v19.318h-2.101V15.056h1.32C39.178,15.056,40.859,15.777,44.399,19.796z M48.659,42.956
		c1.38,0,2.279-0.84,2.279-2.22c0-1.32-0.899-2.221-2.279-2.221s-2.28,0.841-2.28,2.221S47.218,42.956,48.659,42.956z"/>
</g>
</svg>
