<?xml version="1.0" encoding="utf-8"?>
<!-- Generator: Adobe Illustrator 22.0.1, SVG Export Plug-In . SVG Version: 6.00 Build 0)  -->
<svg version="1.1" id="ICONS" xmlns="http://www.w3.org/2000/svg" x="0px"
     y="0px"
     viewBox="0 0 60 60" style="enable-background:new 0 0 60 60;" xml:space="preserve">
<g>
	<path d="M12.839,32.096H10.68v6.479H8.58V23.577h2.101v6.479h2.159v-8.52h8.58v-2.34h-6.42v-2.04h14.939v2.04h-6.42v2.34h9.42
		l9.899,8.459v2.16h2.16v-4.26h6.42v17.039h-6.42v-4.319h-2.16v4.319H19.379l-6.54-6.359V32.096z M14.94,37.675l5.34,5.221h20.459
		v-4.32h6.359v4.32h2.22v-12.96h-2.22v4.26h-6.359v-3.239l-8.58-7.38H14.94V37.675z M26.219,38.095c-1.8,0.42-3.06,0.721-4.8,0.961
		l-1.08-1.021c0.42-2.22,0.72-3.54,1.08-4.8l1.38,0.42c-0.42,1.381-0.72,2.28-0.96,3l3.36-3.479l1.14,1.079l-3.36,3.24
		c1.021-0.24,1.98-0.479,2.88-0.779L26.219,38.095z M29.999,28.376c-1.021,0.24-1.98,0.479-2.88,0.779l-0.36-1.379
		c1.8-0.48,3.06-0.721,4.8-0.961l1.08,1.021c-0.42,2.22-0.72,3.54-1.08,4.8l-1.38-0.42c0.42-1.381,0.72-2.28,0.96-3l-3.36,3.479
		l-1.14-1.079L29.999,28.376z"/>
</g>
</svg>
