<?xml version="1.0" encoding="utf-8"?>
<!-- Generator: Adobe Illustrator 22.0.1, SVG Export Plug-In . SVG Version: 6.00 Build 0)  -->
<svg version="1.1" id="ICONS" xmlns="http://www.w3.org/2000/svg" x="0px"
     y="0px"
     viewBox="0 0 60 60" style="enable-background:new 0 0 60 60;" xml:space="preserve">
<g>
	<path d="M10.74,24.236L9.3,21.176c-0.48-1.02-0.721-2.1-0.721-3.359c0-3.06,1.86-5.34,5.101-6.36
		c1.079-2.399,3.419-3.84,6.419-3.84c1.021,0,2.04,0.24,2.82,0.66c0.899-0.42,1.859-0.66,2.88-0.66c2.939,0,4.8,1.26,6.239,4.141
		l1.021,2.039l-1.86,0.84l-1.02-2.1c-0.9-1.92-2.34-2.88-4.38-2.88c-1.08,0-2.22,0.36-2.94,0.9c-0.779-0.601-1.68-0.9-2.76-0.9
		c-2.34,0-4.26,1.261-4.92,3.3c-2.88,0.721-4.499,2.4-4.499,4.86c0,1.02,0.18,1.92,0.54,2.7l1.319,2.819L10.74,24.236z
		 M28.799,53.515l-2.34-4.92l-13.5-10.14c-1.02-0.72-1.68-1.92-1.68-2.939c0-1.86,1.5-3.42,3.36-3.42c0.84,0,1.68,0.3,2.52,0.96
		l3.12,2.34l-7.14-15.42c-0.301-0.6-0.42-1.14-0.42-1.739c0-1.8,1.499-3.3,3.419-3.3c0.181,0,0.421,0,0.66,0.06
		c0-1.8,1.5-3.239,3.3-3.239c1.2,0,2.101,0.479,2.76,1.5c0.48-0.961,1.44-1.5,2.641-1.5c1.5,0,2.46,0.66,3.18,2.16l4.5,9.659
		c0.66-0.66,1.56-1.021,2.58-1.021c1.439,0,2.64,0.9,3.479,2.641l1.68,3.42c1.92,3.959,2.64,6.479,2.64,8.879
		c0,0.78-0.18,1.801-0.54,3.24l-0.479,1.619l1.8,3.9l-1.92,0.96l-2.16-4.62l0.601-1.92c0.359-1.439,0.479-2.399,0.479-3.299
		c0-2.16-0.6-4.26-1.92-7.08l-2.16-4.439c-0.42-0.9-0.899-1.261-1.619-1.261c-0.66,0-1.2,0.36-1.62,1.08h-2.1l-5.101-10.919
		c-0.3-0.66-0.72-1.021-1.319-1.021c-0.78,0-1.44,0.54-1.44,1.26c0,0.3,0.061,0.54,0.24,0.9l4.74,10.199l-1.86,0.84l-5.7-12.179
		c-0.3-0.66-0.72-1.021-1.319-1.021c-0.78,0-1.44,0.54-1.44,1.26c0,0.3,0.061,0.54,0.24,0.9l5.1,11.039L22.2,27.777l-4.62-9.84
		c-0.3-0.66-0.72-1.021-1.32-1.021c-0.779,0-1.439,0.54-1.439,1.261c0,0.299,0.06,0.539,0.24,0.899l8.819,19.14l-1.86,0.84l-6.3-4.5
		c-0.359-0.24-0.72-0.42-1.02-0.42c-0.78,0-1.32,0.479-1.32,1.32c0,0.6,0.24,0.959,1.021,1.56l13.799,10.319l2.46,5.34
		L28.799,53.515z M45.958,17.997l-0.96-1.62c2.52-1.5,3.96-2.399,5.76-3.72l-14.34,0.12v-2.1l14.34,0.119
		c-1.8-1.319-3.24-2.219-5.76-3.719l0.96-1.621c3.24,2.16,5.399,3.721,7.619,5.461v1.619C51.358,14.337,49.258,15.837,45.958,17.997
		z"/>
</g>
</svg>
