<?xml version="1.0" encoding="utf-8"?>
<!-- Generator: Adobe Illustrator 22.0.1, SVG Export Plug-In . SVG Version: 6.00 Build 0)  -->
<svg version="1.1" id="ICONS" xmlns="http://www.w3.org/2000/svg" x="0px"
     y="0px"
     viewBox="0 0 60 60" style="enable-background:new 0 0 60 60;" xml:space="preserve">
<g>
	<path d="M29.999,47.095c-6.54,0-10.68-4.14-10.68-10.68c0-4.739,2.76-10.919,9.6-21.419h2.159c6.84,10.5,9.6,16.68,9.6,21.419
		C40.678,42.956,36.538,47.095,29.999,47.095z M29.999,17.216c-6.36,10.02-8.58,14.939-8.58,19.199c0,5.4,3.24,8.641,8.58,8.641
		c5.339,0,8.579-3.24,8.579-8.641C38.579,32.156,36.359,27.236,29.999,17.216z M32.879,25.736c2.64,4.86,3.6,7.86,3.6,10.68
		c0,4.26-2.34,6.6-6.479,6.6c-4.141,0-6.48-2.34-6.48-6.6c0-2.819,0.96-5.819,3.601-10.68H32.879z"/>
</g>
</svg>
