<?xml version="1.0" encoding="utf-8"?>
<!-- Generator: Adobe Illustrator 22.0.1, SVG Export Plug-In . SVG Version: 6.00 Build 0)  -->
<svg version="1.1" id="ICONS" xmlns="http://www.w3.org/2000/svg" x="0px"
     y="0px"
     viewBox="0 0 60 60" style="enable-background:new 0 0 60 60;" xml:space="preserve">
<g>
	<path d="M44.998,21.477c2.88,0,4.26,1.38,4.26,4.26v12.779h-6.419v-2.039h4.32v-10.74c0-1.56-0.6-2.22-2.16-2.22H14.999
		c-1.56,0-2.16,0.66-2.16,2.22v10.74h4.32v2.039H10.74V25.737c0-2.88,1.38-4.26,4.26-4.26H44.998z M40.738,10.618H19.259v8.699h-2.1
		V8.578h25.679v10.739h-2.1V10.618z M19.319,30.057h21.359v23.398H19.319V30.057z M38.579,51.415V32.097h-17.16v19.318H38.579z
		 M23.639,36.477h12.719v2.039H23.639V36.477z M23.639,40.796h12.719v2.04H23.639V40.796z M23.639,45.056h12.719v2.04H23.639V45.056
		z"/>
</g>
</svg>
