<?xml version="1.0" encoding="utf-8"?>
<!-- Generator: Adobe Illustrator 22.0.1, SVG Export Plug-In . SVG Version: 6.00 Build 0)  -->
<svg version="1.1" id="ICONS" xmlns="http://www.w3.org/2000/svg" x="0px"
	 y="0px"
	 viewBox="0 0 60 60" style="enable-background:new 0 0 60 60;" xml:space="preserve">
<g>
	<path d="M47.219,29.997c0,10.5-6.72,17.159-17.22,17.159c-10.499,0-17.219-6.659-17.219-17.159c0-10.499,6.72-17.159,17.219-17.159
		C40.499,12.837,47.219,19.497,47.219,29.997z M21.42,28.977c0-5.76,1.92-11.699,4.5-13.8c-6.72,1.44-10.62,6.24-11.1,13.8H21.42z
		 M25.92,44.816c-2.58-2.1-4.5-8.039-4.5-13.799h-6.6C15.3,38.577,19.201,43.376,25.92,44.816z M28.98,28.977v-14.1
		c-3,1.32-5.279,7.26-5.46,14.1H28.98z M28.98,45.117v-14.1h-5.46C23.701,37.857,25.98,43.796,28.98,45.117z M31.02,14.877v14.1
		h5.46C36.299,22.137,34.02,16.198,31.02,14.877z M31.02,31.017v14.1c3-1.32,5.279-7.26,5.46-14.1H31.02z M34.08,15.177
		c2.58,2.101,4.5,8.04,4.5,13.8h6.6C44.7,21.417,40.799,16.618,34.08,15.177z M38.58,31.017c0,5.76-1.92,11.699-4.5,13.799
		c6.72-1.439,10.62-6.239,11.1-13.799H38.58z"/>
</g>
</svg>
