<?xml version="1.0" encoding="utf-8"?>
<!-- Generator: Adobe Illustrator 22.0.1, SVG Export Plug-In . SVG Version: 6.00 Build 0)  -->
<svg version="1.1" id="ICONS" xmlns="http://www.w3.org/2000/svg" x="0px"
	 y="0px"
	 viewBox="0 0 60 60" style="enable-background:new 0 0 60 60;" xml:space="preserve">
<g>
	<path d="M8.58,19.316c0-2.879,1.38-4.26,4.26-4.26h34.319c2.88,0,4.26,1.381,4.26,4.26v21.359c0,2.881-1.38,4.26-4.26,4.26H12.839
		c-2.88,0-4.26-1.379-4.26-4.26V19.316z M10.68,21.476h38.638v-2.16c0-1.559-0.6-2.219-2.159-2.219H12.839
		c-1.56,0-2.159,0.66-2.159,2.219V21.476z M49.318,27.896v-4.379H10.68v4.379H49.318z M12.839,42.896h34.319
		c1.56,0,2.159-0.66,2.159-2.221V29.936H10.68v10.739C10.68,42.236,11.28,42.896,12.839,42.896z M15.12,34.376h14.819v2.039H15.12
		V34.376z M15.12,38.576h10.619v2.04H15.12V38.576z"/>
</g>
</svg>
