<?xml version="1.0" encoding="utf-8"?>
<!-- Generator: Adobe Illustrator 22.0.1, SVG Export Plug-In . SVG Version: 6.00 Build 0)  -->
<svg version="1.1" id="ICONS" xmlns="http://www.w3.org/2000/svg" x="0px"
     y="0px"
     viewBox="0 0 60 60" style="enable-background:new 0 0 60 60;" xml:space="preserve">
<g>
	<path d="M14.999,37.556c0-9.12,3.72-15,9.659-15h7.56v-10.68h10.68v25.56c0,9.239-4.14,15.119-10.68,15.119h-7.56
		C18.719,52.555,14.999,46.675,14.999,37.556z M17.039,37.556c0,7.92,2.88,12.899,7.619,12.899c4.68,0,7.56-5.04,7.56-12.899
		c0-7.92-2.88-12.9-7.56-12.9C19.919,24.656,17.039,29.636,17.039,37.556z M26.458,37.496c0,2.641-0.6,4.32-1.68,4.32
		c-1.2,0-1.86-1.62-1.86-4.32c0-2.64,0.66-4.26,1.86-4.26C25.859,33.236,26.458,34.856,26.458,37.496z M32.218,27.656v-3h-2.22
		C30.838,25.437,31.619,26.456,32.218,27.656z M36.478,33.236v-2.1h4.38v-4.32h-4.38v-2.1h4.38v-4.26h-4.38v-2.1h4.38v-4.32h-6.6
		v23.52c0,5.879-1.56,10.439-4.2,12.899h2.16c3,0,5.34-1.56,6.84-4.32h-4.02c0.24-0.6,0.479-1.319,0.6-2.159h4.32
		c0.42-1.26,0.659-2.7,0.779-4.26h-4.439l0.06-2.101h4.5v-4.38H36.478z"/>
</g>
</svg>
