<?xml version="1.0" encoding="utf-8"?>
<!-- Generator: Adobe Illustrator 22.0.1, SVG Export Plug-In . SVG Version: 6.00 Build 0)  -->
<svg version="1.1" id="ICONS" xmlns="http://www.w3.org/2000/svg" x="0px"
     y="0px"
     viewBox="0 0 60 60" style="enable-background:new 0 0 60 60;" xml:space="preserve">
<g>
	<path d="M23.819,15.837c-0.899-1.92-2.52-3-4.739-3c-3.18,0-5.7,2.219-5.7,5.039c0,0.96,0.181,1.92,0.54,2.7l1.32,2.819l-1.8,0.9
		l-1.44-3.061c-0.479-1.02-0.72-2.1-0.72-3.359c0-3.899,3.479-7.08,7.8-7.08c2.819,0,5.34,1.621,6.6,4.26l1.38,2.881l-1.859,0.84
		L23.819,15.837z M43.619,28.676c1.92,3.96,2.64,6.479,2.64,8.88c0,0.779-0.18,1.8-0.54,3.24l-0.479,1.619l1.8,3.9l-1.92,0.959
		l-2.16-4.619l0.6-1.92c0.36-1.439,0.48-2.4,0.48-3.3c0-2.16-0.6-4.26-1.92-7.08l-2.16-4.439c-0.42-0.9-0.899-1.261-1.62-1.261
		c-0.659,0-1.199,0.36-1.619,1.08h-1.86c-0.42-0.72-0.96-1.08-1.74-1.08c-0.779,0-1.319,0.36-1.739,1.08h-1.86
		c-0.42-0.72-1.02-1.08-1.86-1.08c-0.84,0-1.439,0.36-1.859,1.08h-1.86l-3.659-7.739c-0.301-0.66-0.721-1.021-1.32-1.021
		c-0.78,0-1.439,0.541-1.439,1.261c0,0.3,0.06,0.54,0.239,0.899l8.82,19.14l-1.86,0.84l-6.3-4.5c-0.3-0.3-0.66-0.42-1.02-0.42
		c-0.78,0-1.32,0.479-1.32,1.32c0,0.6,0.24,0.96,1.02,1.56l13.8,10.32l2.46,5.34l-1.86,0.84l-2.34-4.92L15.66,38.515
		c-1.02-0.719-1.68-1.92-1.68-2.939c0-1.859,1.5-3.42,3.359-3.42c0.84,0,1.68,0.301,2.521,0.961l3.119,2.34l-7.14-15.42
		c-0.3-0.6-0.42-1.141-0.42-1.74c0-1.8,1.561-3.3,3.42-3.3c1.44,0,2.76,0.841,3.36,2.101l3,6.539c0.659-0.66,1.499-1.02,2.459-1.02
		c1.141,0,2.16,0.479,2.761,1.38c0.659-0.9,1.619-1.38,2.699-1.38c1.021,0,1.92,0.42,2.58,1.26c0.66-0.84,1.68-1.26,2.76-1.26
		c1.44,0,2.64,0.9,3.48,2.64L43.619,28.676z"/>
</g>
</svg>
