<?xml version="1.0" encoding="utf-8"?>
<!-- Generator: Adobe Illustrator 22.0.1, SVG Export Plug-In . SVG Version: 6.00 Build 0)  -->
<svg version="1.1" id="ICONS" xmlns="http://www.w3.org/2000/svg" x="0px"
     y="0px"
     viewBox="0 0 60 60" style="enable-background:new 0 0 60 60;" xml:space="preserve">
<g>
	<path d="M44.938,20.396v29.939H15.059V11.817h21.359C39.718,14.577,42.658,17.517,44.938,20.396z M42.838,48.295V22.437h-8.52
		v-8.58h-17.16v34.438H42.838z M22.918,23.636c0,1.08-0.6,1.5-1.5,1.5c-0.899,0-1.499-0.42-1.499-1.5s0.6-1.5,1.499-1.5
		C22.319,22.136,22.918,22.556,22.918,23.636z M22.918,30.117c0,1.08-0.6,1.5-1.5,1.5c-0.899,0-1.499-0.42-1.499-1.5
		s0.6-1.5,1.499-1.5C22.319,28.617,22.918,29.037,22.918,30.117z M22.918,36.476c0,1.08-0.6,1.5-1.5,1.5
		c-0.899,0-1.499-0.42-1.499-1.5s0.6-1.5,1.499-1.5C22.319,34.976,22.918,35.396,22.918,36.476z M22.918,42.896
		c0,1.08-0.6,1.5-1.5,1.5c-0.899,0-1.499-0.42-1.499-1.5s0.6-1.5,1.499-1.5C22.319,41.396,22.918,41.816,22.918,42.896z
		 M32.098,22.617v2.039h-6.359v-2.039H32.098z M38.579,29.037v2.039h-12.84v-2.039H38.579z M38.579,35.456v2.039h-12.84v-2.039
		H38.579z M36.418,41.875v2.04h-10.68v-2.04H36.418z M42.298,20.456c-1.92-2.22-3.96-4.199-5.94-5.88v5.88H42.298z"/>
</g>
</svg>
