<?xml version="1.0" encoding="utf-8"?>
<!-- Generator: Adobe Illustrator 22.0.1, SVG Export Plug-In . SVG Version: 6.00 Build 0)  -->
<svg version="1.1" id="ICONS" xmlns="http://www.w3.org/2000/svg" x="0px"
	 y="0px"
	 viewBox="0 0 60 60" style="enable-background:new 0 0 60 60;" xml:space="preserve">
<g>
	<path d="M17.521,41.156c-1.44-0.061-2.88,0-4.32,0.061v-2.041c2.101-0.119,4.32-0.119,6.42,0l8.46-8.159h-11.1
		c-1.439,1.62-3.06,3.239-4.74,4.68l-1.439-1.44c1.14-1.02,2.28-2.1,3.359-3.239H8.581v-2.04h5.579
		c-1.079-1.14-2.22-2.22-3.359-3.24l1.439-1.439c1.681,1.439,3.301,3.061,4.74,4.68h11.1l-8.46-8.1
		c-1.979,0.061-4.14,0.061-6.119-0.061v-2.039c1.319,0.06,2.699,0.119,4.02,0.06l-3.96-3.78l1.5-1.5l4.439,4.261
		c0.061-1.62,0-3.3-0.06-4.92h2.04c0.12,2.28,0.12,4.739,0,6.84l7.5,7.14V8.578h2.1v13.02c4.68,0.359,7.439,3.479,7.439,8.398
		c0,4.86-2.76,8.04-7.439,8.4v13.02h-2.1V33.117l-7.8,7.439c0.12,2.1,0.12,4.379,0,6.539h-2.04c0.06-1.5,0.12-3.119,0.06-4.619
		l-4.14,3.959l-1.5-1.5L17.521,41.156z M31.08,23.636v12.72c3.359-0.36,5.34-2.7,5.34-6.36C36.42,26.336,34.44,23.997,31.08,23.636z
		 M44.4,14.097l1.5,1.5l-6.06,6.06l-1.5-1.5L44.4,14.097z M38.34,39.835l1.5-1.5l6.06,6.061l-1.5,1.5L38.34,39.835z M51.419,28.915
		v2.16H42.9v-2.16H51.419z"/>
</g>
</svg>
