<?xml version="1.0" encoding="utf-8"?>
<!-- Generator: Adobe Illustrator 22.0.1, SVG Export Plug-In . SVG Version: 6.00 Build 0)  -->
<svg version="1.1" id="ICONS" xmlns="http://www.w3.org/2000/svg" x="0px"
     y="0px"
     viewBox="0 0 60 60" style="enable-background:new 0 0 60 60;" xml:space="preserve">
<g>
	<path d="M39.119,26.756c0-6.42-3.12-9.659-9.36-9.659c-6.42,0-9.479,3.359-9.479,10.499c-4.56,0-7.44,2.16-7.44,5.64
		c0,2.641,1.68,4.62,4.32,5.22l-0.72,1.979c-3.42-0.899-5.7-3.6-5.7-7.199c0-4.08,2.88-7.02,7.5-7.56
		c0.42-6.78,4.62-10.62,11.52-10.62c6.66,0,10.979,3.66,11.399,9.721c5.04,0.299,8.1,3.299,8.1,7.979c0,3.9-2.16,6.721-5.76,7.62
		l-0.66-1.979c2.64-0.721,4.32-2.82,4.32-5.641C47.158,28.856,44.338,26.756,39.119,26.756z M24.359,35.335
		c0,1.2-0.6,1.86-1.86,1.86c-1.2,0-1.86-0.66-1.86-1.86c0-1.26,0.66-1.859,1.86-1.859C23.759,33.476,24.359,34.076,24.359,35.335z
		 M24.359,44.095c0,1.2-0.6,1.86-1.86,1.86c-1.2,0-1.86-0.66-1.86-1.86c0-1.26,0.66-1.859,1.86-1.859
		C23.759,42.236,24.359,42.835,24.359,44.095z M31.859,32.096c0,1.2-0.6,1.86-1.86,1.86c-1.2,0-1.86-0.66-1.86-1.86
		c0-1.261,0.66-1.86,1.86-1.86C31.259,30.236,31.859,30.835,31.859,32.096z M31.859,39.716c0,1.199-0.6,1.859-1.86,1.859
		c-1.2,0-1.86-0.66-1.86-1.859c0-1.261,0.66-1.86,1.86-1.86C31.259,37.856,31.859,38.456,31.859,39.716z M31.859,47.335
		c0,1.2-0.6,1.859-1.86,1.859c-1.2,0-1.86-0.659-1.86-1.859c0-1.26,0.66-1.859,1.86-1.859
		C31.259,45.476,31.859,46.076,31.859,47.335z M39.358,35.335c0,1.2-0.6,1.86-1.86,1.86c-1.2,0-1.86-0.66-1.86-1.86
		c0-1.26,0.66-1.859,1.86-1.859C38.758,33.476,39.358,34.076,39.358,35.335z M39.358,44.095c0,1.2-0.6,1.86-1.86,1.86
		c-1.2,0-1.86-0.66-1.86-1.86c0-1.26,0.66-1.859,1.86-1.859C38.758,42.236,39.358,42.835,39.358,44.095z"/>
</g>
</svg>
