<?xml version="1.0" encoding="utf-8"?>
<!-- Generator: Adobe Illustrator 22.0.1, SVG Export Plug-In . SVG Version: 6.00 Build 0)  -->
<svg version="1.1" id="ICONS" xmlns="http://www.w3.org/2000/svg" x="0px"
     y="0px"
     viewBox="0 0 60 60" style="enable-background:new 0 0 60 60;" xml:space="preserve">
<g>
	<path d="M14.4,23.037c-1.44,0.54-1.86,1.38-1.32,2.82l5.28,13.979c0.54,1.44,1.38,1.801,2.819,1.26l19.619-7.499l-6.779-17.999
		l-4.02,1.56v-2.28l5.279-2.039l8.279,21.959l-21.659,8.219c-2.699,1.021-4.439,0.24-5.459-2.459l-5.28-13.98
		c-1.02-2.699-0.18-4.499,2.46-5.52l9.96-3.779v2.279L14.4,23.037z M26.819,29.996c-2.579,0-4.199-1.619-4.199-4.26
		c0-2.219,1.199-3.779,3.119-4.139V8.578h2.101v13.02c1.979,0.359,3.18,1.859,3.18,4.139C31.019,28.376,29.399,29.996,26.819,29.996
		z M26.819,23.456c-1.38,0-2.159,0.84-2.159,2.279c0,1.44,0.84,2.28,2.159,2.28c1.38,0,2.16-0.78,2.16-2.28
		S28.199,23.456,26.819,23.456z M37.319,12.117l2.04-0.72l8.159,21.839l-1.979,0.78L37.319,12.117z M40.678,47.156
		c0-1.92,0.78-4.08,3.24-8.58h2.16c2.399,4.68,3.18,6.72,3.18,8.58c0,2.64-1.62,4.26-4.26,4.26
		C42.298,51.415,40.678,49.795,40.678,47.156z M47.159,47.156c0-1.561-0.42-2.76-2.16-6.48c-1.74,3.42-2.22,4.801-2.22,6.48
		c0,1.32,0.899,2.22,2.22,2.22S47.159,48.536,47.159,47.156z"/>
</g>
</svg>
