<?xml version="1.0" encoding="utf-8"?>
<!-- Generator: Adobe Illustrator 22.0.1, SVG Export Plug-In . SVG Version: 6.00 Build 0)  -->
<svg version="1.1" id="ICONS" xmlns="http://www.w3.org/2000/svg" x="0px"
     y="0px"
     viewBox="0 0 60 60" style="enable-background:new 0 0 60 60;" xml:space="preserve">
<g>
	<path d="M27.9,43.796c-7.079-3.959-11.818-7.08-19.318-12.779v-2.04c7.5-5.7,12.239-8.819,19.318-12.779h2.1v12.779
		c7.5-5.7,12.24-8.819,19.32-12.779h2.1v27.599h-2.1c-7.08-3.959-11.82-7.08-19.32-12.779v12.779H27.9z M27.9,41.396V18.598
		c-6.42,3.66-10.859,6.6-17.219,11.399C17.04,34.797,21.48,37.737,27.9,41.396z M49.32,41.396V18.598
		c-6.42,3.66-10.859,6.6-17.22,11.399C38.46,34.797,42.9,37.737,49.32,41.396z"/>
</g>
</svg>
