<?xml version="1.0" encoding="utf-8"?>
<!-- Generator: Adobe Illustrator 22.0.1, SVG Export Plug-In . SVG Version: 6.00 Build 0)  -->
<svg version="1.1" id="ICONS" xmlns="http://www.w3.org/2000/svg" x="0px"
     y="0px"
     viewBox="0 0 60 60" style="enable-background:new 0 0 60 60;" xml:space="preserve">
<g>
	<path d="M47.098,25.136c0,6.42,2.28,10.02,2.28,14.039c0,3.66-1.98,5.82-5.34,5.82c-3.42,0-5.399-2.16-5.399-5.82v-9.239
		c0-1.56-0.601-2.159-2.16-2.159h-2.22v19.379h2.159v2.039H10.68v-2.039h2.22V17.157c0-2.88,1.38-4.26,4.26-4.26h12.84
		c2.88,0,4.26,1.38,4.26,4.26v8.579h2.22c2.88,0,4.26,1.381,4.26,4.26v9.18c0,2.521,1.08,3.78,3.3,3.78s3.3-1.26,3.3-3.78
		c0-4.02-2.22-7.379-2.22-14.039v-1.619c-2.7-0.421-4.14-2.461-4.14-5.82v-4.8h1.92V8.578h1.979v4.319h2.58V8.578h1.979v4.319h1.86
		v4.8c0,3.24-1.561,5.399-4.2,5.82V25.136z M29.999,14.937H17.16c-1.56,0-2.16,0.66-2.16,2.22v29.999h17.159V17.157
		C32.159,15.597,31.559,14.937,29.999,14.937z M23.879,36.356h-0.96l0.6-4.26H20.58l2.04-6.36h2.279l-1.5,4.381h3.48L23.879,36.356z
		 M42.899,14.817v2.88c0,2.52,1.14,3.96,3.18,3.96c2.16,0,3.359-1.38,3.359-3.96v-2.88H42.899z"/>
</g>
</svg>
