<?xml version="1.0" encoding="utf-8"?>
<!-- Generator: Adobe Illustrator 22.0.1, SVG Export Plug-In . SVG Version: 6.00 Build 0)  -->
<svg version="1.1" id="ICONS" xmlns="http://www.w3.org/2000/svg" x="0px"
     y="0px"
     viewBox="0 0 60 60" style="enable-background:new 0 0 60 60;" xml:space="preserve">
<g>
	<path d="M28.919,8.578v2.039h-17.04V8.578H28.919z M17.82,51.415l-3.84-3.9v-5.16l3.239-3.299v-13.38h-5.34V12.897h17.04v12.779
		h-5.28v11.52l8.16-8.159l-0.9-0.9v-5.76l6.18-6.18l12.06,12.06l-9.06,9.06l-3.72-3.779l-9.479,9.539v4.439l-3.84,3.9H17.82z
		 M13.98,14.937v8.699h12.839v-8.699H13.98z M18.719,40.556l-2.64,2.64v3.479l2.64,2.641h3.42l2.64-2.641v-3.479l-2.64-2.64H18.719z
		 M19.379,38.456h2.1V25.676h-2.1V38.456z M24.24,39.656l1.439,1.5l9.18-9.119l-1.5-1.5L24.24,39.656z M37.139,19.136l-4.2,4.141
		v4.02l7.08,7.08l6.18-6.18L37.139,19.136z M52.198,25.197l-1.439,1.439l-12.06-12.06l1.439-1.44L52.198,25.197z"/>
</g>
</svg>
