<?xml version="1.0" encoding="utf-8"?>
<!-- Generator: Adobe Illustrator 22.0.1, SVG Export Plug-In . SVG Version: 6.00 Build 0)  -->
<svg version="1.1" id="ICONS" xmlns="http://www.w3.org/2000/svg" x="0px"
     y="0px"
     viewBox="0 0 60 60" style="enable-background:new 0 0 60 60;" xml:space="preserve">
<g>
	<path d="M6.6,29.037c-3-2.4-4.38-5.16-4.38-8.641c0-3.779,2.52-7.439,7.08-10.318c-2.7,0.18-4.08,0.359-6.42,0.899l-0.24-1.74
		c2.34-0.479,4.2-0.6,8.52-0.6l0.9,1.079c-0.601,3.301-1.021,5.101-1.92,8.221l-1.681-0.48c0.9-2.58,1.2-3.539,1.801-6.119
		c-3.78,2.52-6.12,5.939-6.12,9.059c0,2.58,1.08,4.86,3.12,6.6C7.02,27.416,6.84,27.956,6.6,29.037z M20.759,28.316
		c-0.96-1.68-2.52-2.58-4.5-2.58c-3.119,0-5.64,2.28-5.64,5.221c0,1.14,0.3,2.22,0.96,3.359l1.32,2.34l-1.74,1.02L9.72,35.037
		c-0.84-1.561-1.2-2.881-1.2-4.021c0-4.021,3.42-7.38,7.56-7.38c2.88,0,4.92,1.141,6.3,3.42l0.72,1.2l-0.96,2.46L20.759,28.316z
		 M19.32,44.396l-5.76-10.561c-0.48-0.899-0.78-1.799-0.78-2.579c0-2.101,1.439-3.479,3.54-3.479c1.5,0,2.46,0.6,3.359,2.159l3,5.34
		l6.66-18.239c0.6-1.561,1.739-2.46,3.3-2.46c1.92,0,3.6,1.56,3.6,3.36c0,0.479-0.12,1.14-0.42,1.8l-2.4,6.479h0.061
		c1.859,0,3.479,1.561,3.479,3.42c0,0.18,0,0.359,0,0.48c0.181,0,0.36,0,0.54,0c1.74,0,3.24,1.5,3.24,3.239c0,0.12,0,0.3-0.061,0.42
		h0.24c2.1,0,3.54,1.5,3.54,3.601c0,0.539-0.12,1.079-0.36,1.92l-1.199,3.479c-1.44,4.079-2.7,6.419-4.38,8.1
		c-0.9,0.899-1.8,1.5-2.76,1.92l-1.44,0.84l-1.5,4.02l-1.979-0.6l1.68-4.86l1.8-0.899c0.96-0.54,1.56-1.021,2.76-2.101
		c1.44-1.439,2.521-3.359,3.54-6.299l1.62-4.62c0.12-0.36,0.18-0.66,0.18-0.96c0-0.96-0.66-1.561-1.68-1.561
		c-0.48,0-0.54,0-0.66,0.061l-1.32-1.32c0.12-0.359,0.12-0.539,0.12-0.66c0-0.959-0.84-1.859-1.8-1.859c-0.54,0-0.6,0-0.78,0.061
		l-1.319-1.261c0.12-0.36,0.12-0.54,0.12-0.659c0-1.08-1.021-2.101-2.101-2.101c-0.479,0-0.54,0-0.659,0.06l-1.32-1.26l2.82-7.739
		c0.239-0.601,0.3-0.84,0.3-1.08c0-0.72-0.66-1.38-1.5-1.38c-0.601,0-0.9,0.24-1.2,1.02L23.58,38.755l-1.92-0.779l-3.72-6.9
		c-0.48-0.899-0.96-1.26-1.681-1.26c-0.84,0-1.38,0.6-1.38,1.44c0,0.36,0.24,1.079,0.601,1.8l5.939,10.739v6.239h-2.1V44.396z
		 M37.918,20.097c0.42-1.141,0.54-1.74,0.54-2.58c0-2.521-3-5.1-5.939-5.1c-2.22,0-4.08,1.379-4.92,3.659l-1.08,2.94l-1.92-0.66
		l1.2-3.18c1.14-3.061,3.54-4.801,6.659-4.801c4.32,0,8.101,3.36,8.101,7.2c0,1.2-0.181,2.04-0.66,3.06l-1.08,2.82l-1.92-0.721
		L37.918,20.097z M35.219,2.277c7.02,0,11.459,3.54,13.439,10.68c0.479-1.979,0.779-3.42,1.319-6.18l1.68,0.36
		c-0.659,2.94-1.079,4.56-2.34,8.22l-1.38,0.48c-2.579-1.561-4.02-2.521-7.02-4.681l1.021-1.38c2.159,1.74,3.06,2.4,5.1,3.779
		c-2.04-6.539-5.7-9.419-11.819-9.419h-0.9v-1.86H35.219z"/>
</g>
</svg>
