<?xml version="1.0" encoding="utf-8"?>
<!-- Generator: Adobe Illustrator 22.0.1, SVG Export Plug-In . SVG Version: 6.00 Build 0)  -->
<svg version="1.1" id="ICONS" xmlns="http://www.w3.org/2000/svg" x="0px"
     y="0px"
     viewBox="0 0 60 60" style="enable-background:new 0 0 60 60;" xml:space="preserve">
<g>
	<path d="M51.538,32.156c0,4.5-1.141,8.58-3.66,12.779H12.24c-2.52-4.199-3.66-8.279-3.66-12.779c0-11.34,8.88-19.318,21.479-19.318
		S51.538,20.816,51.538,32.156z M10.8,32.156c0,3.9,0.96,7.561,2.819,10.74h32.879c1.859-3.18,2.819-6.84,2.819-10.74
		c0-10.139-7.919-17.159-19.259-17.159S10.8,22.017,10.8,32.156z M14.94,33.537h6.42v2.039h-6.42V33.537z M19.499,22.857l4.56,4.56
		l-1.439,1.439l-4.561-4.499L19.499,22.857z M30.059,38.156c-2.16,0-3.479-1.32-3.479-3.48c0-2.159,1.319-3.479,3.479-3.479
		c0.72,0,1.38,0.18,1.92,0.42l8.46-8.58l1.5,1.439l-8.64,8.7c0.18,0.42,0.239,0.96,0.239,1.499
		C33.538,36.835,32.219,38.156,30.059,38.156z M30.059,33.056c-1.02,0-1.56,0.54-1.56,1.619c0,1.021,0.6,1.621,1.56,1.621
		c1.02,0,1.56-0.601,1.56-1.621C31.619,33.596,31.079,33.056,30.059,33.056z M31.019,19.316v6.42h-2.04v-6.42H31.019z
		 M44.938,35.696h-6.419v-2.04h6.419V35.696z"/>
</g>
</svg>
