<?xml version="1.0" encoding="utf-8"?>
<!-- Generator: Adobe Illustrator 22.0.1, SVG Export Plug-In . SVG Version: 6.00 Build 0)  -->
<svg version="1.1" id="ICONS" xmlns="http://www.w3.org/2000/svg" x="0px"
     y="0px"
     viewBox="0 0 60 60" style="enable-background:new 0 0 60 60;" xml:space="preserve">
<g>
	<path d="M12.299,32.936c-3.18-0.42-5.76-0.899-9.179-1.68l-0.721-1.5c1.26-2.58,2.521-4.8,4.62-8.159l1.56,1.079
		C6.9,25.136,6,26.576,4.92,28.436L15.9,23.277l0.84,1.859l-11.1,5.04c2.16,0.42,3.84,0.6,6.84,0.899L12.299,32.936z M18.599,24.296
		l-1.439-3.061c-0.48-1.02-0.72-2.1-0.72-3.359c0-3.06,1.859-5.34,5.1-6.359c1.08-2.4,3.42-3.84,6.42-3.84
		c1.02,0,2.04,0.24,2.819,0.66c0.9-0.42,1.86-0.66,2.88-0.66c2.94,0,4.8,1.26,6.24,4.14l1.02,2.04l-1.859,0.84l-1.021-2.1
		c-0.899-1.92-2.34-2.881-4.38-2.881c-1.08,0-2.22,0.361-2.939,0.9c-0.78-0.6-1.68-0.9-2.76-0.9c-2.34,0-4.26,1.261-4.92,3.301
		c-2.88,0.72-4.5,2.399-4.5,4.859c0,1.02,0.18,1.92,0.54,2.7l1.32,2.819L18.599,24.296z M36.659,53.576l-2.34-4.92L20.82,38.515
		c-1.021-0.719-1.681-1.92-1.681-2.939c0-1.859,1.5-3.42,3.36-3.42c0.84,0,1.68,0.301,2.52,0.961l3.12,2.34l-7.14-15.42
		c-0.3-0.6-0.42-1.141-0.42-1.74c0-1.8,1.5-3.3,3.42-3.3c0.18,0,0.42,0,0.66,0.06c0-1.799,1.5-3.239,3.3-3.239
		c1.199,0,2.1,0.479,2.76,1.5c0.479-0.96,1.439-1.5,2.64-1.5c1.5,0,2.46,0.66,3.18,2.16l4.5,9.659c0.66-0.66,1.56-1.02,2.58-1.02
		c1.439,0,2.64,0.9,3.479,2.64l1.68,3.42c1.92,3.96,2.641,6.479,2.641,8.88c0,0.779-0.181,1.8-0.54,3.24l-0.48,1.619l1.8,3.9
		l-1.92,0.959l-2.159-4.619l0.6-1.92c0.36-1.439,0.48-2.4,0.48-3.3c0-2.16-0.601-4.26-1.92-7.08l-2.16-4.439
		c-0.42-0.9-0.9-1.261-1.62-1.261c-0.66,0-1.2,0.36-1.62,1.08h-2.1l-5.1-10.919c-0.301-0.66-0.721-1.021-1.32-1.021
		c-0.78,0-1.439,0.541-1.439,1.26c0,0.301,0.06,0.541,0.239,0.9l4.74,10.199l-1.86,0.84l-5.699-12.179
		c-0.3-0.66-0.721-1.021-1.32-1.021c-0.78,0-1.439,0.541-1.439,1.26c0,0.301,0.06,0.541,0.239,0.9l5.101,11.039l-1.86,0.841
		l-4.62-9.84c-0.3-0.66-0.72-1.021-1.319-1.021c-0.78,0-1.44,0.541-1.44,1.261c0,0.3,0.061,0.54,0.24,0.899l8.819,19.14l-1.859,0.84
		l-6.3-4.5c-0.36-0.239-0.721-0.42-1.021-0.42c-0.779,0-1.319,0.479-1.319,1.32c0,0.6,0.239,0.96,1.02,1.56l13.8,10.32l2.46,5.34
		L36.659,53.576z M51.658,14.697l-1.56-1.08c1.68-2.46,2.58-3.9,3.66-5.76l-10.979,5.16l-0.84-1.86l11.1-5.04
		c-2.16-0.42-3.84-0.6-6.84-0.899l0.18-1.86c3.18,0.42,5.76,0.9,9.18,1.68l0.72,1.5C55.018,9.117,53.758,11.337,51.658,14.697z"/>
</g>
</svg>
