<?xml version="1.0" encoding="utf-8"?>
<!-- Generator: Adobe Illustrator 22.0.1, SVG Export Plug-In . SVG Version: 6.00 Build 0)  -->
<svg version="1.1" id="ICONS" xmlns="http://www.w3.org/2000/svg" x="0px"
     y="0px"
     viewBox="0 0 60 60" style="enable-background:new 0 0 60 60;" xml:space="preserve">
<g>
	<path d="M19.021,19.316c-2.88,0-4.74-1.859-4.74-4.859s1.86-4.859,4.74-4.859c2.939,0,4.8,1.859,4.8,4.859
		S21.96,19.316,19.021,19.316z M38.22,40.796c6,0,8.88,1.799,8.88,5.579c0,1.44-0.42,2.88-1.44,5.04H25.08
		c-3.359,0-4.68-1.02-5.279-4.2l-4.44-24.719c2.04-0.72,3.6-1.021,5.22-1.021c3.061,0,4.74,1.62,5.4,5.16l2.64,14.52
		c-0.72,0.42-1.26,0.84-1.86,1.38L24,27.117c-0.479-2.7-1.38-3.6-3.42-3.6c-0.899,0-1.439,0.06-2.88,0.42l4.26,23.278
		c0.301,1.681,1.021,2.16,3.12,2.16H44.28c0.48-0.84,0.72-1.86,0.72-3c0-2.46-2.04-3.54-6.779-3.54c-4.14,0-6.42,0.9-9.54,3.721
		l-1.38-1.561C30.3,42.056,33.54,40.796,38.22,40.796z M19.021,11.577c-1.74,0-2.7,1.021-2.7,2.88c0,1.74,1.021,2.88,2.7,2.88
		c1.74,0,2.76-1.02,2.76-2.88C21.781,12.537,20.821,11.577,19.021,11.577z"/>
</g>
</svg>
