<?xml version="1.0" encoding="utf-8"?>
<!-- Generator: Adobe Illustrator 22.0.1, SVG Export Plug-In . SVG Version: 6.00 Build 0)  -->
<svg version="1.1" id="ICONS" xmlns="http://www.w3.org/2000/svg" x="0px"
	 y="0px"
	 viewBox="0 0 60 60" style="enable-background:new 0 0 60 60;" xml:space="preserve">
<g>
	<path d="M21.721,49.195c-4.5,0-6.66-2.159-6.66-6.659V22.437c0.9-1.08,1.8-2.101,2.7-3.061l-2.76-2.76c1.859-2.22,3.72-4.02,6.06-6
		l2.76,2.7c1.439-1.38,2.16-2.04,2.939-2.64h11.52c4.5,0,6.6,2.16,6.66,6.659v25.199c0,4.56-2.1,6.659-6.66,6.659H21.721z
		 M42.84,42.536V17.336c0-3.3-1.32-4.62-4.561-4.62H27.72c-4.499,3.9-6.84,6.24-10.56,10.62v19.199c0,3.3,1.32,4.62,4.561,4.62
		H38.28C41.52,47.156,42.84,45.835,42.84,42.536z M19.141,17.937c1.02-1.141,2.04-2.16,3.18-3.18l-1.44-1.44
		c-1.199,1.021-2.22,2.04-3.18,3.18L19.141,17.937z M22.8,35.876c0.9,0.18,1.801,0.42,3.24,0.84l2.4-1.32l-2.4-1.38
		c-1.08,0.36-2.1,0.659-3.18,0.84l-0.36-1.5c1.08-0.239,1.98-0.42,2.76-0.66c-0.239-0.899-0.479-1.8-0.84-2.76l1.5-0.42
		c0.24,0.72,0.42,1.319,0.84,3.18l2.521,1.38v-2.819c-0.84-0.72-1.561-1.5-2.28-2.341l1.14-1.02c0.721,0.84,1.32,1.5,1.92,2.1
		c0.601-0.6,1.2-1.26,1.92-2.1l1.141,1.02c-0.601,0.66-1.26,1.381-2.34,2.4v2.76l2.52-1.38c0.54-2.28,0.66-2.52,0.9-3.18l1.439,0.42
		c-0.3,0.96-0.54,1.8-0.84,2.76c0.9,0.181,1.8,0.421,2.76,0.601l-0.36,1.5c-1.02-0.121-2.039-0.42-3.18-0.78l-2.46,1.38l2.46,1.38
		c1.8-0.54,2.46-0.66,3.24-0.84l0.36,1.5c-0.96,0.18-1.86,0.42-2.761,0.659c0.301,1.021,0.54,1.86,0.841,2.701l-1.5,0.42
		c-0.42-1.021-0.721-2.101-0.9-3.121l-2.52-1.439v2.76c1.08,1.02,1.739,1.74,2.34,2.4l-1.141,1.02c-0.72-0.84-1.319-1.5-1.92-2.1
		c-0.6,0.6-1.199,1.26-1.92,2.1L27,41.816c0.72-0.84,1.44-1.62,2.28-2.34v-2.82l-2.521,1.439c-0.18,0.961-0.479,1.98-0.84,3.121
		l-1.5-0.42c0.36-1.08,0.66-1.92,0.84-2.761c-0.84-0.18-1.739-0.42-2.819-0.659L22.8,35.876z M30.06,23.456
		c-2.46,0-4.26-1.8-4.26-4.2c0-2.399,1.8-4.2,4.26-4.2h6.42c2.46,0,4.26,1.801,4.26,4.2c0,2.4-1.8,4.2-4.26,4.2H30.06z
		 M38.76,19.256c0-1.319-0.9-2.22-2.28-2.22h-6.42c-1.38,0-2.279,0.9-2.279,2.22c0,1.32,0.899,2.22,2.279,2.22h6.42
		C37.86,21.476,38.76,20.577,38.76,19.256z"/>
</g>
</svg>
