<?xml version="1.0" encoding="utf-8"?>
<!-- Generator: Adobe Illustrator 22.0.1, SVG Export Plug-In . SVG Version: 6.00 Build 0)  -->
<svg version="1.1" id="ICONS" xmlns="http://www.w3.org/2000/svg" x="0px"
     y="0px"
     viewBox="0 0 60 60" style="enable-background:new 0 0 60 60;" xml:space="preserve">
<g>
	<path d="M30,36.415c-7.859,0-12.84-4.979-12.84-12.839c0-7.92,4.92-12.84,12.84-12.84s12.84,4.92,12.84,12.84
		C42.84,31.496,37.92,36.415,30,36.415z M30,34.376c6.66,0,10.739-4.08,10.739-10.8c0-6.78-4.02-10.8-10.739-10.8
		s-10.739,4.02-10.739,10.8C19.261,30.296,23.34,34.376,30,34.376z M29.161,44.996h1.68c0.84,0.96,1.86,2.04,3.42,3.54v-10.56
		c0.84-0.18,1.5-0.42,2.1-0.721v12.96l-2.1,1.2c-1.5-1.381-2.88-2.76-4.26-4.26c-1.38,1.5-2.76,2.879-4.26,4.26l-2.1-1.2v-12.96
		c0.6,0.301,1.26,0.541,2.1,0.721v10.56C27.3,47.036,28.321,45.956,29.161,44.996z M30.6,28.915h-2.1
		c-1.439-2.039-2.28-3.299-3.479-5.339l1.8-1.021c1.02,1.74,1.859,3.061,2.699,4.32c1.561-2.4,2.761-4.5,4.86-8.52l1.8,1.02
		C33.9,23.697,32.76,25.617,30.6,28.915z"/>
</g>
</svg>
