<?xml version="1.0" encoding="utf-8"?>
<!-- Generator: Adobe Illustrator 22.0.1, SVG Export Plug-In . SVG Version: 6.00 Build 0)  -->
<svg version="1.1" id="ICONS" xmlns="http://www.w3.org/2000/svg" x="0px"
	 y="0px"
	 viewBox="0 0 60 60" style="enable-background:new 0 0 60 60;" xml:space="preserve">
<g>
	<path d="M17.099,31.076H8.58v-2.16h8.52V31.076z M20.159,21.657l-6.06-6.06l1.5-1.5l6.06,6.06L20.159,21.657z M14.1,44.396
		l6.06-6.061l1.5,1.5l-6.06,6.061L14.1,44.396z M29.939,21.537c5.28,0,8.459,3.18,8.459,8.459c0,5.221-3.18,8.46-8.459,8.46
		c-5.22,0-8.46-3.239-8.46-8.46C21.479,24.716,24.659,21.537,29.939,21.537z M29.939,36.415c3.959,0,6.359-2.399,6.359-6.42
		c0-4.02-2.4-6.419-6.359-6.419c-3.96,0-6.36,2.399-6.36,6.419C23.579,34.016,25.979,36.415,29.939,36.415z M28.919,17.097v-8.52
		h2.16v8.52H28.919z M28.919,51.415v-8.52h2.16v8.52H28.919z M44.398,14.097l1.5,1.5l-6.06,6.06l-1.5-1.5L44.398,14.097z
		 M38.338,39.835l1.5-1.5l6.06,6.061l-1.5,1.5L38.338,39.835z M51.418,28.915v2.16h-8.52v-2.16H51.418z"/>
</g>
</svg>
