<?xml version="1.0" encoding="utf-8"?>
<!-- Generator: Adobe Illustrator 22.0.1, SVG Export Plug-In . SVG Version: 6.00 Build 0)  -->
<svg version="1.1" id="ICONS" xmlns="http://www.w3.org/2000/svg" x="0px"
	 y="0px"
	 viewBox="0 0 60 60" style="enable-background:new 0 0 60 60;" xml:space="preserve">
<g>
	<path d="M8.581,15.057c0-2.88,1.379-4.26,4.26-4.26H47.16c2.88,0,4.26,1.38,4.26,4.26v25.68c0,2.88-1.38,4.26-4.26,4.26h-12.24
		v4.38h5.76v2.039H19.321v-2.039h5.819v-4.38H12.841c-2.881,0-4.26-1.38-4.26-4.26V15.057z M10.681,34.437H49.32v-19.38
		c0-1.56-0.6-2.22-2.16-2.22H12.841c-1.561,0-2.16,0.66-2.16,2.22V34.437z M12.841,42.956H47.16c1.561,0,2.16-0.66,2.16-2.22v-4.2
		H10.681v4.2C10.681,42.296,11.281,42.956,12.841,42.956z M32.82,49.376v-4.38h-5.58v4.38H32.82z M31.56,39.657
		c0,1.08-0.42,1.56-1.561,1.56c-1.079,0-1.559-0.479-1.559-1.56c0-1.141,0.479-1.561,1.559-1.561
		C31.14,38.096,31.56,38.516,31.56,39.657z"/>
</g>
</svg>
