<?xml version="1.0" encoding="utf-8"?>
<!-- Generator: Adobe Illustrator 22.0.1, SVG Export Plug-In . SVG Version: 6.00 Build 0)  -->
<svg version="1.1" id="ICONS" xmlns="http://www.w3.org/2000/svg" x="0px"
     y="0px"
     viewBox="0 0 60 60" style="enable-background:new 0 0 60 60;" xml:space="preserve">
<g>
	<path d="M8.58,21.416h38.519v23.519H8.58V21.416z M44.998,42.896V23.456H10.68v19.439H44.998z M51.418,17.157v23.579h-2.101V19.197
		H12.78v-2.04H51.418z M38.639,40.616h-21.42c0-3.12-1.08-4.2-4.319-4.2v-6.42c3.18,0,4.319-1.08,4.319-4.26h21.42
		c0,3.18,1.14,4.26,4.319,4.26v6.42C39.718,36.415,38.639,37.496,38.639,40.616z M40.798,32.156c-2.279-0.359-3.96-2.039-4.26-4.379
		H19.259c-0.3,2.279-1.92,3.899-4.26,4.26v2.34c2.34,0.359,3.96,1.92,4.26,4.199h17.279c0.3-2.279,1.92-3.96,4.26-4.32V32.156z
		 M27.839,36.956c-2.16,0-3.66-1.5-3.66-3.601c0-2.159,1.5-3.6,3.66-3.6c2.22,0,3.659,1.44,3.659,3.6
		C31.498,35.516,29.999,36.956,27.839,36.956z M27.839,31.676c-1.08,0-1.74,0.6-1.74,1.68c0,1.021,0.66,1.681,1.74,1.681
		s1.739-0.66,1.739-1.681C29.579,32.276,28.979,31.676,27.839,31.676z"/>
</g>
</svg>
