<?xml version="1.0" encoding="utf-8"?>
<!-- Generator: Adobe Illustrator 22.0.1, SVG Export Plug-In . SVG Version: 6.00 Build 0)  -->
<svg version="1.1" id="ICONS" xmlns="http://www.w3.org/2000/svg" x="0px"
	 y="0px"
	 viewBox="0 0 60 60" style="enable-background:new 0 0 60 60;" xml:space="preserve">
<g>
	<path d="M41.458,44.095c-1.859,4.62-6.54,7.32-12.539,7.32c-8.58,0-13.92-5.34-13.92-13.92c0-6.84,3.36-11.699,9.3-13.319
		l0.479,1.979c-4.919,1.44-7.68,5.521-7.68,11.34c0,7.32,4.5,11.88,11.82,11.88c6.06,0,9.899-2.7,11.699-8.28L41.458,44.095z
		 M25.739,10.257c2.101,0,3.42,1.319,3.42,3.42c0,2.1-1.319,3.42-3.42,3.42c-2.1,0-3.419-1.32-3.419-3.42
		C22.32,11.577,23.639,10.257,25.739,10.257z M25.739,12.117c-1.02,0-1.499,0.54-1.499,1.561c0,1.02,0.479,1.56,1.499,1.56
		c1.021,0,1.5-0.54,1.5-1.56C27.239,12.657,26.759,12.117,25.739,12.117z M28.199,31.376l-2.819-11.76l2.04-0.48l2.819,11.64
		c0.3,1.2,0.84,1.56,2.22,1.261l5.58-1.201c2.94-0.659,4.14,0,4.86,2.701l3.539,12.959l-1.979,0.6l-3.54-12.959
		c-0.3-1.141-1.02-1.561-2.279-1.26l-5.58,1.26C30.179,34.796,28.859,34.016,28.199,31.376z"/>
</g>
</svg>
