<?xml version="1.0" encoding="utf-8"?>
<!-- Generator: Adobe Illustrator 22.0.1, SVG Export Plug-In . SVG Version: 6.00 Build 0)  -->
<svg version="1.1" id="ICONS" xmlns="http://www.w3.org/2000/svg" x="0px"
	 y="0px"
	 viewBox="0 0 60 60" style="enable-background:new 0 0 60 60;" xml:space="preserve">
<g>
	<path d="M17.159,12.837c0-2.88,1.38-4.26,4.26-4.26h17.16c2.88,0,4.26,1.38,4.26,4.26v32.159c0,2.88-1.38,4.26-4.26,4.26h-17.16
		c-2.88,0-4.26-1.38-4.26-4.26V12.837z M21.418,47.216h17.16c1.56,0,2.159-0.66,2.159-2.22V12.837c0-1.56-0.6-2.22-2.159-2.22
		h-17.16c-1.56,0-2.159,0.66-2.159,2.22v32.159C19.259,46.556,19.859,47.216,21.418,47.216z M21.479,14.997h17.1v25.619h-17.1
		V14.997z M36.478,38.577V17.038H23.519v21.539H36.478z M31.558,43.856c0,1.08-0.42,1.561-1.56,1.561c-1.08,0-1.56-0.48-1.56-1.561
		c0-1.14,0.479-1.56,1.56-1.56C31.138,42.296,31.558,42.716,31.558,43.856z"/>
</g>
</svg>
