<?xml version="1.0" encoding="utf-8"?>
<!-- Generator: Adobe Illustrator 22.0.1, SVG Export Plug-In . SVG Version: 6.00 Build 0)  -->
<svg version="1.1" id="ICONS" xmlns="http://www.w3.org/2000/svg" x="0px"
     y="0px"
     viewBox="0 0 60 60" style="enable-background:new 0 0 60 60;" xml:space="preserve">
<g>
	<path d="M29.998,47.156c-9,0-15.18-4.8-16.739-12.839c-1.08,2.94-1.44,4.2-2.1,6.42l-1.8-0.48c1.02-3.24,1.8-5.4,3.359-9l1.74-0.24
		c3.42,2.64,5.039,3.9,7.079,5.76l-1.26,1.38c-1.92-1.68-3.42-2.94-5.159-4.32c1.739,7.26,6.959,11.28,14.879,11.28
		c7.2,0,12.359-3.42,14.279-9.42l1.98,0.72C43.978,43.197,38.038,47.156,29.998,47.156z M45.538,28.977
		c-3.06-2.34-4.8-3.72-7.079-5.76l1.26-1.38c1.92,1.68,3.42,2.94,5.16,4.32c-1.74-7.26-6.96-11.279-14.88-11.279
		c-7.199,0-12.359,3.42-14.279,9.419l-1.98-0.72c2.28-6.779,8.22-10.739,16.26-10.739c9,0,15.18,4.8,16.739,12.839
		c1.08-3,1.44-4.26,2.1-6.419l1.801,0.479c-1.021,3.3-1.86,5.52-3.36,9L45.538,28.977z"/>
</g>
</svg>
