<?xml version="1.0" encoding="utf-8"?>
<!-- Generator: Adobe Illustrator 22.0.1, SVG Export Plug-In . SVG Version: 6.00 Build 0)  -->
<svg version="1.1" id="ICONS" xmlns="http://www.w3.org/2000/svg" x="0px"
     y="0px"
     viewBox="0 0 60 60" style="enable-background:new 0 0 60 60;" xml:space="preserve">
<g>
	<path d="M6.482,19.257c0-2.88,1.379-4.26,4.26-4.26h38.518c2.88,0,4.26,1.38,4.26,4.26v19.259c0,2.88-1.38,4.26-4.26,4.26H31.02
		v4.44c4.261,0.06,9.239,0.6,13.919,1.56v2.04c-4.619-0.96-10.379-1.56-14.939-1.56c-4.68,0-10.318,0.6-14.998,1.56v-2.04
		c4.319-0.96,9.359-1.5,13.919-1.56v-4.44H10.742c-2.881,0-4.26-1.38-4.26-4.26V19.257z M10.742,40.737h38.518
		c1.561,0,2.16-0.66,2.16-2.221V19.257c0-1.56-0.6-2.22-2.16-2.22H10.742c-1.561,0-2.16,0.66-2.16,2.22v19.259
		C8.581,40.077,9.181,40.737,10.742,40.737z"/>
</g>
</svg>
