<?xml version="1.0" encoding="utf-8"?>
<!-- Generator: Adobe Illustrator 22.0.1, SVG Export Plug-In . SVG Version: 6.00 Build 0)  -->
<svg version="1.1" id="ICONS" xmlns="http://www.w3.org/2000/svg" x="0px"
     y="0px"
     viewBox="0 0 60 60" style="enable-background:new 0 0 60 60;" xml:space="preserve">
<g>
	<path d="M13.799,32.276l-6.06,12.96c1.92-1.08,3.36-2.04,5.76-3.66l1.08,1.5c-3.3,2.04-5.64,3.359-8.159,4.68l-1.44-0.72
		c-0.72-2.761-1.2-5.28-1.8-9.18l1.86-0.181c0.359,2.94,0.539,4.62,0.96,6.84l5.939-13.139L13.799,32.276z M27.179,25.376
		c-0.96-1.62-2.46-2.58-4.5-2.58c-3.12,0-5.64,2.279-5.64,5.22c0,1.021,0.24,2.04,0.96,3.36l1.32,2.34l-1.74,1.02l-1.44-2.64
		c-0.84-1.5-1.199-2.76-1.199-4.021c0-4.079,3.479-7.379,7.56-7.379c2.88,0,4.92,1.14,6.3,3.42l0.72,1.199l-0.96,2.461
		L27.179,25.376z M18.36,17.577l6.119-13.02c-1.979,1.14-3.359,2.04-5.819,3.72l-1.08-1.56c3.359-2.101,5.58-3.36,8.159-4.62
		l1.44,0.66c0.66,2.76,1.2,5.34,1.8,9.18l-1.859,0.24c-0.36-2.94-0.54-4.68-0.96-6.9l-5.94,13.199L18.36,17.577z M25.679,41.396
		l-5.7-10.5c-0.479-0.84-0.779-1.74-0.779-2.58c0-2.16,1.5-3.479,3.54-3.479c1.5,0,2.46,0.601,3.359,2.159l3,5.34l6.66-18.238
		c0.6-1.62,1.8-2.461,3.3-2.461c1.979,0,3.6,1.621,3.6,3.36c0,0.78-0.18,1.2-0.42,1.8l-2.4,6.48h0.061
		c1.859,0,3.479,1.56,3.479,3.42c0,0.18,0,0.359-0.06,0.539c0.18-0.06,0.42-0.06,0.6-0.06c1.74,0,3.24,1.5,3.24,3.239
		c0,0.121,0,0.301-0.061,0.42h0.24c1.92,0,3.54,1.32,3.54,3.601c0,0.54-0.12,1.14-0.36,1.92l-1.2,3.479
		c-1.439,4.2-2.76,6.48-4.38,8.1c-0.72,0.721-1.619,1.381-2.76,1.92l-1.439,0.84l-1.5,4.021l-1.98-0.601l1.681-4.859l1.8-0.9
		c0.899-0.479,1.5-0.959,2.76-2.1c1.439-1.439,2.52-3.359,3.54-6.3l1.62-4.62c0.119-0.359,0.18-0.66,0.18-0.959
		c0-0.961-0.66-1.561-1.68-1.561c-0.181,0-0.42,0-0.66,0.061l-1.32-1.32c0.061-0.24,0.12-0.48,0.12-0.66
		c0-1.14-1.02-1.859-1.8-1.859c-0.24,0-0.48,0-0.78,0.06l-1.319-1.26c0.06-0.24,0.12-0.479,0.12-0.66
		c0-1.14-1.141-2.101-2.101-2.101c-0.24,0-0.42,0-0.66,0.061l-1.319-1.26l2.819-7.74c0.24-0.6,0.301-0.84,0.301-1.08
		c0-0.779-0.721-1.379-1.5-1.379c-0.54,0-0.9,0.24-1.2,1.02l-7.859,21.119l-1.92-0.779l-3.721-6.9c-0.479-0.9-0.96-1.26-1.68-1.26
		c-0.78,0-1.38,0.54-1.38,1.439c0,0.54,0.24,1.2,0.6,1.801l5.94,10.739l0.3,6.239l-2.1,0.301L25.679,41.396z M44.338,17.157
		c0.42-1.14,0.54-1.74,0.54-2.58c0-2.46-2.88-5.1-5.939-5.1c-2.101,0-4.021,1.26-4.92,3.659l-1.08,2.94l-1.92-0.66l1.2-3.18
		c1.199-3.239,3.72-4.8,6.659-4.8c4.38,0,8.1,3.42,8.1,7.199c0,0.961-0.18,1.86-0.659,3.061l-1.08,2.82l-1.92-0.721L44.338,17.157z"
    />
</g>
</svg>
