<?xml version="1.0" encoding="utf-8"?>
<!-- Generator: Adobe Illustrator 22.0.1, SVG Export Plug-In . SVG Version: 6.00 Build 0)  -->
<svg version="1.1" id="ICONS" xmlns="http://www.w3.org/2000/svg" x="0px"
	 y="0px"
	 viewBox="0 0 60 60" style="enable-background:new 0 0 60 60;" xml:space="preserve">
<g>
	<path d="M39.119,22.437c0-6.42-3.12-9.66-9.36-9.66c-6.42,0-9.479,3.359-9.479,10.5c-4.56,0-7.44,2.16-7.44,5.639
		c0,2.641,1.68,4.621,4.32,5.221l-0.72,1.979c-3.42-0.899-5.7-3.6-5.7-7.2c0-4.079,2.88-7.02,7.5-7.559
		c0.42-6.78,4.62-10.62,11.519-10.62c6.66,0,10.979,3.66,11.399,9.72c5.04,0.3,8.1,3.3,8.1,7.979c0,3.899-2.159,6.72-5.76,7.62
		l-0.659-1.98c2.64-0.72,4.319-2.819,4.319-5.64C47.158,24.537,44.338,22.437,39.119,22.437z M15.059,38.576l2.1,0.42l-1.92,8.64
		l-2.1-0.42L15.059,38.576z M24.359,28.915c0,1.201-0.6,1.86-1.86,1.86c-1.199,0-1.859-0.659-1.859-1.86
		c0-1.26,0.66-1.859,1.859-1.859C23.759,27.056,24.359,27.656,24.359,28.915z M24.359,37.675c0,1.201-0.6,1.86-1.86,1.86
		c-1.199,0-1.859-0.659-1.859-1.86c0-1.26,0.66-1.859,1.859-1.859C23.759,35.816,24.359,36.415,24.359,37.675z M23.579,44.935
		l2.101,0.42l-1.32,6.061l-2.1-0.42L23.579,44.935z M31.859,25.676c0,1.2-0.601,1.86-1.86,1.86c-1.2,0-1.86-0.66-1.86-1.86
		c0-1.26,0.66-1.86,1.86-1.86C31.258,23.816,31.859,24.416,31.859,25.676z M31.859,33.296c0,1.199-0.601,1.859-1.86,1.859
		c-1.2,0-1.86-0.66-1.86-1.859c0-1.26,0.66-1.86,1.86-1.86C31.258,31.436,31.859,32.037,31.859,33.296z M31.859,40.915
		c0,1.2-0.601,1.86-1.86,1.86c-1.2,0-1.86-0.66-1.86-1.86c0-1.26,0.66-1.859,1.86-1.859C31.258,39.056,31.859,39.656,31.859,40.915z
		 M34.319,44.935l2.1,0.42l-1.32,6.061l-2.1-0.42L34.319,44.935z M39.358,28.915c0,1.201-0.6,1.86-1.859,1.86
		c-1.2,0-1.86-0.659-1.86-1.86c0-1.26,0.66-1.859,1.86-1.859C38.758,27.056,39.358,27.656,39.358,28.915z M39.358,37.675
		c0,1.201-0.6,1.86-1.859,1.86c-1.2,0-1.86-0.659-1.86-1.86c0-1.26,0.66-1.859,1.86-1.859
		C38.758,35.816,39.358,36.415,39.358,37.675z M42.898,38.576l2.1,0.42l-1.92,8.64l-2.1-0.42L42.898,38.576z"/>
</g>
</svg>
