<?xml version="1.0" encoding="utf-8"?>
<!-- Generator: Adobe Illustrator 22.0.1, SVG Export Plug-In . SVG Version: 6.00 Build 0)  -->
<svg version="1.1" id="ICONS" xmlns="http://www.w3.org/2000/svg" x="0px"
     y="0px"
     viewBox="0 0 60 60" style="enable-background:new 0 0 60 60;" xml:space="preserve">
<g>
	<path d="M4.32,32.755c0-2.939,0.181-3.359,3.12-6.839c3-3.601,4.439-4.44,7.62-4.44h7.619c3.3,0,5.16,0.601,7.979,2.461l4.561,3.42
		l2.939,0.719c3.18,0.721,4.68,2.58,4.68,5.641c0,1.5-0.42,2.819-1.2,3.899l-1.68-1.2c0.601-0.899,0.78-1.56,0.78-2.699
		c0-2.1-1.08-3.24-3.78-3.9l-2.939-0.72l-4.44-3.36c-2.159-1.619-4.02-2.219-6.899-2.219H15.06c-2.46,0-3.36,0.6-6.12,3.899
		c-2.4,2.939-2.52,3.239-2.52,5.64v1.26c0,0.9,0.18,1.439,0.72,1.98L5.7,37.616c-0.96-0.84-1.38-1.86-1.38-3.3V32.755z
		 M30.059,36.415c0-2.52,1.74-4.199,4.26-4.199c2.58,0,4.26,1.68,4.26,4.199c0,2.521-1.74,4.2-4.26,4.2c-1.74,0-3.12-0.84-3.78-2.16
		H16.679c-0.659,1.32-2.039,2.16-3.779,2.16c-2.521,0-4.26-1.739-4.26-4.2c0-2.52,1.739-4.199,4.26-4.199
		c2.58,0,4.26,1.68,4.26,4.199H30.059z M12.9,34.196c-1.38,0-2.28,0.841-2.28,2.22c0,1.32,0.9,2.221,2.28,2.221
		s2.279-0.84,2.279-2.221C15.179,35.037,14.339,34.196,12.9,34.196z M34.319,34.196c-1.38,0-2.28,0.841-2.28,2.22
		c0,1.32,0.9,2.221,2.28,2.221s2.28-0.84,2.28-2.221C36.599,35.037,35.759,34.196,34.319,34.196z M42.838,38.636h2.1v2.039h-2.1
		V38.636z M51.418,29.876c-2.76-0.42-4.32-2.28-4.32-5.28c0-3.3,2.04-5.34,5.4-5.34c3.3,0,5.34,2.04,5.34,5.34
		c0,3-1.561,4.92-4.32,5.28v10.799h-2.1V29.876z M47.159,38.636h2.1v2.039h-2.1V38.636z M52.498,21.296c-2.101,0-3.36,1.26-3.36,3.3
		s1.26,3.3,3.36,3.3c2.039,0,3.3-1.26,3.3-3.3S54.538,21.296,52.498,21.296z"/>
</g>
</svg>
