<?xml version="1.0" encoding="utf-8"?>
<!-- Generator: Adobe Illustrator 22.0.1, SVG Export Plug-In . SVG Version: 6.00 Build 0)  -->
<svg version="1.1" id="ICONS" xmlns="http://www.w3.org/2000/svg" x="0px"
     y="0px"
     viewBox="0 0 60 60" style="enable-background:new 0 0 60 60;" xml:space="preserve">
<g>
	<path d="M7.02,16.916c1.8,1.32,3.24,2.22,5.76,3.72l-0.96,1.62c-3.24-2.159-5.399-3.72-7.62-5.46v-1.619
		c2.221-1.801,4.32-3.301,7.62-5.461l0.96,1.621c-2.52,1.5-3.96,2.399-5.76,3.719l14.34-0.119l14.339,0.119
		c-1.8-1.319-3.24-2.219-5.76-3.719l0.96-1.621c3.3,2.16,5.399,3.66,7.62,5.461v1.619c-2.221,1.74-4.38,3.301-7.62,5.46l-0.96-1.62
		c2.52-1.5,3.96-2.399,5.76-3.72l-14.339,0.12L7.02,16.916z M17.759,30.776c-1.5-1.499-3.359-1.92-5.46-1.2
		c-2.999,1.08-4.56,4.141-3.659,6.66c0.359,0.9,0.84,1.68,1.5,2.34l2.1,2.1l-1.5,1.5l-2.28-2.279c-0.84-0.84-1.319-1.74-1.8-2.939
		c-1.319-3.601,0.9-7.86,4.92-9.24c2.7-0.96,5.58-0.42,7.68,1.68l2.22,2.221l-1.439,1.439L17.759,30.776z M40.079,51.236
		c0.78-0.601,1.08-1.08,0.96-1.801c-0.12-0.66-0.6-1.08-1.32-1.38l-0.359-1.86c0.66-0.539,0.899-1.139,0.779-1.859
		c-0.119-0.779-0.6-1.26-1.38-1.5l-0.3-1.92c0.601-0.6,0.84-1.14,0.72-1.979c-0.119-0.841-0.6-1.38-1.38-1.62l-0.3-1.859l6.96-4.98
		c0.479-0.359,0.78-0.66,0.78-1.199c0-0.66-0.601-1.44-1.261-1.44c-0.479,0-0.779,0.18-1.199,0.479L23.58,42.236l-7.92-7.92
		c-0.72-0.72-1.2-0.84-1.74-0.84c-0.72,0-1.319,0.6-1.319,1.38c0,0.54,0.12,0.899,0.96,1.739l7.079,7.08l1.561,6l-1.98,0.721
		l-1.5-5.641l-6.779-6.779c-1.021-1.02-1.44-2.04-1.44-3.061c0-1.92,1.62-3.479,3.601-3.479c1.02,0,1.92,0.3,2.819,1.2l6.84,6.84
		l17.939-13.02c0.66-0.48,1.38-0.721,2.1-0.721c1.86,0,3.42,1.561,3.42,3.48c0,1.199-0.6,2.279-1.56,2.939l-5.88,4.2
		c0.66,0.54,1.2,1.319,1.38,2.22c0.24,1.2-0.12,2.16-0.84,2.939c0.899,0.48,1.56,1.44,1.8,2.461c0.18,1.02-0.12,1.979-0.72,2.699
		c0.899,0.54,1.5,1.439,1.68,2.58c0.24,1.38-0.42,2.699-2.04,3.84l-3.06,2.22l-1.86-1.079L40.079,51.236z M47.159,33.656
		c1.439-1.02,2.22-2.459,2.22-4.199c0-3.24-2.4-5.82-5.34-5.82c-1.021,0-2.28,0.36-3.24,1.08l-2.52,1.8l-1.2-1.68l2.7-1.979
		c1.26-0.9,2.64-1.32,4.26-1.32c4.08,0,7.439,3.6,7.439,7.8c0,2.28-1.14,4.56-3.12,5.999l-2.64,1.86l-1.2-1.68L47.159,33.656z"/>
</g>
</svg>
