<?xml version="1.0" encoding="utf-8"?>
<!-- Generator: Adobe Illustrator 22.0.1, SVG Export Plug-In . SVG Version: 6.00 Build 0)  -->
<svg version="1.1" id="ICONS" xmlns="http://www.w3.org/2000/svg" x="0px"
     y="0px"
     viewBox="0 0 60 60" style="enable-background:new 0 0 60 60;" xml:space="preserve">
<g>
	<path d="M11.76,40.737h-2.1v-1.26c0-5.879,2.16-9.419,6.6-10.739c-1.56-1.08-2.34-2.82-2.34-5.1c0-3.959,2.46-6.419,6.42-6.419
		s6.42,2.46,6.42,6.419c0,2.22-0.78,3.96-2.28,5.04c2.64,0.78,4.56,2.28,5.58,4.92c0.96-2.64,2.88-4.14,5.52-4.92
		c-1.5-1.08-2.279-2.82-2.279-5.04c0-3.959,2.459-6.419,6.419-6.419s6.42,2.46,6.42,6.419c0,2.28-0.78,4.02-2.34,5.1
		c4.439,1.32,6.6,4.86,6.6,10.739v1.26h-2.1v-1.26c0-6.3-2.82-9.419-8.58-9.419c-5.88,0-8.64,3.06-8.64,9.419v1.26h-2.1v-1.26
		c0-6.359-2.76-9.419-8.64-9.419c-5.76,0-8.58,3.12-8.58,9.419V40.737z M24.661,23.637c0-2.76-1.561-4.379-4.32-4.379
		s-4.319,1.62-4.319,4.379c0,2.76,1.56,4.38,4.319,4.38S24.661,26.397,24.661,23.637z M44.039,23.637c0-2.76-1.561-4.379-4.32-4.379
		s-4.319,1.62-4.319,4.379c0,2.76,1.56,4.38,4.319,4.38S44.039,26.397,44.039,23.637z"/>
</g>
</svg>
