<?xml version="1.0" encoding="utf-8"?>
<!-- Generator: Adobe Illustrator 22.0.1, SVG Export Plug-In . SVG Version: 6.00 Build 0)  -->
<svg version="1.1" id="ICONS" xmlns="http://www.w3.org/2000/svg" x="0px"
	 y="0px"
	 viewBox="0 0 60 60" style="enable-background:new 0 0 60 60;" xml:space="preserve">
<g>
	<path d="M44.879,19.796c-3.899-3.119-10.079-4.92-17.039-4.92c-6.84,0-13.02,1.74-17.039,4.92c1.92,5.04,3.96,9.779,6.12,14.16
		c1.02-0.36,1.739-0.541,2.34-0.721l0.72,1.92c-1.56,0.36-2.88,0.721-4.08,1.141c-2.88-5.7-5.34-11.4-7.38-17.1
		c4.38-4.02,11.58-6.359,19.319-6.359c7.86,0,15,2.34,19.319,6.359c-0.96,2.64-1.859,4.92-2.76,7.02c-0.6-0.18-1.26-0.3-1.92-0.359
		C43.38,23.636,44.22,21.657,44.879,19.796z M18.54,19.197c1.801,4.619,3.48,8.939,4.98,13.319c1.5-0.181,2.939-0.24,4.319-0.24
		h1.44c-0.24,0.479-0.48,1.021-0.84,2.101H27.84c-1.38,0-2.58,0.06-3.659,0.119c0.42,1.26,0.84,2.521,1.26,3.78l-1.98,0.72
		c-1.979-6.18-4.199-12.299-6.959-19.079L18.54,19.197z M26.76,19.916l2.04-0.72c2.94,7.739,2.76,7.319,3.48,9.299
		c-0.601,0.48-1.141,1.021-1.62,1.621C29.58,27.056,28.38,23.876,26.76,19.916z M40.74,49.195c-6.539,0-10.68-4.139-10.68-10.68
		c0-6.6,4.141-10.679,10.68-10.679c6.6,0,10.68,4.079,10.68,10.679C51.419,45.116,47.339,49.195,40.74,49.195z M40.74,47.156
		c5.34,0,8.58-3.24,8.58-8.641c0-5.398-3.24-8.639-8.58-8.639s-8.579,3.24-8.579,8.639C32.161,43.915,35.4,47.156,40.74,47.156z
		 M41.16,42.716h-2.1c-1.32-1.86-1.979-2.94-2.82-4.261l1.801-1.02c0.659,1.079,1.319,2.1,2.039,3.18c1.32-2.04,2.4-4.021,3.78-6.54
		l1.8,1.021C43.919,38.216,42.9,39.956,41.16,42.716z"/>
</g>
</svg>
