<?xml version="1.0" encoding="utf-8"?>
<!-- Generator: Adobe Illustrator 22.0.1, SVG Export Plug-In . SVG Version: 6.00 Build 0)  -->
<svg version="1.1" id="ICONS" xmlns="http://www.w3.org/2000/svg" x="0px"
	 y="0px"
	 viewBox="0 0 60 60" style="enable-background:new 0 0 60 60;" xml:space="preserve">
<g>
	<path d="M11.22,25.556c-2.94-1.8-4.62-4.74-4.62-8.1c0-3.779,2.52-7.439,7.08-10.319c-2.761,0.18-4.141,0.36-6.42,0.899L7.02,6.297
		c2.28-0.48,4.14-0.601,8.52-0.601l0.9,1.08c-0.601,3.301-1.021,5.1-1.92,8.22l-1.681-0.479c0.9-2.58,1.2-3.54,1.801-6.12
		c-3.78,2.521-6.12,5.94-6.12,9.06c0,2.641,1.32,5.04,3.54,6.359L11.22,25.556z M17.82,25.556c0.6-1.199,2.04-2.1,3.359-2.1
		c1.86,0,3.42,1.5,3.42,3.3c0,0.601-0.12,1.14-0.42,1.739l-7.14,15.42l3.12-2.34c0.84-0.66,1.68-0.96,2.52-0.96
		c1.86,0,3.36,1.56,3.36,3.42c0,1.021-0.66,2.22-1.681,2.94L10.86,57.115l-2.34,4.92l-1.86-0.84l2.46-5.34l13.8-10.319
		c0.78-0.601,1.02-0.96,1.02-1.56c0-0.84-0.479-1.32-1.319-1.32c-0.36,0-0.721,0.18-1.26,0.54l-6.061,4.38l-1.859-0.84l8.819-19.14
		c0.18-0.36,0.24-0.601,0.24-0.899c0-0.721-0.66-1.26-1.44-1.26c-0.6,0-1.02,0.359-1.319,1.02l-4.8,10.079l-1.8-0.96L17.82,25.556z
		 M12.959,26.396l1.38-2.879c1.261-2.641,3.78-4.261,6.6-4.261c4.32,0,7.8,3.181,7.8,7.08c0,1.26-0.239,2.34-0.72,3.36l-1.439,3.059
		l-1.801-0.899l1.32-2.819c0.36-0.78,0.54-1.74,0.54-2.7c0-2.819-2.52-5.04-5.7-5.04c-2.22,0-3.84,1.08-4.739,3l-1.38,2.939
		L12.959,26.396z M40.319,12.897c-0.9-1.92-2.521-3-4.74-3c-3.18,0-5.699,2.22-5.699,5.04c0,0.96,0.18,1.92,0.54,2.699l1.319,2.82
		l-1.8,0.9l-1.439-3.061c-0.48-1.02-0.721-2.1-0.721-3.359c0-3.9,3.48-7.08,7.8-7.08c2.82,0,5.34,1.62,6.6,4.26l1.38,2.88
		l-1.859,0.841L40.319,12.897z M41.878,25.796l-5.1-10.74c-0.36-0.719-0.78-1.02-1.32-1.02c-0.779,0-1.439,0.54-1.439,1.26
		c0,0.301,0.06,0.541,0.24,0.9l8.819,19.139l-1.86,0.84l-6.06-4.319c-0.6-0.42-0.96-0.6-1.26-0.6c-0.78,0-1.32,0.479-1.32,1.319
		c0,0.601,0.24,0.961,1.021,1.561l13.799,10.319l2.46,5.34l-1.859,0.84l-2.34-4.92l-13.5-10.14c-1.02-0.72-1.68-1.92-1.68-2.939
		c0-1.86,1.5-3.42,3.36-3.42c0.84,0,1.68,0.3,2.52,0.96l3.12,2.34l-7.14-15.419c-0.301-0.601-0.42-1.141-0.42-1.74
		c0-1.801,1.56-3.3,3.419-3.3c1.44,0,2.761,0.78,3.36,2.1l5.04,10.68L41.878,25.796z M37.319,0.177c7.02,0,11.459,3.54,13.439,10.68
		c0.479-1.98,0.78-3.42,1.32-6.18l1.68,0.359c-0.72,3.301-1.2,4.92-2.34,8.221l-1.38,0.479c-2.58-1.56-4.021-2.521-7.021-4.68
		l1.021-1.38c1.979,1.619,2.76,2.22,5.1,3.84c-2.04-6.6-5.699-9.48-11.819-9.48h-0.78V0.177H37.319z"/>
</g>
</svg>
