<?xml version="1.0" encoding="utf-8"?>
<!-- Generator: Adobe Illustrator 22.0.1, SVG Export Plug-In . SVG Version: 6.00 Build 0)  -->
<svg version="1.1" id="ICONS" xmlns="http://www.w3.org/2000/svg" x="0px"
     y="0px"
     viewBox="0 0 60 60" style="enable-background:new 0 0 60 60;" xml:space="preserve">
<g>
	<path d="M21.12,15.777c-0.9-1.92-2.521-3-4.74-3c-3.18,0-5.699,2.22-5.699,5.04c0,0.96,0.18,1.92,0.54,2.7l1.319,2.819l-1.8,0.899
		L9.3,21.176c-0.48-1.02-0.721-2.1-0.721-3.359c0-3.899,3.48-7.08,7.8-7.08c2.82,0,5.34,1.62,6.6,4.26l1.38,2.88l-1.859,0.84
		L21.12,15.777z M40.918,28.617c1.92,3.959,2.64,6.479,2.64,8.879c0,0.78-0.18,1.801-0.54,3.24l-0.479,1.619l1.8,3.9l-1.92,0.96
		l-2.16-4.62l0.601-1.92c0.359-1.439,0.479-2.399,0.479-3.299c0-2.16-0.6-4.26-1.92-7.08l-2.16-4.439
		c-0.42-0.9-0.899-1.261-1.619-1.261c-0.66,0-1.2,0.36-1.62,1.08h-1.86c-0.42-0.72-0.96-1.08-1.739-1.08
		c-0.78,0-1.32,0.36-1.74,1.08h-1.86c-0.42-0.72-1.02-1.08-1.859-1.08s-1.44,0.36-1.86,1.08H21.24l-3.66-7.739
		c-0.3-0.66-0.72-1.021-1.32-1.021c-0.779,0-1.439,0.54-1.439,1.261c0,0.299,0.06,0.539,0.24,0.899l8.819,19.14l-1.86,0.84l-6.3-4.5
		c-0.3-0.301-0.659-0.42-1.02-0.42c-0.78,0-1.32,0.479-1.32,1.32c0,0.6,0.24,0.959,1.021,1.56l13.799,10.319l2.46,5.34l-1.859,0.84
		l-2.34-4.92l-13.5-10.14c-1.02-0.72-1.68-1.92-1.68-2.939c0-1.86,1.5-3.42,3.36-3.42c0.84,0,1.68,0.3,2.52,0.96l3.12,2.34
		l-7.14-15.42c-0.301-0.6-0.42-1.14-0.42-1.739c0-1.8,1.56-3.3,3.419-3.3c1.44,0,2.761,0.84,3.36,2.1l3,6.54
		c0.66-0.66,1.5-1.021,2.46-1.021c1.14,0,2.16,0.48,2.76,1.381c0.66-0.9,1.62-1.381,2.7-1.381c1.02,0,1.92,0.42,2.579,1.26
		c0.66-0.84,1.681-1.26,2.761-1.26c1.439,0,2.64,0.9,3.479,2.641L40.918,28.617z M45.958,17.997l-0.96-1.62
		c2.52-1.5,3.96-2.399,5.76-3.72l-14.34,0.12v-2.1l14.34,0.119c-1.8-1.319-3.24-2.219-5.76-3.719l0.96-1.621
		c3.24,2.16,5.399,3.721,7.619,5.461v1.619C51.358,14.337,49.258,15.837,45.958,17.997z"/>
</g>
</svg>
