<?xml version="1.0" encoding="utf-8"?>
<!-- Generator: Adobe Illustrator 22.0.1, SVG Export Plug-In . SVG Version: 6.00 Build 0)  -->
<svg version="1.1" id="ICONS" xmlns="http://www.w3.org/2000/svg" x="0px"
	 y="0px"
	 viewBox="0 0 60 60" style="enable-background:new 0 0 60 60;" xml:space="preserve">
<g>
	<path d="M29.999,12.837c10.561,0,17.221,6.659,17.221,17.158c0,10.439-6.721,17.16-17.221,17.16
		c-10.499,0-17.219-6.721-17.219-17.16C12.781,19.497,19.5,12.837,29.999,12.837z M29.999,14.876
		c-9.359,0-15.119,5.76-15.119,15.119c0,9.301,5.82,15.12,15.119,15.12c9.36,0,15.12-5.819,15.12-15.12
		C45.12,20.636,39.36,14.876,29.999,14.876z M22.32,21.416l5.281,3.06v1.26c0,1.2-0.601,1.86-1.861,1.86
		c-1.199,0-1.859-0.66-1.859-1.86c0-0.359,0.061-0.72,0.18-0.959l-2.76-1.621L22.32,21.416z M36.36,37.796l-1.92,0.719
		c-1.079-3.059-2.399-4.319-4.44-4.319c-2.039,0-3.359,1.261-4.439,4.319l-1.92-0.719c1.26-3.78,3.36-5.641,6.359-5.641
		C32.999,32.156,35.1,34.016,36.36,37.796z M35.94,24.777c0.12,0.239,0.181,0.6,0.181,0.959c0,1.2-0.601,1.86-1.86,1.86
		c-1.2,0-1.86-0.66-1.86-1.86v-1.26l5.279-3.06l1.021,1.739L35.94,24.777z"/>
</g>
</svg>
