<?xml version="1.0" encoding="utf-8"?>
<!-- Generator: Adobe Illustrator 22.0.1, SVG Export Plug-In . SVG Version: 6.00 Build 0)  -->
<svg version="1.1" id="ICONS" xmlns="http://www.w3.org/2000/svg" x="0px"
     y="0px"
     viewBox="0 0 60 60" style="enable-background:new 0 0 60 60;" xml:space="preserve">
<g>
	<path d="M7.561,41.336l-0.54-1.5l1.5-1.26h2.221v-19.26c0-2.88,1.379-4.26,4.26-4.26h29.998c2.88,0,4.26,1.38,4.26,4.26v19.26
		h2.221l1.5,1.26l-0.541,1.5c-1.02,2.76-2.039,3.6-4.319,3.6H11.88C9.601,44.936,8.581,44.096,7.561,41.336z M48.12,42.896
		c1.2,0,1.8-0.42,2.22-1.56l0.301-0.78H9.361l0.301,0.78c0.42,1.14,1.02,1.56,2.219,1.56H48.12z M44.939,38.577h2.221v-19.26
		c0-1.56-0.6-2.22-2.16-2.22H15.001c-1.561,0-2.16,0.66-2.16,2.22v19.26h2.22v-19.26h29.878V38.577z M17.161,38.577H42.9v-17.22
		H17.161V38.577z"/>
</g>
</svg>
