<?xml version="1.0" encoding="utf-8"?>
<!-- Generator: Adobe Illustrator 22.0.1, SVG Export Plug-In . SVG Version: 6.00 Build 0)  -->
<svg version="1.1" id="ICONS" xmlns="http://www.w3.org/2000/svg" x="0px"
	 y="0px"
	 viewBox="0 0 60 60" style="enable-background:new 0 0 60 60;" xml:space="preserve">
<g>
	<path d="M47.1,51.415H12.841l4.319-29.939h11.82v-4.26h2.1v4.26H42.78L47.1,51.415z M44.58,49.375l-0.96-6.54H16.321l-0.96,6.54
		H44.58z M19.08,23.517l-2.46,17.279H43.32l-2.46-17.279H19.08z M33.6,20.097l-1.319-1.561c1.319-1.08,1.979-2.34,1.979-3.84
		c0-2.34-1.56-4.02-4.26-4.02c-2.82,0-4.26,1.68-4.26,4.02c0,1.439,0.66,2.76,2.04,3.84l-1.32,1.561
		c-1.74-1.141-2.88-3.301-2.88-5.4c0-3.54,2.4-6.119,6.42-6.119c3.96,0,6.42,2.579,6.42,6.119
		C36.42,16.857,35.28,19.017,33.6,20.097z"/>
</g>
</svg>
