<?xml version="1.0" encoding="utf-8"?>
<!-- Generator: Adobe Illustrator 22.0.1, SVG Export Plug-In . SVG Version: 6.00 Build 0)  -->
<svg version="1.1" id="ICONS" xmlns="http://www.w3.org/2000/svg" x="0px"
     y="0px"
     viewBox="0 0 60 60" style="enable-background:new 0 0 60 60;" xml:space="preserve">
<g>
	<path d="M30,12.837c10.56,0,17.22,6.659,17.22,17.158c0,10.439-6.72,17.16-17.22,17.16s-17.22-6.721-17.22-17.16
		C12.781,19.497,19.5,12.837,30,12.837z M44.64,25.676h-1.8c-0.24,4.319-2.16,6.42-5.82,6.42s-5.399-1.56-6.779-6.42h-0.48
		c-1.38,4.86-3.12,6.42-6.779,6.42c-3.72,0-5.58-2.101-5.82-6.42h-1.8c-0.3,1.319-0.479,2.76-0.479,4.319
		c0,9.301,5.819,15.12,15.119,15.12c9.359,0,15.119-5.819,15.119-15.12C45.12,28.436,44.94,26.996,44.64,25.676z M16.021,23.517
		H43.98c-2.04-5.461-7.02-8.641-13.979-8.641S18.061,18.056,16.021,23.517z M23.641,35.037l1.92-0.721
		c1.14,3.18,2.34,4.32,4.439,4.32s3.3-1.141,4.439-4.32l1.92,0.721c-1.38,3.84-3.42,5.639-6.359,5.639S25.021,38.876,23.641,35.037z
		"/>
</g>
</svg>
