<?xml version="1.0" encoding="utf-8"?>
<!-- Generator: Adobe Illustrator 22.0.1, SVG Export Plug-In . SVG Version: 6.00 Build 0)  -->
<svg version="1.1" id="ICONS" xmlns="http://www.w3.org/2000/svg" x="0px"
     y="0px"
     viewBox="0 0 60 60" style="enable-background:new 0 0 60 60;" xml:space="preserve">
<g>
	<path d="M25.679,49.316c-2.04,0-3.181-1.14-3.181-2.82c-3.779-1.26-6.06-4.02-6.419-7.92c-3.301-0.54-5.34-3.3-5.34-7.5
		c0-4.74,2.46-7.44,6.72-7.44h0.779v-0.66c0-7.8,4.38-12.18,11.76-12.18s11.76,4.38,11.76,12.18v0.66h0.779
		c4.261,0,6.78,2.76,6.78,7.44c0,4.74-2.58,7.62-6.78,7.62h-2.939V22.977c0-6.6-3.359-10.2-9.6-10.2c-6.18,0-9.659,3.66-9.659,10.2
		v15.719h-2.28c0.36,2.94,1.86,4.92,4.74,5.82c0.479-1.02,1.439-1.56,2.88-1.56c2.159,0,3.239,1.08,3.239,3.24
		C28.918,48.236,27.779,49.316,25.679,49.316z M18.239,36.657V25.677h-0.779c-3.12,0-4.62,1.8-4.62,5.4c0,3.6,1.62,5.58,4.62,5.58
		H18.239z M41.698,25.677v10.979h0.84c3.061,0,4.681-1.98,4.681-5.58c0-3.6-1.561-5.4-4.681-5.4H41.698z"/>
</g>
</svg>
