<?xml version="1.0" encoding="utf-8"?>
<!-- Generator: Adobe Illustrator 22.0.1, SVG Export Plug-In . SVG Version: 6.00 Build 0)  -->
<svg version="1.1" id="ICONS" xmlns="http://www.w3.org/2000/svg" x="0px"
	 y="0px"
	 viewBox="0 0 60 60" style="enable-background:new 0 0 60 60;" xml:space="preserve">
<g>
	<path d="M8.58,28.857c4.02-3.6,6.659-5.64,11.579-9l1.26,1.8c-4.499,3.061-6.839,4.86-10.799,8.34c3.96,3.48,6.3,5.28,10.799,8.34
		l-1.26,1.8c-4.92-3.359-7.56-5.399-11.579-8.999V28.857z M39.838,40.136l-1.26-1.8c4.499-3.06,6.839-4.859,10.799-8.34
		c-3.96-3.479-6.3-5.279-10.799-8.34l1.26-1.8c4.92,3.36,7.56,5.4,11.579,9v2.28C47.398,34.737,44.758,36.777,39.838,40.136z"/>
</g>
</svg>
