<?xml version="1.0" encoding="utf-8"?>
<!-- Generator: Adobe Illustrator 22.0.1, SVG Export Plug-In . SVG Version: 6.00 Build 0)  -->
<svg version="1.1" id="ICONS" xmlns="http://www.w3.org/2000/svg" x="0px"
	 y="0px"
	 viewBox="0 0 60 60" style="enable-background:new 0 0 60 60;" xml:space="preserve">
<g>
	<path d="M8.581,35.276v3.36c0,1.08,0.359,1.619,1.38,1.859l1.26,0.301v2.1l-1.26-0.301c-2.521-0.6-3.48-1.739-3.48-3.959v-3.301
		c0-3.06,0.24-3.719,1.86-5.34l1.02-1.02l2.101,0.6l-1.561,1.621C8.822,32.335,8.581,33.056,8.581,35.276z M12.901,21.357H8.581
		v-2.041H26.22c3.12,0,4.86-1.199,6-4.26l1.98,0.601c-1.261,3.36-3.3,5.159-6.42,5.579v2.281h-2.04v-2.16h-10.8v2.16h-2.04V21.357z
		 M34.14,29.996c-2.7-1.68-4.439-2.159-8.039-2.159h-13.32l-4.199-0.96v-1.08h17.52c4.079,0,6.119,0.54,9.06,2.34l6.06,3.72
		l7.439,1.14c2.34,0.36,3.24,0.961,4.08,2.76c0.479,1.021,0.84,2.7,0.84,3.9c0,1.859-1.08,2.939-3.18,3.24v-2.1
		c0.84-0.181,1.14-0.48,1.14-1.08c0-0.721-0.24-1.98-0.54-2.76c-0.54-1.381-1.02-1.74-2.58-1.98l-8.22-1.2L34.14,29.996z
		 M17.101,47.095c-2.52,0-4.26-1.68-4.26-4.199c0-2.461,1.74-4.2,4.26-4.2c1.74,0,3.12,0.84,3.779,2.16h19.8
		c0.66-1.32,2.04-2.16,3.779-2.16c2.521,0,4.26,1.739,4.26,4.2c0,2.52-1.739,4.199-4.26,4.199c-2.579,0-4.26-1.68-4.26-4.199H21.361
		C21.361,45.415,19.681,47.095,17.101,47.095z M17.101,40.675c-1.38,0-2.28,0.9-2.28,2.221c0,1.379,0.9,2.22,2.28,2.22
		c1.439,0,2.28-0.841,2.28-2.22C19.381,41.515,18.481,40.675,17.101,40.675z M41.34,23.096c-0.84-0.18-1.74-0.42-2.82-0.659
		l0.36-1.5c0.899,0.18,1.8,0.42,3.239,0.84l2.4-1.32l-2.4-1.38c-1.08,0.36-2.1,0.66-3.18,0.84l-0.359-1.5
		c1.079-0.239,1.979-0.42,2.76-0.659c-0.24-0.9-0.48-1.801-0.84-2.761l1.499-0.42c0.24,0.66,0.421,1.261,0.841,3.181l2.52,1.379
		v-2.819c-0.84-0.72-1.56-1.5-2.28-2.34l1.141-1.021c0.84,0.9,1.439,1.561,1.92,2.04c0.84-0.84,1.439-1.44,1.92-2.04l1.14,1.021
		c-0.6,0.659-1.26,1.38-2.34,2.399v2.76l2.52-1.379c1.08-4.08,0.66-2.58,0.9-3.181l1.439,0.42c-0.3,0.96-0.54,1.8-0.84,2.761
		c0.9,0.18,1.8,0.42,2.76,0.6l-0.359,1.5c-0.84-0.18-1.92-0.42-3.12-0.78l-2.52,1.38l2.46,1.38c0.96-0.3,1.739-0.479,3.239-0.84
		l0.36,1.5c-0.9,0.239-1.8,0.42-2.76,0.659c0.3,1.201,0.479,1.74,0.84,2.701l-1.5,0.42c-0.36-1.141-0.66-2.221-0.9-3.121
		l-2.52-1.439v2.76c1.08,1.021,1.74,1.74,2.34,2.4l-1.14,1.02c-0.48-0.6-1.08-1.199-1.92-2.039c-0.48,0.479-1.08,1.139-1.92,2.039
		l-1.141-1.02c0.721-0.84,1.44-1.62,2.28-2.34v-2.82l-2.52,1.439c-0.181,0.9-0.48,1.92-0.841,3.121l-1.499-0.42
		C40.92,24.656,41.16,23.816,41.34,23.096z M44.459,45.116c1.38,0,2.28-0.841,2.28-2.22c0-1.32-0.9-2.221-2.28-2.221
		s-2.279,0.84-2.279,2.221C42.18,44.275,43.02,45.116,44.459,45.116z"/>
</g>
</svg>
