<?xml version="1.0" encoding="utf-8"?>
<!-- Generator: Adobe Illustrator 22.0.1, SVG Export Plug-In . SVG Version: 6.00 Build 0)  -->
<svg version="1.1" id="ICONS" xmlns="http://www.w3.org/2000/svg" x="0px"
     y="0px"
     viewBox="0 0 60 60" style="enable-background:new 0 0 60 60;" xml:space="preserve">
<g>
	<path d="M47.338,39.175c0-4.439-4.38-6.719-4.38-13.259v-2.04c0-5.64-1.08-7.92-4.319-8.939v-2.04
		c4.68,0.899,7.619,4.56,8.52,10.62h-2.221v2.399c0,5.939,4.44,8.22,4.44,13.259c0,3.66-1.98,5.82-5.34,5.82
		c-3.42,0-5.399-2.16-5.399-5.82v-9.239c0-1.56-0.601-2.159-2.16-2.159h-2.22v19.379h2.159v2.039H10.68v-2.039h2.22V17.157
		c0-2.88,1.38-4.26,4.26-4.26h12.84c2.88,0,4.26,1.38,4.26,4.26v8.579h2.22c2.88,0,4.26,1.381,4.26,4.26v9.18
		c0,2.521,1.08,3.78,3.3,3.78S47.338,41.696,47.338,39.175z M29.999,14.937H17.16c-1.56,0-2.16,0.66-2.16,2.22v29.999h17.159V17.157
		C32.159,15.597,31.559,14.937,29.999,14.937z M17.219,17.216h12.78v10.561h-12.78V17.216z M27.959,25.796v-6.6h-8.7v6.6H27.959z"/>
</g>
</svg>
