<?xml version="1.0" encoding="utf-8"?>
<!-- Generator: Adobe Illustrator 22.0.1, SVG Export Plug-In . SVG Version: 6.00 Build 0)  -->
<svg version="1.1" id="ICONS" xmlns="http://www.w3.org/2000/svg" x="0px"
	 y="0px"
	 viewBox="0 0 60 60" style="enable-background:new 0 0 60 60;" xml:space="preserve">
<g>
	<path d="M10.74,37.016c0-2.94,0.18-3.36,3.12-6.84c3-3.601,4.439-4.44,7.619-4.44h7.62c3.359,0,5.22,0.601,7.979,2.461l4.56,3.42
		l2.94,0.719c3.18,0.721,4.68,2.58,4.68,5.641c0,1.5-0.42,2.82-1.2,3.899l-1.68-1.2c0.6-0.899,0.78-1.56,0.78-2.699
		c0-2.1-1.08-3.24-3.78-3.9l-2.939-0.72l-4.44-3.36c-2.159-1.619-4.02-2.219-6.899-2.219h-7.62c-2.46,0-3.359,0.6-6.119,3.899
		c-2.34,2.88-2.521,3.18-2.521,5.64v1.26c0,0.9,0.181,1.439,0.721,1.98l-1.44,1.319c-0.96-0.84-1.38-1.86-1.38-3.3V37.016z
		 M36.479,40.675c0-2.52,1.739-4.199,4.26-4.199c2.58,0,4.26,1.68,4.26,4.199c0,2.521-1.74,4.2-4.26,4.2
		c-1.74,0-3.12-0.84-3.78-2.159H23.099c-0.66,1.319-2.04,2.159-3.779,2.159c-2.521,0-4.26-1.739-4.26-4.2
		c0-2.52,1.739-4.199,4.26-4.199c2.579,0,4.26,1.68,4.26,4.199H36.479z M19.32,38.456c-1.38,0-2.28,0.841-2.28,2.22
		c0,1.32,0.9,2.221,2.28,2.221s2.279-0.84,2.279-2.221C21.599,39.296,20.759,38.456,19.32,38.456z M44.638,8.578
		c2.641,0,4.62,2.039,4.62,4.799c0,2.881-2.939,6.84-7.68,10.2h-1.68c-4.74-3.36-7.68-7.319-7.68-10.2
		c0-2.76,1.979-4.799,4.619-4.799c1.44,0,2.521,0.42,3.9,1.56C42.119,8.997,43.199,8.578,44.638,8.578z M47.159,13.437
		c0-1.62-1.08-2.82-2.641-2.82c-1.319,0-2.34,0.48-3.779,1.86c-1.44-1.38-2.46-1.86-3.78-1.86c-1.56,0-2.64,1.2-2.64,2.82
		c0,2.34,2.58,5.699,6.42,8.34C44.579,19.136,47.159,15.777,47.159,13.437z M40.739,38.456c-1.38,0-2.28,0.841-2.28,2.22
		c0,1.32,0.9,2.221,2.28,2.221s2.279-0.84,2.279-2.221C43.018,39.296,42.178,38.456,40.739,38.456z"/>
</g>
</svg>
