<?xml version="1.0" encoding="utf-8"?>
<!-- Generator: Adobe Illustrator 22.0.1, SVG Export Plug-In . SVG Version: 6.00 Build 0)  -->
<svg version="1.1" id="ICONS" xmlns="http://www.w3.org/2000/svg" x="0px"
	 y="0px"
	 viewBox="0 0 60 60" style="enable-background:new 0 0 60 60;" xml:space="preserve">
<g>
	<path d="M8.64,15.056c4.439,0,6.119,0.721,7.859,3.301l1.08,1.619c-0.6,0.36-1.32,0.84-1.74,1.2l-0.84-1.319
		c-1.38-2.1-2.819-2.76-6.359-2.76V15.056z M43.018,37.376c0-1.32-0.899-2.221-2.279-2.221s-2.28,0.9-2.28,2.221v1.139H21.599
		v-1.139c0-1.32-0.899-2.221-2.279-2.221s-2.28,0.9-2.28,2.221v1.139h-2.28c-2.34,0-4.02-1.799-4.02-4.199v-1.561
		c0-2.939,0.18-3.359,3.12-6.839c3-3.601,4.439-4.44,7.619-4.44h7.62c3.06,0,4.92,0.601,7.979,2.461l4.56,3.42l2.94,0.719
		c3.18,0.721,4.68,2.58,4.68,5.641c0,3-1.44,4.799-3.84,4.799h-2.4V37.376z M23.459,36.476h13.14c0.359-1.92,1.979-3.3,4.14-3.3
		s3.779,1.38,4.14,3.3c1.8,0,2.28-0.6,2.28-2.76c0-2.1-1.08-3.24-3.78-3.9l-2.939-0.72l-4.44-3.36
		c-2.159-1.619-4.02-2.219-6.899-2.219h-7.62c-2.46,0-3.359,0.6-6.119,3.899c-2.4,2.939-2.521,3.239-2.521,5.64v1.26
		c0,1.32,0.721,2.16,1.86,2.16h0.479c0.36-1.92,1.98-3.3,4.141-3.3C21.479,33.176,23.099,34.556,23.459,36.476z M19.32,49.195
		c-2.521,0-4.26-1.739-4.26-4.199c0-2.52,1.739-4.199,4.26-4.199c2.579,0,4.26,1.68,4.26,4.199S21.839,49.195,19.32,49.195z
		 M19.32,42.776c-1.38,0-2.28,0.84-2.28,2.22c0,1.32,0.9,2.22,2.28,2.22s2.279-0.84,2.279-2.22S20.759,42.776,19.32,42.776z
		 M40.739,49.195c-2.521,0-4.26-1.739-4.26-4.199c0-2.52,1.739-4.199,4.26-4.199c2.58,0,4.26,1.68,4.26,4.199
		S43.258,49.195,40.739,49.195z M40.739,42.776c-1.38,0-2.28,0.84-2.28,2.22c0,1.32,0.9,2.22,2.28,2.22s2.279-0.84,2.279-2.22
		S42.178,42.776,40.739,42.776z M45.659,18.117c1.739-2.1,3.479-3.12,5.22-3.12c1.02,0,1.859,0.24,2.699,0.78l-1.02,1.859
		c-0.6-0.359-1.14-0.539-1.68-0.539c-1.2,0-2.521,0.899-4.08,2.819l-4.38,5.28l-1.5-1.32L45.659,18.117z"/>
</g>
</svg>
