<?xml version="1.0" encoding="utf-8"?>
<!-- Generator: Adobe Illustrator 22.0.1, SVG Export Plug-In . SVG Version: 6.00 Build 0)  -->
<svg version="1.1" id="ICONS" xmlns="http://www.w3.org/2000/svg" x="0px"
	 y="0px"
	 viewBox="0 0 60 60" style="enable-background:new 0 0 60 60;" xml:space="preserve">
<g>
	<path d="M24.901,34.316c7.739,0,9.359-0.9,9.359-5.1v-0.6c0-4.2-1.62-5.1-9.359-5.1c-5.4,0-7.62,0.479-8.64,1.92
		c-0.78,0-1.68,0.18-2.64,0.539c0.84-3.42,3.6-4.5,11.279-4.5c8.699,0,11.279,1.381,11.52,6.42H49.32v2.04H36.42
		c-0.24,5.04-2.82,6.42-11.52,6.42c-0.601,0-1.2,0-1.74,0c-0.54,2.399-3.18,4.319-6.3,4.319c-3.899,0-6.6-2.64-6.6-6.42
		c0-4.079,2.76-6.898,6.84-6.898c0.66,0,1.32,0.06,1.92,0.18c0.3-0.24,0.72-0.42,1.2-0.42c1.08,0,1.68,0.6,1.68,1.68
		s-0.6,1.68-1.68,1.68c-0.66,0-1.261-0.359-1.5-0.9c-0.54-0.18-1.08-0.239-1.62-0.239c-2.94,0-4.8,1.92-4.8,4.919
		c0,2.641,1.8,4.44,4.56,4.44c1.98,0,3.66-1.08,4.08-2.46c-3.84-0.3-5.7-1.14-6.66-2.82c0.181-0.959,0.721-1.56,1.5-1.859
		C16.561,33.656,18.721,34.316,24.901,34.316z"/>
</g>
</svg>
