<?xml version="1.0" encoding="utf-8"?>
<!-- Generator: Adobe Illustrator 22.0.1, SVG Export Plug-In . SVG Version: 6.00 Build 0)  -->
<svg version="1.1" id="ICONS" xmlns="http://www.w3.org/2000/svg" x="0px"
	 y="0px"
	 viewBox="0 0 60 60" style="enable-background:new 0 0 60 60;" xml:space="preserve">
<g>
	<path d="M25.319,32.756l9.78,5.4c1.2-2.4,3.6-3.9,6.72-3.9c4.56,0,7.56,3,7.56,7.56c0,4.5-3,7.561-7.56,7.561
		c-4.5,0-7.56-3.061-7.56-7.561c0-0.539,0.06-1.079,0.12-1.619l-10.02-5.521c-1.32,1.801-3.479,2.88-6.18,2.88
		c-4.5,0-7.56-3.06-7.56-7.56s3.06-7.56,7.56-7.56c2.7,0,4.86,1.08,6.18,2.88l10.02-5.52c-0.06-0.48-0.12-1.08-0.12-1.62
		c0-4.5,3.06-7.56,7.56-7.56c4.56,0,7.56,3,7.56,7.56c0,4.5-3,7.56-7.56,7.56c-3.12,0-5.52-1.5-6.72-3.899l-9.78,5.399
		c0.3,0.84,0.42,1.74,0.42,2.76C25.739,31.017,25.559,31.916,25.319,32.756z M18.179,35.456c3.3,0,5.4-2.16,5.4-5.46
		s-2.1-5.46-5.4-5.46s-5.4,2.16-5.4,5.46S14.879,35.456,18.179,35.456z M41.818,23.637c3.3,0,5.4-2.16,5.4-5.46s-2.1-5.46-5.4-5.46
		s-5.4,2.16-5.4,5.46S38.518,23.637,41.818,23.637z M41.818,47.276c3.3,0,5.4-2.159,5.4-5.46c0-3.3-2.1-5.459-5.4-5.459
		s-5.4,2.159-5.4,5.459C36.418,45.117,38.518,47.276,41.818,47.276z"/>
</g>
</svg>
