<?xml version="1.0" encoding="utf-8"?>
<!-- Generator: Adobe Illustrator 22.0.1, SVG Export Plug-In . SVG Version: 6.00 Build 0)  -->
<svg version="1.1" id="ICONS" xmlns="http://www.w3.org/2000/svg" x="0px"
     y="0px"
     viewBox="0 0 60 60" style="enable-background:new 0 0 60 60;" xml:space="preserve">
<g>
	<path d="M27.84,19.437c-4.68,0.84-7.68,3.959-8.399,8.399h-10.8C9.601,16.796,16.8,9.597,27.84,8.637V19.437z M49.259,29.936
		c0,10.68-8.64,19.319-19.26,19.319c-10.619,0-19.199-8.64-19.199-19.319h2.041c0,9.479,7.68,17.22,17.158,17.22
		c9.42,0,17.1-7.74,17.1-17.22c0-9.419-7.68-17.099-17.1-17.099v-2.101C40.62,10.737,49.259,19.316,49.259,29.936z M11.162,25.796
		h6.6c1.08-3.9,4.199-7.02,7.979-7.979v-6.72C17.941,12.477,12.361,18.117,11.162,25.796z M29.999,21.357
		c4.74,0,8.58,3.899,8.58,8.639c0,4.74-3.84,8.641-8.58,8.641c-4.739,0-8.579-3.9-8.579-8.641
		C21.42,25.256,25.26,21.357,29.999,21.357z M29.999,23.396c-3.6,0-6.479,2.94-6.479,6.6c0,3.66,2.879,6.6,6.479,6.6
		c3.601,0,6.48-2.939,6.48-6.6C36.48,26.336,33.6,23.396,29.999,23.396z"/>
</g>
</svg>
