<?xml version="1.0" encoding="utf-8"?>
<!-- Generator: Adobe Illustrator 22.0.1, SVG Export Plug-In . SVG Version: 6.00 Build 0)  -->
<svg version="1.1" id="ICONS" xmlns="http://www.w3.org/2000/svg" x="0px"
	 y="0px"
	 viewBox="0 0 60 60" style="enable-background:new 0 0 60 60;" xml:space="preserve">
<g>
	<path d="M39.659,24.596c0,3.181-3.84,5.28-9.6,5.28s-9.6-2.1-9.6-5.28c0-3.18,3.84-5.28,9.6-5.28S39.659,21.416,39.659,24.596z
		 M39.659,29.096v2.28c-2.22,1.74-5.939,2.819-9.6,2.819s-7.38-1.079-9.6-2.819v-2.28c2.16,1.979,5.64,3.12,9.6,3.12
		S37.498,31.076,39.659,29.096z M20.459,36.116v-2.28c2.52,1.86,5.52,2.7,9.6,2.7s7.08-0.84,9.6-2.7v2.28
		c-2.58,1.56-5.819,2.399-9.6,2.399S23.039,37.675,20.459,36.116z M20.459,40.316v-2.28c2.52,1.86,5.52,2.7,9.6,2.7
		s7.08-0.84,9.6-2.7v2.28c-2.58,1.56-5.819,2.4-9.6,2.4S23.039,41.875,20.459,40.316z M22.62,24.596c0,1.92,3.119,3.3,7.439,3.3
		c4.319,0,7.439-1.38,7.439-3.3s-3.12-3.3-7.439-3.3C25.739,21.296,22.62,22.676,22.62,24.596z"/>
</g>
</svg>
