<?xml version="1.0" encoding="utf-8"?>
<!-- Generator: Adobe Illustrator 22.0.1, SVG Export Plug-In . SVG Version: 6.00 Build 0)  -->
<svg version="1.1" id="ICONS" xmlns="http://www.w3.org/2000/svg" x="0px"
     y="0px"
     viewBox="0 0 60 60" style="enable-background:new 0 0 60 60;" xml:space="preserve">
<g>
	<path d="M23.099,7.497c-3.18,0-6.06,1.68-7.619,4.5c-3.601,1.26-5.7,4.199-5.7,7.919c0,1.26,0.36,2.64,1.08,4.44l1.32,2.819
		l-1.08,0.54l-1.44-3.061c-0.72-1.799-1.08-3.299-1.08-4.739c0-4.02,2.221-7.2,6.061-8.76c1.92-3.06,4.859-4.8,8.459-4.8
		c0.96,0,2.101,0.24,3.36,0.78c1.199-0.42,2.22-0.66,3.239-0.66c3.72,0,6.6,2.04,8.58,6l1.02,2.04l-1.08,0.479l-1.02-2.1
		c-1.68-3.479-4.2-5.28-7.5-5.28c-1.199,0-2.399,0.24-3.239,0.66C25.08,7.737,24.12,7.497,23.099,7.497z M14.039,26.336l-1.439-3.06
		c-0.48-1.021-0.721-2.101-0.721-3.36c0-3.06,1.86-5.34,5.101-6.36c1.079-2.399,3.42-3.84,6.419-3.84c1.08,0,2.101,0.24,2.82,0.66
		c0.96-0.42,1.86-0.66,2.88-0.66c2.939,0,4.8,1.261,6.239,4.141l1.021,2.04l-1.86,0.84l-1.02-2.101c-0.9-1.92-2.34-2.879-4.38-2.879
		c-1.08,0-2.22,0.359-2.939,0.899c-0.78-0.6-1.681-0.899-2.761-0.899c-2.34,0-4.26,1.26-4.919,3.299c-2.88,0.721-4.5,2.461-4.5,4.86
		c0,1.021,0.18,1.92,0.54,2.7l1.319,2.82L14.039,26.336z M32.099,55.615l-2.34-4.92l-13.5-10.139c-1.02-0.721-1.68-1.92-1.68-2.94
		c0-1.86,1.5-3.42,3.36-3.42c0.84,0,1.68,0.3,2.52,0.96l3.12,2.34l-7.14-15.419c-0.301-0.601-0.42-1.14-0.42-1.74
		c0-1.8,1.5-3.3,3.42-3.3c0.18,0,0.42,0,0.659,0.061c0-1.801,1.5-3.24,3.3-3.24c1.2,0,2.101,0.48,2.761,1.5
		c0.479-0.96,1.439-1.5,2.64-1.5c1.5,0,2.46,0.66,3.18,2.16l4.5,9.659c0.66-0.66,1.56-1.021,2.58-1.021
		c1.439,0,2.64,0.9,3.479,2.641l1.68,3.42c1.92,3.959,2.64,6.479,2.64,8.879c0,0.721-0.18,1.681-0.539,3.24l-0.48,1.62l1.8,3.899
		l-1.92,0.961l-2.16-4.62l0.601-1.92c0.3-1.2,0.479-2.22,0.479-3.3c0-2.16-0.6-4.26-1.92-7.08l-2.159-4.439
		c-0.421-0.9-0.9-1.26-1.62-1.26c-0.66,0-1.2,0.359-1.62,1.08h-2.1l-5.101-10.92c-0.3-0.66-0.72-1.02-1.319-1.02
		c-0.78,0-1.44,0.539-1.44,1.26c0,0.299,0.061,0.539,0.24,0.899l4.74,10.2l-1.86,0.84l-5.7-12.18c-0.3-0.66-0.72-1.02-1.319-1.02
		c-0.78,0-1.44,0.539-1.44,1.26c0,0.299,0.061,0.539,0.24,0.899l5.1,11.04l-1.859,0.84l-4.62-9.84c-0.3-0.66-0.72-1.02-1.32-1.02
		c-0.779,0-1.439,0.539-1.439,1.26c0,0.3,0.06,0.539,0.24,0.899l8.819,19.14l-1.86,0.84l-6.3-4.5c-0.359-0.24-0.72-0.42-1.02-0.42
		c-0.78,0-1.32,0.48-1.32,1.32c0,0.6,0.24,0.959,1.021,1.56l13.799,10.319l2.46,5.34L32.099,55.615z"/>
</g>
</svg>
