<?xml version="1.0" encoding="utf-8"?>
<!-- Generator: Adobe Illustrator 22.0.1, SVG Export Plug-In . SVG Version: 6.00 Build 0)  -->
<svg version="1.1" id="ICONS" xmlns="http://www.w3.org/2000/svg" x="0px"
     y="0px"
     viewBox="0 0 60 60" style="enable-background:new 0 0 60 60;" xml:space="preserve">
<g>
	<path d="M12.779,25.796H6.42v-2.16h6.359V25.796z M15.479,17.097l-4.5-4.5l1.56-1.561l4.5,4.5L15.479,17.097z M17.039,33.896
		l-4.5,4.5l-1.56-1.561l4.5-4.5L17.039,33.896z M18.959,29.816c-1.2-1.32-1.8-3.06-1.8-5.16c0-4.559,2.94-7.439,7.5-7.439
		c2.16,0,3.84,0.601,5.16,1.801c-0.78,0.539-1.26,0.959-1.62,1.319c-0.84-0.72-2.1-1.08-3.54-1.08c-3.36,0-5.4,2.04-5.4,5.399
		c0,1.621,0.3,2.701,1.14,3.66C19.919,28.676,19.439,29.156,18.959,29.816z M27.599,42.896c-4.8,0-8.22-3.12-8.22-7.5
		c0-4.14,3.12-7.199,7.56-7.439c0.36-5.1,4.2-8.58,9.6-8.58c5.34,0,8.7,2.76,9,7.38c4.92,0.239,8.1,3.36,8.1,8.04
		c0,4.92-3.48,8.1-8.759,8.1H27.599z M51.598,34.796c0-3.961-3.06-6.24-8.1-6.061c0-4.979-2.22-7.319-6.959-7.319
		c-4.86,0-7.56,3-7.56,8.52c-4.74-0.18-7.56,1.86-7.56,5.46c0,3.18,2.52,5.4,6.18,5.4h17.279
		C48.838,40.796,51.598,38.335,51.598,34.796z M23.579,12.837v-6.36h2.16v6.36H23.579z M28.619,44.996l2.04,0.42l-1.44,6.42
		l-2.04-0.42L28.619,44.996z M32.279,15.537l4.5-4.5l1.56,1.561l-4.5,4.5L32.279,15.537z M35.398,44.996l2.04,0.42l-2.28,10.319
		l-2.04-0.42L35.398,44.996z M42.238,44.996l2.04,0.42l-1.44,6.42l-2.04-0.42L42.238,44.996z"/>
</g>
</svg>
