<?xml version="1.0" encoding="UTF-8"?>
<svg width="19px" height="16px" viewBox="0 0 19 16" version="1.1" xmlns="http://www.w3.org/2000/svg"
>
    <!-- Generator: Sketch 60.1 (88133) - https://sketch.com -->
    <title>Pad End</title>
    <desc>Created with Sketch.</desc>
    <g id="Icons" stroke="none" stroke-width="1" fill="none" fill-rule="evenodd">
        <g id="Icons---Groupe-Renault" transform="translate(-376.000000, -2610.000000)" fill="#000000">
            <path d="M394.382653,2610 L395,2610.86865 C391.352041,2613.1944 388.57398,2615.18389 385.122449,2617.98599 C388.57398,2620.81611 391.352041,2622.8056 395,2625.13135 L394.382653,2626 C390.482143,2623.45009 387.591837,2621.37653 384,2618.49037 L384,2617.50963 C387.479592,2614.70753 390.313776,2612.662 394.382653,2610 Z M386.382653,2610 L387,2610.86865 C383.352041,2613.1944 380.57398,2615.18389 377.122449,2617.98599 C380.57398,2620.81611 383.352041,2622.8056 387,2625.13135 L386.382653,2626 C382.482143,2623.45009 379.591837,2621.37653 376,2618.49037 L376,2617.50963 C379.479592,2614.70753 382.313776,2612.662 386.382653,2610 Z"
                  id="Pad-End"
                  transform="translate(385.500000, 2618.000000) scale(-1, 1) translate(-385.500000, -2618.000000) "></path>
        </g>
    </g>
</svg>